<?xml version="1.0" standalone="no"?>
<!DOCTYPE svg PUBLIC "-//W3C//DTD SVG 1.1//EN" "http://www.w3.org/Graphics/SVG/1.1/DTD/svg11.dtd" >
<svg xmlns="http://www.w3.org/2000/svg" xmlns:xlink="http://www.w3.org/1999/xlink" version="1.1">
<metadata>
Created by FontForge 20201107 at Thu Jun 16 14:10:58 2022
 By 
copyright missing
</metadata>
<defs>
<font id="Shubbak-Black" horiz-adv-x="0" >
  <font-face 
    font-family="Shubbak-Black"
    font-weight="900"
    font-stretch="normal"
    units-per-em="2048"
    panose-1="1 0 0 0 0 0 0 0 0 0"
    ascent="1638"
    descent="-410"
    x-height="1133"
    cap-height="1462"
    bbox="-245 -984 3293 2277"
    underline-thickness="102"
    underline-position="-255"
    unicode-range="U+0020-FEFC"
  />
<missing-glyph horiz-adv-x="1141" 
d="M150 0v1462h841v-1462h-841zM254 104h633v1254h-633v-1254z" />
    <glyph glyph-name="uniFDF2" unicode="&#x627;&#xfedf;&#xfee0;&#xfeea;" horiz-adv-x="3204" arabic-form="isolated" 
d="M593 0q-238 0 -363 115t-125 320q0 101 35 180.5t88.5 126t124.5 76.5t135.5 41t129.5 11q147 0 251 -27.5t224 -84.5v-424h236v936h412v-936h259v1128h413v-1462h-1820zM507 438q0 -44 32 -74t87 -30h65v205q-26 8 -55 8q-9 0 -16 -0.5t-30.5 -6t-39.5 -15.5
t-29.5 -32.5t-13.5 -54.5zM1195 1665l133 20l12 -82q6 -41 35 -49t53 14t17 55l1 -1l-13 77l133 20l12 -83q6 -41 35.5 -53.5t53 10t16.5 64.5l-13 76l133 19l19 -100q9 -52 -5.5 -96t-45.5 -70.5t-71 -41t-83 -11t-79 23.5q-48 -47 -118 -56.5t-131 30t-75 121.5z
M1395 1776v436h206v-436h-206zM2627 0v1462h407v-1462h-407z" />
    <glyph glyph-name="uni06440622" unicode="&#xfedf;&#xfe82;" horiz-adv-x="1376" arabic-form="isolated" 
d="M80 0v334h769v1128h407v-1462h-1176zM-6 1479l208 155q29 -27 79 -52t103 -25q104 0 206 81v-192q-92 -74 -216 -74q-86 0 -157 47l-120 -83zM157 1203h411l110 -738h-410z" />
    <glyph glyph-name="uni06440622.fina" unicode="&#xfee0;&#xfe82;" horiz-adv-x="1438" arabic-form="final" 
d="M80 0v334h769v1128h407v-1128h182q8 0 11 -7q9 -18 9 -160q0 -140 -5 -155q-4 -12 -15 -12h-1358zM-6 1479l208 155q29 -27 79 -52t103 -25q104 0 206 81v-192q-92 -74 -216 -74q-86 0 -157 47l-120 -83zM157 1203h411l110 -738h-410z" />
    <glyph glyph-name="uni06440623" unicode="&#xfedf;&#xfe84;" horiz-adv-x="1376" arabic-form="isolated" 
d="M80 0v334h769v1128h407v-1462h-1176zM79 1436q0 131 58.5 203t179.5 72h146v-172h-136q-23 0 -37 -14.5t-15 -37.5h233v-180h-419q-10 72 -10 129zM157 1203h411l110 -738h-410z" />
    <glyph glyph-name="uni06440623.fina" unicode="&#xfee0;&#xfe84;" horiz-adv-x="1438" arabic-form="final" 
d="M80 0v334h769v1128h407v-1128h182q8 0 11 -7q9 -18 9 -160q0 -140 -5 -155q-4 -12 -15 -12h-1358zM79 1436q0 131 58.5 203t179.5 72h146v-172h-136q-23 0 -37 -14.5t-15 -37.5h233v-180h-419q-10 72 -10 129zM157 1203h411l110 -738h-410z" />
    <glyph glyph-name="uni06440625" unicode="&#xfedf;&#xfe88;" horiz-adv-x="1376" arabic-form="isolated" 
d="M80 0v334h769v1128h407v-1462h-1176zM157 1203h411l110 -738h-410zM304 -399q0 131 58.5 203t179.5 72h146v-172h-136q-23 0 -37 -14.5t-15 -37.5h233v-180h-419q-10 72 -10 129z" />
    <glyph glyph-name="uni06440625.fina" unicode="&#xfee0;&#xfe88;" horiz-adv-x="1438" arabic-form="final" 
d="M80 0v334h769v1128h407v-1128h182q8 0 11 -7q9 -18 9 -160q0 -140 -5 -155q-4 -12 -15 -12h-1358zM157 1203h411l110 -738h-410zM304 -399q0 131 58.5 203t179.5 72h146v-172h-136q-23 0 -37 -14.5t-15 -37.5h233v-180h-419q-10 72 -10 129z" />
    <glyph glyph-name="uni06440627" unicode="&#xfedf;&#xfe8e;" horiz-adv-x="1376" arabic-form="isolated" 
d="M80 0v334h769v1128h407v-1462h-1176zM157 1203h411l110 -738h-410z" />
    <glyph glyph-name="uni06440627.fina" unicode="&#xfee0;&#xfe8e;" horiz-adv-x="1438" arabic-form="final" 
d="M80 0v334h769v1128h407v-1128h182q8 0 11 -7q9 -18 9 -160q0 -140 -5 -155q-4 -12 -15 -12h-1358zM157 1203h411l110 -738h-410z" />
    <glyph glyph-name="uni06440671" unicode="&#xfedf;&#xfb51;" horiz-adv-x="1376" 
d="M80 0v334h769v1128h407v-1462h-1176zM35 1399v114h60v186h140v-53q70 64 155 64q38 0 71.5 -14t59 -49.5t25.5 -87.5q0 -48 -22.5 -82t-57 -49.5t-65 -22t-58.5 -6.5h-308zM157 1203h411l110 -738h-410zM235 1513h86q12 0 28.5 2.5t36 12.5t19.5 27q0 18 -13 29.5
t-34 11.5q-31 0 -67.5 -23.5t-55.5 -59.5z" />
    <glyph glyph-name="uni06280631.fina" unicode="&#xfe92;&#xfeae;" horiz-adv-x="1345" 
d="M-70 -451v334h92q52 0 73.5 33t21.5 96v802q292 76 606 76q137 0 238 -28.5t159 -81t85.5 -119.5t27.5 -151v-176h112q7 0 11 -7q9 -18 9 -160q0 -140 -5 -155q-4 -12 -15 -12h-519v425q0 66 -42 98.5t-117 32.5q-62 0 -143 -12v-617q0 -125 -63.5 -211.5t-169.5 -126.5
t-246 -40h-115zM771 -525v325h375v-325h-375z" />
    <glyph glyph-name="uni06280632.fina" unicode="&#xfe92;&#xfeb0;" horiz-adv-x="1345" 
d="M-70 -451v334h92q52 0 73.5 33t21.5 96v802q292 76 606 76q137 0 238 -28.5t159 -81t85.5 -119.5t27.5 -151v-176h112q7 0 11 -7q9 -18 9 -160q0 -140 -5 -155q-4 -12 -15 -12h-519v425q0 66 -42 98.5t-117 32.5q-62 0 -143 -12v-617q0 -125 -63.5 -211.5t-169.5 -126.5
t-246 -40h-115zM113 1084v325h375v-325h-375zM771 -525v325h375v-325h-375z" />
    <glyph glyph-name="uni06280646.fina" unicode="&#xfe92;&#xfee6;" horiz-adv-x="2220" 
d="M787 -401q-173 0 -306.5 48t-217 133.5t-126 199t-42.5 250.5q0 118 34 269t87 294l384 -131q-41 -94 -69.5 -217.5t-28.5 -215.5q0 -155 62.5 -225.5t201.5 -70.5q117 0 171.5 50.5t54.5 166.5v664q292 76 606 76q137 0 238 -28.5t159 -81t85.5 -119.5t27.5 -151v-176
h112q8 0 11 -7q9 -18 9 -160q0 -140 -5 -155q-4 -12 -15 -12h-519v425q0 66 -42 98.5t-117 32.5q-62 0 -143 -12v-394q0 -118 -38.5 -217.5t-113.5 -174.5t-192.5 -117t-267.5 -42zM590 1039v325h375v-325h-375zM1570 -525v325h375v-325h-375z" />
    <glyph glyph-name="uni06280649.fina" unicode="&#xfe92;&#xfef0;" horiz-adv-x="2208" 
d="M654 -174q-270 0 -414.5 132.5t-144.5 361.5q0 43 18.5 156.5t41.5 188.5l388 -71q-42 -143 -42 -297q0 -29 4.5 -51.5t12 -36.5t18 -24.5t23 -15t26 -7t27.5 -2.5h28h14h326v654q292 76 606 76q137 0 238 -28.5t159 -81t85.5 -119.5t27.5 -151v-176h112q8 0 11 -7
q9 -18 9 -160q0 -140 -5 -155q-4 -12 -15 -12h-519v425q0 66 -42 98.5t-117 32.5q-62 0 -143 -12v-718h-733zM1580 -525v325h375v-325h-375z" />
    <glyph glyph-name="uni0628064A.fina" unicode="&#xfe92;&#xfef2;" horiz-adv-x="2208" 
d="M654 -174q-270 0 -414.5 132.5t-144.5 361.5q0 43 18.5 156.5t41.5 188.5l388 -71q-42 -143 -42 -297q0 -29 4.5 -51.5t12 -36.5t18 -24.5t23 -15t26 -7t27.5 -2.5h28h14h326v654q292 76 606 76q137 0 238 -28.5t159 -81t85.5 -119.5t27.5 -151v-176h112q8 0 11 -7
q9 -18 9 -160q0 -140 -5 -155q-4 -12 -15 -12h-519v425q0 66 -42 98.5t-117 32.5q-62 0 -143 -12v-718h-733zM319 -648v320h297v-320h-297zM702 -648v320h297v-320h-297zM1580 -525v325h375v-325h-375z" />
    <glyph glyph-name="uni06280626.fina" unicode="&#xfe92;&#xfe8a;" horiz-adv-x="2208" 
d="M654 -174q-270 0 -414.5 132.5t-144.5 361.5q0 43 18.5 156.5t41.5 188.5l388 -71q-42 -143 -42 -297q0 -29 4.5 -51.5t12 -36.5t18 -24.5t23 -15t26 -7t27.5 -2.5h28h14h326v654q292 76 606 76q137 0 238 -28.5t159 -81t85.5 -119.5t27.5 -151v-176h112q8 0 11 -7
q9 -18 9 -160q0 -140 -5 -155q-4 -12 -15 -12h-519v425q0 66 -42 98.5t-117 32.5q-62 0 -143 -12v-718h-733zM272 889q0 131 58.5 203t179.5 72h146v-172h-136q-23 0 -37 -14.5t-15 -37.5h233v-180h-419q-10 72 -10 129zM1580 -525v325h375v-325h-375z" />
    <glyph glyph-name="uni06440671.fina" unicode="&#xfee0;&#xfb51;" horiz-adv-x="1438" 
d="M80 0v334h769v1128h407v-1128h182q8 0 11 -7q9 -18 9 -160q0 -140 -5 -155q-4 -12 -15 -12h-1358zM35 1399v114h60v186h140v-53q70 64 155 64q38 0 71.5 -14t59 -49.5t25.5 -87.5q0 -48 -22.5 -82t-57 -49.5t-65 -22t-58.5 -6.5h-308zM157 1203h411l110 -738h-410z
M235 1513h86q12 0 28.5 2.5t36 12.5t19.5 27q0 18 -13 29.5t-34 11.5q-31 0 -67.5 -23.5t-55.5 -59.5z" />
    <glyph glyph-name="uni067E0631.fina" unicode="&#xfb59;&#xfeae;" horiz-adv-x="1345" 
d="M-70 -451v334h92q52 0 73.5 33t21.5 96v802q292 76 606 76q137 0 238 -28.5t159 -81t85.5 -119.5t27.5 -151v-176h112q7 0 11 -7q9 -18 9 -160q0 -140 -5 -155q-4 -12 -15 -12h-519v425q0 66 -42 98.5t-117 32.5q-62 0 -143 -12v-617q0 -125 -63.5 -211.5t-169.5 -126.5
t-246 -40h-115zM610 -488v289h303v-289h-303zM800 -825v267h309v-267h-309zM1000 -488v289h303v-289h-303z" />
    <glyph glyph-name="uni067E0632.fina" unicode="&#xfb59;&#xfeb0;" horiz-adv-x="1345" 
d="M-70 -451v334h92q52 0 73.5 33t21.5 96v802q292 76 606 76q137 0 238 -28.5t159 -81t85.5 -119.5t27.5 -151v-176h112q7 0 11 -7q9 -18 9 -160q0 -140 -5 -155q-4 -12 -15 -12h-519v425q0 66 -42 98.5t-117 32.5q-62 0 -143 -12v-617q0 -125 -63.5 -211.5t-169.5 -126.5
t-246 -40h-115zM113 1084v325h375v-325h-375zM610 -488v289h303v-289h-303zM800 -825v267h309v-267h-309zM1000 -488v289h303v-289h-303z" />
    <glyph glyph-name="uni067E0646.fina" unicode="&#xfb59;&#xfee6;" horiz-adv-x="2220" 
d="M787 -401q-173 0 -306.5 48t-217 133.5t-126 199t-42.5 250.5q0 118 34 269t87 294l384 -131q-41 -94 -69.5 -217.5t-28.5 -215.5q0 -155 62.5 -225.5t201.5 -70.5q117 0 171.5 50.5t54.5 166.5v664q292 76 606 76q137 0 238 -28.5t159 -81t85.5 -119.5t27.5 -151v-176
h112q8 0 11 -7q9 -18 9 -160q0 -140 -5 -155q-4 -12 -15 -12h-519v425q0 66 -42 98.5t-117 32.5q-62 0 -143 -12v-394q0 -118 -38.5 -217.5t-113.5 -174.5t-192.5 -117t-267.5 -42zM590 1039v325h375v-325h-375zM1409 -488v289h303v-289h-303zM1599 -825v267h309v-267h-309z
M1799 -488v289h303v-289h-303z" />
    <glyph glyph-name="uni067E0649.fina" unicode="&#xfb59;&#xfef0;" horiz-adv-x="2208" 
d="M654 -174q-270 0 -414.5 132.5t-144.5 361.5q0 43 18.5 156.5t41.5 188.5l388 -71q-42 -143 -42 -297q0 -29 4.5 -51.5t12 -36.5t18 -24.5t23 -15t26 -7t27.5 -2.5h28h14h326v654q292 76 606 76q137 0 238 -28.5t159 -81t85.5 -119.5t27.5 -151v-176h112q8 0 11 -7
q9 -18 9 -160q0 -140 -5 -155q-4 -12 -15 -12h-519v425q0 66 -42 98.5t-117 32.5q-62 0 -143 -12v-718h-733zM1419 -488v289h303v-289h-303zM1609 -825v267h309v-267h-309zM1809 -488v289h303v-289h-303z" />
    <glyph glyph-name="uni067E064A.fina" unicode="&#xfb59;&#xfef2;" horiz-adv-x="2208" 
d="M654 -174q-270 0 -414.5 132.5t-144.5 361.5q0 43 18.5 156.5t41.5 188.5l388 -71q-42 -143 -42 -297q0 -29 4.5 -51.5t12 -36.5t18 -24.5t23 -15t26 -7t27.5 -2.5h28h14h326v654q292 76 606 76q137 0 238 -28.5t159 -81t85.5 -119.5t27.5 -151v-176h112q8 0 11 -7
q9 -18 9 -160q0 -140 -5 -155q-4 -12 -15 -12h-519v425q0 66 -42 98.5t-117 32.5q-62 0 -143 -12v-718h-733zM319 -648v320h297v-320h-297zM702 -648v320h297v-320h-297zM1419 -488v289h303v-289h-303zM1609 -825v267h309v-267h-309zM1809 -488v289h303v-289h-303z" />
    <glyph glyph-name="uni067E0626.fina" unicode="&#xfb59;&#xfe8a;" horiz-adv-x="2208" 
d="M654 -174q-270 0 -414.5 132.5t-144.5 361.5q0 43 18.5 156.5t41.5 188.5l388 -71q-42 -143 -42 -297q0 -29 4.5 -51.5t12 -36.5t18 -24.5t23 -15t26 -7t27.5 -2.5h28h14h326v654q292 76 606 76q137 0 238 -28.5t159 -81t85.5 -119.5t27.5 -151v-176h112q8 0 11 -7
q9 -18 9 -160q0 -140 -5 -155q-4 -12 -15 -12h-519v425q0 66 -42 98.5t-117 32.5q-62 0 -143 -12v-718h-733zM272 889q0 131 58.5 203t179.5 72h146v-172h-136q-23 0 -37 -14.5t-15 -37.5h233v-180h-419q-10 72 -10 129zM1419 -488v289h303v-289h-303zM1609 -825v267h309
v-267h-309zM1809 -488v289h303v-289h-303z" />
    <glyph glyph-name="uni062A0631.fina" unicode="&#xfe98;&#xfeae;" horiz-adv-x="1345" 
d="M-70 -451v334h92q52 0 73.5 33t21.5 96v802q292 76 606 76q137 0 238 -28.5t159 -81t85.5 -119.5t27.5 -151v-176h112q7 0 11 -7q9 -18 9 -160q0 -140 -5 -155q-4 -12 -15 -12h-519v425q0 66 -42 98.5t-117 32.5q-62 0 -143 -12v-617q0 -125 -63.5 -211.5t-169.5 -126.5
t-246 -40h-115zM604 1082v320h297v-320h-297zM987 1082v320h297v-320h-297z" />
    <glyph glyph-name="uni062A0646.fina" unicode="&#xfe98;&#xfee6;" horiz-adv-x="2220" 
d="M787 -401q-173 0 -306.5 48t-217 133.5t-126 199t-42.5 250.5q0 118 34 269t87 294l384 -131q-41 -94 -69.5 -217.5t-28.5 -215.5q0 -155 62.5 -225.5t201.5 -70.5q117 0 171.5 50.5t54.5 166.5v664q292 76 606 76q137 0 238 -28.5t159 -81t85.5 -119.5t27.5 -151v-176
h112q8 0 11 -7q9 -18 9 -160q0 -140 -5 -155q-4 -12 -15 -12h-519v425q0 66 -42 98.5t-117 32.5q-62 0 -143 -12v-394q0 -118 -38.5 -217.5t-113.5 -174.5t-192.5 -117t-267.5 -42zM590 1039v325h375v-325h-375zM1351 1082v320h297v-320h-297zM1734 1082v320h297v-320h-297z
" />
    <glyph glyph-name="uni062A0649.fina" unicode="&#xfe98;&#xfef0;" horiz-adv-x="2208" 
d="M654 -174q-270 0 -414.5 132.5t-144.5 361.5q0 43 18.5 156.5t41.5 188.5l388 -71q-42 -143 -42 -297q0 -29 4.5 -51.5t12 -36.5t18 -24.5t23 -15t26 -7t27.5 -2.5h28h14h326v654q292 76 606 76q137 0 238 -28.5t159 -81t85.5 -119.5t27.5 -151v-176h112q8 0 11 -7
q9 -18 9 -160q0 -140 -5 -155q-4 -12 -15 -12h-519v425q0 66 -42 98.5t-117 32.5q-62 0 -143 -12v-718h-733zM1361 1082v320h297v-320h-297zM1744 1082v320h297v-320h-297z" />
    <glyph glyph-name="uni062A064A.fina" unicode="&#xfe98;&#xfef2;" horiz-adv-x="2208" 
d="M654 -174q-270 0 -414.5 132.5t-144.5 361.5q0 43 18.5 156.5t41.5 188.5l388 -71q-42 -143 -42 -297q0 -29 4.5 -51.5t12 -36.5t18 -24.5t23 -15t26 -7t27.5 -2.5h28h14h326v654q292 76 606 76q137 0 238 -28.5t159 -81t85.5 -119.5t27.5 -151v-176h112q8 0 11 -7
q9 -18 9 -160q0 -140 -5 -155q-4 -12 -15 -12h-519v425q0 66 -42 98.5t-117 32.5q-62 0 -143 -12v-718h-733zM319 -648v320h297v-320h-297zM702 -648v320h297v-320h-297zM1361 1082v320h297v-320h-297zM1744 1082v320h297v-320h-297z" />
    <glyph glyph-name="uni062A0626.fina" unicode="&#xfe98;&#xfe8a;" horiz-adv-x="2208" 
d="M654 -174q-270 0 -414.5 132.5t-144.5 361.5q0 43 18.5 156.5t41.5 188.5l388 -71q-42 -143 -42 -297q0 -29 4.5 -51.5t12 -36.5t18 -24.5t23 -15t26 -7t27.5 -2.5h28h14h326v654q292 76 606 76q137 0 238 -28.5t159 -81t85.5 -119.5t27.5 -151v-176h112q8 0 11 -7
q9 -18 9 -160q0 -140 -5 -155q-4 -12 -15 -12h-519v425q0 66 -42 98.5t-117 32.5q-62 0 -143 -12v-718h-733zM272 889q0 131 58.5 203t179.5 72h146v-172h-136q-23 0 -37 -14.5t-15 -37.5h233v-180h-419q-10 72 -10 129zM1361 1082v320h297v-320h-297zM1744 1082v320h297
v-320h-297z" />
    <glyph glyph-name="uni062B0631.fina" unicode="&#xfe9c;&#xfeae;" horiz-adv-x="1345" 
d="M-70 -451v334h92q52 0 73.5 33t21.5 96v802q292 76 606 76q137 0 238 -28.5t159 -81t85.5 -119.5t27.5 -151v-176h112q7 0 11 -7q9 -18 9 -160q0 -140 -5 -155q-4 -12 -15 -12h-519v425q0 66 -42 98.5t-117 32.5q-62 0 -143 -12v-617q0 -125 -63.5 -211.5t-169.5 -126.5
t-246 -40h-115zM598 1085v289h303v-289h-303zM788 1444v267h309v-267h-309zM988 1085v289h303v-289h-303z" />
    <glyph glyph-name="uni062B0646.fina" unicode="&#xfe9c;&#xfee6;" horiz-adv-x="2220" 
d="M787 -401q-173 0 -306.5 48t-217 133.5t-126 199t-42.5 250.5q0 118 34 269t87 294l384 -131q-41 -94 -69.5 -217.5t-28.5 -215.5q0 -155 62.5 -225.5t201.5 -70.5q117 0 171.5 50.5t54.5 166.5v664q292 76 606 76q137 0 238 -28.5t159 -81t85.5 -119.5t27.5 -151v-176
h112q8 0 11 -7q9 -18 9 -160q0 -140 -5 -155q-4 -12 -15 -12h-519v425q0 66 -42 98.5t-117 32.5q-62 0 -143 -12v-394q0 -118 -38.5 -217.5t-113.5 -174.5t-192.5 -117t-267.5 -42zM590 1039v325h375v-325h-375zM1345 1085v289h303v-289h-303zM1535 1444v267h309v-267h-309z
M1735 1085v289h303v-289h-303z" />
    <glyph glyph-name="uni062B0649.fina" unicode="&#xfe9c;&#xfef0;" horiz-adv-x="2208" 
d="M654 -174q-270 0 -414.5 132.5t-144.5 361.5q0 43 18.5 156.5t41.5 188.5l388 -71q-42 -143 -42 -297q0 -29 4.5 -51.5t12 -36.5t18 -24.5t23 -15t26 -7t27.5 -2.5h28h14h326v654q292 76 606 76q137 0 238 -28.5t159 -81t85.5 -119.5t27.5 -151v-176h112q8 0 11 -7
q9 -18 9 -160q0 -140 -5 -155q-4 -12 -15 -12h-519v425q0 66 -42 98.5t-117 32.5q-62 0 -143 -12v-718h-733zM1355 1085v289h303v-289h-303zM1545 1444v267h309v-267h-309zM1745 1085v289h303v-289h-303z" />
    <glyph glyph-name="uni062B064A.fina" unicode="&#xfe9c;&#xfef2;" horiz-adv-x="2208" 
d="M654 -174q-270 0 -414.5 132.5t-144.5 361.5q0 43 18.5 156.5t41.5 188.5l388 -71q-42 -143 -42 -297q0 -29 4.5 -51.5t12 -36.5t18 -24.5t23 -15t26 -7t27.5 -2.5h28h14h326v654q292 76 606 76q137 0 238 -28.5t159 -81t85.5 -119.5t27.5 -151v-176h112q8 0 11 -7
q9 -18 9 -160q0 -140 -5 -155q-4 -12 -15 -12h-519v425q0 66 -42 98.5t-117 32.5q-62 0 -143 -12v-718h-733zM319 -648v320h297v-320h-297zM702 -648v320h297v-320h-297zM1355 1085v289h303v-289h-303zM1545 1444v267h309v-267h-309zM1745 1085v289h303v-289h-303z" />
    <glyph glyph-name="uni062B0626.fina" unicode="&#xfe9c;&#xfe8a;" horiz-adv-x="2208" 
d="M654 -174q-270 0 -414.5 132.5t-144.5 361.5q0 43 18.5 156.5t41.5 188.5l388 -71q-42 -143 -42 -297q0 -29 4.5 -51.5t12 -36.5t18 -24.5t23 -15t26 -7t27.5 -2.5h28h14h326v654q292 76 606 76q137 0 238 -28.5t159 -81t85.5 -119.5t27.5 -151v-176h112q8 0 11 -7
q9 -18 9 -160q0 -140 -5 -155q-4 -12 -15 -12h-519v425q0 66 -42 98.5t-117 32.5q-62 0 -143 -12v-718h-733zM272 889q0 131 58.5 203t179.5 72h146v-172h-136q-23 0 -37 -14.5t-15 -37.5h233v-180h-419q-10 72 -10 129zM1355 1085v289h303v-289h-303zM1545 1444v267h309
v-267h-309zM1745 1085v289h303v-289h-303z" />
    <glyph glyph-name="uni06330631" unicode="&#xfeb3;&#xfeae;" horiz-adv-x="2407" 
d="M756 0v425q0 66 -42 98.5t-117 32.5q-28 0 -73 -8v-621q0 -125 -63.5 -211.5t-169.5 -126.5t-246 -40h-115v334h92q52 0 73.5 33t21.5 96v802q292 76 536 76q137 0 238 -28.5t159 -81t85.5 -119.5t27.5 -151v-176h58q51 0 74.5 28t23.5 92v416h407v-437l-1 -30h1
q0 -114 78 -114q42 0 59 31t17 112v438h407v-438q0 -228 -121 -352.5t-353 -124.5q-192 0 -303 103q-108 -58 -251 -58h-503z" />
    <glyph glyph-name="uni06330631.fina" unicode="&#xfeb4;&#xfeae;" horiz-adv-x="2411" 
d="M2338 0q-94 0 -207 49q-119 -94 -318 -94q-192 0 -303 103q-108 -58 -251 -58h-503v425q0 66 -42 98.5t-117 32.5q-28 0 -73 -8v-621q0 -125 -63.5 -211.5t-169.5 -126.5t-246 -40h-115v334h92q52 0 73.5 33t21.5 96v802q292 76 536 76q137 0 238 -28.5t159 -81
t85.5 -119.5t27.5 -151v-176h58q51 0 74.5 28t23.5 92v416h407v-437l-1 -30h1q0 -114 78 -114q42 0 59 31t17 112v438h407v-438q0 -43 -5 -90q27 -8 56 -8h73q7 0 11 -7q9 -18 9 -160q0 -140 -5 -155q-4 -12 -15 -12h-73z" />
    <glyph glyph-name="uni06330649" unicode="&#xfeb3;&#xfef0;" horiz-adv-x="3270" 
d="M654 -174q-270 0 -414.5 132.5t-144.5 361.5q0 43 18.5 156.5t41.5 188.5l388 -71q-42 -143 -42 -297q0 -29 4.5 -51.5t12 -36.5t18 -24.5t23 -15t26 -7t27.5 -2.5h28h14h326v654q292 76 536 76q137 0 238 -28.5t159 -81t85.5 -119.5t27.5 -151v-176h58q51 0 74.5 28
t23.5 92v416h407v-437l-1 -30h1q0 -114 78 -114q42 0 59 31t17 112v438h407v-438q0 -228 -121 -352.5t-353 -124.5q-192 0 -303 103q-108 -58 -251 -58h-503v425q0 66 -42 98.5t-117 32.5q-28 0 -73 -8v-722h-733z" />
    <glyph glyph-name="uni06330649.fina" unicode="&#xfeb4;&#xfef0;" horiz-adv-x="3273" 
d="M3200 0q-93 0 -206 48q-119 -93 -318 -93q-192 0 -303 103q-108 -58 -251 -58h-503v425q0 66 -42 98.5t-117 32.5q-28 0 -73 -8v-722h-733q-270 0 -414.5 132.5t-144.5 361.5q0 43 18.5 156.5t41.5 188.5l388 -71q-42 -143 -42 -297q0 -29 4.5 -51.5t12 -36.5t18 -24.5
t23 -15t26 -7t27.5 -2.5h28h14h326v654q292 76 536 76q137 0 238 -28.5t159 -81t85.5 -119.5t27.5 -151v-176h58q51 0 74.5 28t23.5 92v416h407v-437l-1 -30h1q0 -114 78 -114q42 0 59 31t17 112v438h407v-438q0 -43 -5 -90q27 -8 55 -8h73q7 0 11 -7q9 -18 9 -160
q0 -140 -5 -155q-4 -12 -15 -12h-73z" />
    <glyph glyph-name="uni0633064A" unicode="&#xfeb3;&#xfef2;" horiz-adv-x="3270" 
d="M654 -174q-270 0 -414.5 132.5t-144.5 361.5q0 43 18.5 156.5t41.5 188.5l388 -71q-42 -143 -42 -297q0 -29 4.5 -51.5t12 -36.5t18 -24.5t23 -15t26 -7t27.5 -2.5h28h14h326v654q292 76 536 76q137 0 238 -28.5t159 -81t85.5 -119.5t27.5 -151v-176h58q51 0 74.5 28
t23.5 92v416h407v-437l-1 -30h1q0 -114 78 -114q42 0 59 31t17 112v438h407v-438q0 -228 -121 -352.5t-353 -124.5q-192 0 -303 103q-108 -58 -251 -58h-503v425q0 66 -42 98.5t-117 32.5q-28 0 -73 -8v-722h-733zM641 -648v320h297v-320h-297zM1024 -648v320h297v-320h-297
z" />
    <glyph glyph-name="uni0633064A.fina" unicode="&#xfeb4;&#xfef2;" horiz-adv-x="3273" 
d="M3200 0q-93 0 -206 48q-119 -93 -318 -93q-192 0 -303 103q-108 -58 -251 -58h-503v425q0 66 -42 98.5t-117 32.5q-28 0 -73 -8v-722h-733q-270 0 -414.5 132.5t-144.5 361.5q0 43 18.5 156.5t41.5 188.5l388 -71q-42 -143 -42 -297q0 -29 4.5 -51.5t12 -36.5t18 -24.5
t23 -15t26 -7t27.5 -2.5h28h14h326v654q292 76 536 76q137 0 238 -28.5t159 -81t85.5 -119.5t27.5 -151v-176h58q51 0 74.5 28t23.5 92v416h407v-437l-1 -30h1q0 -114 78 -114q42 0 59 31t17 112v438h407v-438q0 -43 -5 -90q27 -8 55 -8h73q7 0 11 -7q9 -18 9 -160
q0 -140 -5 -155q-4 -12 -15 -12h-73zM641 -648v320h297v-320h-297zM1024 -648v320h297v-320h-297z" />
    <glyph glyph-name="uni06330632" unicode="&#xfeb3;&#xfeb0;" horiz-adv-x="2407" 
d="M756 0v425q0 66 -42 98.5t-117 32.5q-28 0 -73 -8v-621q0 -125 -63.5 -211.5t-169.5 -126.5t-246 -40h-115v334h92q52 0 73.5 33t21.5 96v802q292 76 536 76q137 0 238 -28.5t159 -81t85.5 -119.5t27.5 -151v-176h58q51 0 74.5 28t23.5 92v416h407v-437l-1 -30h1
q0 -114 78 -114q42 0 59 31t17 112v438h407v-438q0 -228 -121 -352.5t-353 -124.5q-192 0 -303 103q-108 -58 -251 -58h-503zM113 1084v325h375v-325h-375z" />
    <glyph glyph-name="uni06330632.fina" unicode="&#xfeb4;&#xfeb0;" horiz-adv-x="2411" 
d="M2338 0q-94 0 -207 49q-119 -94 -318 -94q-192 0 -303 103q-108 -58 -251 -58h-503v425q0 66 -42 98.5t-117 32.5q-28 0 -73 -8v-621q0 -125 -63.5 -211.5t-169.5 -126.5t-246 -40h-115v334h92q52 0 73.5 33t21.5 96v802q292 76 536 76q137 0 238 -28.5t159 -81
t85.5 -119.5t27.5 -151v-176h58q51 0 74.5 28t23.5 92v416h407v-437l-1 -30h1q0 -114 78 -114q42 0 59 31t17 112v438h407v-438q0 -43 -5 -90q27 -8 56 -8h73q7 0 11 -7q9 -18 9 -160q0 -140 -5 -155q-4 -12 -15 -12h-73zM113 1084v325h375v-325h-375z" />
    <glyph glyph-name="uni06330626" unicode="&#xfeb3;&#xfe8a;" horiz-adv-x="3273" 
d="M3200 0q-93 0 -206 48q-119 -93 -318 -93q-192 0 -303 103q-108 -58 -251 -58h-503v425q0 66 -42 98.5t-117 32.5q-28 0 -73 -8v-722h-733q-270 0 -414.5 132.5t-144.5 361.5q0 43 18.5 156.5t41.5 188.5l388 -71q-42 -143 -42 -297q0 -29 4.5 -51.5t12 -36.5t18 -24.5
t23 -15t26 -7t27.5 -2.5h28h14h326v654q292 76 536 76q137 0 238 -28.5t159 -81t85.5 -119.5t27.5 -151v-176h58q51 0 74.5 28t23.5 92v416h407v-437l-1 -30h1q0 -114 78 -114q42 0 59 31t17 112v438h407v-438q0 -43 -5 -90q27 -8 55 -8h73q7 0 11 -7q9 -18 9 -160
q0 -140 -5 -155q-4 -12 -15 -12h-73zM254 889q0 131 58.5 203t179.5 72h146v-172h-136q-23 0 -37 -14.5t-15 -37.5h233v-180h-419q-10 72 -10 129z" />
    <glyph glyph-name="uni06330626.fina" unicode="&#xfeb4;&#xfe8a;" horiz-adv-x="3273" 
d="M3200 0q-93 0 -206 48q-119 -93 -318 -93q-192 0 -303 103q-108 -58 -251 -58h-503v425q0 66 -42 98.5t-117 32.5q-28 0 -73 -8v-722h-733q-270 0 -414.5 132.5t-144.5 361.5q0 43 18.5 156.5t41.5 188.5l388 -71q-42 -143 -42 -297q0 -29 4.5 -51.5t12 -36.5t18 -24.5
t23 -15t26 -7t27.5 -2.5h28h14h326v654q292 76 536 76q137 0 238 -28.5t159 -81t85.5 -119.5t27.5 -151v-176h58q51 0 74.5 28t23.5 92v416h407v-437l-1 -30h1q0 -114 78 -114q42 0 59 31t17 112v438h407v-438q0 -43 -5 -90q27 -8 55 -8h73q7 0 11 -7q9 -18 9 -160
q0 -140 -5 -155q-4 -12 -15 -12h-73zM254 889q0 131 58.5 203t179.5 72h146v-172h-136q-23 0 -37 -14.5t-15 -37.5h233v-180h-419q-10 72 -10 129z" />
    <glyph glyph-name="uni06340631" unicode="&#xfeb7;&#xfeae;" horiz-adv-x="2407" 
d="M756 0v425q0 66 -42 98.5t-117 32.5q-28 0 -73 -8v-621q0 -125 -63.5 -211.5t-169.5 -126.5t-246 -40h-115v334h92q52 0 73.5 33t21.5 96v802q292 76 536 76q137 0 238 -28.5t159 -81t85.5 -119.5t27.5 -151v-176h58q51 0 74.5 28t23.5 92v416h407v-437l-1 -30h1
q0 -114 78 -114q42 0 59 31t17 112v438h407v-438q0 -228 -121 -352.5t-353 -124.5q-192 0 -303 103q-108 -58 -251 -58h-503zM1206 1040v289h303v-289h-303zM1396 1399v267h309v-267h-309zM1596 1040v289h303v-289h-303z" />
    <glyph glyph-name="uni06340631.fina" unicode="&#xfeb8;&#xfeae;" horiz-adv-x="2411" 
d="M2338 0q-94 0 -207 49q-119 -94 -318 -94q-192 0 -303 103q-108 -58 -251 -58h-503v425q0 66 -42 98.5t-117 32.5q-28 0 -73 -8v-621q0 -125 -63.5 -211.5t-169.5 -126.5t-246 -40h-115v334h92q52 0 73.5 33t21.5 96v802q292 76 536 76q137 0 238 -28.5t159 -81
t85.5 -119.5t27.5 -151v-176h58q51 0 74.5 28t23.5 92v416h407v-437l-1 -30h1q0 -114 78 -114q42 0 59 31t17 112v438h407v-438q0 -43 -5 -90q27 -8 56 -8h73q7 0 11 -7q9 -18 9 -160q0 -140 -5 -155q-4 -12 -15 -12h-73zM1206 1040v289h303v-289h-303zM1396 1399v267h309
v-267h-309zM1596 1040v289h303v-289h-303z" />
    <glyph glyph-name="uni06340632" unicode="&#xfeb7;&#xfeb0;" horiz-adv-x="2407" 
d="M756 0v425q0 66 -42 98.5t-117 32.5q-28 0 -73 -8v-621q0 -125 -63.5 -211.5t-169.5 -126.5t-246 -40h-115v334h92q52 0 73.5 33t21.5 96v802q292 76 536 76q137 0 238 -28.5t159 -81t85.5 -119.5t27.5 -151v-176h58q51 0 74.5 28t23.5 92v416h407v-437l-1 -30h1
q0 -114 78 -114q42 0 59 31t17 112v438h407v-438q0 -228 -121 -352.5t-353 -124.5q-192 0 -303 103q-108 -58 -251 -58h-503zM113 1084v325h375v-325h-375zM1206 1040v289h303v-289h-303zM1396 1399v267h309v-267h-309zM1596 1040v289h303v-289h-303z" />
    <glyph glyph-name="uni06340632.fina" unicode="&#xfeb8;&#xfeb0;" horiz-adv-x="2411" 
d="M2338 0q-94 0 -207 49q-119 -94 -318 -94q-192 0 -303 103q-108 -58 -251 -58h-503v425q0 66 -42 98.5t-117 32.5q-28 0 -73 -8v-621q0 -125 -63.5 -211.5t-169.5 -126.5t-246 -40h-115v334h92q52 0 73.5 33t21.5 96v802q292 76 536 76q137 0 238 -28.5t159 -81
t85.5 -119.5t27.5 -151v-176h58q51 0 74.5 28t23.5 92v416h407v-437l-1 -30h1q0 -114 78 -114q42 0 59 31t17 112v438h407v-438q0 -43 -5 -90q27 -8 56 -8h73q7 0 11 -7q9 -18 9 -160q0 -140 -5 -155q-4 -12 -15 -12h-73zM113 1084v325h375v-325h-375zM1206 1040v289h303
v-289h-303zM1396 1399v267h309v-267h-309zM1596 1040v289h303v-289h-303z" />
    <glyph glyph-name="uni06340649" unicode="&#xfeb7;&#xfef0;" horiz-adv-x="3270" 
d="M654 -174q-270 0 -414.5 132.5t-144.5 361.5q0 43 18.5 156.5t41.5 188.5l388 -71q-42 -143 -42 -297q0 -29 4.5 -51.5t12 -36.5t18 -24.5t23 -15t26 -7t27.5 -2.5h28h14h326v654q292 76 536 76q137 0 238 -28.5t159 -81t85.5 -119.5t27.5 -151v-176h58q51 0 74.5 28
t23.5 92v416h407v-437l-1 -30h1q0 -114 78 -114q42 0 59 31t17 112v438h407v-438q0 -228 -121 -352.5t-353 -124.5q-192 0 -303 103q-108 -58 -251 -58h-503v425q0 66 -42 98.5t-117 32.5q-28 0 -73 -8v-722h-733zM2069 1040v289h303v-289h-303zM2259 1399v267h309v-267
h-309zM2459 1040v289h303v-289h-303z" />
    <glyph glyph-name="uni06340649.fina" unicode="&#xfeb8;&#xfef0;" horiz-adv-x="3273" 
d="M3200 0q-93 0 -206 48q-119 -93 -318 -93q-192 0 -303 103q-108 -58 -251 -58h-503v425q0 66 -42 98.5t-117 32.5q-28 0 -73 -8v-722h-733q-270 0 -414.5 132.5t-144.5 361.5q0 43 18.5 156.5t41.5 188.5l388 -71q-42 -143 -42 -297q0 -29 4.5 -51.5t12 -36.5t18 -24.5
t23 -15t26 -7t27.5 -2.5h28h14h326v654q292 76 536 76q137 0 238 -28.5t159 -81t85.5 -119.5t27.5 -151v-176h58q51 0 74.5 28t23.5 92v416h407v-437l-1 -30h1q0 -114 78 -114q42 0 59 31t17 112v438h407v-438q0 -43 -5 -90q27 -8 55 -8h73q7 0 11 -7q9 -18 9 -160
q0 -140 -5 -155q-4 -12 -15 -12h-73zM2069 1040v289h303v-289h-303zM2259 1399v267h309v-267h-309zM2459 1040v289h303v-289h-303z" />
    <glyph glyph-name="uni0634064A" unicode="&#xfeb7;&#xfef2;" horiz-adv-x="3270" 
d="M654 -174q-270 0 -414.5 132.5t-144.5 361.5q0 43 18.5 156.5t41.5 188.5l388 -71q-42 -143 -42 -297q0 -29 4.5 -51.5t12 -36.5t18 -24.5t23 -15t26 -7t27.5 -2.5h28h14h326v654q292 76 536 76q137 0 238 -28.5t159 -81t85.5 -119.5t27.5 -151v-176h58q51 0 74.5 28
t23.5 92v416h407v-437l-1 -30h1q0 -114 78 -114q42 0 59 31t17 112v438h407v-438q0 -228 -121 -352.5t-353 -124.5q-192 0 -303 103q-108 -58 -251 -58h-503v425q0 66 -42 98.5t-117 32.5q-28 0 -73 -8v-722h-733zM641 -648v320h297v-320h-297zM1024 -648v320h297v-320h-297
zM2069 1040v289h303v-289h-303zM2259 1399v267h309v-267h-309zM2459 1040v289h303v-289h-303z" />
    <glyph glyph-name="uni0634064A.fina" unicode="&#xfeb8;&#xfef2;" horiz-adv-x="3273" 
d="M3200 0q-93 0 -206 48q-119 -93 -318 -93q-192 0 -303 103q-108 -58 -251 -58h-503v425q0 66 -42 98.5t-117 32.5q-28 0 -73 -8v-722h-733q-270 0 -414.5 132.5t-144.5 361.5q0 43 18.5 156.5t41.5 188.5l388 -71q-42 -143 -42 -297q0 -29 4.5 -51.5t12 -36.5t18 -24.5
t23 -15t26 -7t27.5 -2.5h28h14h326v654q292 76 536 76q137 0 238 -28.5t159 -81t85.5 -119.5t27.5 -151v-176h58q51 0 74.5 28t23.5 92v416h407v-437l-1 -30h1q0 -114 78 -114q42 0 59 31t17 112v438h407v-438q0 -43 -5 -90q27 -8 55 -8h73q7 0 11 -7q9 -18 9 -160
q0 -140 -5 -155q-4 -12 -15 -12h-73zM641 -648v320h297v-320h-297zM1024 -648v320h297v-320h-297zM2069 1040v289h303v-289h-303zM2259 1399v267h309v-267h-309zM2459 1040v289h303v-289h-303z" />
    <glyph glyph-name="uni06340626" unicode="&#xfeb7;&#xfe8a;" horiz-adv-x="3270" 
d="M654 -174q-270 0 -414.5 132.5t-144.5 361.5q0 43 18.5 156.5t41.5 188.5l388 -71q-42 -143 -42 -297q0 -29 4.5 -51.5t12 -36.5t18 -24.5t23 -15t26 -7t27.5 -2.5h28h14h326v654q292 76 536 76q137 0 238 -28.5t159 -81t85.5 -119.5t27.5 -151v-176h58q51 0 74.5 28
t23.5 92v416h407v-437l-1 -30h1q0 -114 78 -114q42 0 59 31t17 112v438h407v-438q0 -228 -121 -352.5t-353 -124.5q-192 0 -303 103q-108 -58 -251 -58h-503v425q0 66 -42 98.5t-117 32.5q-28 0 -73 -8v-722h-733zM254 889q0 131 58.5 203t179.5 72h146v-172h-136
q-23 0 -37 -14.5t-15 -37.5h233v-180h-419q-10 72 -10 129zM2069 1040v289h303v-289h-303zM2259 1399v267h309v-267h-309zM2459 1040v289h303v-289h-303z" />
    <glyph glyph-name="uni06340626.fina" unicode="&#xfeb8;&#xfe8a;" horiz-adv-x="3273" 
d="M3200 0q-93 0 -206 48q-119 -93 -318 -93q-192 0 -303 103q-108 -58 -251 -58h-503v425q0 66 -42 98.5t-117 32.5q-28 0 -73 -8v-722h-733q-270 0 -414.5 132.5t-144.5 361.5q0 43 18.5 156.5t41.5 188.5l388 -71q-42 -143 -42 -297q0 -29 4.5 -51.5t12 -36.5t18 -24.5
t23 -15t26 -7t27.5 -2.5h28h14h326v654q292 76 536 76q137 0 238 -28.5t159 -81t85.5 -119.5t27.5 -151v-176h58q51 0 74.5 28t23.5 92v416h407v-437l-1 -30h1q0 -114 78 -114q42 0 59 31t17 112v438h407v-438q0 -43 -5 -90q27 -8 55 -8h73q7 0 11 -7q9 -18 9 -160
q0 -140 -5 -155q-4 -12 -15 -12h-73zM254 889q0 131 58.5 203t179.5 72h146v-172h-136q-23 0 -37 -14.5t-15 -37.5h233v-180h-419q-10 72 -10 129zM2069 1040v289h303v-289h-303zM2259 1399v267h309v-267h-309zM2459 1040v289h303v-289h-303z" />
    <glyph glyph-name="uni06350631" unicode="&#xfebb;&#xfeae;" horiz-adv-x="2164" 
d="M756 0v425q0 66 -42 98.5t-117 32.5q-28 0 -73 -8v-621q0 -125 -63.5 -211.5t-169.5 -126.5t-246 -40h-115v334h92q52 0 73.5 33t21.5 96v802q292 76 536 76q368 0 473 -206q108 109 236 166.5t261 57.5q61 0 122 -15t120 -49.5t104 -84.5t72.5 -126t27.5 -169
q0 -111 -45 -197.5t-110 -135t-149.5 -80t-151.5 -41.5t-128 -10h-729zM1163 334h255q22 0 54 4t79 14.5t79 37t32 64.5q0 55 -37 87.5t-101 32.5q-92 0 -199 -69t-162 -170v-1z" />
    <glyph glyph-name="uni06350631.fina" unicode="&#xfebc;&#xfeae;" horiz-adv-x="2146" 
d="M756 0v425q0 66 -42 98.5t-117 32.5q-28 0 -73 -8v-621q0 -125 -63.5 -211.5t-169.5 -126.5t-246 -40h-115v334h92q52 0 73.5 33t21.5 96v802q292 76 536 76q368 0 473 -206q108 109 236 166.5t261 57.5q61 0 122 -15t120 -49.5t104 -84.5t72.5 -126t27.5 -169
q0 -70 -17 -130h94q8 0 11 -7q9 -18 9 -160q0 -140 -5 -155q-4 -12 -15 -12h-1390zM1163 334h255q22 0 54 4t79 14.5t79 37t32 64.5q0 55 -37 87.5t-101 32.5q-92 0 -199 -69t-162 -170v-1z" />
    <glyph glyph-name="uni06350632" unicode="&#xfebb;&#xfeb0;" horiz-adv-x="2164" 
d="M756 0v425q0 66 -42 98.5t-117 32.5q-28 0 -73 -8v-621q0 -125 -63.5 -211.5t-169.5 -126.5t-246 -40h-115v334h92q52 0 73.5 33t21.5 96v802q292 76 536 76q368 0 473 -206q108 109 236 166.5t261 57.5q61 0 122 -15t120 -49.5t104 -84.5t72.5 -126t27.5 -169
q0 -111 -45 -197.5t-110 -135t-149.5 -80t-151.5 -41.5t-128 -10h-729zM113 1036v325h375v-325h-375zM1163 334h255q22 0 54 4t79 14.5t79 37t32 64.5q0 55 -37 87.5t-101 32.5q-92 0 -199 -69t-162 -170v-1z" />
    <glyph glyph-name="uni06350632.fina" unicode="&#xfebc;&#xfeb0;" horiz-adv-x="2146" 
d="M756 0v425q0 66 -42 98.5t-117 32.5q-28 0 -73 -8v-621q0 -125 -63.5 -211.5t-169.5 -126.5t-246 -40h-115v334h92q52 0 73.5 33t21.5 96v802q292 76 536 76q368 0 473 -206q108 109 236 166.5t261 57.5q61 0 122 -15t120 -49.5t104 -84.5t72.5 -126t27.5 -169
q0 -70 -17 -130h94q8 0 11 -7q9 -18 9 -160q0 -140 -5 -155q-4 -12 -15 -12h-1390zM113 1036v325h375v-325h-375zM1163 334h255q22 0 54 4t79 14.5t79 37t32 64.5q0 55 -37 87.5t-101 32.5q-92 0 -199 -69t-162 -170v-1z" />
    <glyph glyph-name="uni06350646.fina" unicode="&#xfebc;&#xfee6;" horiz-adv-x="3112" 
d="M1701 0v425q0 66 -42 98.5t-117 32.5q-62 0 -143 -12v-394q0 -118 -38.5 -217.5t-113.5 -174.5t-192.5 -117t-267.5 -42q-173 0 -306.5 48t-217 133.5t-126 199t-42.5 250.5q0 118 34 269t87 294l384 -131q-41 -94 -69.5 -217.5t-28.5 -215.5q0 -155 62.5 -225.5
t201.5 -70.5q117 0 171.5 50.5t54.5 166.5v664q292 76 606 76q368 0 473 -206q108 109 236 166.5t261 57.5q61 0 122 -15t120 -49.5t104 -84.5t72.5 -126t27.5 -169q0 -70 -17 -130h115q8 0 11 -7q9 -18 9 -160q0 -140 -5 -155q-4 -12 -15 -12h-1411zM594 1039v325h375v-325
h-375zM2108 334h255q22 0 54 4t79 14.5t79 37t32 64.5q0 55 -37 87.5t-101 32.5q-92 0 -199 -69t-162 -170v-1z" />
    <glyph glyph-name="uni06350649" unicode="&#xfebb;&#xfef0;" horiz-adv-x="3027" 
d="M654 -174q-270 0 -414.5 132.5t-144.5 361.5q0 43 18.5 156.5t41.5 188.5l388 -71q-42 -143 -42 -297q0 -29 4.5 -51.5t12 -36.5t18 -24.5t23 -15t26 -7t27.5 -2.5h28h14h326v654q292 76 536 76q368 0 473 -206q108 109 236 166.5t261 57.5q61 0 122 -15t120 -49.5
t104 -84.5t72.5 -126t27.5 -169q0 -111 -45 -197.5t-110 -135t-149.5 -80t-151.5 -41.5t-128 -10h-729v425q0 66 -42 98.5t-117 32.5q-28 0 -73 -8v-722h-733zM2026 334h255q22 0 54 4t79 14.5t79 37t32 64.5q0 55 -37 87.5t-101 32.5q-92 0 -199 -69t-162 -170v-1z" />
    <glyph glyph-name="uni06350649.fina" unicode="&#xfebc;&#xfef0;" horiz-adv-x="3010" 
d="M1619 0v425q0 66 -42 98.5t-117 32.5q-28 0 -73 -8v-722h-733q-270 0 -414.5 132.5t-144.5 361.5q0 43 18.5 156.5t41.5 188.5l388 -71q-42 -143 -42 -297q0 -29 4.5 -51.5t12 -36.5t18 -24.5t23 -15t26 -7t27.5 -2.5h28h14h326v654q292 76 536 76q368 0 473 -206
q108 109 236 166.5t261 57.5q61 0 122 -15t120 -49.5t104 -84.5t72.5 -126t27.5 -169q0 -70 -17 -130h95q8 0 11 -7q9 -18 9 -160q0 -140 -5 -155q-4 -12 -15 -12h-1391zM2026 334h255q22 0 54 4t79 14.5t79 37t32 64.5q0 55 -37 87.5t-101 32.5q-92 0 -199 -69t-162 -170
v-1z" />
    <glyph glyph-name="uni0635064A" unicode="&#xfebb;&#xfef2;" horiz-adv-x="3027" 
d="M654 -174q-270 0 -414.5 132.5t-144.5 361.5q0 43 18.5 156.5t41.5 188.5l388 -71q-42 -143 -42 -297q0 -29 4.5 -51.5t12 -36.5t18 -24.5t23 -15t26 -7t27.5 -2.5h28h14h326v654q292 76 536 76q368 0 473 -206q108 109 236 166.5t261 57.5q61 0 122 -15t120 -49.5
t104 -84.5t72.5 -126t27.5 -169q0 -111 -45 -197.5t-110 -135t-149.5 -80t-151.5 -41.5t-128 -10h-729v425q0 66 -42 98.5t-117 32.5q-28 0 -73 -8v-722h-733zM642 -648v320h297v-320h-297zM1025 -648v320h297v-320h-297zM2026 334h255q22 0 54 4t79 14.5t79 37t32 64.5
q0 55 -37 87.5t-101 32.5q-92 0 -199 -69t-162 -170v-1z" />
    <glyph glyph-name="uni0635064A.fina" unicode="&#xfebc;&#xfef2;" horiz-adv-x="3010" 
d="M1619 0v425q0 66 -42 98.5t-117 32.5q-28 0 -73 -8v-722h-733q-270 0 -414.5 132.5t-144.5 361.5q0 43 18.5 156.5t41.5 188.5l388 -71q-42 -143 -42 -297q0 -29 4.5 -51.5t12 -36.5t18 -24.5t23 -15t26 -7t27.5 -2.5h28h14h326v654q292 76 536 76q368 0 473 -206
q108 109 236 166.5t261 57.5q61 0 122 -15t120 -49.5t104 -84.5t72.5 -126t27.5 -169q0 -70 -17 -130h95q8 0 11 -7q9 -18 9 -160q0 -140 -5 -155q-4 -12 -15 -12h-1391zM642 -648v320h297v-320h-297zM1025 -648v320h297v-320h-297zM2026 334h255q22 0 54 4t79 14.5t79 37
t32 64.5q0 55 -37 87.5t-101 32.5q-92 0 -199 -69t-162 -170v-1z" />
    <glyph glyph-name="uni06350626" unicode="&#xfebb;&#xfe8a;" horiz-adv-x="3027" 
d="M654 -174q-270 0 -414.5 132.5t-144.5 361.5q0 43 18.5 156.5t41.5 188.5l388 -71q-42 -143 -42 -297q0 -29 4.5 -51.5t12 -36.5t18 -24.5t23 -15t26 -7t27.5 -2.5h28h14h326v654q292 76 536 76q368 0 473 -206q108 109 236 166.5t261 57.5q61 0 122 -15t120 -49.5
t104 -84.5t72.5 -126t27.5 -169q0 -111 -45 -197.5t-110 -135t-149.5 -80t-151.5 -41.5t-128 -10h-729v425q0 66 -42 98.5t-117 32.5q-28 0 -73 -8v-722h-733zM256 889q0 131 58.5 203t179.5 72h146v-172h-136q-23 0 -37 -14.5t-15 -37.5h233v-180h-419q-10 72 -10 129z
M2026 334h255q22 0 54 4t79 14.5t79 37t32 64.5q0 55 -37 87.5t-101 32.5q-92 0 -199 -69t-162 -170v-1z" />
    <glyph glyph-name="uni06350626.fina" unicode="&#xfebc;&#xfe8a;" horiz-adv-x="3010" 
d="M1619 0v425q0 66 -42 98.5t-117 32.5q-28 0 -73 -8v-722h-733q-270 0 -414.5 132.5t-144.5 361.5q0 43 18.5 156.5t41.5 188.5l388 -71q-42 -143 -42 -297q0 -29 4.5 -51.5t12 -36.5t18 -24.5t23 -15t26 -7t27.5 -2.5h28h14h326v654q292 76 536 76q368 0 473 -206
q108 109 236 166.5t261 57.5q61 0 122 -15t120 -49.5t104 -84.5t72.5 -126t27.5 -169q0 -70 -17 -130h95q8 0 11 -7q9 -18 9 -160q0 -140 -5 -155q-4 -12 -15 -12h-1391zM256 889q0 131 58.5 203t179.5 72h146v-172h-136q-23 0 -37 -14.5t-15 -37.5h233v-180h-419
q-10 72 -10 129zM2026 334h255q22 0 54 4t79 14.5t79 37t32 64.5q0 55 -37 87.5t-101 32.5q-92 0 -199 -69t-162 -170v-1z" />
    <glyph glyph-name="uni06360631" unicode="&#xfebf;&#xfeae;" horiz-adv-x="2164" 
d="M756 0v425q0 66 -42 98.5t-117 32.5q-28 0 -73 -8v-621q0 -125 -63.5 -211.5t-169.5 -126.5t-246 -40h-115v334h92q52 0 73.5 33t21.5 96v802q292 76 536 76q368 0 473 -206q108 109 236 166.5t261 57.5q61 0 122 -15t120 -49.5t104 -84.5t72.5 -126t27.5 -169
q0 -111 -45 -197.5t-110 -135t-149.5 -80t-151.5 -41.5t-128 -10h-729zM1163 334h255q22 0 54 4t79 14.5t79 37t32 64.5q0 55 -37 87.5t-101 32.5q-92 0 -199 -69t-162 -170v-1zM1187 1039v325h375v-325h-375z" />
    <glyph glyph-name="uni06360631.fina" unicode="&#xfec0;&#xfeae;" horiz-adv-x="2146" 
d="M756 0v425q0 66 -42 98.5t-117 32.5q-28 0 -73 -8v-621q0 -125 -63.5 -211.5t-169.5 -126.5t-246 -40h-115v334h92q52 0 73.5 33t21.5 96v802q292 76 536 76q368 0 473 -206q108 109 236 166.5t261 57.5q61 0 122 -15t120 -49.5t104 -84.5t72.5 -126t27.5 -169
q0 -70 -17 -130h94q8 0 11 -7q9 -18 9 -160q0 -140 -5 -155q-4 -12 -15 -12h-1390zM1163 334h255q22 0 54 4t79 14.5t79 37t32 64.5q0 55 -37 87.5t-101 32.5q-92 0 -199 -69t-162 -170v-1zM1187 1039v325h375v-325h-375z" />
    <glyph glyph-name="uni06360632" unicode="&#xfebf;&#xfeb0;" horiz-adv-x="2164" 
d="M756 0v425q0 66 -42 98.5t-117 32.5q-28 0 -73 -8v-621q0 -125 -63.5 -211.5t-169.5 -126.5t-246 -40h-115v334h92q52 0 73.5 33t21.5 96v802q292 76 536 76q368 0 473 -206q108 109 236 166.5t261 57.5q61 0 122 -15t120 -49.5t104 -84.5t72.5 -126t27.5 -169
q0 -111 -45 -197.5t-110 -135t-149.5 -80t-151.5 -41.5t-128 -10h-729zM113 1036v325h375v-325h-375zM1163 334h255q22 0 54 4t79 14.5t79 37t32 64.5q0 55 -37 87.5t-101 32.5q-92 0 -199 -69t-162 -170v-1zM1187 1039v325h375v-325h-375z" />
    <glyph glyph-name="uni06360632.fina" unicode="&#xfec0;&#xfeb0;" horiz-adv-x="2146" 
d="M756 0v425q0 66 -42 98.5t-117 32.5q-28 0 -73 -8v-621q0 -125 -63.5 -211.5t-169.5 -126.5t-246 -40h-115v334h92q52 0 73.5 33t21.5 96v802q292 76 536 76q368 0 473 -206q108 109 236 166.5t261 57.5q61 0 122 -15t120 -49.5t104 -84.5t72.5 -126t27.5 -169
q0 -70 -17 -130h94q8 0 11 -7q9 -18 9 -160q0 -140 -5 -155q-4 -12 -15 -12h-1390zM113 1036v325h375v-325h-375zM1163 334h255q22 0 54 4t79 14.5t79 37t32 64.5q0 55 -37 87.5t-101 32.5q-92 0 -199 -69t-162 -170v-1zM1187 1039v325h375v-325h-375z" />
    <glyph glyph-name="uni06360646.fina" unicode="&#xfec0;&#xfee6;" horiz-adv-x="3112" 
d="M1701 0v425q0 66 -42 98.5t-117 32.5q-62 0 -143 -12v-394q0 -118 -38.5 -217.5t-113.5 -174.5t-192.5 -117t-267.5 -42q-173 0 -306.5 48t-217 133.5t-126 199t-42.5 250.5q0 118 34 269t87 294l384 -131q-41 -94 -69.5 -217.5t-28.5 -215.5q0 -155 62.5 -225.5
t201.5 -70.5q117 0 171.5 50.5t54.5 166.5v664q292 76 606 76q368 0 473 -206q108 109 236 166.5t261 57.5q61 0 122 -15t120 -49.5t104 -84.5t72.5 -126t27.5 -169q0 -70 -17 -130h115q8 0 11 -7q9 -18 9 -160q0 -140 -5 -155q-4 -12 -15 -12h-1411zM594 1039v325h375v-325
h-375zM2108 334h255q22 0 54 4t79 14.5t79 37t32 64.5q0 55 -37 87.5t-101 32.5q-92 0 -199 -69t-162 -170v-1zM2130 1039v325h375v-325h-375z" />
    <glyph glyph-name="uni06360649" unicode="&#xfebf;&#xfef0;" horiz-adv-x="3027" 
d="M654 -174q-270 0 -414.5 132.5t-144.5 361.5q0 43 18.5 156.5t41.5 188.5l388 -71q-42 -143 -42 -297q0 -29 4.5 -51.5t12 -36.5t18 -24.5t23 -15t26 -7t27.5 -2.5h28h14h326v654q292 76 536 76q368 0 473 -206q108 109 236 166.5t261 57.5q61 0 122 -15t120 -49.5
t104 -84.5t72.5 -126t27.5 -169q0 -111 -45 -197.5t-110 -135t-149.5 -80t-151.5 -41.5t-128 -10h-729v425q0 66 -42 98.5t-117 32.5q-28 0 -73 -8v-722h-733zM2026 334h255q22 0 54 4t79 14.5t79 37t32 64.5q0 55 -37 87.5t-101 32.5q-92 0 -199 -69t-162 -170v-1z
M2041 1039v325h375v-325h-375z" />
    <glyph glyph-name="uni06360649.fina" unicode="&#xfec0;&#xfef0;" horiz-adv-x="3010" 
d="M1619 0v425q0 66 -42 98.5t-117 32.5q-28 0 -73 -8v-722h-733q-270 0 -414.5 132.5t-144.5 361.5q0 43 18.5 156.5t41.5 188.5l388 -71q-42 -143 -42 -297q0 -29 4.5 -51.5t12 -36.5t18 -24.5t23 -15t26 -7t27.5 -2.5h28h14h326v654q292 76 536 76q368 0 473 -206
q108 109 236 166.5t261 57.5q61 0 122 -15t120 -49.5t104 -84.5t72.5 -126t27.5 -169q0 -70 -17 -130h95q8 0 11 -7q9 -18 9 -160q0 -140 -5 -155q-4 -12 -15 -12h-1391zM2026 334h255q22 0 54 4t79 14.5t79 37t32 64.5q0 55 -37 87.5t-101 32.5q-92 0 -199 -69t-162 -170
v-1zM2041 1039v325h375v-325h-375z" />
    <glyph glyph-name="uni0636064A" unicode="&#xfebf;&#xfef2;" horiz-adv-x="3027" 
d="M654 -174q-270 0 -414.5 132.5t-144.5 361.5q0 43 18.5 156.5t41.5 188.5l388 -71q-42 -143 -42 -297q0 -29 4.5 -51.5t12 -36.5t18 -24.5t23 -15t26 -7t27.5 -2.5h28h14h326v654q292 76 536 76q368 0 473 -206q108 109 236 166.5t261 57.5q61 0 122 -15t120 -49.5
t104 -84.5t72.5 -126t27.5 -169q0 -111 -45 -197.5t-110 -135t-149.5 -80t-151.5 -41.5t-128 -10h-729v425q0 66 -42 98.5t-117 32.5q-28 0 -73 -8v-722h-733zM642 -648v320h297v-320h-297zM1025 -648v320h297v-320h-297zM2026 334h255q22 0 54 4t79 14.5t79 37t32 64.5
q0 55 -37 87.5t-101 32.5q-92 0 -199 -69t-162 -170v-1zM2041 1039v325h375v-325h-375z" />
    <glyph glyph-name="uni0636064A.fina" unicode="&#xfec0;&#xfef2;" horiz-adv-x="3010" 
d="M1619 0v425q0 66 -42 98.5t-117 32.5q-28 0 -73 -8v-722h-733q-270 0 -414.5 132.5t-144.5 361.5q0 43 18.5 156.5t41.5 188.5l388 -71q-42 -143 -42 -297q0 -29 4.5 -51.5t12 -36.5t18 -24.5t23 -15t26 -7t27.5 -2.5h28h14h326v654q292 76 536 76q368 0 473 -206
q108 109 236 166.5t261 57.5q61 0 122 -15t120 -49.5t104 -84.5t72.5 -126t27.5 -169q0 -70 -17 -130h95q8 0 11 -7q9 -18 9 -160q0 -140 -5 -155q-4 -12 -15 -12h-1391zM642 -648v320h297v-320h-297zM1025 -648v320h297v-320h-297zM2026 334h255q22 0 54 4t79 14.5t79 37
t32 64.5q0 55 -37 87.5t-101 32.5q-92 0 -199 -69t-162 -170v-1zM2041 1039v325h375v-325h-375z" />
    <glyph glyph-name="uni06360626" unicode="&#xfebf;&#xfe8a;" horiz-adv-x="3027" 
d="M654 -174q-270 0 -414.5 132.5t-144.5 361.5q0 43 18.5 156.5t41.5 188.5l388 -71q-42 -143 -42 -297q0 -29 4.5 -51.5t12 -36.5t18 -24.5t23 -15t26 -7t27.5 -2.5h28h14h326v654q292 76 536 76q368 0 473 -206q108 109 236 166.5t261 57.5q61 0 122 -15t120 -49.5
t104 -84.5t72.5 -126t27.5 -169q0 -111 -45 -197.5t-110 -135t-149.5 -80t-151.5 -41.5t-128 -10h-729v425q0 66 -42 98.5t-117 32.5q-28 0 -73 -8v-722h-733zM256 889q0 131 58.5 203t179.5 72h146v-172h-136q-23 0 -37 -14.5t-15 -37.5h233v-180h-419q-10 72 -10 129z
M2026 334h255q22 0 54 4t79 14.5t79 37t32 64.5q0 55 -37 87.5t-101 32.5q-92 0 -199 -69t-162 -170v-1zM2041 1039v325h375v-325h-375z" />
    <glyph glyph-name="uni06360626.fina" unicode="&#xfec0;&#xfe8a;" horiz-adv-x="3010" 
d="M1619 0v425q0 66 -42 98.5t-117 32.5q-28 0 -73 -8v-722h-733q-270 0 -414.5 132.5t-144.5 361.5q0 43 18.5 156.5t41.5 188.5l388 -71q-42 -143 -42 -297q0 -29 4.5 -51.5t12 -36.5t18 -24.5t23 -15t26 -7t27.5 -2.5h28h14h326v654q292 76 536 76q368 0 473 -206
q108 109 236 166.5t261 57.5q61 0 122 -15t120 -49.5t104 -84.5t72.5 -126t27.5 -169q0 -70 -17 -130h95q8 0 11 -7q9 -18 9 -160q0 -140 -5 -155q-4 -12 -15 -12h-1391zM256 889q0 131 58.5 203t179.5 72h146v-172h-136q-23 0 -37 -14.5t-15 -37.5h233v-180h-419
q-10 72 -10 129zM2026 334h255q22 0 54 4t79 14.5t79 37t32 64.5q0 55 -37 87.5t-101 32.5q-92 0 -199 -69t-162 -170v-1zM2041 1039v325h375v-325h-375z" />
    <glyph glyph-name="uni06460631.fina" unicode="&#xfee8;&#xfeae;" horiz-adv-x="1345" 
d="M-70 -451v334h92q52 0 73.5 33t21.5 96v802q292 76 606 76q137 0 238 -28.5t159 -81t85.5 -119.5t27.5 -151v-176h112q7 0 11 -7q9 -18 9 -160q0 -140 -5 -155q-4 -12 -15 -12h-519v425q0 66 -42 98.5t-117 32.5q-62 0 -143 -12v-617q0 -125 -63.5 -211.5t-169.5 -126.5
t-246 -40h-115zM761 1084v325h375v-325h-375z" />
    <glyph glyph-name="uni06460646.fina" unicode="&#xfee8;&#xfee6;" horiz-adv-x="2220" 
d="M787 -401q-173 0 -306.5 48t-217 133.5t-126 199t-42.5 250.5q0 118 34 269t87 294l384 -131q-41 -94 -69.5 -217.5t-28.5 -215.5q0 -155 62.5 -225.5t201.5 -70.5q117 0 171.5 50.5t54.5 166.5v664q292 76 606 76q137 0 238 -28.5t159 -81t85.5 -119.5t27.5 -151v-176
h112q8 0 11 -7q9 -18 9 -160q0 -140 -5 -155q-4 -12 -15 -12h-519v425q0 66 -42 98.5t-117 32.5q-62 0 -143 -12v-394q0 -118 -38.5 -217.5t-113.5 -174.5t-192.5 -117t-267.5 -42zM590 1039v325h375v-325h-375zM1508 1084v325h375v-325h-375z" />
    <glyph glyph-name="uni06460649.fina" unicode="&#xfee8;&#xfef0;" horiz-adv-x="2208" 
d="M654 -174q-270 0 -414.5 132.5t-144.5 361.5q0 43 18.5 156.5t41.5 188.5l388 -71q-42 -143 -42 -297q0 -29 4.5 -51.5t12 -36.5t18 -24.5t23 -15t26 -7t27.5 -2.5h28h14h326v654q292 76 606 76q137 0 238 -28.5t159 -81t85.5 -119.5t27.5 -151v-176h112q8 0 11 -7
q9 -18 9 -160q0 -140 -5 -155q-4 -12 -15 -12h-519v425q0 66 -42 98.5t-117 32.5q-62 0 -143 -12v-718h-733zM1518 1084v325h375v-325h-375z" />
    <glyph glyph-name="uni0646064A.fina" unicode="&#xfee8;&#xfef2;" horiz-adv-x="2208" 
d="M654 -174q-270 0 -414.5 132.5t-144.5 361.5q0 43 18.5 156.5t41.5 188.5l388 -71q-42 -143 -42 -297q0 -29 4.5 -51.5t12 -36.5t18 -24.5t23 -15t26 -7t27.5 -2.5h28h14h326v654q292 76 606 76q137 0 238 -28.5t159 -81t85.5 -119.5t27.5 -151v-176h112q8 0 11 -7
q9 -18 9 -160q0 -140 -5 -155q-4 -12 -15 -12h-519v425q0 66 -42 98.5t-117 32.5q-62 0 -143 -12v-718h-733zM319 -648v320h297v-320h-297zM702 -648v320h297v-320h-297zM1518 1084v325h375v-325h-375z" />
    <glyph glyph-name="uni06460626.fina" unicode="&#xfee8;&#xfe8a;" horiz-adv-x="2208" 
d="M654 -174q-270 0 -414.5 132.5t-144.5 361.5q0 43 18.5 156.5t41.5 188.5l388 -71q-42 -143 -42 -297q0 -29 4.5 -51.5t12 -36.5t18 -24.5t23 -15t26 -7t27.5 -2.5h28h14h326v654q292 76 606 76q137 0 238 -28.5t159 -81t85.5 -119.5t27.5 -151v-176h112q8 0 11 -7
q9 -18 9 -160q0 -140 -5 -155q-4 -12 -15 -12h-519v425q0 66 -42 98.5t-117 32.5q-62 0 -143 -12v-718h-733zM272 889q0 131 58.5 203t179.5 72h146v-172h-136q-23 0 -37 -14.5t-15 -37.5h233v-180h-419q-10 72 -10 129zM1518 1084v325h375v-325h-375z" />
    <glyph glyph-name="uni064A0631.fina" unicode="&#xfef4;&#xfeae;" horiz-adv-x="1345" 
d="M-70 -451v334h92q52 0 73.5 33t21.5 96v802q292 76 606 76q137 0 238 -28.5t159 -81t85.5 -119.5t27.5 -151v-176h112q7 0 11 -7q9 -18 9 -160q0 -140 -5 -155q-4 -12 -15 -12h-519v425q0 66 -42 98.5t-117 32.5q-62 0 -143 -12v-617q0 -125 -63.5 -211.5t-169.5 -126.5
t-246 -40h-115zM614 -524v320h297v-320h-297zM997 -524v320h297v-320h-297z" />
    <glyph glyph-name="uni064A0632.fina" unicode="&#xfef4;&#xfeb0;" horiz-adv-x="1345" 
d="M-70 -451v334h92q52 0 73.5 33t21.5 96v802q292 76 606 76q137 0 238 -28.5t159 -81t85.5 -119.5t27.5 -151v-176h112q7 0 11 -7q9 -18 9 -160q0 -140 -5 -155q-4 -12 -15 -12h-519v425q0 66 -42 98.5t-117 32.5q-62 0 -143 -12v-617q0 -125 -63.5 -211.5t-169.5 -126.5
t-246 -40h-115zM113 1084v325h375v-325h-375zM614 -524v320h297v-320h-297zM997 -524v320h297v-320h-297z" />
    <glyph glyph-name="uni064A0646.fina" unicode="&#xfef4;&#xfee6;" horiz-adv-x="2220" 
d="M787 -401q-173 0 -306.5 48t-217 133.5t-126 199t-42.5 250.5q0 118 34 269t87 294l384 -131q-41 -94 -69.5 -217.5t-28.5 -215.5q0 -155 62.5 -225.5t201.5 -70.5q117 0 171.5 50.5t54.5 166.5v664q292 76 606 76q137 0 238 -28.5t159 -81t85.5 -119.5t27.5 -151v-176
h112q8 0 11 -7q9 -18 9 -160q0 -140 -5 -155q-4 -12 -15 -12h-519v425q0 66 -42 98.5t-117 32.5q-62 0 -143 -12v-394q0 -118 -38.5 -217.5t-113.5 -174.5t-192.5 -117t-267.5 -42zM590 1039v325h375v-325h-375zM1413 -524v320h297v-320h-297zM1796 -524v320h297v-320h-297z
" />
    <glyph glyph-name="uni06260631.fina" unicode="&#xfe8c;&#xfeae;" horiz-adv-x="1345" 
d="M-70 -451v334h92q52 0 73.5 33t21.5 96v802q292 76 606 76q137 0 238 -28.5t159 -81t85.5 -119.5t27.5 -151v-176h112q7 0 11 -7q9 -18 9 -160q0 -140 -5 -155q-4 -12 -15 -12h-519v425q0 66 -42 98.5t-117 32.5q-62 0 -143 -12v-617q0 -125 -63.5 -211.5t-169.5 -126.5
t-246 -40h-115zM731 1211q0 131 58.5 203t179.5 72h146v-172h-136q-23 0 -37 -14.5t-15 -37.5h233v-180h-419q-10 72 -10 129z" />
    <glyph glyph-name="uni06260632.fina" unicode="&#xfe8c;&#xfeb0;" horiz-adv-x="1345" 
d="M-70 -451v334h92q52 0 73.5 33t21.5 96v802q292 76 606 76q137 0 238 -28.5t159 -81t85.5 -119.5t27.5 -151v-176h112q7 0 11 -7q9 -18 9 -160q0 -140 -5 -155q-4 -12 -15 -12h-519v425q0 66 -42 98.5t-117 32.5q-62 0 -143 -12v-617q0 -125 -63.5 -211.5t-169.5 -126.5
t-246 -40h-115zM113 1084v325h375v-325h-375zM731 1211q0 131 58.5 203t179.5 72h146v-172h-136q-23 0 -37 -14.5t-15 -37.5h233v-180h-419q-10 72 -10 129z" />
    <glyph glyph-name="uni06260646.fina" unicode="&#xfe8c;&#xfee6;" horiz-adv-x="2220" 
d="M787 -401q-173 0 -306.5 48t-217 133.5t-126 199t-42.5 250.5q0 118 34 269t87 294l384 -131q-41 -94 -69.5 -217.5t-28.5 -215.5q0 -155 62.5 -225.5t201.5 -70.5q117 0 171.5 50.5t54.5 166.5v664q292 76 606 76q137 0 238 -28.5t159 -81t85.5 -119.5t27.5 -151v-176
h112q8 0 11 -7q9 -18 9 -160q0 -140 -5 -155q-4 -12 -15 -12h-519v425q0 66 -42 98.5t-117 32.5q-62 0 -143 -12v-394q0 -118 -38.5 -217.5t-113.5 -174.5t-192.5 -117t-267.5 -42zM590 1039v325h375v-325h-375zM1478 1211q0 131 58.5 203t179.5 72h146v-172h-136
q-23 0 -37 -14.5t-15 -37.5h233v-180h-419q-10 72 -10 129z" />
    <glyph glyph-name="uni06260649.fina" unicode="&#xfe8c;&#xfef0;" horiz-adv-x="2208" 
d="M654 -174q-270 0 -414.5 132.5t-144.5 361.5q0 43 18.5 156.5t41.5 188.5l388 -71q-42 -143 -42 -297q0 -29 4.5 -51.5t12 -36.5t18 -24.5t23 -15t26 -7t27.5 -2.5h28h14h326v654q292 76 606 76q137 0 238 -28.5t159 -81t85.5 -119.5t27.5 -151v-176h112q8 0 11 -7
q9 -18 9 -160q0 -140 -5 -155q-4 -12 -15 -12h-519v425q0 66 -42 98.5t-117 32.5q-62 0 -143 -12v-718h-733zM1488 1211q0 131 58.5 203t179.5 72h146v-172h-136q-23 0 -37 -14.5t-15 -37.5h233v-180h-419q-10 72 -10 129z" />
    <glyph glyph-name="uni0626064A.fina" unicode="&#xfe8c;&#xfef2;" horiz-adv-x="2208" 
d="M654 -174q-270 0 -414.5 132.5t-144.5 361.5q0 43 18.5 156.5t41.5 188.5l388 -71q-42 -143 -42 -297q0 -29 4.5 -51.5t12 -36.5t18 -24.5t23 -15t26 -7t27.5 -2.5h28h14h326v654q292 76 606 76q137 0 238 -28.5t159 -81t85.5 -119.5t27.5 -151v-176h112q8 0 11 -7
q9 -18 9 -160q0 -140 -5 -155q-4 -12 -15 -12h-519v425q0 66 -42 98.5t-117 32.5q-62 0 -143 -12v-718h-733zM319 -648v320h297v-320h-297zM702 -648v320h297v-320h-297zM1488 1211q0 131 58.5 203t179.5 72h146v-172h-136q-23 0 -37 -14.5t-15 -37.5h233v-180h-419
q-10 72 -10 129z" />
    <glyph glyph-name="uni06260626.fina" unicode="&#xfe8c;&#xfe8a;" horiz-adv-x="2208" 
d="M654 -174q-270 0 -414.5 132.5t-144.5 361.5q0 43 18.5 156.5t41.5 188.5l388 -71q-42 -143 -42 -297q0 -29 4.5 -51.5t12 -36.5t18 -24.5t23 -15t26 -7t27.5 -2.5h28h14h326v654q292 76 606 76q137 0 238 -28.5t159 -81t85.5 -119.5t27.5 -151v-176h112q8 0 11 -7
q9 -18 9 -160q0 -140 -5 -155q-4 -12 -15 -12h-519v425q0 66 -42 98.5t-117 32.5q-62 0 -143 -12v-718h-733zM272 889q0 131 58.5 203t179.5 72h146v-172h-136q-23 0 -37 -14.5t-15 -37.5h233v-180h-419q-10 72 -10 129zM1488 1211q0 131 58.5 203t179.5 72h146v-172h-136
q-23 0 -37 -14.5t-15 -37.5h233v-180h-419q-10 72 -10 129z" />
    <glyph glyph-name="uni064A.init" unicode="&#x64a;" horiz-adv-x="745" arabic-form="initial" 
d="M0 0q-11 0 -15 12q-5 15 -5 155q0 142 9 160q3 7 11 7h84q72 0 103 36t31 119v381h407v-446q0 -204 -96 -314t-273 -110h-256zM14 -524v320h297v-320h-297zM397 -524v320h297v-320h-297z" />
    <glyph glyph-name="uni066E.init" unicode="&#x66e;" horiz-adv-x="745" 
d="M0 0q-11 0 -15 12q-5 15 -5 155q0 142 9 160q3 7 11 7h84q72 0 103 36t31 119v381h407v-446q0 -204 -96 -314t-273 -110h-256z" />
    <glyph glyph-name="uni066E.medi" unicode="&#x66e;" horiz-adv-x="812" 
d="M0 0q-11 0 -15 12q-5 15 -5 155q0 142 9 160q3 7 11 7h84q72 0 103 36t31 119v381h407v-368q0 -43 3 -69t13 -51t31.5 -36.5t56.5 -11.5h83q8 0 11 -7q9 -18 9 -160q0 -140 -5 -155q-4 -12 -15 -12h-63q-144 0 -228 102q-94 -102 -265 -102h-256z" />
    <glyph glyph-name="uni066E.fina" unicode="&#x66e;" horiz-adv-x="1848" 
d="M642 0q-252 0 -387 109t-135 318v309h407v-256q0 -88 36 -117t129 -29h426q73 0 104.5 33t31.5 113v390h407v-368q0 -43 3 -69t13 -51t31.5 -36.5t56.5 -11.5h83q8 0 11 -7q9 -18 9 -160q0 -140 -5 -155q-4 -12 -15 -12h-63q-154 0 -238 115q-121 -115 -359 -115h-546z
" />
    <glyph glyph-name="uni066F.fina" unicode="&#x66f;" horiz-adv-x="1734" 
d="M900 -451q-333 0 -528 84.5t-252 272.5q-22 73 -24 171t6 166t21 125l383 -73q-41 -149 -12 -240q28 -93 127.5 -132.5t278.5 -39.5h272v117h-99q-237 0 -362.5 121.5t-125.5 327.5q0 101 35 180.5t88 126t124 76.5t135.5 41t129.5 11q247 0 481 -111v-439h156q8 0 11 -7
q9 -18 9 -160q0 -140 -5 -155q-4 -12 -15 -12h-156v-451h-678zM987 449q0 -53 31.5 -84t87.5 -31h65v209q-26 8 -55 8q-14 0 -32 -3.5t-42 -13t-39.5 -31.5t-15.5 -54z" />
    <glyph glyph-name="uni06A1.init" unicode="&#x6a1;" horiz-adv-x="1224" 
d="M0 0q-11 0 -15 12q-5 15 -5 155q0 142 9 160q3 7 11 7h127q-11 57 -11 115q0 73 19 135t51 106t77 78.5t92.5 56t102 35t102.5 19t96 5.5q253 0 448 -137v-747h-1104zM518 449q0 -53 31.5 -84t87.5 -31h65v211q-25 10 -55 10q-52 0 -90.5 -29t-38.5 -77z" />
    <glyph glyph-name="uni06A1.medi" unicode="&#x6a1;" horiz-adv-x="1230" 
d="M0 0q-11 0 -15 12q-5 15 -5 155q0 142 9 160q3 7 11 7h127q-11 57 -11 115q0 73 19 135t51 106t77 78.5t92.5 56t102 35t102.5 19t96 5.5q253 0 448 -137v-413h126q8 0 11 -7q9 -18 9 -160q0 -140 -5 -155q-4 -12 -15 -12h-1230zM518 449q0 -53 31.5 -84t87.5 -31h65v211
q-25 10 -55 10q-52 0 -90.5 -29t-38.5 -77z" />
    <glyph glyph-name="uni06A1.fina" unicode="&#x6a1;" horiz-adv-x="1883" 
d="M643 0q-236 0 -379.5 133t-143.5 375v228h407v-228q0 -103 24.5 -138.5t91.5 -35.5h129q-11 57 -11 115q0 73 19 135t51 106t77 78.5t92.5 56t102 35t102.5 19t96 5.5q253 0 448 -137v-413h134q7 0 11 -7q9 -18 9 -160q0 -140 -5 -155q-4 -12 -15 -12h-1240zM1163 449
q0 -53 31.5 -84t87.5 -31h65v211q-25 10 -55 10q-52 0 -90.5 -29t-38.5 -77z" />
    <glyph glyph-name="uni06C2.fina" unicode="&#x6c2;" horiz-adv-x="1218" 
d="M583 0q-238 0 -363 115t-125 320q0 101 35 180.5t88.5 126t124.5 76.5t135.5 41t129.5 11q147 0 251 -27.5t224 -84.5v-424h135q8 0 11 -7q9 -18 9 -160q0 -140 -5 -155q-4 -12 -15 -12h-635zM394 1166q0 131 58.5 203t179.5 72h146v-172h-136q-23 0 -37 -14.5t-15 -37.5
h233v-180h-419q-10 72 -10 129zM497 438q0 -44 32 -74t87 -30h65v205q-26 8 -55 8q-9 0 -16 -0.5t-30.5 -6t-39.5 -15.5t-29.5 -32.5t-13.5 -54.5z" />
    <glyph glyph-name="uni06C3.fina" unicode="&#x6c3;" horiz-adv-x="1218" 
d="M583 0q-238 0 -363 115t-125 320q0 101 35 180.5t88.5 126t124.5 76.5t135.5 41t129.5 11q147 0 251 -27.5t224 -84.5v-424h135q8 0 11 -7q9 -18 9 -160q0 -140 -5 -155q-4 -12 -15 -12h-635zM267 1037v320h297v-320h-297zM497 438q0 -44 32 -74t87 -30h65v205
q-26 8 -55 8q-9 0 -16 -0.5t-30.5 -6t-39.5 -15.5t-29.5 -32.5t-13.5 -54.5zM650 1037v320h297v-320h-297z" />
    <glyph glyph-name="uni0671.fina" unicode="&#x671;" horiz-adv-x="727" arabic-form="final" 
d="M120 0v1155h407v-821h200q7 0 11 -7q9 -18 9 -160q0 -140 -5 -155q-4 -12 -15 -12h-607zM66 1347v114h60v186h140v-53q70 64 155 64q38 0 71.5 -14t59 -49.5t25.5 -87.5q0 -48 -22.5 -82t-57 -49.5t-65 -22t-58.5 -6.5h-308zM266 1461h86q12 0 28.5 2.5t36 12.5t19.5 27
q0 18 -13 29.5t-34 11.5q-31 0 -67.5 -23.5t-55.5 -59.5z" />
    <glyph glyph-name="uni067E.fina" unicode="&#x67e;" horiz-adv-x="1822" arabic-form="final" 
d="M642 0q-252 0 -387 109t-135 318v309h407v-256q0 -88 36 -117t129 -29h426q73 0 104.5 33t31.5 113v390h407v-368q0 -43 3 -69t13 -51t31.5 -36.5t56.5 -11.5h83q8 0 11 -7q9 -18 9 -160q0 -140 -5 -155q-4 -12 -15 -12h-63q-154 0 -238 115q-121 -115 -359 -115h-546z
M548 -488v289h303v-289h-303zM738 -825v267h309v-267h-309zM938 -488v289h303v-289h-303z" />
    <glyph glyph-name="uni067E.init" unicode="&#x67e;" horiz-adv-x="717" arabic-form="initial" 
d="M0 0q-11 0 -15 12q-5 15 -5 155q0 142 9 160q3 7 11 7h84q72 0 103 36t31 119v381h407v-446q0 -204 -96 -314t-273 -110h-256zM10 -488v289h303v-289h-303zM200 -825v267h309v-267h-309zM400 -488v289h303v-289h-303z" />
    <glyph glyph-name="uni067E.medi" unicode="&#x67e;" horiz-adv-x="766" arabic-form="medial" 
d="M0 0q-11 0 -15 12q-5 15 -5 155q0 142 9 160q3 7 11 7h84q72 0 103 36t31 119v381h407v-368q0 -43 3 -69t13 -51t31.5 -36.5t56.5 -11.5h83q8 0 11 -7q9 -18 9 -160q0 -140 -5 -155q-4 -12 -15 -12h-63q-144 0 -228 102q-94 -102 -265 -102h-256zM10 -488v289h303v-289
h-303zM200 -825v267h309v-267h-309zM400 -488v289h303v-289h-303z" />
    <glyph glyph-name="uni0679.fina" unicode="&#x679;" horiz-adv-x="1848" arabic-form="final" 
d="M642 0q-252 0 -387 109t-135 318v309h407v-256q0 -88 36 -117t129 -29h426q73 0 104.5 33t31.5 113v390h407v-368q0 -43 3 -69t13 -51t31.5 -36.5t56.5 -11.5h83q8 0 11 -7q9 -18 9 -160q0 -140 -5 -155q-4 -12 -15 -12h-63q-154 0 -238 115q-121 -115 -359 -115h-546z
M650 1099v114h60v326h140v-193q70 64 155 64q38 0 71.5 -14t59 -49.5t25.5 -87.5q0 -48 -22.5 -82t-57 -49.5t-65 -22t-58.5 -6.5h-308zM850 1213h86q12 0 28.5 2.5t36 12.5t19.5 27q0 18 -13 29.5t-34 11.5q-31 0 -67.5 -23.5t-55.5 -59.5z" />
    <glyph glyph-name="uni0679.init" unicode="&#x679;" horiz-adv-x="745" arabic-form="initial" 
d="M0 0q-11 0 -15 12q-5 15 -5 155q0 142 9 160q3 7 11 7h84q72 0 103 36t31 119v381h407v-446q0 -204 -96 -314t-273 -110h-256zM173 1099v114h60v326h140v-193q70 64 155 64q38 0 71.5 -14t59 -49.5t25.5 -87.5q0 -48 -22.5 -82t-57 -49.5t-65 -22t-58.5 -6.5h-308z
M373 1213h86q12 0 28.5 2.5t36 12.5t19.5 27q0 18 -13 29.5t-34 11.5q-31 0 -67.5 -23.5t-55.5 -59.5z" />
    <glyph glyph-name="uni0679.medi" unicode="&#x679;" horiz-adv-x="812" arabic-form="medial" 
d="M0 0q-11 0 -15 12q-5 15 -5 155q0 142 9 160q3 7 11 7h84q72 0 103 36t31 119v381h407v-368q0 -43 3 -69t13 -51t31.5 -36.5t56.5 -11.5h83q8 0 11 -7q9 -18 9 -160q0 -140 -5 -155q-4 -12 -15 -12h-63q-144 0 -228 102q-94 -102 -265 -102h-256zM173 1099v114h60v326
h140v-193q70 64 155 64q38 0 71.5 -14t59 -49.5t25.5 -87.5q0 -48 -22.5 -82t-57 -49.5t-65 -22t-58.5 -6.5h-308zM373 1213h86q12 0 28.5 2.5t36 12.5t19.5 27q0 18 -13 29.5t-34 11.5q-31 0 -67.5 -23.5t-55.5 -59.5z" />
    <glyph glyph-name="uni06A4.fina" unicode="&#x6a4;" horiz-adv-x="1883" arabic-form="final" 
d="M643 0q-236 0 -379.5 133t-143.5 375v228h407v-228q0 -103 24.5 -138.5t91.5 -35.5h129q-11 57 -11 115q0 73 19 135t51 106t77 78.5t92.5 56t102 35t102.5 19t96 5.5q253 0 448 -137v-413h134q7 0 11 -7q9 -18 9 -160q0 -140 -5 -155q-4 -12 -15 -12h-1240zM916 1040
v289h303v-289h-303zM1106 1399v267h309v-267h-309zM1163 449q0 -53 31.5 -84t87.5 -31h65v211q-25 10 -55 10q-52 0 -90.5 -29t-38.5 -77zM1306 1040v289h303v-289h-303z" />
    <glyph glyph-name="uni06A4.init" unicode="&#x6a4;" horiz-adv-x="1084" arabic-form="initial" 
d="M0 0q-11 0 -15 12q-5 15 -5 155q0 142 9 160q3 7 11 7h127q-11 57 -11 115q0 73 19 135t51 106t77 78.5t92.5 56t102 35t102.5 19t96 5.5q253 0 448 -137v-747h-1104zM271 1040v289h303v-289h-303zM461 1399v267h309v-267h-309zM518 449q0 -53 31.5 -84t87.5 -31h65v211
q-25 10 -55 10q-52 0 -90.5 -29t-38.5 -77zM661 1040v289h303v-289h-303z" />
    <glyph glyph-name="uni06A4.medi" unicode="&#x6a4;" horiz-adv-x="1230" arabic-form="medial" 
d="M0 0q-11 0 -15 12q-5 15 -5 155q0 142 9 160q3 7 11 7h127q-11 57 -11 115q0 73 19 135t51 106t77 78.5t92.5 56t102 35t102.5 19t96 5.5q253 0 448 -137v-413h126q8 0 11 -7q9 -18 9 -160q0 -140 -5 -155q-4 -12 -15 -12h-1230zM271 1040v289h303v-289h-303zM461 1399
v267h309v-267h-309zM518 449q0 -53 31.5 -84t87.5 -31h65v211q-25 10 -55 10q-52 0 -90.5 -29t-38.5 -77zM661 1040v289h303v-289h-303z" />
    <glyph glyph-name="uni0686.fina" unicode="&#x686;" horiz-adv-x="1268" arabic-form="final" 
d="M477 0q1 -48 17 -75t52 -36l-64 -304q-175 23 -281 154t-106 300q0 180 61 295h614q-6 106 -75.5 169.5t-182.5 63.5q-72 0 -158 -37l-142 286q182 74 341 74q272 0 431 -139t178 -417h106q8 0 11 -7q9 -18 9 -160q0 -140 -5 -155q-4 -12 -15 -12h-791zM610 -371v215h226
v-215h-226zM752 -622v199h229v-199h-229zM900 -371v215h226v-215h-226z" />
    <glyph glyph-name="uni0686.init" unicode="&#x686;" horiz-adv-x="1231" arabic-form="initial" 
d="M0 334h728q-7 99 -78 160.5t-165 61.5q-137 0 -239 -52l-150 296q82 34 114 46t111 28t162 16q95 0 187 -23.5t176.5 -74.5t149 -123.5t102.5 -177.5t38 -229q0 -148 -26 -262h-1110q-11 0 -15 12q-5 15 -5 155q0 142 9 160q3 7 11 7zM103 -438v289h303v-289h-303z
M293 -775v267h309v-267h-309zM493 -438v289h303v-289h-303z" />
    <glyph glyph-name="uni0686.medi" unicode="&#x686;" horiz-adv-x="1153" arabic-form="medial" 
d="M0 0q-11 0 -15 12q-5 15 -5 155q0 142 9 160q3 7 11 7h728q-7 99 -78 160.5t-165 61.5q-137 0 -239 -52l-150 296q82 34 114 46t111 28t162 16q89 0 176 -21t168 -66t145 -109.5t107 -157t54 -202.5h20q7 0 11 -7q9 -18 9 -160q0 -140 -5 -155q-4 -12 -15 -12h-1153z
M103 -438v289h303v-289h-303zM293 -775v267h309v-267h-309zM493 -438v289h303v-289h-303z" />
    <glyph glyph-name="uni0688.fina" unicode="&#x688;" horiz-adv-x="1075" arabic-form="final" 
d="M95 0v334h476q-5 102 -64 162t-153 60q-64 0 -142 -22l-70 320q121 36 264 36q110 0 207 -34.5t175 -101t127.5 -174.5t59.5 -246h100q7 0 11 -7q9 -18 9 -160q0 -140 -5 -155q-4 -12 -15 -12h-980zM212 1099v114h60v326h140v-193q70 64 155 64q38 0 71.5 -14t59 -49.5
t25.5 -87.5q0 -48 -22.5 -82t-57 -49.5t-65 -22t-58.5 -6.5h-308zM412 1213h86q12 0 28.5 2.5t36 12.5t19.5 27q0 18 -13 29.5t-34 11.5q-31 0 -67.5 -23.5t-55.5 -59.5z" />
    <glyph glyph-name="uni0698.fina" unicode="&#x698;" horiz-adv-x="749" arabic-form="final" 
d="M-70 -451v334h92q52 0 73.5 33t21.5 96v858h407v-536h120q8 0 11 -7q9 -18 9 -160q0 -140 -5 -155q-4 -12 -15 -12h-120v-17q0 -191 -136 -312.5t-343 -121.5h-115zM-26 1040v289h303v-289h-303zM164 1399v267h309v-267h-309zM364 1040v289h303v-289h-303z" />
    <glyph glyph-name="uni0691.fina" unicode="&#x691;" horiz-adv-x="644" arabic-form="final" 
d="M-70 -451v334h92q52 0 73.5 33t21.5 96v858h407v-536h120q8 0 11 -7q9 -18 9 -160q0 -140 -5 -155q-4 -12 -15 -12h-120v-17q0 -191 -136 -312.5t-343 -121.5h-115zM76 1099v114h60v326h140v-193q70 64 155 64q38 0 71.5 -14t59 -49.5t25.5 -87.5q0 -48 -22.5 -82
t-57 -49.5t-65 -22t-58.5 -6.5h-308zM276 1213h86q12 0 28.5 2.5t36 12.5t19.5 27q0 18 -13 29.5t-34 11.5q-31 0 -67.5 -23.5t-55.5 -59.5z" />
    <glyph glyph-name="uni06A9.fina" unicode="&#x6a9;" horiz-adv-x="1885" arabic-form="final" 
d="M654 0q-270 0 -414.5 132.5t-144.5 361.5q0 74 25 187l398 -73q-17 -58 -17 -137q0 -29 4.5 -51.5t12 -36.5t18 -24.5t23 -15t26 -7t27.5 -2.5h28h14h683q-20 56 -52.5 93.5t-78 58.5t-96.5 30t-119 10h-329v405l363 528l337 -188l-273 -398q262 0 429 -145t220 -394h147
q7 0 11 -7q9 -18 9 -160q0 -140 -5 -155q-4 -12 -15 -12h-1231z" />
    <glyph glyph-name="uni06A9.init" unicode="&#x6a9;" horiz-adv-x="1366" arabic-form="initial" 
d="M0 0q-11 0 -15 12q-5 15 -5 155q0 142 9 160q3 7 11 7h831q-38 107 -122 148.5t-224 43.5h-314v404l364 529l336 -188l-272 -398q175 0 306 -57.5t210 -162.5t117.5 -242.5t38.5 -308.5q0 -27 -6 -102h-1265z" />
    <glyph glyph-name="uni06A9.medi" unicode="&#x6a9;" horiz-adv-x="1440" arabic-form="medial" 
d="M0 0q-11 0 -15 12q-5 15 -5 155q0 142 9 160q3 7 11 7h831q-38 107 -122 148.5t-224 43.5h-314v404l364 529l336 -188l-272 -398q281 0 442.5 -143t209.5 -396h189q8 0 11 -7q9 -18 9 -160q0 -140 -5 -155q-4 -12 -15 -12h-1440z" />
    <glyph glyph-name="uni06AF.fina" unicode="&#x6af;" horiz-adv-x="1885" arabic-form="final" 
d="M654 0q-270 0 -414.5 132.5t-144.5 361.5q0 74 25 187l398 -73q-17 -58 -17 -137q0 -29 4.5 -51.5t12 -36.5t18 -24.5t23 -15t26 -7t27.5 -2.5h28h14h683q-20 56 -52.5 93.5t-78 58.5t-96.5 30t-119 10h-329v405l363 528l337 -188l-273 -398q262 0 429 -145t220 -394h147
q7 0 11 -7q9 -18 9 -160q0 -140 -5 -155q-4 -12 -15 -12h-1231zM330 1119l376 543l200 -137l-376 -544z" />
    <glyph glyph-name="uni06AF.init" unicode="&#x6af;" horiz-adv-x="1366" arabic-form="initial" 
d="M66 963l-200 138l376 543l200 -137zM-20 167q0 142 9 160q3 7 11 7h831q-38 107 -122 148.5t-224 43.5h-314v404l364 529l336 -188l-272 -398q175 0 306 -57.5t210 -162.5t117.5 -242.5t38.5 -308.5q0 -27 -6 -102h-1265q-11 0 -15 12q-5 15 -5 155z" />
    <glyph glyph-name="uni06AF.medi" unicode="&#x6af;" horiz-adv-x="1435" arabic-form="medial" 
d="M36 981l-200 138l376 543l200 -137zM-25 167q0 142 9 160q4 7 11 7h831q-38 107 -122 148.5t-224 43.5h-314v404l364 529l336 -188l-272 -398q281 0 442.5 -143t209.5 -396h189q7 0 11 -7q9 -18 9 -160q0 -140 -5 -155q-4 -12 -15 -12h-1440q-11 0 -15 12q-5 15 -5 155z
" />
    <glyph glyph-name="uni06BA.fina" unicode="&#x6ba;" horiz-adv-x="1537" arabic-form="final" 
d="M787 -401q-173 0 -306.5 48t-217 133.5t-126 199t-42.5 250.5q0 118 34 269t87 294l384 -131q-41 -94 -69.5 -217.5t-28.5 -215.5q0 -155 62.5 -225.5t201.5 -70.5q117 0 171.5 50.5t54.5 166.5v720h407v-536h138q7 0 11 -7q9 -18 9 -160q0 -140 -5 -155q-4 -12 -15 -12
h-155q-45 -184 -197 -292.5t-398 -108.5z" />
    <glyph glyph-name="uni06C1.fina" unicode="&#x6c1;" horiz-adv-x="1218" arabic-form="final" 
d="M583 0q-238 0 -363 115t-125 320q0 101 35 180.5t88.5 126t124.5 76.5t135.5 41t129.5 11q147 0 251 -27.5t224 -84.5v-424h135q8 0 11 -7q9 -18 9 -160q0 -140 -5 -155q-4 -12 -15 -12h-635zM497 438q0 -44 32 -74t87 -30h65v205q-26 8 -55 8q-9 0 -16 -0.5t-30.5 -6
t-39.5 -15.5t-29.5 -32.5t-13.5 -54.5z" />
    <glyph glyph-name="uni06C1.init" unicode="&#x6c1;" horiz-adv-x="745" arabic-form="initial" 
d="M0 0q-11 0 -15 12q-5 15 -5 155q0 142 9 160q3 7 11 7h84q72 0 103 36t31 119v381h407v-446q0 -204 -96 -314t-273 -110h-256zM47 -559q45 182 176 479h290q-57 -247 -97 -502h-354z" />
    <glyph glyph-name="uni06C1.medi" unicode="&#x6c1;" horiz-adv-x="1347" arabic-form="medial" 
d="M567 -451q-103 0 -216 26.5t-174 49.5v375h-177q-11 0 -15 12q-5 15 -5 155q0 142 9 160q3 7 11 7h584v-438q21 -10 60 -10q60 0 91 54.5t31 152.5v241h581q7 0 11 -7q9 -18 9 -160q0 -140 -5 -155q-4 -12 -15 -12h-181l-1 -5q-35 -201 -194.5 -323.5t-403.5 -122.5z" />
    <glyph glyph-name="uni06BE.fina" unicode="&#x6be;" horiz-adv-x="1998" arabic-form="final" 
d="M80 0v334h194q-11 57 -11 115q0 83 29.5 150.5t81.5 111.5t111 72t130 44q24 57 56.5 106.5t80.5 96t106 79.5t136 52.5t167 19.5q196 0 339.5 -85.5t216.5 -235t73 -344.5v-182h208q8 0 11 -7q9 -18 9 -160q0 -140 -5 -155q-4 -12 -15 -12h-1918zM665 449
q0 -53 31.5 -84t87.5 -31h65v211q-25 10 -55 10q-52 0 -90.5 -29t-38.5 -77zM1005 824q133 -34 246 -113v-377h132v232q0 296 -222 296q-115 0 -156 -38z" />
    <glyph glyph-name="uni06BE.init" unicode="&#x6be;" horiz-adv-x="1805" arabic-form="initial" 
d="M0 0q-11 0 -15 12q-5 15 -5 155q0 142 9 160q3 7 11 7h194q-11 57 -11 115q0 83 29.5 150.5t81.5 111.5t111 72t130 44q24 57 56.5 106.5t80.5 96t106 79.5t136 52.5t167 19.5q196 0 339.5 -85.5t216.5 -235t73 -344.5v-516h-1710zM585 449q0 -53 31.5 -84t87.5 -31h65
v211q-25 10 -55 10q-52 0 -90.5 -29t-38.5 -77zM925 824q133 -34 246 -113v-377h132v232q0 296 -222 296q-115 0 -156 -38z" />
    <glyph glyph-name="uni06BE.medi" unicode="&#x6be;" horiz-adv-x="1504" arabic-form="medial" 
d="M0 0q-11 0 -15 12q-5 15 -5 155q0 142 9 160q3 7 11 7h194q-11 57 -11 115q0 83 29.5 150.5t81.5 111.5t111 72t130 44q24 57 56.5 106.5t80.5 96t106 79.5t136 52.5t167 19.5q196 0 339.5 -85.5t216.5 -235t73 -344.5v-516h-1710zM585 449q0 -53 31.5 -84t87.5 -31h65
v211q-25 10 -55 10q-52 0 -90.5 -29t-38.5 -77zM925 824q133 -34 246 -113v-377h132v232q0 296 -222 296q-115 0 -156 -38z" />
    <glyph glyph-name="uni06D2.fina" unicode="&#x6d2;" horiz-adv-x="1282" arabic-form="final" 
d="M170 -451q-19 51 -34.5 123t-15.5 128q0 261 138.5 397.5t415.5 136.5h608q8 0 11 -7q9 -18 9 -160q0 -140 -5 -155q-4 -12 -15 -12h-608q-83 0 -112 -20.5t-34 -96.5h529l-55 -334h-832z" />
    <glyph glyph-name="uni06D3.fina" unicode="&#x6d3;" horiz-adv-x="1282" arabic-form="final" 
d="M170 -451q-19 51 -34.5 123t-15.5 128q0 261 138.5 397.5t415.5 136.5h608q8 0 11 -7q9 -18 9 -160q0 -140 -5 -155q-4 -12 -15 -12h-608q-83 0 -112 -20.5t-34 -96.5h529l-55 -334h-832zM514 607q0 131 58.5 203t179.5 72h146v-172h-136q-23 0 -37 -14.5t-15 -37.5h233
v-180h-419q-10 72 -10 129z" />
    <glyph glyph-name="uni06CC.fina" unicode="&#x6cc;" horiz-adv-x="2044" arabic-form="final" 
d="M1569 0v278q0 123 -49.5 196t-132.5 81v-729h-733q-270 0 -414.5 132.5t-144.5 361.5q0 43 18.5 156.5t41.5 188.5l388 -71q-42 -143 -42 -297q0 -29 4.5 -51.5t12 -36.5t18 -24.5t23 -15t26 -7t27.5 -2.5h28h14h326v654q59 22 173 49t217 27q247 0 416 -154t188 -402h70
q8 0 11 -7q9 -18 9 -160q0 -140 -5 -155q-4 -12 -15 -12h-475z" />
    <glyph glyph-name="uni06CC.init" unicode="&#x6cc;" horiz-adv-x="745" arabic-form="initial" 
d="M0 0q-11 0 -15 12q-5 15 -5 155q0 142 9 160q3 7 11 7h84q72 0 103 36t31 119v381h407v-446q0 -204 -96 -314t-273 -110h-256zM14 -524v320h297v-320h-297zM397 -524v320h297v-320h-297z" />
    <glyph glyph-name="uni06CC.medi" unicode="&#x6cc;" horiz-adv-x="812" arabic-form="medial" 
d="M0 0q-11 0 -15 12q-5 15 -5 155q0 142 9 160q3 7 11 7h84q72 0 103 36t31 119v381h407v-368q0 -43 3 -69t13 -51t31.5 -36.5t56.5 -11.5h83q8 0 11 -7q9 -18 9 -160q0 -140 -5 -155q-4 -12 -15 -12h-63q-144 0 -228 102q-94 -102 -265 -102h-256zM14 -524v320h297v-320
h-297zM397 -524v320h297v-320h-297z" />
    <glyph glyph-name="uniFDFA" unicode="&#xfdfa;" horiz-adv-x="2730" arabic-form="isolated" 
d="M778 118q-8 59 27 101t98 53q32 81 133 81q69 0 105 -39t36 -86v-31h70v318h115v-318h79v151h114v-151h16q28 0 28 34v117h114v-132q0 -31 22 -31q21 0 21 39v124h115v-124q0 -64 -34 -99t-99 -35q-54 0 -86 29q-30 -16 -70 -16h-553q-87 0 -121 69q-21 -14 -18 -41
l23 -155h-114zM150 582q0 46 26 75.5t55.5 38.5t62.5 9q63 0 134 -32v-120h61q38 0 38 44v108h115v-104q0 -17 1.5 -25.5t8 -15.5t19.5 -7h68v318h114v-318h91q-2 9 -2 27q0 55 38 92.5t93 37.5q66 0 112 -27l-40 -82q-38 17 -65 15q-15 -2 -25 -12t-10 -21q0 -12 8 -21
t20 -9h117v-93h-513q-40 0 -65 28q-26 -28 -74 -28h-251q-67 0 -102 32.5t-35 89.5zM263 583q0 -13 9 -21.5t25 -8.5h18v58q-10 2 -16 2q-36 0 -36 -30zM472 313v89h84v-89h-84zM575 313v89h83v-89h-83zM1009 227q0 -30 32 -30h22v31q0 31 -27 31q-12 0 -19.5 -9t-7.5 -23z
M1019 915q0 46 25.5 75.5t55.5 38t63 8.5q67 0 134 -31v-120h66v263h116v-263h73v317h116v-411h-512q-67 0 -102 32.5t-35 90.5zM1132 915q0 -29 33 -29h18v57q-5 3 -15 3q-36 0 -36 -31zM1325 1261l38 6l3 -24q3 -18 18 -16t12 21l-4 22l37 6l4 -23q1 -12 9.5 -15.5t15 3
t4.5 18.5l-3 21l37 5l6 -29q6 -36 -23.5 -52.5t-56.5 -1.5q-13 -13 -33 -15.5t-37 8.5t-21 34zM1394 1293v57h34v-57h-34zM1418 550q0 42 16 97l110 -20q-12 -43 -12 -84q0 -15 3 -23.5t12.5 -11.5t11.5 -3h16h92v184q13 6 46.5 13.5t62.5 7.5q74 0 122 -41t48 -102v-14h64
v318h116v-318h85v152h115v-43q58 53 129 53q48 0 86.5 -31.5t38.5 -93.5q0 -39 -18 -66.5t-46.5 -40t-53 -18t-46.5 -5.5h-584v78q0 37 -16 58q-14 17 -35 20v-205h-206q-77 0 -117 37t-40 102zM1728 792v411h115v-411h-115zM1925 226q0 35 13 61t34.5 39t43 19t44.5 6
q79 0 143 -32v-229q0 -58 -40 -86t-101 -28q-73 0 -131 31l32 85q48 -24 94 -24q13 0 23 7.5t10 21.5v6h-29q-66 0 -101 32.5t-35 90.5zM2038 226q0 -13 9 -21t25 -8h18v56q-5 2 -16 2q-36 0 -36 -29zM2326 553h71q6 0 15.5 1t22.5 4.5t22 11t9 17.5q0 34 -40 34
q-25 0 -55 -18.5t-44 -47.5z" />
    <glyph glyph-name="uni0622.isol" unicode="&#x622;" horiz-adv-x="647" arabic-form="isolated" 
d="M120 0v1155h407v-1155h-407zM25 1427l208 155q29 -27 79 -52t103 -25q104 0 206 81v-192q-92 -74 -216 -74q-87 0 -157 47l-120 -83z" />
    <glyph glyph-name="uni0622.fina" unicode="&#x622;" horiz-adv-x="727" arabic-form="final" 
d="M120 0v1155h407v-821h200q7 0 11 -7q9 -18 9 -160q0 -140 -5 -155q-4 -12 -15 -12h-607zM25 1427l208 155q29 -27 79 -52t103 -25q104 0 206 81v-192q-92 -74 -216 -74q-87 0 -157 47l-120 -83z" />
    <glyph glyph-name="uni0623.fina" unicode="&#x623;" horiz-adv-x="727" arabic-form="final" 
d="M120 0v1155h407v-821h200q7 0 11 -7q9 -18 9 -160q0 -140 -5 -155q-4 -12 -15 -12h-607zM110 1384q0 131 58.5 203t179.5 72h146v-172h-136q-23 0 -37 -14.5t-15 -37.5h233v-180h-419q-10 72 -10 129z" />
    <glyph glyph-name="uni0624.fina" unicode="&#x624;" horiz-adv-x="1217" arabic-form="final" 
d="M561 -451q-94 0 -224.5 26t-240.5 84l111 303q94 -46 168 -65t165 -19q47 0 81.5 25.5t34.5 74.5v22h-98q-238 0 -363 115t-125 320q0 102 31.5 182t81 128.5t115.5 80.5t128 44t126 12q270 0 506 -112v-436h159q7 0 11 -7q9 -18 9 -160q0 -140 -5 -155q-4 -12 -15 -12
h-159v-47q0 -86 -27.5 -155t-74 -114.5t-110.5 -76.5t-135 -44.5t-150 -13.5zM351 1166q0 131 58.5 203t179.5 72h146v-172h-136q-23 0 -37 -14.5t-15 -37.5h233v-180h-419q-10 72 -10 129zM472 435q0 -44 32 -72.5t87 -28.5h65v199q-26 8 -55 8q-108 0 -126 -77
q-3 -14 -3 -29z" />
    <glyph glyph-name="uni0625.fina" unicode="&#x625;" horiz-adv-x="677" arabic-form="final" 
d="M120 0v1462h407v-1128h150q7 0 11 -7q9 -18 9 -160q0 -140 -5 -155q-4 -12 -15 -12h-557zM110 -416q0 131 58.5 203t179.5 72h146v-172h-136q-23 0 -37 -14.5t-15 -37.5h233v-180h-419q-10 72 -10 129z" />
    <glyph glyph-name="uni0626.fina" unicode="&#x626;" horiz-adv-x="2044" arabic-form="final" 
d="M1569 0v278q0 123 -49.5 196t-132.5 81v-729h-733q-270 0 -414.5 132.5t-144.5 361.5q0 43 18.5 156.5t41.5 188.5l388 -71q-42 -143 -42 -297q0 -29 4.5 -51.5t12 -36.5t18 -24.5t23 -15t26 -7t27.5 -2.5h28h14h326v654q59 22 173 49t217 27q247 0 416 -154t188 -402h70
q8 0 11 -7q9 -18 9 -160q0 -140 -5 -155q-4 -12 -15 -12h-475zM255 889q0 131 58.5 203t179.5 72h146v-172h-136q-23 0 -37 -14.5t-15 -37.5h233v-180h-419q-10 72 -10 129z" />
    <glyph glyph-name="uni0626.init" unicode="&#x626;" horiz-adv-x="745" arabic-form="initial" 
d="M0 0q-11 0 -15 12q-5 15 -5 155q0 142 9 160q3 7 11 7h84q72 0 103 36t31 119v381h407v-446q0 -204 -96 -314t-273 -110h-256zM204 1166q0 131 58.5 203t179.5 72h146v-172h-136q-23 0 -37 -14.5t-15 -37.5h233v-180h-419q-10 72 -10 129z" />
    <glyph glyph-name="uni0626.medi" unicode="&#x626;" horiz-adv-x="812" arabic-form="medial" 
d="M0 0q-11 0 -15 12q-5 15 -5 155q0 142 9 160q3 7 11 7h84q72 0 103 36t31 119v381h407v-368q0 -43 3 -69t13 -51t31.5 -36.5t56.5 -11.5h83q8 0 11 -7q9 -18 9 -160q0 -140 -5 -155q-4 -12 -15 -12h-63q-144 0 -228 102q-94 -102 -265 -102h-256zM204 1166
q0 131 58.5 203t179.5 72h146v-172h-136q-23 0 -37 -14.5t-15 -37.5h233v-180h-419q-10 72 -10 129z" />
    <glyph glyph-name="uni0627.isol" unicode="&#x627;" horiz-adv-x="647" arabic-form="isolated" 
d="M120 0v1462h407v-1462h-407z" />
    <glyph glyph-name="uni0627.fina" unicode="&#x627;" horiz-adv-x="677" arabic-form="final" 
d="M120 0v1462h407v-1128h150q7 0 11 -7q9 -18 9 -160q0 -140 -5 -155q-4 -12 -15 -12h-557z" />
    <glyph glyph-name="uni0628.isol" unicode="&#x628;" horiz-adv-x="1781" arabic-form="isolated" 
d="M642 0q-252 0 -387 109t-135 318v309h407v-256q0 -88 36 -117t129 -29h426q73 0 104.5 33t31.5 113v390h407v-443q0 -209 -121 -318t-352 -109h-546zM709 -525v325h375v-325h-375z" />
    <glyph glyph-name="uni0628.fina" unicode="&#x628;" horiz-adv-x="1848" arabic-form="final" 
d="M642 0q-252 0 -387 109t-135 318v309h407v-256q0 -88 36 -117t129 -29h426q73 0 104.5 33t31.5 113v390h407v-368q0 -43 3 -69t13 -51t31.5 -36.5t56.5 -11.5h83q8 0 11 -7q9 -18 9 -160q0 -140 -5 -155q-4 -12 -15 -12h-63q-154 0 -238 115q-121 -115 -359 -115h-546z
M709 -525v325h375v-325h-375z" />
    <glyph glyph-name="uni0628.init" unicode="&#x628;" horiz-adv-x="745" arabic-form="initial" 
d="M0 0q-11 0 -15 12q-5 15 -5 155q0 142 9 160q3 7 11 7h84q72 0 103 36t31 119v381h407v-446q0 -204 -96 -314t-273 -110h-256zM171 -525v325h375v-325h-375z" />
    <glyph glyph-name="uni0628.medi" unicode="&#x628;" horiz-adv-x="812" arabic-form="medial" 
d="M0 0q-11 0 -15 12q-5 15 -5 155q0 142 9 160q3 7 11 7h84q72 0 103 36t31 119v381h407v-368q0 -43 3 -69t13 -51t31.5 -36.5t56.5 -11.5h83q8 0 11 -7q9 -18 9 -160q0 -140 -5 -155q-4 -12 -15 -12h-63q-144 0 -228 102q-94 -102 -265 -102h-256zM171 -525v325h375v-325
h-375z" />
    <glyph glyph-name="uni0629.isol" unicode="&#x629;" horiz-adv-x="1194" arabic-form="isolated" 
d="M620 0q-113 0 -205 28.5t-150 73.5t-97.5 104.5t-56 118t-16.5 116.5q0 60 17.5 121t56.5 120.5t96 105t142.5 74t188.5 28.5t189 -28.5t143 -74t96.5 -104.5t57 -119t17.5 -119v-290q-85 -72 -211.5 -113.5t-267.5 -41.5zM255 1037v320h297v-320h-297zM501 445
q0 -39 25.5 -74.5t72.5 -35.5q55 0 93 42v68q0 39 -26 75t-69 36q-44 0 -70 -36t-26 -75zM638 1037v320h297v-320h-297z" />
    <glyph glyph-name="uni0629.fina" unicode="&#x629;" horiz-adv-x="1218" arabic-form="final" 
d="M583 0q-238 0 -363 115t-125 320q0 101 35 180.5t88.5 126t124.5 76.5t135.5 41t129.5 11q147 0 251 -27.5t224 -84.5v-424h135q8 0 11 -7q9 -18 9 -160q0 -140 -5 -155q-4 -12 -15 -12h-635zM267 1037v320h297v-320h-297zM497 438q0 -44 32 -74t87 -30h65v205
q-26 8 -55 8q-9 0 -16 -0.5t-30.5 -6t-39.5 -15.5t-29.5 -32.5t-13.5 -54.5zM650 1037v320h297v-320h-297z" />
    <glyph glyph-name="uni062A.isol" unicode="&#x62a;" horiz-adv-x="1781" arabic-form="isolated" 
d="M642 0q-252 0 -387 109t-135 318v309h407v-256q0 -88 36 -117t129 -29h426q73 0 104.5 33t31.5 113v390h407v-443q0 -209 -121 -318t-352 -109h-546zM554 1037v320h297v-320h-297zM937 1037v320h297v-320h-297z" />
    <glyph glyph-name="uni062A.fina" unicode="&#x62a;" horiz-adv-x="1848" arabic-form="final" 
d="M642 0q-252 0 -387 109t-135 318v309h407v-256q0 -88 36 -117t129 -29h426q73 0 104.5 33t31.5 113v390h407v-368q0 -43 3 -69t13 -51t31.5 -36.5t56.5 -11.5h83q8 0 11 -7q9 -18 9 -160q0 -140 -5 -155q-4 -12 -15 -12h-63q-154 0 -238 115q-121 -115 -359 -115h-546z
M554 1037v320h297v-320h-297zM937 1037v320h297v-320h-297z" />
    <glyph glyph-name="uni062A.init" unicode="&#x62a;" horiz-adv-x="745" arabic-form="initial" 
d="M0 0q-11 0 -15 12q-5 15 -5 155q0 142 9 160q3 7 11 7h84q72 0 103 36t31 119v381h407v-446q0 -204 -96 -314t-273 -110h-256zM77 1037v320h297v-320h-297zM460 1037v320h297v-320h-297z" />
    <glyph glyph-name="uni062A.medi" unicode="&#x62a;" horiz-adv-x="812" arabic-form="medial" 
d="M0 0q-11 0 -15 12q-5 15 -5 155q0 142 9 160q3 7 11 7h84q72 0 103 36t31 119v381h407v-368q0 -43 3 -69t13 -51t31.5 -36.5t56.5 -11.5h83q8 0 11 -7q9 -18 9 -160q0 -140 -5 -155q-4 -12 -15 -12h-63q-144 0 -228 102q-94 -102 -265 -102h-256zM77 1037v320h297v-320
h-297zM460 1037v320h297v-320h-297z" />
    <glyph glyph-name="uni062B.isol" unicode="&#x62b;" horiz-adv-x="1781" arabic-form="isolated" 
d="M642 0q-252 0 -387 109t-135 318v309h407v-256q0 -88 36 -117t129 -29h426q73 0 104.5 33t31.5 113v390h407v-443q0 -209 -121 -318t-352 -109h-546zM548 1040v289h303v-289h-303zM738 1399v267h309v-267h-309zM938 1040v289h303v-289h-303z" />
    <glyph glyph-name="uni062B.fina" unicode="&#x62b;" horiz-adv-x="1822" arabic-form="final" 
d="M642 0q-252 0 -387 109t-135 318v309h407v-256q0 -88 36 -117t129 -29h426q73 0 104.5 33t31.5 113v390h407v-368q0 -43 3 -69t13 -51t31.5 -36.5t56.5 -11.5h83q8 0 11 -7q9 -18 9 -160q0 -140 -5 -155q-4 -12 -15 -12h-63q-154 0 -238 115q-121 -115 -359 -115h-546z
M548 1040v289h303v-289h-303zM738 1399v267h309v-267h-309zM938 1040v289h303v-289h-303z" />
    <glyph glyph-name="uni062B.init" unicode="&#x62b;" horiz-adv-x="810" arabic-form="initial" 
d="M0 0q-11 0 -15 12q-5 15 -5 155q0 142 9 160q3 7 11 7h84q72 0 103 36t31 119v381h407v-446q0 -204 -96 -314t-273 -110h-256zM71 1040v289h303v-289h-303zM261 1399v267h309v-267h-309zM461 1040v289h303v-289h-303z" />
    <glyph glyph-name="uni062B.medi" unicode="&#x62b;" horiz-adv-x="766" arabic-form="medial" 
d="M0 0q-11 0 -15 12q-5 15 -5 155q0 142 9 160q3 7 11 7h84q72 0 103 36t31 119v381h407v-368q0 -43 3 -69t13 -51t31.5 -36.5t56.5 -11.5h83q8 0 11 -7q9 -18 9 -160q0 -140 -5 -155q-4 -12 -15 -12h-63q-144 0 -228 102q-94 -102 -265 -102h-256zM71 1040v289h303v-289
h-303zM261 1399v267h309v-267h-309zM461 1040v289h303v-289h-303z" />
    <glyph glyph-name="uni062C.isol" unicode="&#x62c;" horiz-adv-x="1347" arabic-form="isolated" 
d="M665 -451q-263 0 -416.5 125t-153.5 368q0 179 61 292h1h687q-7 99 -78 160.5t-165 61.5q-137 0 -239 -52l-150 296q82 34 114 46t111 28t162 16q95 0 187 -23.5t176.5 -74.5t149 -123.5t102.5 -177.5t38 -229q0 -148 -26 -262h-722q6 -64 41 -90.5t121 -26.5h41v-334
h-42zM801 -449v325h375v-325h-375z" />
    <glyph glyph-name="uni062C.fina" unicode="&#x62c;" horiz-adv-x="1330" arabic-form="final" 
d="M504 0q6 -64 41 -90.5t121 -26.5h41v-334h-42q-263 0 -416.5 125t-153.5 368q0 179 61 292h1h687q-7 99 -78 160.5t-165 61.5q-137 0 -239 -52l-150 296q82 34 114 46t111 28t162 16q89 0 176 -21t168 -66t145 -109.5t107 -157t54 -202.5h81q8 0 11 -7q9 -18 9 -160
q0 -140 -5 -155q-4 -12 -15 -12h-826zM801 -449v325h375v-325h-375z" />
    <glyph glyph-name="uni062C.init" unicode="&#x62c;" horiz-adv-x="1231" arabic-form="initial" 
d="M0 334h728q-7 99 -78 160.5t-165 61.5q-137 0 -239 -52l-150 296q82 34 114 46t111 28t162 16q95 0 187 -23.5t176.5 -74.5t149 -123.5t102.5 -177.5t38 -229q0 -148 -26 -262h-1110q-11 0 -15 12q-5 15 -5 155q0 142 9 160q3 7 11 7zM264 -475v325h375v-325h-375z" />
    <glyph glyph-name="uni062C.medi" unicode="&#x62c;" horiz-adv-x="1153" arabic-form="medial" 
d="M0 0q-11 0 -15 12q-5 15 -5 155q0 142 9 160q3 7 11 7h728q-7 99 -78 160.5t-165 61.5q-137 0 -239 -52l-150 296q82 34 114 46t111 28t162 16q89 0 176 -21t168 -66t145 -109.5t107 -157t54 -202.5h20q7 0 11 -7q9 -18 9 -160q0 -140 -5 -155q-4 -12 -15 -12h-1153z
M264 -475v325h375v-325h-375z" />
    <glyph glyph-name="uni062D.isol" unicode="&#x62d;" horiz-adv-x="1346" arabic-form="isolated" 
d="M1085 -413q-76 -30 -166.5 -46.5t-240.5 -16.5q-111 0 -216.5 38t-186.5 104t-130.5 164.5t-49.5 211.5q0 179 61 292h687q-7 99 -78 160.5t-165 61.5q-137 0 -239 -52l-150 296q82 34 114 46t111 28t162 16q95 0 187 -23.5t176.5 -74.5t149 -123.5t102.5 -177.5t38 -229
q0 -148 -26 -262h-752q26 -119 214 -142q72 -9 154 3.5t146 36.5z" />
    <glyph glyph-name="uni062D.fina" unicode="&#x62d;" horiz-adv-x="1330" arabic-form="final" 
d="M473 0q26 -119 214 -142q72 -9 154 3.5t146 36.5l98 -311q-76 -30 -166.5 -46.5t-240.5 -16.5q-111 0 -216.5 38t-186.5 104t-130.5 164.5t-49.5 211.5q0 179 61 292h687q-7 99 -78 160.5t-165 61.5q-137 0 -239 -52l-150 296q82 34 114 46t111 28t162 16q89 0 176 -21
t168 -66t145 -109.5t107 -157t54 -202.5h82q8 0 11 -7q9 -18 9 -160q0 -140 -5 -155q-4 -12 -15 -12h-857z" />
    <glyph glyph-name="uni062D.init" unicode="&#x62d;" horiz-adv-x="1231" arabic-form="initial" 
d="M0 334h728q-7 99 -78 160.5t-165 61.5q-137 0 -239 -52l-150 296q82 34 114 46t111 28t162 16q95 0 187 -23.5t176.5 -74.5t149 -123.5t102.5 -177.5t38 -229q0 -148 -26 -262h-1110q-11 0 -15 12q-5 15 -5 155q0 142 9 160q3 7 11 7z" />
    <glyph glyph-name="uni062D.medi" unicode="&#x62d;" horiz-adv-x="1153" arabic-form="medial" 
d="M0 0q-11 0 -15 12q-5 15 -5 155q0 142 9 160q3 7 11 7h728q-7 99 -78 160.5t-165 61.5q-137 0 -239 -52l-150 296q82 34 114 46t111 28t162 16q89 0 176 -21t168 -66t145 -109.5t107 -157t54 -202.5h20q7 0 11 -7q9 -18 9 -160q0 -140 -5 -155q-4 -12 -15 -12h-1153z" />
    <glyph glyph-name="uni062E.isol" unicode="&#x62e;" horiz-adv-x="1346" arabic-form="isolated" 
d="M1085 -413q-76 -30 -166.5 -46.5t-240.5 -16.5q-111 0 -216.5 38t-186.5 104t-130.5 164.5t-49.5 211.5q0 179 61 292h687q-7 99 -78 160.5t-165 61.5q-137 0 -239 -52l-150 296q82 34 114 46t111 28t162 16q95 0 187 -23.5t176.5 -74.5t149 -123.5t102.5 -177.5t38 -229
q0 -148 -26 -262h-752q26 -119 214 -142q72 -9 154 3.5t146 36.5zM466 1039v325h375v-325h-375z" />
    <glyph glyph-name="uni062E.fina" unicode="&#x62e;" horiz-adv-x="1330" arabic-form="final" 
d="M473 0q26 -119 214 -142q72 -9 154 3.5t146 36.5l98 -311q-76 -30 -166.5 -46.5t-240.5 -16.5q-111 0 -216.5 38t-186.5 104t-130.5 164.5t-49.5 211.5q0 179 61 292h687q-7 99 -78 160.5t-165 61.5q-137 0 -239 -52l-150 296q82 34 114 46t111 28t162 16q89 0 176 -21
t168 -66t145 -109.5t107 -157t54 -202.5h82q8 0 11 -7q9 -18 9 -160q0 -140 -5 -155q-4 -12 -15 -12h-857zM466 1039v325h375v-325h-375z" />
    <glyph glyph-name="uni062E.init" unicode="&#x62e;" horiz-adv-x="1231" arabic-form="initial" 
d="M0 334h728q-7 99 -78 160.5t-165 61.5q-137 0 -239 -52l-150 296q82 34 114 46t111 28t162 16q95 0 187 -23.5t176.5 -74.5t149 -123.5t102.5 -177.5t38 -229q0 -148 -26 -262h-1110q-11 0 -15 12q-5 15 -5 155q0 142 9 160q3 7 11 7zM266 1039v325h375v-325h-375z" />
    <glyph glyph-name="uni062E.medi" unicode="&#x62e;" horiz-adv-x="1153" arabic-form="medial" 
d="M0 0q-11 0 -15 12q-5 15 -5 155q0 142 9 160q3 7 11 7h728q-7 99 -78 160.5t-165 61.5q-137 0 -239 -52l-150 296q82 34 114 46t111 28t162 16q89 0 176 -21t168 -66t145 -109.5t107 -157t54 -202.5h20q7 0 11 -7q9 -18 9 -160q0 -140 -5 -155q-4 -12 -15 -12h-1153z
M266 1039v325h375v-325h-375z" />
    <glyph glyph-name="uni062F.isol" unicode="&#x62f;" horiz-adv-x="1023" arabic-form="isolated" 
d="M70 0v334h476q-5 102 -64 162t-153 60q-64 0 -142 -22l-70 320q121 36 264 36q117 0 219 -38.5t181.5 -114t125.5 -197.5t46 -278q0 -118 -33 -262h-850z" />
    <glyph glyph-name="uni062F.fina" unicode="&#x62f;" horiz-adv-x="1075" arabic-form="final" 
d="M95 0v334h476q-5 102 -64 162t-153 60q-64 0 -142 -22l-70 320q121 36 264 36q110 0 207 -34.5t175 -101t127.5 -174.5t59.5 -246h100q7 0 11 -7q9 -18 9 -160q0 -140 -5 -155q-4 -12 -15 -12h-980z" />
    <glyph glyph-name="uni0630.isol" unicode="&#x630;" horiz-adv-x="1023" arabic-form="isolated" 
d="M70 0v334h476q-5 102 -64 162t-153 60q-64 0 -142 -22l-70 320q121 36 264 36q117 0 219 -38.5t181.5 -114t125.5 -197.5t46 -278q0 -118 -33 -262h-850zM248 1039v325h375v-325h-375z" />
    <glyph glyph-name="uni0630.fina" unicode="&#x630;" horiz-adv-x="1075" arabic-form="final" 
d="M95 0v334h476q-5 102 -64 162t-153 60q-64 0 -142 -22l-70 320q121 36 264 36q110 0 207 -34.5t175 -101t127.5 -174.5t59.5 -246h100q7 0 11 -7q9 -18 9 -160q0 -140 -5 -155q-4 -12 -15 -12h-980zM273 1039v325h375v-325h-375z" />
    <glyph glyph-name="uni0631.isol" unicode="&#x631;" horiz-adv-x="644" arabic-form="isolated" 
d="M-70 -451v334h92q52 0 73.5 33t21.5 96v858h407v-887q0 -191 -136 -312.5t-343 -121.5h-115z" />
    <glyph glyph-name="uni0631.fina" unicode="&#x631;" horiz-adv-x="644" arabic-form="final" 
d="M-70 -451v334h92q52 0 73.5 33t21.5 96v858h407v-536h120q8 0 11 -7q9 -18 9 -160q0 -140 -5 -155q-4 -12 -15 -12h-120v-17q0 -191 -136 -312.5t-343 -121.5h-115z" />
    <glyph glyph-name="uni0632.isol" unicode="&#x632;" horiz-adv-x="644" arabic-form="isolated" 
d="M-70 -451v334h92q52 0 73.5 33t21.5 96v858h407v-887q0 -191 -136 -312.5t-343 -121.5h-115zM137 1039v325h375v-325h-375z" />
    <glyph glyph-name="uni0632.fina" unicode="&#x632;" horiz-adv-x="644" arabic-form="final" 
d="M-70 -451v334h92q52 0 73.5 33t21.5 96v858h407v-536h120q8 0 11 -7q9 -18 9 -160q0 -140 -5 -155q-4 -12 -15 -12h-120v-17q0 -191 -136 -312.5t-343 -121.5h-115zM137 1039v325h375v-325h-375z" />
    <glyph glyph-name="uni0633.isol" unicode="&#x633;" horiz-adv-x="2551" arabic-form="isolated" 
d="M737 -451q-145 0 -267 47.5t-203.5 128.5t-126.5 188.5t-45 228.5q0 168 106 421l376 -131q-75 -175 -75 -291q0 -122 62 -190t174 -68q85 0 123.5 50.5t38.5 166.5v770h407v-536h58q51 0 74.5 28t23.5 92v416h407v-437l-1 -30h1q0 -114 78 -114q42 0 59 31t17 112v438
h407v-438q0 -228 -121 -352.5t-353 -124.5q-192 0 -303 103q-108 -58 -251 -58h-103q-31 -203 -178 -327t-385 -124z" />
    <glyph glyph-name="uni0633.fina" unicode="&#x633;" horiz-adv-x="2522" arabic-form="final" 
d="M2449 0q-85 0 -185 40q-117 -85 -307 -85q-192 0 -303 103q-108 -58 -251 -58h-103q-31 -203 -178 -327t-385 -124q-145 0 -267 47.5t-203.5 128.5t-126.5 188.5t-45 228.5q0 168 106 421l376 -131q-75 -175 -75 -291q0 -122 62 -190t174 -68q85 0 123.5 50.5t38.5 166.5
v770h407v-536h58q51 0 74.5 28t23.5 92v416h407v-437l-1 -30h1q0 -114 78 -114q42 0 59 31t17 112v438h407v-438q0 -50 -6 -97q8 -1 24 -1h73q8 0 11 -7q9 -18 9 -160q0 -140 -5 -155q-4 -12 -15 -12h-73z" />
    <glyph glyph-name="uni0633.init" unicode="&#x633;" horiz-adv-x="1798" arabic-form="initial" 
d="M0 0q-11 0 -15 12q-5 15 -5 155q0 142 9 160q3 7 11 7h147v536h407v-536h58q51 0 74.5 28t23.5 92v416h407v-437l-1 -30h1q0 -114 78 -114q42 0 59 31t17 112v438h407v-438q0 -228 -121 -352.5t-353 -124.5q-192 0 -303 103q-108 -58 -251 -58h-650z" />
    <glyph glyph-name="uni0633.medi" unicode="&#x633;" horiz-adv-x="1802" arabic-form="medial" 
d="M1729 0q-94 0 -207 49q-119 -94 -318 -94q-192 0 -303 103q-108 -58 -251 -58h-650q-11 0 -15 12q-5 15 -5 155q0 142 9 160q3 7 11 7h147v536h407v-536h58q51 0 74.5 28t23.5 92v416h407v-437l-1 -30h1q0 -114 78 -114q42 0 59 31t17 112v438h407v-438q0 -43 -5 -90
q27 -8 56 -8h73q8 0 11 -7q9 -18 9 -160q0 -140 -5 -155q-4 -12 -15 -12h-73z" />
    <glyph glyph-name="uni0634.isol" unicode="&#x634;" horiz-adv-x="2551" arabic-form="isolated" 
d="M737 -451q-145 0 -267 47.5t-203.5 128.5t-126.5 188.5t-45 228.5q0 168 106 421l376 -131q-75 -175 -75 -291q0 -122 62 -190t174 -68q85 0 123.5 50.5t38.5 166.5v770h407v-536h58q51 0 74.5 28t23.5 92v416h407v-437l-1 -30h1q0 -114 78 -114q42 0 59 31t17 112v438
h407v-438q0 -228 -121 -352.5t-353 -124.5q-192 0 -303 103q-108 -58 -251 -58h-103q-31 -203 -178 -327t-385 -124zM1291 1040v289h303v-289h-303zM1481 1399v267h309v-267h-309zM1681 1040v289h303v-289h-303z" />
    <glyph glyph-name="uni0634.fina" unicode="&#x634;" horiz-adv-x="2522" arabic-form="final" 
d="M2449 0q-85 0 -185 40q-117 -85 -307 -85q-192 0 -303 103q-108 -58 -251 -58h-103q-31 -203 -178 -327t-385 -124q-145 0 -267 47.5t-203.5 128.5t-126.5 188.5t-45 228.5q0 168 106 421l376 -131q-75 -175 -75 -291q0 -122 62 -190t174 -68q85 0 123.5 50.5t38.5 166.5
v770h407v-536h58q51 0 74.5 28t23.5 92v416h407v-437l-1 -30h1q0 -114 78 -114q42 0 59 31t17 112v438h407v-438q0 -50 -6 -97q8 -1 24 -1h73q8 0 11 -7q9 -18 9 -160q0 -140 -5 -155q-4 -12 -15 -12h-73zM1317 1101v289h303v-289h-303zM1507 1460v267h309v-267h-309z
M1707 1101v289h303v-289h-303z" />
    <glyph glyph-name="uni0634.init" unicode="&#x634;" horiz-adv-x="1683" arabic-form="initial" 
d="M0 0q-11 0 -15 12q-5 15 -5 155q0 142 9 160q3 7 11 7h147v536h407v-536h58q51 0 74.5 28t23.5 92v416h407v-437l-1 -30h1q0 -114 78 -114q42 0 59 31t17 112v438h407v-438q0 -228 -121 -352.5t-353 -124.5q-192 0 -303 103q-108 -58 -251 -58h-650zM618 1101v289h303
v-289h-303zM808 1460v267h309v-267h-309zM1008 1101v289h303v-289h-303z" />
    <glyph glyph-name="uni0634.medi" unicode="&#x634;" horiz-adv-x="1771" arabic-form="medial" 
d="M1729 0q-94 0 -207 49q-119 -94 -318 -94q-192 0 -303 103q-108 -58 -251 -58h-650q-11 0 -15 12q-5 15 -5 155q0 142 9 160q3 7 11 7h147v536h407v-536h58q51 0 74.5 28t23.5 92v416h407v-437l-1 -30h1q0 -114 78 -114q42 0 59 31t17 112v438h407v-438q0 -43 -5 -90
q27 -8 56 -8h73q8 0 11 -7q9 -18 9 -160q0 -140 -5 -155q-4 -12 -15 -12h-73zM597 1040v289h303v-289h-303zM787 1399v267h309v-267h-309zM987 1040v289h303v-289h-303z" />
    <glyph glyph-name="uni0635.isol" unicode="&#x635;" horiz-adv-x="2308" arabic-form="isolated" 
d="M737 -451q-145 0 -267 47.5t-203.5 128.5t-126.5 188.5t-45 228.5q0 168 106 421l376 -131q-75 -175 -75 -291q0 -122 62 -190t174 -68q85 0 123.5 50.5t38.5 166.5v770h407v-150q211 188 460 188q61 0 122 -15t120 -49.5t104 -84.5t72.5 -126t27.5 -169
q0 -111 -45 -197.5t-110 -135t-149.5 -80t-151.5 -41.5t-128 -10h-329q-31 -203 -178 -327t-385 -124zM1307 334h255q22 0 54 4t79 14.5t79 37t32 64.5q0 55 -37 87.5t-101 32.5q-92 0 -199 -69t-162 -170v-1z" />
    <glyph glyph-name="uni0635.fina" unicode="&#x635;" horiz-adv-x="2286" arabic-form="final" 
d="M737 -451q-145 0 -267 47.5t-203.5 128.5t-126.5 188.5t-45 228.5q0 168 106 421l376 -131q-75 -175 -75 -291q0 -122 62 -190t174 -68q85 0 123.5 50.5t38.5 166.5v770h407v-150q211 188 460 188q61 0 122 -15t120 -49.5t104 -84.5t72.5 -126t27.5 -169q0 -70 -17 -130
h90q8 0 11 -7q9 -18 9 -160q0 -140 -5 -155q-4 -12 -15 -12h-986q-31 -203 -178 -327t-385 -124zM1307 334h255q22 0 54 4t79 14.5t79 37t32 64.5q0 55 -37 87.5t-101 32.5q-92 0 -199 -69t-162 -170v-1z" />
    <glyph glyph-name="uni0635.init" unicode="&#x635;" horiz-adv-x="1560" arabic-form="initial" 
d="M0 0q-11 0 -15 12q-5 15 -5 155q0 142 9 160q3 7 11 7h152v536h407v-150q211 188 460 188q61 0 122 -15t120 -49.5t104 -84.5t72.5 -126t27.5 -169q0 -111 -45 -197.5t-110 -135t-149.5 -80t-151.5 -41.5t-128 -10h-881zM559 334h255q22 0 54 4t79 14.5t79 37t32 64.5
q0 55 -37 87.5t-101 32.5q-92 0 -199 -69t-162 -170v-1z" />
    <glyph glyph-name="uni0635.medi" unicode="&#x635;" horiz-adv-x="1563" arabic-form="medial" 
d="M0 0q-11 0 -15 12q-5 15 -5 155q0 142 9 160q3 7 11 7h152v536h407v-150q211 188 460 188q61 0 122 -15t120 -49.5t104 -84.5t72.5 -126t27.5 -169q0 -70 -17 -130h115q7 0 11 -7q9 -18 9 -160q0 -140 -5 -155q-4 -12 -15 -12h-1563zM559 334h255q22 0 54 4t79 14.5
t79 37t32 64.5q0 55 -37 87.5t-101 32.5q-92 0 -199 -69t-162 -170v-1z" />
    <glyph glyph-name="uni0636.isol" unicode="&#x636;" horiz-adv-x="2308" arabic-form="isolated" 
d="M737 -451q-145 0 -267 47.5t-203.5 128.5t-126.5 188.5t-45 228.5q0 168 106 421l376 -131q-75 -175 -75 -291q0 -122 62 -190t174 -68q85 0 123.5 50.5t38.5 166.5v770h407v-150q211 188 460 188q61 0 122 -15t120 -49.5t104 -84.5t72.5 -126t27.5 -169
q0 -111 -45 -197.5t-110 -135t-149.5 -80t-151.5 -41.5t-128 -10h-329q-31 -203 -178 -327t-385 -124zM1307 334h255q22 0 54 4t79 14.5t79 37t32 64.5q0 55 -37 87.5t-101 32.5q-92 0 -199 -69t-162 -170v-1zM1332 1039v325h375v-325h-375z" />
    <glyph glyph-name="uni0636.fina" unicode="&#x636;" horiz-adv-x="2286" arabic-form="final" 
d="M737 -451q-145 0 -267 47.5t-203.5 128.5t-126.5 188.5t-45 228.5q0 168 106 421l376 -131q-75 -175 -75 -291q0 -122 62 -190t174 -68q85 0 123.5 50.5t38.5 166.5v770h407v-150q211 188 460 188q61 0 122 -15t120 -49.5t104 -84.5t72.5 -126t27.5 -169q0 -70 -17 -130
h90q8 0 11 -7q9 -18 9 -160q0 -140 -5 -155q-4 -12 -15 -12h-986q-31 -203 -178 -327t-385 -124zM1307 334h255q22 0 54 4t79 14.5t79 37t32 64.5q0 55 -37 87.5t-101 32.5q-92 0 -199 -69t-162 -170v-1zM1332 1039v325h375v-325h-375z" />
    <glyph glyph-name="uni0636.init" unicode="&#x636;" horiz-adv-x="1560" arabic-form="initial" 
d="M0 0q-11 0 -15 12q-5 15 -5 155q0 142 9 160q3 7 11 7h152v536h407v-150q211 188 460 188q61 0 122 -15t120 -49.5t104 -84.5t72.5 -126t27.5 -169q0 -111 -45 -197.5t-110 -135t-149.5 -80t-151.5 -41.5t-128 -10h-881zM559 334h255q22 0 54 4t79 14.5t79 37t32 64.5
q0 55 -37 87.5t-101 32.5q-92 0 -199 -69t-162 -170v-1zM583 1039v325h375v-325h-375z" />
    <glyph glyph-name="uni0636.medi" unicode="&#x636;" horiz-adv-x="1563" arabic-form="medial" 
d="M0 0q-11 0 -15 12q-5 15 -5 155q0 142 9 160q3 7 11 7h152v536h407v-150q211 188 460 188q61 0 122 -15t120 -49.5t104 -84.5t72.5 -126t27.5 -169q0 -70 -17 -130h115q7 0 11 -7q9 -18 9 -160q0 -140 -5 -155q-4 -12 -15 -12h-1563zM559 334h255q22 0 54 4t79 14.5
t79 37t32 64.5q0 55 -37 87.5t-101 32.5q-92 0 -199 -69t-162 -170v-1zM583 1039v325h375v-325h-375z" />
    <glyph glyph-name="uni0637.isol" unicode="&#x637;" horiz-adv-x="1660" arabic-form="isolated" 
d="M80 0v334h172v1128h407v-742q211 188 460 188q61 0 122 -15t120 -49.5t104 -84.5t72.5 -126t27.5 -169q0 -111 -45 -197.5t-110 -135t-149.5 -80t-151.5 -41.5t-128 -10h-901zM659 334h255q22 0 54 4t79 14.5t79 37t32 64.5q0 55 -37 87.5t-101 32.5q-92 0 -199 -69
t-162 -170v-1z" />
    <glyph glyph-name="uni0637.fina" unicode="&#x637;" horiz-adv-x="1666" arabic-form="final" 
d="M80 0v334h172v1128h407v-742q211 188 460 188q61 0 122 -15t120 -49.5t104 -84.5t72.5 -126t27.5 -169q0 -70 -17 -130h118q8 0 11 -7q9 -18 9 -160q0 -140 -5 -155q-4 -12 -15 -12h-1586zM659 334h255q22 0 54 4t79 14.5t79 37t32 64.5q0 55 -37 87.5t-101 32.5
q-92 0 -199 -69t-162 -170v-1z" />
    <glyph glyph-name="uni0637.init" unicode="&#x637;" horiz-adv-x="1580" arabic-form="initial" 
d="M0 0q-11 0 -15 12q-5 15 -5 155q0 142 9 160q3 7 11 7h172v1128h407v-742q211 188 460 188q61 0 122 -15t120 -49.5t104 -84.5t72.5 -126t27.5 -169q0 -111 -45 -197.5t-110 -135t-149.5 -80t-151.5 -41.5t-128 -10h-901zM579 334h255q22 0 54 4t79 14.5t79 37t32 64.5
q0 55 -37 87.5t-101 32.5q-92 0 -199 -69t-162 -170v-1z" />
    <glyph glyph-name="uni0637.medi" unicode="&#x637;" horiz-adv-x="1632" arabic-form="medial" 
d="M0 0q-11 0 -15 12q-5 15 -5 155q0 142 9 160q3 7 11 7h172v1128h407v-742q211 188 460 188q61 0 122 -15t120 -49.5t104 -84.5t72.5 -126t27.5 -169q0 -70 -17 -130h164q8 0 11 -7q9 -18 9 -160q0 -140 -5 -155q-4 -12 -15 -12h-1632zM579 334h255q22 0 54 4t79 14.5
t79 37t32 64.5q0 55 -37 87.5t-101 32.5q-92 0 -199 -69t-162 -170v-1z" />
    <glyph glyph-name="uni0638.isol" unicode="&#x638;" horiz-adv-x="1660" arabic-form="isolated" 
d="M80 0v334h172v1128h407v-742q211 188 460 188q61 0 122 -15t120 -49.5t104 -84.5t72.5 -126t27.5 -169q0 -111 -45 -197.5t-110 -135t-149.5 -80t-151.5 -41.5t-128 -10h-901zM659 334h255q22 0 54 4t79 14.5t79 37t32 64.5q0 55 -37 87.5t-101 32.5q-92 0 -199 -69
t-162 -170v-1zM846 1039v325h375v-325h-375z" />
    <glyph glyph-name="uni0638.fina" unicode="&#x638;" horiz-adv-x="1666" arabic-form="final" 
d="M80 0v334h172v1128h407v-742q211 188 460 188q61 0 122 -15t120 -49.5t104 -84.5t72.5 -126t27.5 -169q0 -70 -17 -130h118q8 0 11 -7q9 -18 9 -160q0 -140 -5 -155q-4 -12 -15 -12h-1586zM659 334h255q22 0 54 4t79 14.5t79 37t32 64.5q0 55 -37 87.5t-101 32.5
q-92 0 -199 -69t-162 -170v-1zM846 1039v325h375v-325h-375z" />
    <glyph glyph-name="uni0638.init" unicode="&#x638;" horiz-adv-x="1580" arabic-form="initial" 
d="M0 0q-11 0 -15 12q-5 15 -5 155q0 142 9 160q3 7 11 7h172v1128h407v-742q211 188 460 188q61 0 122 -15t120 -49.5t104 -84.5t72.5 -126t27.5 -169q0 -111 -45 -197.5t-110 -135t-149.5 -80t-151.5 -41.5t-128 -10h-901zM579 334h255q22 0 54 4t79 14.5t79 37t32 64.5
q0 55 -37 87.5t-101 32.5q-92 0 -199 -69t-162 -170v-1zM766 1039v325h375v-325h-375z" />
    <glyph glyph-name="uni0638.medi" unicode="&#x638;" horiz-adv-x="1632" arabic-form="medial" 
d="M0 0q-11 0 -15 12q-5 15 -5 155q0 142 9 160q3 7 11 7h172v1128h407v-742q211 188 460 188q61 0 122 -15t120 -49.5t104 -84.5t72.5 -126t27.5 -169q0 -70 -17 -130h164q8 0 11 -7q9 -18 9 -160q0 -140 -5 -155q-4 -12 -15 -12h-1632zM579 334h255q22 0 54 4t79 14.5
t79 37t32 64.5q0 55 -37 87.5t-101 32.5q-92 0 -199 -69t-162 -170v-1zM766 1039v325h375v-325h-375z" />
    <glyph glyph-name="uni0639.isol" unicode="&#x639;" horiz-adv-x="1249" arabic-form="isolated" 
d="M1101 -413q-160 -63 -423 -63q-111 0 -216.5 38t-186.5 104t-130.5 164.5t-49.5 211.5q0 176 60 290v2h128q-9 46 -9 94q0 194 135.5 328t331.5 134q227 0 397 -93l-145 -295q-130 64 -226 54q-54 -6 -90 -41t-36 -77q0 -44 27.5 -74t72.5 -30h413v-334h-681
q26 -119 214 -142q72 -9 162.5 4t153.5 36z" />
    <glyph glyph-name="uni0639.fina" unicode="&#x639;" horiz-adv-x="1352" arabic-form="final" 
d="M657 -457q-92 0 -174 20t-153.5 63.5t-123.5 107t-81.5 155.5t-29.5 205v206h170q48 0 96 3q-151 133 -248 304q43 74 118.5 136t161 101t173 60.5t161.5 21.5q239 0 398.5 -96t159.5 -244q0 -131 -114 -252h181q8 0 11 -7q9 -18 9 -160q0 -140 -5 -155q-4 -12 -15 -12
h-233q-192 0 -383 75q-121 -43 -232 -62q13 -70 50.5 -99t97.5 -37q88 -11 272 50l105 -318q-83 -26 -192.5 -46t-179.5 -20zM538 540q76 -111 214 -159q130 54 130 125q0 41 -35.5 76.5t-119.5 35.5q-46 0 -97.5 -21t-91.5 -57z" />
    <glyph glyph-name="uni0639.init" unicode="&#x639;" horiz-adv-x="1157" arabic-form="initial" 
d="M0 0q-11 0 -15 12q-5 15 -5 155q0 142 9 160q3 7 11 7h191q-9 46 -9 94q0 194 135.5 328t331.5 134q227 0 397 -93l-145 -295q-130 64 -226 54q-54 -6 -90 -41t-36 -77q0 -44 27.5 -74t72.5 -30h413v-334h-1062z" />
    <glyph glyph-name="uni0639.medi" unicode="&#x639;" horiz-adv-x="1371" arabic-form="medial" 
d="M0 0q-11 0 -15 12q-5 15 -5 155q0 142 9 160q3 7 11 7h345q-139 136 -233 303q43 74 118.5 136t161 101t173 60.5t161.5 21.5q239 0 398.5 -96t159.5 -244q0 -143 -129 -282h216q7 0 11 -7q9 -18 9 -160q0 -140 -5 -155q-4 -12 -15 -12h-253q-189 0 -378 74
q-200 -74 -370 -74h-370zM534 568q75 -118 205 -175q142 58 142 143q0 41 -35.5 76.5t-119.5 35.5q-47 0 -99.5 -21.5t-92.5 -58.5z" />
    <glyph glyph-name="uni063A.isol" unicode="&#x63a;" horiz-adv-x="1249" arabic-form="isolated" 
d="M1101 -413q-160 -63 -423 -63q-111 0 -216.5 38t-186.5 104t-130.5 164.5t-49.5 211.5q0 176 60 290v2h128q-9 46 -9 94q0 194 135.5 328t331.5 134q227 0 397 -93l-145 -295q-130 64 -226 54q-54 -6 -90 -41t-36 -77q0 -44 27.5 -74t72.5 -30h413v-334h-681
q26 -119 214 -142q72 -9 162.5 4t153.5 36zM528 1039v325h375v-325h-375z" />
    <glyph glyph-name="uni063A.fina" unicode="&#x63a;" horiz-adv-x="1352" arabic-form="final" 
d="M657 -457q-92 0 -174 20t-153.5 63.5t-123.5 107t-81.5 155.5t-29.5 205v206h170q48 0 96 3q-151 133 -248 304q43 74 118.5 136t161 101t173 60.5t161.5 21.5q239 0 398.5 -96t159.5 -244q0 -131 -114 -252h181q8 0 11 -7q9 -18 9 -160q0 -140 -5 -155q-4 -12 -15 -12
h-233q-192 0 -383 75q-121 -43 -232 -62q13 -70 50.5 -99t97.5 -37q88 -11 272 50l105 -318q-83 -26 -192.5 -46t-179.5 -20zM538 540q76 -111 214 -159q130 54 130 125q0 41 -35.5 76.5t-119.5 35.5q-46 0 -97.5 -21t-91.5 -57zM542 1092v325h375v-325h-375z" />
    <glyph glyph-name="uni063A.init" unicode="&#x63a;" horiz-adv-x="1157" arabic-form="initial" 
d="M0 0q-11 0 -15 12q-5 15 -5 155q0 142 9 160q3 7 11 7h191q-9 46 -9 94q0 194 135.5 328t331.5 134q227 0 397 -93l-145 -295q-130 64 -226 54q-54 -6 -90 -41t-36 -77q0 -44 27.5 -74t72.5 -30h413v-334h-1062zM454 1039v325h375v-325h-375z" />
    <glyph glyph-name="uni063A.medi" unicode="&#x63a;" horiz-adv-x="1371" arabic-form="medial" 
d="M0 0q-11 0 -15 12q-5 15 -5 155q0 142 9 160q3 7 11 7h345q-139 136 -233 303q43 74 118.5 136t161 101t173 60.5t161.5 21.5q239 0 398.5 -96t159.5 -244q0 -143 -129 -282h216q7 0 11 -7q9 -18 9 -160q0 -140 -5 -155q-4 -12 -15 -12h-253q-189 0 -378 74
q-200 -74 -370 -74h-370zM534 568q75 -118 205 -175q142 58 142 143q0 41 -35.5 76.5t-119.5 35.5q-47 0 -99.5 -21.5t-92.5 -58.5zM546 1092v325h375v-325h-375z" />
    <glyph glyph-name="uni0641.isol" unicode="&#x641;" horiz-adv-x="1869" arabic-form="isolated" 
d="M643 0q-236 0 -379.5 133t-143.5 375v228h407v-228q0 -103 24.5 -138.5t91.5 -35.5h129q-11 57 -11 115q0 73 19 135t51 106t77 78.5t92.5 56t102 35t102.5 19t96 5.5q253 0 448 -137v-747h-1106zM1079 1039v325h375v-325h-375zM1163 449q0 -53 31.5 -84t87.5 -31h65v211
q-25 10 -55 10q-52 0 -90.5 -29t-38.5 -77z" />
    <glyph glyph-name="uni0641.fina" unicode="&#x641;" horiz-adv-x="1883" arabic-form="final" 
d="M643 0q-236 0 -379.5 133t-143.5 375v228h407v-228q0 -103 24.5 -138.5t91.5 -35.5h129q-11 57 -11 115q0 73 19 135t51 106t77 78.5t92.5 56t102 35t102.5 19t96 5.5q253 0 448 -137v-413h134q7 0 11 -7q9 -18 9 -160q0 -140 -5 -155q-4 -12 -15 -12h-1240zM1079 1039
v325h375v-325h-375zM1163 449q0 -53 31.5 -84t87.5 -31h65v211q-25 10 -55 10q-52 0 -90.5 -29t-38.5 -77z" />
    <glyph glyph-name="uni0641.init" unicode="&#x641;" horiz-adv-x="1224" arabic-form="initial" 
d="M0 0q-11 0 -15 12q-5 15 -5 155q0 142 9 160q3 7 11 7h127q-11 57 -11 115q0 73 19 135t51 106t77 78.5t92.5 56t102 35t102.5 19t96 5.5q253 0 448 -137v-747h-1104zM434 1039v325h375v-325h-375zM518 449q0 -53 31.5 -84t87.5 -31h65v211q-25 10 -55 10
q-52 0 -90.5 -29t-38.5 -77z" />
    <glyph glyph-name="uni0641.medi" unicode="&#x641;" horiz-adv-x="1230" arabic-form="medial" 
d="M0 0q-11 0 -15 12q-5 15 -5 155q0 142 9 160q3 7 11 7h127q-11 57 -11 115q0 73 19 135t51 106t77 78.5t92.5 56t102 35t102.5 19t96 5.5q253 0 448 -137v-413h126q8 0 11 -7q9 -18 9 -160q0 -140 -5 -155q-4 -12 -15 -12h-1230zM434 1039v325h375v-325h-375zM518 449
q0 -53 31.5 -84t87.5 -31h65v211q-25 10 -55 10q-52 0 -90.5 -29t-38.5 -77z" />
    <glyph glyph-name="uni0642.isol" unicode="&#x642;" horiz-adv-x="1698" arabic-form="isolated" 
d="M900 -451q-333 0 -528 84.5t-252 272.5q-22 73 -24 171t6 166t21 125l383 -73q-41 -149 -12 -240q28 -93 127.5 -132.5t278.5 -39.5h272v117h-99q-237 0 -362.5 121.5t-125.5 327.5q0 101 35 180.5t88 126t124 76.5t135.5 41t129.5 11q247 0 481 -111v-1224h-678z
M765 1037v320h297v-320h-297zM987 449q0 -53 31.5 -84t87.5 -31h65v209q-26 8 -55 8q-14 0 -32 -3.5t-42 -13t-39.5 -31.5t-15.5 -54zM1148 1037v320h297v-320h-297z" />
    <glyph glyph-name="uni0642.fina" unicode="&#x642;" horiz-adv-x="1734" arabic-form="final" 
d="M900 -451q-333 0 -528 84.5t-252 272.5q-22 73 -24 171t6 166t21 125l383 -73q-41 -149 -12 -240q28 -93 127.5 -132.5t278.5 -39.5h272v117h-99q-237 0 -362.5 121.5t-125.5 327.5q0 101 35 180.5t88 126t124 76.5t135.5 41t129.5 11q247 0 481 -111v-439h156q8 0 11 -7
q9 -18 9 -160q0 -140 -5 -155q-4 -12 -15 -12h-156v-451h-678zM765 1037v320h297v-320h-297zM987 449q0 -53 31.5 -84t87.5 -31h65v209q-26 8 -55 8q-14 0 -32 -3.5t-42 -13t-39.5 -31.5t-15.5 -54zM1148 1037v320h297v-320h-297z" />
    <glyph glyph-name="uni0642.init" unicode="&#x642;" horiz-adv-x="1224" arabic-form="initial" 
d="M0 0q-11 0 -15 12q-5 15 -5 155q0 142 9 160q3 7 11 7h127q-11 57 -11 115q0 73 19 135t51 106t77 78.5t92.5 56t102 35t102.5 19t96 5.5q253 0 448 -137v-747h-1104zM277 1037v320h297v-320h-297zM518 449q0 -53 31.5 -84t87.5 -31h65v211q-25 10 -55 10
q-52 0 -90.5 -29t-38.5 -77zM660 1037v320h297v-320h-297z" />
    <glyph glyph-name="uni0642.medi" unicode="&#x642;" horiz-adv-x="1230" arabic-form="medial" 
d="M0 0q-11 0 -15 12q-5 15 -5 155q0 142 9 160q3 7 11 7h127q-11 57 -11 115q0 73 19 135t51 106t77 78.5t92.5 56t102 35t102.5 19t96 5.5q253 0 448 -137v-413h126q8 0 11 -7q9 -18 9 -160q0 -140 -5 -155q-4 -12 -15 -12h-1230zM277 1037v320h297v-320h-297zM518 449
q0 -53 31.5 -84t87.5 -31h65v211q-25 10 -55 10q-52 0 -90.5 -29t-38.5 -77zM660 1037v320h297v-320h-297z" />
    <glyph glyph-name="uni0643.isol" unicode="&#x643;" horiz-adv-x="1712" arabic-form="isolated" 
d="M654 0q-271 0 -415 128.5t-144 356.5q0 83 36 193l387 -70q-17 -58 -17 -137q0 -29 4.5 -51.5t12 -36.5t18 -24.5t23 -15t26 -7t27.5 -2.5h28h14h531v1128h407v-1462h-938zM656 793v141h220q-8 35 -49 35h-171v151l211 185l94 -114l-89 -78q81 -17 124.5 -69t43.5 -107
q0 -72 -10 -144h-374z" />
    <glyph glyph-name="uni0643.fina" unicode="&#x643;" horiz-adv-x="1691" arabic-form="final" 
d="M654 0q-271 0 -415 128.5t-144 356.5q0 83 36 193l387 -70q-17 -58 -17 -137q0 -29 4.5 -51.5t12 -36.5t18 -24.5t23 -15t26 -7t27.5 -2.5h28h14h531v1128h407v-1128h99q7 0 11 -7q9 -18 9 -160q0 -140 -5 -155q-4 -12 -15 -12h-1037zM656 793v141h220q-8 35 -49 35h-171
v151l211 185l94 -114l-89 -78q81 -17 124.5 -69t43.5 -107q0 -72 -10 -144h-374z" />
    <glyph glyph-name="uni0643.init" unicode="&#x643;" horiz-adv-x="1366" arabic-form="initial" 
d="M0 0q-11 0 -15 12q-5 15 -5 155q0 142 9 160q3 7 11 7h831q-38 107 -122 148.5t-224 43.5h-314v404l364 529l336 -188l-272 -398q175 0 306 -57.5t210 -162.5t117.5 -242.5t38.5 -308.5q0 -27 -6 -102h-1265z" />
    <glyph glyph-name="uni0643.medi" unicode="&#x643;" horiz-adv-x="1440" arabic-form="medial" 
d="M0 0q-11 0 -15 12q-5 15 -5 155q0 142 9 160q3 7 11 7h831q-38 107 -122 148.5t-224 43.5h-314v404l364 529l336 -188l-272 -398q281 0 442.5 -143t209.5 -396h189q8 0 11 -7q9 -18 9 -160q0 -140 -5 -155q-4 -12 -15 -12h-1440z" />
    <glyph glyph-name="uni0644.isol" unicode="&#x644;" horiz-adv-x="1427" arabic-form="isolated" 
d="M737 -451q-145 0 -267 47.5t-203.5 128.5t-126.5 188.5t-45 228.5q0 168 106 421l376 -131q-75 -175 -75 -291q0 -122 62 -190t174 -68q85 0 123.5 50.5t38.5 166.5v1362h407v-1362q0 -241 -151.5 -396t-418.5 -155z" />
    <glyph glyph-name="uni0644.fina" unicode="&#x644;" horiz-adv-x="1468" arabic-form="final" 
d="M737 -451q-145 0 -267 47.5t-203.5 128.5t-126.5 188.5t-45 228.5q0 168 106 421l376 -131q-75 -175 -75 -291q0 -122 62 -190t174 -68q85 0 123.5 50.5t38.5 166.5v1362h407v-1128h161q8 0 11 -7q9 -18 9 -160q0 -140 -5 -155q-4 -12 -15 -12h-168q-31 -203 -178 -327
t-385 -124z" />
    <glyph glyph-name="uni0644.init" unicode="&#x644;" horiz-adv-x="683" arabic-form="initial" 
d="M0 0q-11 0 -15 12q-5 15 -5 155q0 142 9 160q3 7 11 7h156v1128h407v-1462h-563z" />
    <glyph glyph-name="uni0644.medi" unicode="&#x644;" horiz-adv-x="698" arabic-form="medial" 
d="M3 0q-11 0 -15 12q-5 15 -5 155q0 142 9 160q4 7 11 7h156v1128h407v-1128h132q8 0 11 -7q9 -18 9 -160q0 -140 -5 -155q-4 -12 -15 -12h-695z" />
    <glyph glyph-name="uni0645.isol" unicode="&#x645;" horiz-adv-x="1640" arabic-form="isolated" 
d="M992 0q-159 0 -267 68t-163 177q-77 -45 -61 -147l80 -549h-408l-73 505q-30 207 96 358.5t349 188.5q50 125 169 207t303 82q103 0 189 -28.5t143 -74t96.5 -104.5t57 -119t17.5 -119v-445h-528zM922 441q0 -48 27.5 -77.5t82.5 -29.5h81v111q0 49 -23.5 80t-72.5 31
q-44 0 -69.5 -33t-25.5 -82z" />
    <glyph glyph-name="uni0645.fina" unicode="&#x645;" horiz-adv-x="1609" arabic-form="final" 
d="M992 0q-159 0 -267 68t-163 177q-77 -45 -61 -147l80 -549h-408l-73 505q-30 207 96 358.5t349 188.5q50 125 169 207t303 82q103 0 189 -28.5t143 -74t96.5 -104.5t57 -119t17.5 -119v-111h89q7 0 11 -7q9 -18 9 -160q0 -140 -5 -155q-4 -12 -15 -12h-617zM922 441
q0 -48 27.5 -77.5t82.5 -29.5h81v111q0 49 -23.5 80t-72.5 31q-44 0 -69.5 -33t-25.5 -82z" />
    <glyph glyph-name="uni0645.init" unicode="&#x645;" horiz-adv-x="1257" arabic-form="initial" 
d="M609 0q-159 0 -276 74q-130 -74 -308 -74h-25q-11 0 -15 12q-5 15 -5 155q0 142 9 160q3 7 11 7h30q55 0 78 19t23 73v17q0 59 17.5 119.5t57 120t96.5 105t143 74t189 28.5t189 -28.5t143 -74t96.5 -104.5t57 -119t17.5 -119v-445h-528zM539 441q0 -48 27.5 -77.5
t82.5 -29.5h81v111q0 49 -23.5 80t-72.5 31q-44 0 -69.5 -33t-25.5 -82z" />
    <glyph glyph-name="uni0645.medi" unicode="&#x645;" horiz-adv-x="1285" arabic-form="medial" 
d="M609 0q-159 0 -276 74q-130 -74 -308 -74h-25q-11 0 -15 12q-5 15 -5 155q0 142 9 160q3 7 11 7h30q55 0 78 19t23 73v17q0 59 17.5 119.5t57 120t96.5 105t143 74t189 28.5t189 -28.5t143 -74t96.5 -104.5t57 -119t17.5 -119v-111h148q7 0 11 -7q9 -18 9 -160
q0 -140 -5 -155q-4 -12 -15 -12h-676zM539 441q0 -48 27.5 -77.5t82.5 -29.5h81v111q0 49 -23.5 80t-72.5 31q-44 0 -69.5 -33t-25.5 -82z" />
    <glyph glyph-name="uni0646.isol" unicode="&#x646;" horiz-adv-x="1519" arabic-form="isolated" 
d="M787 -401q-173 0 -306.5 48t-217 133.5t-126 199t-42.5 250.5q0 118 34 269t87 294l384 -131q-41 -94 -69.5 -217.5t-28.5 -215.5q0 -155 62.5 -225.5t201.5 -70.5q117 0 171.5 50.5t54.5 166.5v720h407v-720q0 -118 -38.5 -217.5t-113.5 -174.5t-192.5 -117t-267.5 -42z
M569 1039v325h375v-325h-375z" />
    <glyph glyph-name="uni0646.fina" unicode="&#x646;" horiz-adv-x="1537" arabic-form="final" 
d="M787 -401q-173 0 -306.5 48t-217 133.5t-126 199t-42.5 250.5q0 118 34 269t87 294l384 -131q-41 -94 -69.5 -217.5t-28.5 -215.5q0 -155 62.5 -225.5t201.5 -70.5q117 0 171.5 50.5t54.5 166.5v720h407v-536h138q7 0 11 -7q9 -18 9 -160q0 -140 -5 -155q-4 -12 -15 -12
h-155q-45 -184 -197 -292.5t-398 -108.5zM569 1039v325h375v-325h-375z" />
    <glyph glyph-name="uni0646.init" unicode="&#x646;" horiz-adv-x="745" arabic-form="initial" 
d="M0 0q-11 0 -15 12q-5 15 -5 155q0 142 9 160q3 7 11 7h84q72 0 103 36t31 119v381h407v-446q0 -204 -96 -314t-273 -110h-256zM234 1039v325h375v-325h-375z" />
    <glyph glyph-name="uni0646.medi" unicode="&#x646;" horiz-adv-x="812" arabic-form="medial" 
d="M0 0q-11 0 -15 12q-5 15 -5 155q0 142 9 160q3 7 11 7h84q72 0 103 36t31 119v381h407v-368q0 -43 3 -69t13 -51t31.5 -36.5t56.5 -11.5h83q8 0 11 -7q9 -18 9 -160q0 -140 -5 -155q-4 -12 -15 -12h-63q-144 0 -228 102q-94 -102 -265 -102h-256zM234 1039v325h375v-325
h-375z" />
    <glyph glyph-name="uni0647.isol" unicode="&#x647;" horiz-adv-x="1194" arabic-form="isolated" 
d="M620 0q-113 0 -205 28.5t-150 73.5t-97.5 104.5t-56 118t-16.5 116.5q0 60 17.5 121t56.5 120.5t96 105t142.5 74t188.5 28.5t189 -28.5t143 -74t96.5 -104.5t57 -119t17.5 -119v-290q-85 -72 -211.5 -113.5t-267.5 -41.5zM501 445q0 -39 25.5 -74.5t72.5 -35.5
q55 0 93 42v68q0 39 -26 75t-69 36q-44 0 -70 -36t-26 -75z" />
    <glyph glyph-name="uni0647.fina" unicode="&#x647;" horiz-adv-x="1218" arabic-form="final" 
d="M583 0q-238 0 -363 115t-125 320q0 101 35 180.5t88.5 126t124.5 76.5t135.5 41t129.5 11q147 0 251 -27.5t224 -84.5v-424h135q8 0 11 -7q9 -18 9 -160q0 -140 -5 -155q-4 -12 -15 -12h-635zM497 438q0 -44 32 -74t87 -30h65v205q-26 8 -55 8q-9 0 -16 -0.5t-30.5 -6
t-39.5 -15.5t-29.5 -32.5t-13.5 -54.5z" />
    <glyph glyph-name="uni0647.init" unicode="&#x647;" horiz-adv-x="1805" arabic-form="initial" 
d="M0 0q-11 0 -15 12q-5 15 -5 155q0 142 9 160q3 7 11 7h194q-11 57 -11 115q0 83 29.5 150.5t81.5 111.5t111 72t130 44q24 57 56.5 106.5t80.5 96t106 79.5t136 52.5t167 19.5q196 0 339.5 -85.5t216.5 -235t73 -344.5v-516h-1710zM585 449q0 -53 31.5 -84t87.5 -31h65
v211q-25 10 -55 10q-52 0 -90.5 -29t-38.5 -77zM925 824q133 -34 246 -113v-377h132v232q0 296 -222 296q-115 0 -156 -38z" />
    <glyph glyph-name="uni0647.medi" unicode="&#x647;" horiz-adv-x="1315" arabic-form="medial" 
d="M1315 334q7 0 11 -7q9 -18 9 -160q0 -140 -5 -155q-4 -12 -15 -12h-49v-36q0 -177 -165 -296t-424 -119q-132 0 -237 31.5t-172 86.5t-102 129t-35 160v44h-131q-11 0 -15 12q-5 15 -5 155q0 142 9 160q3 7 11 7h131v147q0 218 144 349t390 131q237 0 388.5 -123
t151.5 -317q0 -93 -51 -187h161zM532 -9q0 -47 44.5 -80t124.5 -33q74 0 119.5 31.5t45.5 79.5v11v77q-152 -71 -334 -77v-9zM532 334q272 6 272 127q0 171 -139 171q-58 0 -95.5 -44t-37.5 -116v-138z" />
    <glyph glyph-name="uni0648.isol" unicode="&#x648;" horiz-adv-x="1153" arabic-form="isolated" 
d="M561 -451q-94 0 -224.5 26t-240.5 84l111 303q94 -46 168 -65t165 -19q47 0 81.5 25.5t34.5 74.5v22h-98q-238 0 -363 115t-125 320q0 102 31.5 182t81 128.5t115.5 80.5t128 44t126 12q270 0 506 -112v-817q0 -86 -27.5 -155t-74 -114.5t-110.5 -76.5t-135 -44.5
t-150 -13.5zM472 435q0 -44 32 -72.5t87 -28.5h65v199q-26 8 -55 8q-108 0 -126 -77q-3 -14 -3 -29z" />
    <glyph glyph-name="uni0648.fina" unicode="&#x648;" horiz-adv-x="1217" arabic-form="final" 
d="M561 -451q-94 0 -224.5 26t-240.5 84l111 303q94 -46 168 -65t165 -19q47 0 81.5 25.5t34.5 74.5v22h-98q-238 0 -363 115t-125 320q0 102 31.5 182t81 128.5t115.5 80.5t128 44t126 12q270 0 506 -112v-436h159q7 0 11 -7q9 -18 9 -160q0 -140 -5 -155q-4 -12 -15 -12
h-159v-47q0 -86 -27.5 -155t-74 -114.5t-110.5 -76.5t-135 -44.5t-150 -13.5zM472 435q0 -44 32 -72.5t87 -28.5h65v199q-26 8 -55 8q-108 0 -126 -77q-3 -14 -3 -29z" />
    <glyph glyph-name="uni0649.isol" unicode="&#x649;" horiz-adv-x="2096" arabic-form="isolated" 
d="M654 -174q-270 0 -414.5 132.5t-144.5 361.5q0 43 18.5 156.5t41.5 188.5l388 -71q-42 -143 -42 -297q0 -29 4.5 -51.5t12 -36.5t18 -24.5t23 -15t26 -7t27.5 -2.5h28h14h326v654q59 22 173 49t217 27q172 0 310 -76.5t217 -217t79 -318.5v-278h-407v278q0 123 -49.5 196
t-132.5 81v-729h-733z" />
    <glyph glyph-name="uni0649.fina" unicode="&#x649;" horiz-adv-x="2044" arabic-form="final" 
d="M1569 0v278q0 123 -49.5 196t-132.5 81v-729h-733q-270 0 -414.5 132.5t-144.5 361.5q0 43 18.5 156.5t41.5 188.5l388 -71q-42 -143 -42 -297q0 -29 4.5 -51.5t12 -36.5t18 -24.5t23 -15t26 -7t27.5 -2.5h28h14h326v654q59 22 173 49t217 27q247 0 416 -154t188 -402h70
q8 0 11 -7q9 -18 9 -160q0 -140 -5 -155q-4 -12 -15 -12h-475z" />
    <glyph glyph-name="uni064A.isol" unicode="&#x64a;" horiz-adv-x="2096" arabic-form="isolated" 
d="M654 -174q-270 0 -414.5 132.5t-144.5 361.5q0 43 18.5 156.5t41.5 188.5l388 -71q-42 -143 -42 -297q0 -29 4.5 -51.5t12 -36.5t18 -24.5t23 -15t26 -7t27.5 -2.5h28h14h326v654q59 22 173 49t217 27q172 0 310 -76.5t217 -217t79 -318.5v-278h-407v278q0 123 -49.5 196
t-132.5 81v-729h-733zM642 -648v320h297v-320h-297zM1025 -648v320h297v-320h-297z" />
    <glyph glyph-name="uni064A.fina" unicode="&#x64a;" horiz-adv-x="2044" arabic-form="final" 
d="M1569 0v278q0 123 -49.5 196t-132.5 81v-729h-733q-270 0 -414.5 132.5t-144.5 361.5q0 43 18.5 156.5t41.5 188.5l388 -71q-42 -143 -42 -297q0 -29 4.5 -51.5t12 -36.5t18 -24.5t23 -15t26 -7t27.5 -2.5h28h14h326v654q59 22 173 49t217 27q247 0 416 -154t188 -402h70
q8 0 11 -7q9 -18 9 -160q0 -140 -5 -155q-4 -12 -15 -12h-475zM642 -648v320h297v-320h-297zM1025 -648v320h297v-320h-297z" />
    <glyph glyph-name="uni064A.medi" unicode="&#x64a;" horiz-adv-x="812" arabic-form="medial" 
d="M0 0q-11 0 -15 12q-5 15 -5 155q0 142 9 160q3 7 11 7h84q72 0 103 36t31 119v381h407v-368q0 -43 3 -69t13 -51t31.5 -36.5t56.5 -11.5h83q8 0 11 -7q9 -18 9 -160q0 -140 -5 -155q-4 -12 -15 -12h-63q-144 0 -228 102q-94 -102 -265 -102h-256zM14 -524v320h297v-320
h-297zM397 -524v320h297v-320h-297z" />
    <glyph glyph-name=".notdef" horiz-adv-x="1141" 
d="M150 0v1462h841v-1462h-841zM254 104h633v1254h-633v-1254z" />
    <glyph glyph-name=".null" 
 />
    <glyph glyph-name="nonmarkingreturn" horiz-adv-x="1044" 
 />
    <glyph glyph-name="space" unicode=" " horiz-adv-x="400" 
 />
    <glyph glyph-name="exclam" unicode="!" horiz-adv-x="623" 
d="M145 539l-56 923h449l-56 -923h-337zM102 -22v393h422v-393h-422z" />
    <glyph glyph-name="quotedbl" unicode="&#x22;" horiz-adv-x="1077" 
d="M639 934l-43 528h348l-43 -528h-262zM133 1462h348l-43 -528h-262z" />
    <glyph glyph-name="numbersign" unicode="#" horiz-adv-x="1323" 
d="M190 0l69 387h-218v263h268l32 155h-232v268h280l73 386h278l-72 -386h120l74 386h274l-74 -386h221v-268h-270l-33 -155h238v-263h-288l-72 -387h-280l73 387h-116l-72 -387h-273zM585 650h119l33 155h-119z" />
    <glyph glyph-name="dollar" unicode="$" horiz-adv-x="1168" 
d="M448 -105v185q-175 20 -345 100l127 274q228 -82 338 -82q122 0 122 72q0 22 -11 40.5t-40 38.5t-49 32t-70.5 37.5t-72.5 36.5q-183 93 -258 183.5t-75 220.5q0 148 86.5 246t247.5 133v142h277v-127q89 -8 174.5 -32.5t206.5 -69.5l-134 -280q-231 83 -331 83
q-64 0 -93 -22t-29 -53q0 -18 10 -34.5t24.5 -29.5t40.5 -28t48.5 -25.5t59 -28.5t61.5 -31q187 -95 259.5 -186t72.5 -212q0 -156 -97.5 -261t-272.5 -135v-187h-277z" />
    <glyph glyph-name="percent" unicode="%" horiz-adv-x="1946" 
d="M411 0l811 1462h307l-811 -1462h-307zM37 1026q0 231 93.5 344t283.5 113q184 0 282.5 -118t98.5 -339q0 -461 -381 -461q-182 0 -279.5 118t-97.5 343zM365 1023q0 -25 0.5 -41.5t1.5 -42t4.5 -42.5t9 -33.5t15 -25t21.5 -8.5q49 0 49 193q0 191 -49 191
q-18 0 -29.5 -16.5t-16 -49.5t-5.5 -55.5t-1 -61.5v-8zM1152 444q0 230 93 343.5t283 113.5q185 0 283.5 -118.5t98.5 -338.5q0 -229 -97 -344.5t-285 -115.5q-181 0 -278.5 118.5t-97.5 341.5zM1480 441q0 -25 0.5 -41.5t1.5 -42.5t4.5 -42.5t9 -33.5t15 -25.5t21.5 -8.5
q13 0 23.5 17.5t18 62.5t7.5 114q0 191 -49 191q-18 0 -29.5 -16.5t-16 -50t-5.5 -56t-1 -61.5v-7z" />
    <glyph glyph-name="ampersand" unicode="&#x26;" horiz-adv-x="1569" 
d="M638 -20q-262 0 -419.5 116t-157.5 310q0 140 54.5 235t176.5 167q-114 137 -114 322q0 156 128.5 254t337.5 98q201 0 324.5 -89t123.5 -233q0 -254 -284 -418l201 -194q85 96 133 278h391q-38 -137 -107.5 -277.5t-154.5 -248.5l310 -300h-487l-72 70
q-189 -90 -384 -90zM472 450q0 -120 108 -137q39 -6 89.5 0t84.5 17l-230 241q-22 -19 -37 -52.5t-15 -68.5zM543 1095q0 -52 49 -133q65 36 100 69t35 76q0 33 -23.5 51t-60.5 18q-100 0 -100 -81z" />
    <glyph glyph-name="quotesingle" unicode="'" horiz-adv-x="614" 
d="M176 934l-43 528h348l-43 -528h-262z" />
    <glyph glyph-name="parenleft" unicode="(" horiz-adv-x="758" 
d="M383 -324q-147 170 -224 397t-77 488q0 265 77.5 496t223.5 405h314q-137 -193 -208 -424t-71 -475q0 -246 72.5 -476t204.5 -411h-312z" />
    <glyph glyph-name="parenright" unicode=")" horiz-adv-x="758" 
d="M63 -324q131 180 203.5 410t72.5 477q0 243 -70.5 474t-207.5 425h314q147 -174 224 -405.5t77 -495.5q0 -263 -77.5 -490t-223.5 -395h-312z" />
    <glyph glyph-name="asterisk" unicode="*" horiz-adv-x="1108" 
d="M691 565l-140 280l-119 -276l-284 139l207 275l-310 23l47 302l347 -101l-40 349h314l-41 -349l356 101l38 -306l-311 -19l207 -275z" />
    <glyph glyph-name="plus" unicode="+" horiz-adv-x="1168" 
d="M445 221v360h-368v280h368v366h280v-366h367v-280h-367v-360h-280z" />
    <glyph glyph-name="comma" unicode="," horiz-adv-x="866" 
d="M200 -264q57 247 97 502h354l15 -23q-45 -182 -176 -479h-290z" />
    <glyph glyph-name="hyphen" unicode="-" horiz-adv-x="659" 
d="M46 386v324h567v-324h-567z" />
    <glyph glyph-name="period" unicode="." horiz-adv-x="621" 
d="M94 -17v388h433v-388h-433z" />
    <glyph glyph-name="slash" unicode="/" horiz-adv-x="914" 
d="M9 0l546 1462h357l-545 -1462h-358z" />
    <glyph glyph-name="zero" unicode="0" horiz-adv-x="1261" 
d="M636 -20q-272 0 -404 189t-132 570q0 376 128.5 561t393.5 185q539 0 539 -765q0 -377 -130.5 -558.5t-394.5 -181.5zM503 733q0 -18 -0.5 -56.5t-0.5 -62.5t1 -62t4 -62.5t8.5 -55t15 -50t22.5 -37.5t32 -26.5t43 -8.5t43.5 8.5t33 27t23.5 37.5t15.5 50.5t9 55
t4.5 61.5t1 60t-0.5 61t-0.5 54q0 178 -3 220q-16 192 -111 204q-7 1 -15 1q-24 0 -43 -8.5t-32 -26.5t-22.5 -37.5t-15 -50.5t-8.5 -55t-4 -62t-1 -61t0.5 -62t0.5 -56z" />
    <glyph glyph-name="one" unicode="1" horiz-adv-x="1062" 
d="M501 0v1021l-248 -218l-193 239l518 420h334v-1462h-411z" />
    <glyph glyph-name="two" unicode="2" horiz-adv-x="1290" 
d="M121 0v271l356 357q148 148 193 203q89 111 89 203q0 110 -131 110q-119 0 -305 -158l-223 261q157 136 296 186t316 50q208 0 329 -115.5t121 -289.5q0 -60 -14.5 -118.5t-34.5 -105t-56.5 -97.5t-64 -84t-74 -76t-70.5 -63t-68.5 -55.5t-54.5 -43.5l-97 -80v-19h562
v-336h-1069z" />
    <glyph glyph-name="three" unicode="3" horiz-adv-x="1251" 
d="M537 -20q-240 0 -437 78l180 269q109 -28 204 -28q236 0 236 162q0 71 -71 103.5t-235 32.5h-88v303h90q163 0 229 32.5t66 104.5q0 58 -43 88.5t-117 30.5q-122 0 -268 -95l-178 274q111 75 226 111.5t257 36.5q240 0 380.5 -89.5t140.5 -248.5q0 -137 -84.5 -236
t-237.5 -139v-5q179 -22 271.5 -105.5t92.5 -225.5q0 -214 -160 -334t-454 -120z" />
    <glyph glyph-name="four" unicode="4" horiz-adv-x="1208" 
d="M623 0v249h-563v301l603 914h367v-881h138v-334h-138v-249h-407zM406 583h217v376z" />
    <glyph glyph-name="five" unicode="5" horiz-adv-x="1216" 
d="M497 -20q-242 0 -397 78l189 277q110 -27 206 -27q109 0 160 39t51 121q0 166 -220 166q-67 0 -128.5 -11.5t-82.5 -21.5l-151 77l54 784h837v-340h-479l-19 -179q83 18 145 18q212 0 333 -120.5t121 -344.5q0 -250 -157.5 -383t-461.5 -133z" />
    <glyph glyph-name="six" unicode="6" horiz-adv-x="1284" 
d="M653 -20q-121 0 -216.5 36.5t-158 99t-103.5 151.5t-58 189t-17 217q0 391 198.5 597t603.5 206q111 0 186 -11v-322q-100 17 -190 17q-201 0 -294.5 -61.5t-120.5 -176.5q67 53 185 53q97 0 187.5 -32t164.5 -92t119 -158t45 -219q0 -218 -141 -356t-390 -138zM469 549
q-3 -102 39 -174.5t127 -72.5q72 0 114 51.5t42 117.5q0 94 -60 143.5t-141 49.5q-69 0 -121 -47v-68z" />
    <glyph glyph-name="seven" unicode="7" horiz-adv-x="1200" 
d="M202 0l517 1122h-669v337h1100v-245l-526 -1214h-422z" />
    <glyph glyph-name="eight" unicode="8" horiz-adv-x="1274" 
d="M638 -20q-249 0 -393.5 103t-144.5 286q0 127 60.5 222t195.5 171q-212 151 -212 365q0 153 136 252.5t359 99.5q220 0 355.5 -97t135.5 -257q0 -115 -59 -202t-187 -153q290 -172 290 -390q0 -179 -149 -289.5t-387 -110.5zM473 403q0 -62 43 -96.5t117 -34.5
q166 0 166 123q0 41 -41.5 88t-126.5 110q-73 -38 -115.5 -89t-42.5 -101zM525 1091q0 -26 5 -44.5t30.5 -46.5t73.5 -56q65 35 90 69t25 78t-33 71t-79 27q-49 0 -80.5 -27t-31.5 -71z" />
    <glyph glyph-name="nine" unicode="9" horiz-adv-x="1284" 
d="M631 1483q121 0 216.5 -36.5t158 -99t103.5 -151.5t58 -189t17 -217q0 -391 -198.5 -597t-603.5 -206q-111 0 -186 11v322q100 -17 190 -17q201 0 294.5 61.5t120.5 176.5q-67 -53 -185 -53q-97 0 -187.5 32t-164.5 92t-119 158t-45 219q0 218 141 356t390 138zM493 992
q0 -94 60 -143.5t141 -49.5q69 0 121 47v68q3 102 -39 174.5t-127 72.5q-72 0 -114 -51.5t-42 -117.5z" />
    <glyph glyph-name="colon" unicode=":" horiz-adv-x="621" 
d="M313 551q-106 0 -162.5 52.5t-56.5 146.5q0 99 55.5 149.5t163.5 50.5q103 0 158.5 -52.5t55.5 -147.5q0 -93 -57 -146t-157 -53zM94 46q0 98 56 149t163 51q101 0 157.5 -52.5t56.5 -147.5q0 -91 -57 -145t-157 -54q-105 0 -162 53t-57 146z" />
    <glyph glyph-name="semicolon" unicode=";" horiz-adv-x="637" 
d="M60 -264q59 257 97 502h354l15 -23q-45 -182 -176 -479h-290zM96 962q0 98 56 149t163 51q101 0 157.5 -53t56.5 -147q0 -93 -57 -146.5t-157 -53.5q-105 0 -162 52.5t-57 147.5z" />
    <glyph glyph-name="less" unicode="&#x3c;" horiz-adv-x="1168" 
d="M1092 174l-1015 449v179l1015 507v-307l-617 -277l617 -247v-304z" />
    <glyph glyph-name="equal" unicode="=" horiz-adv-x="1168" 
d="M72 787v281h1025v-281h-1025zM72 373v281h1025v-281h-1025z" />
    <glyph glyph-name="greater" unicode="&#x3e;" horiz-adv-x="1168" 
d="M77 174v304l616 248l-616 276v307l1015 -507v-179z" />
    <glyph glyph-name="question" unicode="?" horiz-adv-x="1038" 
d="M267 629q0 87 44.5 151.5t157.5 143.5q87 56 117 89t30 70q0 43 -31 62t-92 19q-152 0 -363 -108l-144 282q116 70 253 107.5t274 37.5q223 0 353.5 -99t130.5 -279q0 -58 -14 -104t-48 -87.5t-72 -74.5t-103 -79q-20 -14 -48.5 -32.5t-38 -25t-23.5 -18t-17 -19
t-6 -18.5t-3 -27v-81h-357v90zM244 -22v393h422v-393h-422z" />
    <glyph glyph-name="at" unicode="@" horiz-adv-x="1841" 
d="M933 -133q-399 0 -619.5 200t-220.5 558q0 162 46.5 302.5t129.5 243.5t195 176.5t244.5 110.5t276.5 37q176 0 321.5 -56.5t241 -154.5t148 -230t52.5 -283q0 -227 -106.5 -379t-275.5 -152q-67 0 -127 22.5t-95 57.5q-112 -80 -287 -80q-184 0 -296.5 111t-112.5 299
q0 214 143 345.5t368 131.5q92 0 213.5 -19t185.5 -44l-24 -487q-3 -54 10 -81.5t35 -27.5q90 0 90 297q0 238 -136.5 367t-367.5 129q-142 0 -255.5 -49.5t-185.5 -136.5t-110.5 -201t-38.5 -246q0 -253 138 -389t397 -136q116 0 257 26t264 69v-235q-225 -96 -498 -96z
M739 647q0 -179 149 -179q75 0 115.5 52.5t49.5 184.5l12 190q-50 4 -78 4q-120 0 -184 -66.5t-64 -185.5z" />
    <glyph glyph-name="A" unicode="A" horiz-adv-x="1498" 
d="M5 0l481 1468h523l485 -1468h-442l-56 267h-494l-56 -267h-441zM590 605h315l-157 585z" />
    <glyph glyph-name="B" unicode="B" horiz-adv-x="1388" 
d="M150 0v1462h415q330 0 477.5 -93t147.5 -294q0 -108 -37 -192t-99 -125q115 -27 174.5 -112t59.5 -215q0 -203 -148.5 -317t-400.5 -114h-589zM557 339h145q88 0 130 31t42 97q0 65 -43 96.5t-133 31.5h-141v-256zM557 919h84q64 0 101 27.5t37 75.5q0 56 -35.5 80
t-102.5 24h-84v-207z" />
    <glyph glyph-name="C" unicode="C" horiz-adv-x="1325" 
d="M753 -20q-319 0 -486 189.5t-167 538.5q0 190 49.5 338.5t138.5 243.5t211 144t270 49q217 0 456 -115l-124 -327q-99 55 -171 81.5t-161 26.5q-123 0 -192 -113t-69 -324q0 -202 67.5 -300t207.5 -98q131 0 272 53l116 -300q-199 -87 -418 -87z" />
    <glyph glyph-name="D" unicode="D" horiz-adv-x="1504" 
d="M150 0v1462h528q359 0 542.5 -187.5t183.5 -529.5q0 -365 -190.5 -555t-580.5 -190h-483zM557 334h132q168 0 238 96.5t70 304.5q0 206 -62 301t-215 95h-163v-797z" />
    <glyph glyph-name="E" unicode="E" horiz-adv-x="1111" 
d="M150 0v1462h861v-334h-454v-206h379v-330h-379v-258h454v-334h-861z" />
    <glyph glyph-name="F" unicode="F" horiz-adv-x="1105" 
d="M150 0v1462h855v-332h-448v-256h354v-330h-354v-544h-407z" />
    <glyph glyph-name="G" unicode="G" horiz-adv-x="1406" 
d="M786 -20q-339 0 -512.5 188t-173.5 540q0 373 193 574t565 201q116 0 219 -26t224 -79l-127 -307q-140 77 -293 77q-169 0 -271.5 -115.5t-102.5 -328.5q0 -178 73 -283t203 -105q75 0 116 6v447h407v-705q-266 -84 -520 -84z" />
    <glyph glyph-name="H" unicode="H" horiz-adv-x="1561" 
d="M150 0v1462h407v-538h447v538h407v-1462h-407v590h-447v-590h-407z" />
    <glyph glyph-name="I" unicode="I" horiz-adv-x="707" 
d="M150 0v1462h407v-1462h-407z" />
    <glyph glyph-name="J" unicode="J" horiz-adv-x="894" 
d="M222 -10q-114 0 -202 19v338q93 -22 144 -22q96 0 134.5 63.5t38.5 209.5v864h407v-868q0 -297 -132 -450.5t-390 -153.5z" />
    <glyph glyph-name="K" unicode="K" horiz-adv-x="1395" 
d="M150 0v1462h407v-630l418 630h443l-457 -666l452 -796h-460l-238 464l-158 -226v-238h-407z" />
    <glyph glyph-name="L" unicode="L" horiz-adv-x="1192" 
d="M150 0v1462h407v-1128h551v-334h-958z" />
    <glyph glyph-name="M" unicode="M" horiz-adv-x="2013" 
d="M150 0v1462h575l281 -547l282 547h575v-1462h-389v1045h-9l-284 -567h-350l-283 567h-9v-1045h-389z" />
    <glyph glyph-name="N" unicode="N" horiz-adv-x="1837" 
d="M150 0v1462h619l514 -1002h7v1002h397v-1462h-624l-514 1018h-9v-1018h-390z" />
    <glyph glyph-name="O" unicode="O" horiz-adv-x="1588" 
d="M795 -20q-348 0 -521.5 191t-173.5 565q0 749 698 749q690 0 690 -753q0 -372 -173 -562t-520 -190zM506 734q0 -212 70.5 -316t216.5 -104q147 0 218 103.5t71 315.5q0 214 -70.5 316t-216.5 102t-217.5 -103t-71.5 -314z" />
    <glyph glyph-name="P" unicode="P" horiz-adv-x="1319" 
d="M150 0v1462h551q263 0 390.5 -119.5t127.5 -362.5q0 -499 -518 -499h-144v-481h-407zM557 812h138q67 0 90.5 41.5t23.5 125.5q0 83 -24.5 118t-99.5 35h-128v-320z" />
    <glyph glyph-name="Q" unicode="Q" horiz-adv-x="1642" 
d="M1075 -348l-259 327l-2 1q-350 1 -532 193.5t-182 562.5t182 559.5t533 189.5q352 0 532.5 -190t180.5 -561q0 -548 -336 -683l350 -399h-467zM506 732q0 -207 79 -310.5t229 -103.5q149 0 228.5 103.5t79.5 313.5q0 209 -79 313t-228 104t-229 -105.5t-80 -314.5z" />
    <glyph glyph-name="R" unicode="R" horiz-adv-x="1474" 
d="M150 0v1462h551q263 0 390.5 -119.5t127.5 -362.5q0 -313 -207 -430l362 -550h-408l-311 481h-98v-481h-407zM557 812h138q67 0 90.5 41.5t23.5 125.5q0 83 -24.5 118t-99.5 35h-128v-320z" />
    <glyph glyph-name="S" unicode="S" horiz-adv-x="1182" 
d="M583 -20q-257 0 -483 119l124 304q223 -91 331 -91q57 0 88.5 20t31.5 59q0 20 -10 39.5t-23 34t-40 33t-47 30t-58 33.5t-60 35q-179 103 -252.5 203t-73.5 244q0 206 134 323t375 117q116 0 217 -28t245 -89l-131 -310q-225 92 -324 92q-63 0 -91.5 -24.5t-28.5 -58.5
q0 -24 11.5 -44.5t38 -40t50 -33.5t68 -38t71.5 -40q184 -105 254.5 -205.5t70.5 -234.5q0 -203 -130.5 -326t-357.5 -123z" />
    <glyph glyph-name="T" unicode="T" horiz-adv-x="1231" 
d="M412 0v1128h-356v334h1119v-334h-356v-1128h-407z" />
    <glyph glyph-name="U" unicode="U" horiz-adv-x="1554" 
d="M771 -20q-296 0 -458.5 134t-162.5 383v965h407v-886q0 -154 45.5 -208t175.5 -54q127 0 173 55.5t46 211.5v881h407v-969q0 -115 -36 -205t-96 -147t-143.5 -94t-171 -52t-186.5 -15z" />
    <glyph glyph-name="V" unicode="V" horiz-adv-x="1484" 
d="M494 0l-474 1462h428l295 -1115l293 1115h428l-475 -1462h-495z" />
    <glyph glyph-name="W" unicode="W" horiz-adv-x="2170" 
d="M381 0l-361 1462h416l223 -1129l243 1129h376l233 -1129l222 1129h417l-357 -1462h-502l-203 998l-207 -998h-500z" />
    <glyph glyph-name="X" unicode="X" horiz-adv-x="1493" 
d="M-23 0l483 749l-456 713h470l279 -483l267 483h462l-463 -743l497 -719h-487l-299 491l-295 -491h-458z" />
    <glyph glyph-name="Y" unicode="Y" horiz-adv-x="1411" 
d="M503 0v560l-483 902h441l244 -509l246 509h440l-484 -891v-571h-404z" />
    <glyph glyph-name="Z" unicode="Z" horiz-adv-x="1333" 
d="M100 0v290l637 842h-625v330h1104v-290l-635 -842h652v-330h-1133z" />
    <glyph glyph-name="bracketleft" unicode="[" horiz-adv-x="686" 
d="M128 -324v1786h507v-264h-176v-1259h176v-263h-507z" />
    <glyph glyph-name="backslash" unicode="\" horiz-adv-x="914" 
d="M550 0l-545 1462h359l544 -1462h-358z" />
    <glyph glyph-name="bracketright" unicode="]" horiz-adv-x="686" 
d="M51 -324v263h174v1259h-174v264h507v-1786h-507z" />
    <glyph glyph-name="asciicircum" unicode="^" horiz-adv-x="1064" 
d="M-26 499l433 969h178l510 -969h-303l-287 572l-233 -572h-298z" />
    <glyph glyph-name="underscore" unicode="_" horiz-adv-x="817" 
d="M-4 -342v158h825v-158h-825z" />
    <glyph glyph-name="a" unicode="a" horiz-adv-x="1252" 
d="M421 -20q-182 0 -276.5 95t-94.5 271q0 188 115.5 276t370.5 96l196 6v37q0 107 -139 107q-124 0 -312 -79l-134 262q207 108 462 108q253 0 388 -103.5t135 -305.5v-750h-374l-22 126q-69 -80 -140.5 -113t-174.5 -33zM462 357q0 -92 95 -92q94 0 175 112v125l-84 -2
q-186 -5 -186 -143z" />
    <glyph glyph-name="b" unicode="b" horiz-adv-x="1266" 
d="M731 -20q-126 0 -227 59l-13 -39h-371v1462h400v-348q98 46 211 46q97 0 185 -41t154.5 -115t106 -187t39.5 -248t-39.5 -248t-106 -186.5t-154 -114t-185.5 -40.5zM520 394q45 -91 133 -91q157 0 157 268q0 266 -157 266q-89 0 -133 -92v-351z" />
    <glyph glyph-name="c" unicode="c" horiz-adv-x="1050" 
d="M611 -20q-292 0 -426.5 136.5t-134.5 427.5q0 610 575 610q213 0 385 -89l-118 -304q-92 39 -150 57t-111 18q-91 0 -131.5 -66.5t-40.5 -208.5q0 -143 43 -202t141 -59q117 0 215 56l105 -276q-76 -54 -156.5 -77t-195.5 -23z" />
    <glyph glyph-name="d" unicode="d" horiz-adv-x="1266" 
d="M535 -20q-98 0 -185.5 40.5t-154 114t-106 186.5t-39.5 248t39.5 248t106 187t154.5 115t185 41q113 0 211 -46v348h400v-1462h-371l-13 39q-101 -59 -227 -59zM456 571q0 -268 157 -268q88 0 133 91v351q-44 92 -133 92q-157 0 -157 -266z" />
    <glyph glyph-name="e" unicode="e" horiz-adv-x="1200" 
d="M678 -20q-312 0 -470 150.5t-158 438.5q0 281 146.5 433t416.5 152q254 0 395.5 -135.5t141.5 -379.5v-179h-694q18 -191 237 -191q143 0 285 54l98 -259q-151 -84 -398 -84zM464 714h318q-3 78 -49 121.5t-119 43.5q-141 0 -150 -165z" />
    <glyph glyph-name="f" unicode="f" horiz-adv-x="909" 
d="M198 1069q0 186 114.5 289.5t317.5 103.5q196 0 329 -56l-103 -289q-4 1 -13 4q-111 34 -155 26q-87 -17 -87 -100v-80h250v-298h-250v-669h-403v669h-160v298h160v102z" />
    <glyph glyph-name="g" unicode="g" horiz-adv-x="1272" 
d="M628 -492q-150 0 -295 45.5t-259 138.5l181 252q160 -113 298 -113q194 0 196 188q-96 -46 -211 -46q-97 0 -185 41t-155.5 115t-107.5 187t-40 248t40 248t107.5 186.5t155.5 114t185 40.5q124 0 228 -59l12 39h374v-1034q0 -134 -45.5 -248t-119.5 -187.5
t-167.5 -114.5t-191.5 -41zM459 562q0 -266 158 -266q88 0 132 92v351q-44 91 -133 91q-157 0 -157 -268z" />
    <glyph glyph-name="h" unicode="h" horiz-adv-x="1349" 
d="M829 583q0 127 -43 191t-116 64q-70 0 -150 -39v-799h-400v1462h400v-430q180 110 319 110q92 0 160.5 -25.5t112 -71t70 -116.5t37 -154t10.5 -192v-583h-400v583z" />
    <glyph glyph-name="i" unicode="i" horiz-adv-x="640" 
d="M120 0v1133h400v-1133h-400zM122 1259v352h398v-352h-398z" />
    <glyph glyph-name="j" unicode="j" horiz-adv-x="770" 
d="M172 -492q-173 0 -272 51l111 307q51 -19 93 -19q67 0 106.5 35.5t39.5 113.5v1137h400v-1216q0 -194 -126 -301.5t-352 -107.5zM250 1259v352h400v-352h-400z" />
    <glyph glyph-name="k" unicode="k" horiz-adv-x="1372" 
d="M120 0v1462h400v-784l387 455h449l-448 -496l471 -637h-460l-252 372l-147 -163v-209h-400z" />
    <glyph glyph-name="l" unicode="l" horiz-adv-x="722" 
d="M585 0q-220 0 -342.5 107.5t-122.5 301.5v1053h403v-960q0 -80 28 -124t73 -44h28v-334h-67z" />
    <glyph glyph-name="m" unicode="m" horiz-adv-x="2046" 
d="M120 0v1133h278l74 -111q151 120 327 120q241 0 342 -152q73 65 165 104t190 39q123 0 208 -37.5t133 -113t68.5 -174t20.5 -234.5v-583h-400v583q0 132 -38 193.5t-121 61.5q-72 0 -153 -40q15 -85 15 -206v-583h-400v583q0 132 -38 193.5t-121 61.5q-70 0 -150 -39
v-799h-400z" />
    <glyph glyph-name="n" unicode="n" horiz-adv-x="1352" 
d="M120 0v1133h303l67 -122q199 131 352 131q92 0 160.5 -25.5t112 -71t70 -116.5t37 -154t10.5 -192v-583h-400v583q0 127 -43 191t-116 64q-71 0 -150 -39v-799h-403z" />
    <glyph glyph-name="o" unicode="o" horiz-adv-x="1220" 
d="M611 -20q-141 0 -249.5 45.5t-176 126.5t-101.5 188t-34 236q0 271 146 424.5t413 153.5q147 0 258 -48t175.5 -132t96 -187.5t31.5 -225.5q0 -269 -146 -425t-413 -156zM450 570q0 -144 35 -207.5t127 -63.5q91 0 124.5 62.5t33.5 205.5q0 145 -34 206t-126 61
q-91 0 -125.5 -61.5t-34.5 -202.5z" />
    <glyph glyph-name="p" unicode="p" horiz-adv-x="1272" 
d="M120 -492v1625h374l13 -39q101 59 227 59q98 0 186 -40.5t155 -114t107 -186.5t40 -248t-40 -248t-107 -187t-155.5 -115t-185.5 -41q-110 0 -211 46v-511h-403zM523 389q44 -93 133 -93q157 0 157 266q0 268 -157 268q-88 0 -133 -91v-350z" />
    <glyph glyph-name="q" unicode="q" horiz-adv-x="1272" 
d="M1152 -492h-403v511q-101 -46 -211 -46q-97 0 -185.5 41t-155.5 115t-107 187t-40 248t40 248t107 186.5t155 114t186 40.5q126 0 227 -59l13 39h374v-1625zM459 562q0 -266 157 -266q89 0 133 93v350q-45 91 -133 91q-157 0 -157 -268z" />
    <glyph glyph-name="r" unicode="r" horiz-adv-x="1193" 
d="M120 0v1133h320l26 -171q71 66 141.5 108.5t128.5 60t116.5 18t101.5 -10t88.5 -33t72.5 -41.5t58 -44l-174 -303q-32 33 -79.5 58.5t-111 40t-139.5 -6t-146 -79.5v-730h-403z" />
    <glyph glyph-name="s" unicode="s" horiz-adv-x="997" 
d="M429 -20q-203 0 -370 63l114 277q170 -56 288 -56q87 0 87 42q0 20 -14 38.5t-42 34.5t-52 27.5t-61 27t-52 22.5q-88 39 -143.5 77t-84.5 81t-39 85t-10 101q0 105 65 187.5t168.5 124.5t225.5 42q226 0 432 -98l-117 -281q-17 8 -77 35t-83.5 36.5t-67 20.5t-80.5 11
q-33 0 -48.5 -11t-15.5 -25t9.5 -26t34 -25.5t41.5 -22t58 -25.5t57 -24q167 -74 231 -150.5t64 -208.5q0 -380 -518 -380z" />
    <glyph glyph-name="t" unicode="t" horiz-adv-x="912" 
d="M612 -8q-436 0 -436 428v415h-138v298h138v372h403v-372h280v-298h-280v-444q0 -35 22.5 -53.5t55.5 -18.5q47 0 126 41l109 -290q-128 -78 -280 -78z" />
    <glyph glyph-name="u" unicode="u" horiz-adv-x="1352" 
d="M1232 1133v-1133h-303l-67 122q-199 -131 -352 -131q-92 0 -160.5 25.5t-112 71t-70 116.5t-37 154t-10.5 192v583h400v-583q0 -127 43 -191t116 -64q71 0 150 39v799h403z" />
    <glyph glyph-name="v" unicode="v" horiz-adv-x="1268" 
d="M431 0l-431 1133h420l212 -809h6l209 809h421l-431 -1133h-406z" />
    <glyph glyph-name="w" unicode="w" horiz-adv-x="1842" 
d="M326 0l-326 1133h397l166 -815h5l129 815h449l122 -816h6l177 816h391l-335 -1133h-434l-155 862h-7l-154 -862h-431z" />
    <glyph glyph-name="x" unicode="x" horiz-adv-x="1262" 
d="M-11 0l368 577l-348 556h456l166 -309l171 309h458l-356 -556l370 -577h-458l-185 337l-184 -337h-458z" />
    <glyph glyph-name="y" unicode="y" horiz-adv-x="1267" 
d="M273 -493q-90 0 -172 19v318q59 -14 124 -14q175 0 243 208l-468 1095h444l192 -574l198 574h433l-455 -1239q-69 -187 -210 -287t-329 -100z" />
    <glyph glyph-name="z" unicode="z" horiz-adv-x="1039" 
d="M50 0v232l460 597h-435v304h891v-255l-439 -574h462v-304h-939z" />
    <glyph glyph-name="braceleft" unicode="{" horiz-adv-x="838" 
d="M750 -324q-113 0 -189.5 7t-133.5 23.5t-88 47t-45.5 73.5t-14.5 106v313q0 78 -69 123t-196 44v311q124 -1 194.5 41t70.5 115v327q0 63 13.5 105t44 72.5t87 47t133.5 23.5t193 7v-287q-80 -3 -106.5 -26.5t-26.5 -77.5v-298q0 -62 -48.5 -119.5t-134.5 -83.5
q89 -24 136 -75t47 -116v-308q0 -53 27 -78t106 -29v-288z" />
    <glyph glyph-name="bar" unicode="|" horiz-adv-x="1133" 
d="M429 -444v1989h277v-1989h-277z" />
    <glyph glyph-name="braceright" unicode="}" horiz-adv-x="838" 
d="M88 -36q79 4 106 29t27 78v308q0 65 47 116t136 75q-86 26 -134.5 83.5t-48.5 119.5v298q0 54 -26.5 77.5t-106.5 26.5v287q116 0 193 -7t133.5 -23.5t87 -47t44 -72.5t13.5 -105v-327q0 -73 70.5 -115t194.5 -41v-311q-127 1 -196 -44t-69 -123v-313q0 -63 -14.5 -106
t-45.5 -73.5t-88 -47t-133.5 -23.5t-189.5 -7v288z" />
    <glyph glyph-name="asciitilde" unicode="~" horiz-adv-x="1168" 
d="M825 527q-64 0 -132 20t-117.5 44.5t-115.5 44.5t-126 20q-50 0 -109 -31t-114 -89v277q55 58 114 89t109 31q60 0 126 -20t115.5 -44.5t117.5 -44.5t132 -20q123 0 234 113v-277q-111 -113 -234 -113z" />
    <glyph glyph-name="uni00A0" unicode="&#xa0;" horiz-adv-x="532" 
 />
    <glyph glyph-name="exclamdown" unicode="&#xa1;" horiz-adv-x="623" 
d="M145 548h337l56 -923h-449zM102 716v393h422v-393h-422z" />
    <glyph glyph-name="cent" unicode="&#xa2;" horiz-adv-x="1168" 
d="M546 -20v190q-237 22 -347 158t-110 401q0 545 457 603v151h216v-149q154 -15 287 -84l-118 -304q-92 39 -150 57t-111 18q-91 0 -131.5 -66.5t-40.5 -208.5q0 -143 43 -202t141 -59q117 0 215 56l105 -276q-108 -77 -239 -94v-191h-217z" />
    <glyph glyph-name="sterling" unicode="&#xa3;" horiz-adv-x="1168" 
d="M89 325q100 56 129.5 99.5t29.5 128.5v90h-163v284h163v130q0 207 119 317t342 110q205 0 415 -85l-119 -298q-155 59 -258 59q-47 0 -75.5 -29t-28.5 -72v-132h350v-284h-350v-88q0 -146 -156 -219h670v-336h-1068v325z" />
    <glyph glyph-name="currency" unicode="&#xa4;" horiz-adv-x="1168" 
d="M582 333q-89 0 -165 35l-95 -96l-190 194l92 92q-35 80 -35 164q0 88 39 168l-96 96l196 190l96 -96q76 34 158 34q86 0 165 -34l96 96l196 -190l-95 -95q38 -81 38 -169q0 -86 -36 -163l93 -93l-190 -194l-97 97q-81 -36 -170 -36zM456 723q0 -51 37 -88t90 -37
q56 0 94 36.5t38 88.5q0 55 -38.5 90.5t-93.5 35.5q-51 0 -89 -37t-38 -89z" />
    <glyph glyph-name="yen" unicode="&#xa5;" horiz-adv-x="1168" 
d="M396 0v184h-201v219h201v111h-201v219h146l-353 729h412l184 -512l184 512h410l-359 -729h150v-219h-199v-111h199v-219h-199v-184h-374z" />
    <glyph glyph-name="brokenbar" unicode="&#xa6;" horiz-adv-x="1133" 
d="M429 1130v840h277v-840h-277zM429 -870v841h277v-841h-277z" />
    <glyph glyph-name="section" unicode="&#xa7;" horiz-adv-x="959" 
d="M441 -10q-75 0 -146 11t-114 24t-106 35l110 256q171 -53 288 -53q88 0 88 39q0 19 -14 37t-42.5 34t-51.5 26.5t-61.5 26t-52.5 21.5q-88 37 -143.5 73.5t-84.5 77.5t-39 81.5t-10 97.5q0 148 129 245q-62 50 -84 108.5t-22 138.5q0 159 120.5 249.5t338.5 90.5
q226 0 433 -95l-111 -260q-96 46 -166.5 66t-148.5 20q-33 0 -48.5 -11.5t-15.5 -25.5q0 -13 10.5 -24.5t32.5 -23t43 -19.5t57 -22t58 -23q167 -71 230.5 -144.5t63.5 -199.5q0 -158 -123 -257q53 -45 76.5 -100.5t23.5 -134.5q0 -171 -130.5 -268t-387.5 -97zM433 818
q0 -15 10 -27t34 -23.5t42.5 -18t54.5 -18.5q40 23 40 68q0 30 -30.5 49t-85.5 35q-65 -6 -65 -65z" />
    <glyph glyph-name="copyright" unicode="&#xa9;" horiz-adv-x="1704" 
d="M852 -20q-132 0 -251.5 41.5t-209.5 114t-156.5 167.5t-100.5 205t-34 223q0 163 64 306t169 239.5t240.5 151.5t278.5 55q163 0 306 -64t239.5 -169t151.5 -240.5t55 -278.5q0 -163 -63.5 -305t-168 -238.5t-240.5 -152t-280 -55.5zM267 731q0 -127 50 -238t131.5 -186
t187 -118t216.5 -43q128 0 239 49.5t186 131.5t117.5 187.5t42.5 216.5q0 128 -50 239t-131.5 186t-187 117.5t-216.5 42.5q-169 0 -305 -85t-208 -218t-72 -282zM488 724q0 409 385 409q144 0 258 -60l-79 -204q-119 51 -175 51q-61 0 -88 -44.5t-27 -140.5q0 -95 29 -135
t94 -40q77 0 144 38l71 -185q-51 -37 -105 -52t-131 -15q-196 0 -286 91t-90 287z" />
    <glyph glyph-name="guillemotleft" unicode="&#xab;" horiz-adv-x="1434" 
d="M1055 79l-393 483v26l393 486l294 -154l-282 -344l282 -343zM82 562v26l396 486l292 -154l-282 -344l282 -343l-292 -154z" />
    <glyph glyph-name="logicalnot" unicode="&#xac;" horiz-adv-x="1168" 
d="M817 237v344h-740v280h1020v-624h-280z" />
    <glyph glyph-name="uni00AD" unicode="&#xad;" horiz-adv-x="659" 
d="M46 386v324h567v-324h-567z" />
    <glyph glyph-name="registered" unicode="&#xae;" horiz-adv-x="1704" 
d="M852 -20q-132 0 -251.5 41.5t-209.5 114t-156.5 167.5t-100.5 205t-34 223q0 163 64 306t169 239.5t240.5 151.5t278.5 55q163 0 306 -64t239.5 -169t151.5 -240.5t55 -278.5q0 -163 -63.5 -305t-168 -238.5t-240.5 -152t-280 -55.5zM267 731q0 -127 50 -238t131.5 -186
t187 -118t216.5 -43q128 0 239 49.5t186 131.5t117.5 187.5t42.5 216.5q0 128 -50 239t-131.5 186t-187 117.5t-216.5 42.5q-169 0 -305 -85t-208 -218t-72 -282zM565 377v728h274q131 0 194.5 -59.5t63.5 -180.5q0 -157 -103 -214l180 -274h-203l-155 240h-49v-240h-202z
M767 781h69q34 0 45.5 20.5t11.5 63.5q0 41 -12.5 58.5t-49.5 17.5h-64v-160z" />
    <glyph glyph-name="degree" unicode="&#xb0;" horiz-adv-x="877" 
d="M438 748q-154 0 -261.5 107t-107.5 259q0 107 55.5 193.5t139 131t174.5 44.5q109 0 195 -55.5t130 -139t44 -174.5q0 -107 -53.5 -192t-137.5 -129.5t-178 -44.5zM310 1114q0 -52 36 -88t91 -36t92.5 37.5t37.5 86.5q0 50 -38.5 89.5t-91.5 39.5q-51 0 -89 -38t-38 -91z
" />
    <glyph glyph-name="plusminus" unicode="&#xb1;" horiz-adv-x="1168" 
d="M77 2v280h1015v-280h-1015zM77 683v280h368v366h280v-366h367v-280h-367v-360h-280v360h-368z" />
    <glyph glyph-name="paragraph" unicode="&#xb6;" horiz-adv-x="1341" 
d="M678 559q-60 -18 -146 -18q-215 0 -317 124t-102 377q0 261 109.5 387.5t340.5 126.5h635v-1816h-192v1558h-135v-1558h-193v819z" />
    <glyph glyph-name="periodcentered" unicode="&#xb7;" horiz-adv-x="621" 
d="M94 525v388h433v-388h-433z" />
    <glyph glyph-name="guillemotright" unicode="&#xbb;" horiz-adv-x="1434" 
d="M957 79l-292 154l281 343l-281 344l292 154l395 -487v-25zM85 233l281 343l-281 344l293 154l395 -487v-25l-395 -483z" />
    <glyph glyph-name="questiondown" unicode="&#xbf;" horiz-adv-x="1038" 
d="M794 468q0 -87 -44.5 -151.5t-157.5 -143.5q-87 -56 -117 -89t-30 -70q0 -43 31 -62t92 -19q152 0 363 108l144 -282q-116 -70 -253 -107.5t-274 -37.5q-223 0 -353.5 99t-130.5 279q0 58 14 104t48 87.5t72 74.5t103 79q20 14 48.5 32.5t38 25t23.5 18t17 19t6 18.5
t3 27v81h357v-90zM395 726v393h422v-393h-422z" />
    <glyph glyph-name="Agrave" unicode="&#xc0;" horiz-adv-x="1498" 
d="M5 0l481 1468h523l485 -1468h-442l-56 267h-494l-56 -267h-441zM367 2101l15 22h352l163 -501h-289zM590 605h315l-157 585z" />
    <glyph glyph-name="Aacute" unicode="&#xc1;" horiz-adv-x="1498" 
d="M5 0l481 1468h523l485 -1468h-442l-56 267h-494l-56 -267h-441zM590 605h315l-157 585zM601 1622l163 501h352l15 -22l-241 -479h-289z" />
    <glyph glyph-name="Acircumflex" unicode="&#xc2;" horiz-adv-x="1498" 
d="M5 0l481 1468h523l485 -1468h-442l-56 267h-494l-56 -267h-441zM267 1634l317 419h330l317 -419h-312l-170 224l-170 -224h-312zM590 605h315l-157 585z" />
    <glyph glyph-name="Atilde" unicode="&#xc3;" horiz-adv-x="1498" 
d="M5 0l481 1468h523l485 -1468h-442l-56 267h-494l-56 -267h-441zM392 1628q-25 131 3.5 231.5t125.5 134.5q128 44 271 -87l9 -9l11 -11l9 -9q66 -71 83 -83q22 -14 41 -8q24 7 1 133q-6 36 -10 58l192 29q16 -64 18 -125t-10 -116.5t-47.5 -94.5t-91.5 -49
q-76 -14 -150.5 17.5t-131.5 96.5q-6 8 -17.5 20t-13.5 14q-37 39 -58.5 48.5t-39.5 -2.5q-37 -19 0 -168zM590 605h315l-157 585z" />
    <glyph glyph-name="Adieresis" unicode="&#xc4;" horiz-adv-x="1498" 
d="M5 0l481 1468h523l485 -1468h-442l-56 267h-494l-56 -267h-441zM367 1623v285h329v-285h-329zM590 605h315l-157 585zM803 1623v285h329v-285h-329z" />
    <glyph glyph-name="Aring" unicode="&#xc5;" horiz-adv-x="1498" 
d="M5 0l481 1468h523l485 -1468h-442l-56 267h-494l-56 -267h-441zM455 1984q0 121 86.5 207t207.5 86t207 -86t86 -207t-86 -207.5t-207 -86.5t-207.5 86t-86.5 208zM590 605h315l-157 585zM674 1984q0 -31 21.5 -52.5t53.5 -21.5t53.5 21.5t21.5 52.5q0 32 -22 53.5
t-53 21.5t-53 -21.5t-22 -53.5z" />
    <glyph glyph-name="AE" unicode="&#xc6;" horiz-adv-x="2147" 
d="M1186 0v244h-559l-151 -244h-471l942 1462h1100v-334h-454v-206h379v-330h-379v-258h454v-334h-861zM832 575h354v556h-11z" />
    <glyph glyph-name="Ccedilla" unicode="&#xc7;" horiz-adv-x="1325" 
d="M588 -341q40 -31 73.5 -34t51 15t20.5 46q2 19 -7 37t-27.5 29t-41 14t-51 -10.5t-54.5 -43.5l-124 104l125 187q-223 55 -338 235.5t-115 469.5q0 190 49.5 338.5t138.5 243.5t211 144t270 49q217 0 456 -115l-124 -327q-99 55 -171 81.5t-161 26.5q-123 0 -192 -113
t-69 -324q0 -202 67.5 -300t207.5 -98q131 0 272 53l116 -300q-197 -87 -415 -87l-43 -71q93 -17 146.5 -90t47.5 -162q-6 -81 -70 -141t-157.5 -65.5t-199.5 70.5z" />
    <glyph glyph-name="Egrave" unicode="&#xc8;" horiz-adv-x="1111" 
d="M150 0v1462h861v-334h-454v-206h379v-330h-379v-258h454v-334h-861zM174 2101l15 22h352l163 -501h-289z" />
    <glyph glyph-name="Eacute" unicode="&#xc9;" horiz-adv-x="1111" 
d="M150 0v1462h861v-334h-454v-206h379v-330h-379v-258h454v-334h-861zM408 1622l163 501h352l15 -22l-241 -479h-289z" />
    <glyph glyph-name="Ecircumflex" unicode="&#xca;" horiz-adv-x="1111" 
d="M150 0v1462h861v-334h-454v-206h379v-330h-379v-258h454v-334h-861zM74 1634l317 419h330l317 -419h-312l-170 224l-170 -224h-312z" />
    <glyph glyph-name="Edieresis" unicode="&#xcb;" horiz-adv-x="1111" 
d="M150 0v1462h861v-334h-454v-206h379v-330h-379v-258h454v-334h-861zM174 1623v285h329v-285h-329zM610 1623v285h329v-285h-329z" />
    <glyph glyph-name="Igrave" unicode="&#xcc;" horiz-adv-x="707" 
d="M150 0v1462h407v-1462h-407zM-28 2136l15 22h352l163 -501h-289z" />
    <glyph glyph-name="Iacute" unicode="&#xcd;" horiz-adv-x="707" 
d="M150 0v1462h407v-1462h-407zM206 1657l163 501h352l15 -22l-241 -479h-289z" />
    <glyph glyph-name="Icircumflex" unicode="&#xce;" horiz-adv-x="707" 
d="M150 0v1462h407v-1462h-407zM-128 1669l317 419h330l317 -419h-312l-170 224l-170 -224h-312z" />
    <glyph glyph-name="Idieresis" unicode="&#xcf;" horiz-adv-x="707" 
d="M150 0v1462h407v-1462h-407zM-28 1658v285h329v-285h-329zM408 1658v285h329v-285h-329z" />
    <glyph glyph-name="Eth" unicode="&#xd0;" horiz-adv-x="1504" 
d="M150 0v569h-140v334h140v559h528q359 0 542.5 -187.5t183.5 -529.5q0 -365 -190.5 -555t-580.5 -190h-483zM557 334h132q168 0 238 96.5t70 304.5q0 206 -62 301t-215 95h-163v-228h256v-334h-256v-235z" />
    <glyph glyph-name="Ntilde" unicode="&#xd1;" horiz-adv-x="1837" 
d="M150 0v1462h619l514 -1002h7v1002h397v-1462h-624l-514 1018h-9v-1018h-390zM562 1668q-25 131 3.5 231.5t125.5 134.5q128 44 271 -87l9 -9l11 -11l9 -9q66 -71 83 -83q22 -14 41 -8q24 7 1 133q-6 36 -10 58l192 29q16 -64 18 -125t-10 -116.5t-47.5 -94.5t-91.5 -49
q-76 -14 -150.5 17.5t-131.5 96.5q-6 8 -17.5 20t-13.5 14q-37 39 -58.5 48.5t-39.5 -2.5q-37 -19 0 -168z" />
    <glyph glyph-name="Ograve" unicode="&#xd2;" horiz-adv-x="1588" 
d="M795 -20q-348 0 -521.5 191t-173.5 565q0 749 698 749q690 0 690 -753q0 -372 -173 -562t-520 -190zM412 2128l15 22h352l163 -501h-289zM506 734q0 -212 70.5 -316t216.5 -104q147 0 218 103.5t71 315.5q0 214 -70.5 316t-216.5 102t-217.5 -103t-71.5 -314z" />
    <glyph glyph-name="Oacute" unicode="&#xd3;" horiz-adv-x="1588" 
d="M795 -20q-348 0 -521.5 191t-173.5 565q0 749 698 749q690 0 690 -753q0 -372 -173 -562t-520 -190zM506 734q0 -212 70.5 -316t216.5 -104q147 0 218 103.5t71 315.5q0 214 -70.5 316t-216.5 102t-217.5 -103t-71.5 -314zM646 1649l163 501h352l15 -22l-241 -479h-289z
" />
    <glyph glyph-name="Ocircumflex" unicode="&#xd4;" horiz-adv-x="1588" 
d="M795 -20q-348 0 -521.5 191t-173.5 565q0 749 698 749q690 0 690 -753q0 -372 -173 -562t-520 -190zM312 1661l317 419h330l317 -419h-312l-170 224l-170 -224h-312zM506 734q0 -212 70.5 -316t216.5 -104q147 0 218 103.5t71 315.5q0 214 -70.5 316t-216.5 102
t-217.5 -103t-71.5 -314z" />
    <glyph glyph-name="Otilde" unicode="&#xd5;" horiz-adv-x="1588" 
d="M795 -20q-348 0 -521.5 191t-173.5 565q0 749 698 749q690 0 690 -753q0 -372 -173 -562t-520 -190zM437 1655q-25 131 3.5 231.5t125.5 134.5q128 44 271 -87l9 -9l11 -11l9 -9q66 -71 83 -83q22 -14 41 -8q24 7 1 133q-6 36 -10 58l192 29q16 -64 18 -125t-10 -116.5
t-47.5 -94.5t-91.5 -49q-76 -14 -150.5 17.5t-131.5 96.5q-6 8 -17.5 20t-13.5 14q-37 39 -58.5 48.5t-39.5 -2.5q-37 -19 0 -168zM506 734q0 -212 70.5 -316t216.5 -104q147 0 218 103.5t71 315.5q0 214 -70.5 316t-216.5 102t-217.5 -103t-71.5 -314z" />
    <glyph glyph-name="Odieresis" unicode="&#xd6;" horiz-adv-x="1588" 
d="M795 -20q-348 0 -521.5 191t-173.5 565q0 749 698 749q690 0 690 -753q0 -372 -173 -562t-520 -190zM412 1650v285h329v-285h-329zM506 734q0 -212 70.5 -316t216.5 -104q147 0 218 103.5t71 315.5q0 214 -70.5 316t-216.5 102t-217.5 -103t-71.5 -314zM848 1650v285h329
v-285h-329z" />
    <glyph glyph-name="multiply" unicode="&#xd7;" horiz-adv-x="1168" 
d="M322 272l-190 194l261 260l-261 260l196 190l258 -257l257 257l196 -190l-261 -260l261 -260l-190 -194l-263 262z" />
    <glyph glyph-name="Oslash" unicode="&#xd8;" horiz-adv-x="1602" 
d="M802 -20q-202 0 -347 65l-75 -88l-280 236l92 108q-85 171 -85 435q0 749 698 749q203 0 343 -64l74 87l280 -237l-90 -106q83 -172 83 -433q0 -372 -173 -562t-520 -190zM513 734q0 -38 1 -55l390 457q-45 15 -102 15q-146 0 -217.5 -103t-71.5 -314zM698 329
q45 -15 102 -15q147 0 218 103.5t71 315.5q0 36 -1 53z" />
    <glyph glyph-name="Ugrave" unicode="&#xd9;" horiz-adv-x="1554" 
d="M771 -20q-296 0 -458.5 134t-162.5 383v965h407v-886q0 -154 45.5 -208t175.5 -54q127 0 173 55.5t46 211.5v881h407v-969q0 -115 -36 -205t-96 -147t-143.5 -94t-171 -52t-186.5 -15zM395 2099l15 22h352l163 -501h-289z" />
    <glyph glyph-name="Uacute" unicode="&#xda;" horiz-adv-x="1554" 
d="M771 -20q-296 0 -458.5 134t-162.5 383v965h407v-886q0 -154 45.5 -208t175.5 -54q127 0 173 55.5t46 211.5v881h407v-969q0 -115 -36 -205t-96 -147t-143.5 -94t-171 -52t-186.5 -15zM629 1620l163 501h352l15 -22l-241 -479h-289z" />
    <glyph glyph-name="Ucircumflex" unicode="&#xdb;" horiz-adv-x="1554" 
d="M771 -20q-296 0 -458.5 134t-162.5 383v965h407v-886q0 -154 45.5 -208t175.5 -54q127 0 173 55.5t46 211.5v881h407v-969q0 -115 -36 -205t-96 -147t-143.5 -94t-171 -52t-186.5 -15zM295 1632l317 419h330l317 -419h-312l-170 224l-170 -224h-312z" />
    <glyph glyph-name="Udieresis" unicode="&#xdc;" horiz-adv-x="1554" 
d="M771 -20q-296 0 -458.5 134t-162.5 383v965h407v-886q0 -154 45.5 -208t175.5 -54q127 0 173 55.5t46 211.5v881h407v-969q0 -115 -36 -205t-96 -147t-143.5 -94t-171 -52t-186.5 -15zM395 1621v285h329v-285h-329zM831 1621v285h329v-285h-329z" />
    <glyph glyph-name="Yacute" unicode="&#xdd;" horiz-adv-x="1411" 
d="M503 0v560l-483 902h441l244 -509l246 509h440l-484 -891v-571h-404zM558 1626l163 501h352l15 -22l-241 -479h-289z" />
    <glyph glyph-name="Thorn" unicode="&#xde;" horiz-adv-x="1319" 
d="M150 0v1462h407v-248h144q263 0 390.5 -119.5t127.5 -362.5q0 -499 -518 -499h-144v-233h-407zM557 564h138q67 0 90.5 41.5t23.5 125.5q0 83 -24.5 118t-99.5 35h-128v-320z" />
    <glyph glyph-name="germandbls" unicode="&#xdf;" horiz-adv-x="1388" 
d="M559 -1l-409 1v971q0 109 30 197t91.5 154.5t162.5 103t235 36.5q240 0 380.5 -101t140.5 -286q0 -108 -37 -192t-99 -125q115 -27 174.5 -112t59.5 -215q0 -203 -148.5 -317t-400.5 -114h-59v339h22q88 0 130 31t42 97q0 65 -43 96.5t-133 31.5h-18v324l12 -2
q29 2 58 31.5t29 73.5q0 54 -31 79t-79 25q-50 0 -81 -51.5t-31 -156.5z" />
    <glyph glyph-name="agrave" unicode="&#xe0;" horiz-adv-x="1252" 
d="M421 -20q-182 0 -276.5 95t-94.5 271q0 188 115.5 276t370.5 96l196 6v37q0 107 -139 107q-124 0 -312 -79l-134 262q207 108 462 108q253 0 388 -103.5t135 -305.5v-750h-374l-22 126q-69 -80 -140.5 -113t-174.5 -33zM244 1749l15 22h352l163 -501h-289zM462 357
q0 -92 95 -92q94 0 175 112v125l-84 -2q-186 -5 -186 -143z" />
    <glyph glyph-name="aacute" unicode="&#xe1;" horiz-adv-x="1252" 
d="M421 -20q-182 0 -276.5 95t-94.5 271q0 188 115.5 276t370.5 96l196 6v37q0 107 -139 107q-124 0 -312 -79l-134 262q207 108 462 108q253 0 388 -103.5t135 -305.5v-750h-374l-22 126q-69 -80 -140.5 -113t-174.5 -33zM462 357q0 -92 95 -92q94 0 175 112v125l-84 -2
q-186 -5 -186 -143zM478 1270l163 501h352l15 -22l-241 -479h-289z" />
    <glyph glyph-name="acircumflex" unicode="&#xe2;" horiz-adv-x="1252" 
d="M421 -20q-182 0 -276.5 95t-94.5 271q0 188 115.5 276t370.5 96l196 6v37q0 107 -139 107q-124 0 -312 -79l-134 262q207 108 462 108q253 0 388 -103.5t135 -305.5v-750h-374l-22 126q-69 -80 -140.5 -113t-174.5 -33zM144 1282l317 419h330l317 -419h-312l-170 224
l-170 -224h-312zM462 357q0 -92 95 -92q94 0 175 112v125l-84 -2q-186 -5 -186 -143z" />
    <glyph glyph-name="atilde" unicode="&#xe3;" horiz-adv-x="1252" 
d="M421 -20q-182 0 -276.5 95t-94.5 271q0 188 115.5 276t370.5 96l196 6v37q0 107 -139 107q-124 0 -312 -79l-134 262q207 108 462 108q253 0 388 -103.5t135 -305.5v-750h-374l-22 126q-69 -80 -140.5 -113t-174.5 -33zM269 1276q-25 131 3.5 231.5t125.5 134.5
q128 44 271 -87l29 -29q66 -71 83 -83q22 -14 41 -8q24 7 1 133q-6 36 -10 58l192 29q16 -64 18 -125t-10 -116.5t-47.5 -94.5t-91.5 -49q-76 -14 -150.5 17.5t-131.5 96.5q-6 8 -17.5 20t-13.5 14q-37 39 -58.5 48.5t-39.5 -2.5q-37 -19 0 -168zM462 357q0 -92 95 -92
q94 0 175 112v125l-84 -2q-186 -5 -186 -143z" />
    <glyph glyph-name="adieresis" unicode="&#xe4;" horiz-adv-x="1252" 
d="M421 -20q-182 0 -276.5 95t-94.5 271q0 188 115.5 276t370.5 96l196 6v37q0 107 -139 107q-124 0 -312 -79l-134 262q207 108 462 108q253 0 388 -103.5t135 -305.5v-750h-374l-22 126q-69 -80 -140.5 -113t-174.5 -33zM244 1271v285h329v-285h-329zM462 357
q0 -92 95 -92q94 0 175 112v125l-84 -2q-186 -5 -186 -143zM680 1271v285h329v-285h-329z" />
    <glyph glyph-name="aring" unicode="&#xe5;" horiz-adv-x="1252" 
d="M421 -20q-182 0 -276.5 95t-94.5 271q0 188 115.5 276t370.5 96l196 6v37q0 107 -139 107q-124 0 -312 -79l-134 262q207 108 462 108q253 0 388 -103.5t135 -305.5v-750h-374l-22 126q-69 -80 -140.5 -113t-174.5 -33zM332 1632q0 121 86.5 207t207.5 86t207 -86
t86 -207t-86 -207.5t-207 -86.5q-122 0 -208 86t-86 208zM462 357q0 -92 95 -92q94 0 175 112v125l-84 -2q-186 -5 -186 -143zM551 1632q0 -31 21.5 -52.5t53.5 -21.5t53.5 21.5t21.5 52.5q0 32 -21.5 53.5t-53.5 21.5t-53.5 -21.5t-21.5 -53.5z" />
    <glyph glyph-name="ae" unicode="&#xe6;" horiz-adv-x="1894" 
d="M492 -20q-214 0 -328 95.5t-114 270.5q0 176 126.5 265.5t359.5 96.5l196 6v37q0 107 -139 107q-124 0 -312 -79l-134 262q207 108 462 108q227 0 358 -83q135 88 340 88q254 0 395.5 -135.5t141.5 -379.5v-179h-694q18 -191 237 -191q143 0 285 54l98 -259
q-152 -84 -398 -84q-294 0 -453 135q-184 -135 -427 -135zM462 357q0 -92 95 -92q94 0 175 112v115l-84 -2q-94 -2 -140 -34t-46 -99zM1158 714h318q-3 78 -49 121.5t-119 43.5q-141 0 -150 -165z" />
    <glyph glyph-name="ccedilla" unicode="&#xe7;" horiz-adv-x="1050" 
d="M465 -345q40 -31 73.5 -34t51 15t20.5 46q2 19 -7 37t-27.5 29t-41 14t-51 -10.5t-54.5 -43.5l-124 104l123 184q-195 38 -286.5 172.5t-91.5 375.5q0 610 575 610q213 0 385 -89l-118 -304q-92 39 -150 57t-111 18q-91 0 -131.5 -66.5t-40.5 -208.5q0 -143 43 -202
t141 -59q117 0 215 56l105 -276q-72 -51 -147.5 -74.5t-179.5 -25.5l-46 -75q93 -17 146.5 -90t47.5 -162q-6 -81 -70 -141t-157.5 -65.5t-199.5 70.5z" />
    <glyph glyph-name="egrave" unicode="&#xe8;" horiz-adv-x="1200" 
d="M678 -20q-312 0 -470 150.5t-158 438.5q0 281 146.5 433t416.5 152q254 0 395.5 -135.5t141.5 -379.5v-179h-694q18 -191 237 -191q143 0 285 54l98 -259q-151 -84 -398 -84zM218 1729l15 22h352l163 -501h-289zM464 714h318q-3 78 -49 121.5t-119 43.5q-141 0 -150 -165
z" />
    <glyph glyph-name="eacute" unicode="&#xe9;" horiz-adv-x="1200" 
d="M678 -20q-312 0 -470 150.5t-158 438.5q0 281 146.5 433t416.5 152q254 0 395.5 -135.5t141.5 -379.5v-179h-694q18 -191 237 -191q143 0 285 54l98 -259q-151 -84 -398 -84zM452 1250l163 501h352l15 -22l-241 -479h-289zM464 714h318q-3 78 -49 121.5t-119 43.5
q-141 0 -150 -165z" />
    <glyph glyph-name="ecircumflex" unicode="&#xea;" horiz-adv-x="1200" 
d="M678 -20q-312 0 -470 150.5t-158 438.5q0 281 146.5 433t416.5 152q254 0 395.5 -135.5t141.5 -379.5v-179h-694q18 -191 237 -191q143 0 285 54l98 -259q-151 -84 -398 -84zM118 1262l317 419h330l317 -419h-312l-170 224l-170 -224h-312zM464 714h318q-3 78 -49 121.5
t-119 43.5q-141 0 -150 -165z" />
    <glyph glyph-name="edieresis" unicode="&#xeb;" horiz-adv-x="1200" 
d="M678 -20q-312 0 -470 150.5t-158 438.5q0 281 146.5 433t416.5 152q254 0 395.5 -135.5t141.5 -379.5v-179h-694q18 -191 237 -191q143 0 285 54l98 -259q-151 -84 -398 -84zM218 1251v285h329v-285h-329zM464 714h318q-3 78 -49 121.5t-119 43.5q-141 0 -150 -165z
M654 1251v285h329v-285h-329z" />
    <glyph glyph-name="igrave" unicode="&#xec;" horiz-adv-x="711" 
d="M191 0v1133h400v-1133h-400zM0 1727l15 22h352l163 -501h-289z" />
    <glyph glyph-name="iacute" unicode="&#xed;" horiz-adv-x="707" 
d="M120 0v1133h400v-1133h-400zM177 1247l163 501h352l15 -22l-241 -479h-289z" />
    <glyph glyph-name="icircumflex" unicode="&#xee;" horiz-adv-x="1004" 
d="M300 0v1133h400v-1133h-400zM20 1256l317 419h330l317 -419h-312l-170 224l-170 -224h-312z" />
    <glyph glyph-name="idieresis" unicode="&#xef;" horiz-adv-x="804" 
d="M199 0v1133h400v-1133h-400zM20 1258v285h329v-285h-329zM456 1258v285h329v-285h-329z" />
    <glyph glyph-name="eth" unicode="&#xf0;" horiz-adv-x="1266" 
d="M605 -20q-248 0 -401.5 151t-153.5 398q0 137 66.5 259.5t180 192t239.5 53.5q126 -15 210 -54q0 87 -39 206l-277 -68l-55 220l244 60q-22 44 -52 97l320 118q32 -51 69 -132l168 41l55 -220l-140 -34q107 -324 107 -556v-155q0 -142 -42.5 -253.5t-117 -181.5
t-171.5 -106t-210 -36zM456 531q0 -105 40 -166.5t117 -61.5q17 0 37.5 7t43 21.5t37.5 44t15 68.5v167q-44 92 -133 92q-74 0 -115.5 -52t-41.5 -120z" />
    <glyph glyph-name="ntilde" unicode="&#xf1;" horiz-adv-x="1352" 
d="M120 0v1133h303l67 -122q199 131 352 131q92 0 160.5 -25.5t112 -71t70 -116.5t37 -154t10.5 -192v-583h-400v583q0 127 -43 191t-116 64q-71 0 -150 -39v-799h-403zM319 1250q-25 131 3.5 231.5t125.5 134.5q128 44 271 -87l29 -29q66 -71 83 -83q22 -14 41 -8
q24 7 1 133q-6 36 -10 58l192 29q16 -64 18 -125t-10 -116.5t-47.5 -94.5t-91.5 -49q-76 -14 -150.5 17.5t-131.5 96.5q-6 8 -17.5 20t-13.5 14q-37 39 -58.5 48.5t-39.5 -2.5q-37 -19 0 -168z" />
    <glyph glyph-name="ograve" unicode="&#xf2;" horiz-adv-x="1220" 
d="M611 -20q-141 0 -249.5 45.5t-176 126.5t-101.5 188t-34 236q0 271 146 424.5t413 153.5q147 0 258 -48t175.5 -132t96 -187.5t31.5 -225.5q0 -269 -146 -425t-413 -156zM228 1746l15 22h352l163 -501h-289zM450 570q0 -144 35 -207.5t127 -63.5q91 0 124.5 62.5
t33.5 205.5q0 145 -34 206t-126 61q-91 0 -125.5 -61.5t-34.5 -202.5z" />
    <glyph glyph-name="oacute" unicode="&#xf3;" horiz-adv-x="1220" 
d="M611 -20q-141 0 -249.5 45.5t-176 126.5t-101.5 188t-34 236q0 271 146 424.5t413 153.5q147 0 258 -48t175.5 -132t96 -187.5t31.5 -225.5q0 -269 -146 -425t-413 -156zM450 570q0 -144 35 -207.5t127 -63.5q91 0 124.5 62.5t33.5 205.5q0 145 -34 206t-126 61
q-91 0 -125.5 -61.5t-34.5 -202.5zM462 1267l163 501h352l15 -22l-241 -479h-289z" />
    <glyph glyph-name="ocircumflex" unicode="&#xf4;" horiz-adv-x="1220" 
d="M611 -20q-141 0 -249.5 45.5t-176 126.5t-101.5 188t-34 236q0 271 146 424.5t413 153.5q147 0 258 -48t175.5 -132t96 -187.5t31.5 -225.5q0 -269 -146 -425t-413 -156zM128 1279l317 419h330l317 -419h-312l-170 224l-170 -224h-312zM450 570q0 -144 35 -207.5
t127 -63.5q91 0 124.5 62.5t33.5 205.5q0 145 -34 206t-126 61q-91 0 -125.5 -61.5t-34.5 -202.5z" />
    <glyph glyph-name="otilde" unicode="&#xf5;" horiz-adv-x="1220" 
d="M611 -20q-141 0 -249.5 45.5t-176 126.5t-101.5 188t-34 236q0 271 146 424.5t413 153.5q147 0 258 -48t175.5 -132t96 -187.5t31.5 -225.5q0 -269 -146 -425t-413 -156zM253 1273q-25 131 3.5 231.5t125.5 134.5q128 44 271 -87l9 -9l11 -11l9 -9q66 -71 83 -83
q22 -14 41 -8q24 7 1 133q-6 36 -10 58l192 29q16 -64 18 -125t-10 -116.5t-47.5 -94.5t-91.5 -49q-76 -14 -150.5 17.5t-131.5 96.5q-6 8 -17.5 20t-13.5 14q-37 39 -58.5 48.5t-39.5 -2.5q-37 -19 0 -168zM450 570q0 -144 35 -207.5t127 -63.5q91 0 124.5 62.5t33.5 205.5
q0 145 -34 206t-126 61q-91 0 -125.5 -61.5t-34.5 -202.5z" />
    <glyph glyph-name="odieresis" unicode="&#xf6;" horiz-adv-x="1220" 
d="M611 -20q-141 0 -249.5 45.5t-176 126.5t-101.5 188t-34 236q0 271 146 424.5t413 153.5q147 0 258 -48t175.5 -132t96 -187.5t31.5 -225.5q0 -269 -146 -425t-413 -156zM228 1268v285h329v-285h-329zM450 570q0 -144 35 -207.5t127 -63.5q91 0 124.5 62.5t33.5 205.5
q0 145 -34 206t-126 61q-91 0 -125.5 -61.5t-34.5 -202.5zM664 1268v285h329v-285h-329z" />
    <glyph glyph-name="divide" unicode="&#xf7;" horiz-adv-x="1168" 
d="M77 581v280h1015v-280h-1015zM417 156v300h335v-300h-335zM417 985v300h335v-300h-335z" />
    <glyph glyph-name="oslash" unicode="&#xf8;" horiz-adv-x="1220" 
d="M611 -20q-155 0 -272 56l-59 -70l-208 170l67 80q-89 147 -89 360q0 271 146 424.5t413 153.5q159 0 276 -56l63 74l208 -170l-73 -86q87 -146 87 -355q0 -269 -146 -425t-413 -156zM450 583l208 246q-23 5 -48 5q-89 0 -123.5 -58.5t-36.5 -192.5zM566 304q22 -5 46 -5
q87 0 121.5 58t36.5 188z" />
    <glyph glyph-name="ugrave" unicode="&#xf9;" horiz-adv-x="1352" 
d="M1232 1133v-1133h-303l-67 122q-199 -131 -352 -131q-92 0 -160.5 25.5t-112 71t-70 116.5t-37 154t-10.5 192v583h400v-583q0 -127 43 -191t116 -64q71 0 150 39v799h403zM294 1766l15 22h352l163 -501h-289z" />
    <glyph glyph-name="uacute" unicode="&#xfa;" horiz-adv-x="1352" 
d="M1232 1133v-1133h-303l-67 122q-199 -131 -352 -131q-92 0 -160.5 25.5t-112 71t-70 116.5t-37 154t-10.5 192v583h400v-583q0 -127 43 -191t116 -64q71 0 150 39v799h403zM528 1287l163 501h352l15 -22l-241 -479h-289z" />
    <glyph glyph-name="ucircumflex" unicode="&#xfb;" horiz-adv-x="1352" 
d="M1232 1133v-1133h-303l-67 122q-199 -131 -352 -131q-92 0 -160.5 25.5t-112 71t-70 116.5t-37 154t-10.5 192v583h400v-583q0 -127 43 -191t116 -64q71 0 150 39v799h403zM194 1299l317 419h330l317 -419h-312l-170 224l-170 -224h-312z" />
    <glyph glyph-name="udieresis" unicode="&#xfc;" horiz-adv-x="1352" 
d="M1232 1133v-1133h-303l-67 122q-199 -131 -352 -131q-92 0 -160.5 25.5t-112 71t-70 116.5t-37 154t-10.5 192v583h400v-583q0 -127 43 -191t116 -64q71 0 150 39v799h403zM294 1288v285h329v-285h-329zM730 1288v285h329v-285h-329z" />
    <glyph glyph-name="yacute" unicode="&#xfd;" horiz-adv-x="1267" 
d="M273 -493q-90 0 -172 19v318q59 -14 124 -14q175 0 243 208l-468 1095h444l192 -574l198 574h433l-455 -1239q-69 -187 -210 -287t-329 -100zM486 1255l163 501h352l15 -22l-241 -479h-289z" />
    <glyph glyph-name="thorn" unicode="&#xfe;" horiz-adv-x="1272" 
d="M120 -492v2059h406v-461q83 47 208 47q98 0 186 -40.5t155 -114t107 -186.5t40 -248t-40 -248t-107 -187t-155.5 -115t-185.5 -41q-110 0 -211 46v-511h-403zM523 389q44 -93 133 -93q157 0 157 266q0 268 -157 268q-88 0 -133 -91v-350z" />
    <glyph glyph-name="ydieresis" unicode="&#xff;" horiz-adv-x="1267" 
d="M273 -493q-90 0 -172 19v318q59 -14 124 -14q175 0 243 208l-468 1095h444l192 -574l198 574h433l-455 -1239q-69 -187 -210 -287t-329 -100zM252 1256v285h329v-285h-329zM688 1256v285h329v-285h-329z" />
    <glyph glyph-name="IJ" unicode="&#x132;" horiz-adv-x="1601" 
d="M150 0v1462h407v-1462h-407zM727 9v338q93 -22 144 -22q96 0 134.5 63.5t38.5 209.5v864h407v-868q0 -297 -132 -450.5t-390 -153.5q-114 0 -202 19z" />
    <glyph glyph-name="ij" unicode="&#x133;" horiz-adv-x="1245" 
d="M120 0v1133h400v-1133h-400zM122 1259v352h398v-352h-398zM375 -441l111 307q51 -19 93 -19q67 0 106.5 35.5t39.5 113.5v1137h400v-1216q0 -194 -126 -301.5t-352 -107.5q-173 0 -272 51zM725 1259v352h400v-352h-400z" />
    <glyph glyph-name="OE" unicode="&#x152;" horiz-adv-x="2096" 
d="M795 -20q-348 0 -521.5 191t-173.5 565q0 749 698 749q199 0 337 -61v38h861v-334h-454v-206h379v-330h-379v-258h454v-334h-861v43q-141 -63 -340 -63zM506 734q0 -212 70.5 -316t216.5 -104q147 0 218 103.5t71 315.5q0 214 -70.5 316t-216.5 102t-217.5 -103
t-71.5 -314z" />
    <glyph glyph-name="oe" unicode="&#x153;" horiz-adv-x="1975" 
d="M611 -20q-141 0 -249.5 45.5t-176 126.5t-101.5 188t-34 236q0 271 146 424.5t413 153.5q243 0 386 -130q144 130 393 130q254 0 395.5 -135.5t141.5 -379.5v-179h-694q18 -191 237 -191q142 0 285 54l98 -259q-151 -84 -398 -84q-293 0 -451 134q-146 -134 -391 -134z
M450 570q0 -144 35 -207.5t127 -63.5q91 0 124.5 62.5t33.5 205.5q0 145 -34 206t-126 61q-91 0 -125.5 -61.5t-34.5 -202.5zM1239 714h318q-3 78 -49 121.5t-119 43.5q-141 0 -150 -165z" />
    <glyph glyph-name="Wcircumflex" unicode="&#x174;" horiz-adv-x="2170" 
d="M381 0l-361 1462h416l223 -1129l243 1129h376l233 -1129l222 1129h417l-357 -1462h-502l-203 998l-207 -998h-500zM603 1646l317 419h330l317 -419h-312l-170 224l-170 -224h-312z" />
    <glyph glyph-name="wcircumflex" unicode="&#x175;" horiz-adv-x="1842" 
d="M326 0l-326 1133h397l166 -815h5l129 815h449l122 -816h6l177 816h391l-335 -1133h-434l-155 862h-7l-154 -862h-431zM439 1320l317 419h330l317 -419h-312l-170 224l-170 -224h-312z" />
    <glyph glyph-name="Ycircumflex" unicode="&#x176;" horiz-adv-x="1411" 
d="M503 0v560l-483 902h441l244 -509l246 509h440l-484 -891v-571h-404zM224 1638l317 419h330l317 -419h-312l-170 224l-170 -224h-312z" />
    <glyph glyph-name="ycircumflex" unicode="&#x177;" horiz-adv-x="1267" 
d="M273 -493q-90 0 -172 19v318q59 -14 124 -14q175 0 243 208l-468 1095h444l192 -574l198 574h433l-455 -1239q-69 -187 -210 -287t-329 -100zM152 1267l317 419h330l317 -419h-312l-170 224l-170 -224h-312z" />
    <glyph glyph-name="Ydieresis" unicode="&#x178;" horiz-adv-x="1411" 
d="M503 0v560l-483 902h441l244 -509l246 509h440l-484 -891v-571h-404zM324 1627v285h329v-285h-329zM760 1627v285h329v-285h-329z" />
    <glyph glyph-name="florin" unicode="&#x192;" horiz-adv-x="894" 
d="M248 -492q-123 0 -210 28v328q46 -20 103 -20q95 0 95 143v709h-145v312h145v120q0 183 95 269t305 86q187 0 308 -56l-100 -305q-79 29 -136 29q-19 0 -32.5 -14.5t-13.5 -32.5v-96h197v-312h-197v-786q0 -191 -107.5 -296.5t-306.5 -105.5z" />
    <glyph glyph-name="uni0237" unicode="&#x237;" horiz-adv-x="770" 
d="M172 -492q-173 0 -272 51l111 307q51 -19 93 -19q67 0 106.5 35.5t39.5 113.5v1137h400v-1216q0 -194 -126 -301.5t-352 -107.5z" />
    <glyph glyph-name="gravecomb" unicode="&#x300;" 
d="M264 961l-241 479l15 22h352l163 -501h-289z" />
    <glyph glyph-name="acutecomb" unicode="&#x301;" 
d="M312 961h-289l163 501h352l15 -22z" />
    <glyph glyph-name="uni0302" unicode="&#x302;" 
d="M436 1519h330l317 -419h-312l-170 224l-170 -224h-312z" />
    <glyph glyph-name="tildecomb" unicode="&#x303;" 
d="M848 1518q16 -64 18 -125t-10 -116.5t-47.5 -94.5t-91.5 -49q-76 -14 -150.5 17.5t-131.5 96.5q-6 8 -17.5 20t-13.5 14q-37 39 -58.5 48.5t-39.5 -2.5q-37 -19 0 -168l-194 -20q-25 131 3.5 231.5t125.5 134.5q128 44 271 -87l9 -9l11 -11l9 -9q66 -71 83 -83
q22 -14 41 -8q24 7 1 133q-6 36 -10 58z" />
    <glyph glyph-name="uni0307" unicode="&#x307;" 
d="M100 1182v325h375v-325h-375z" />
    <glyph glyph-name="uni0308" unicode="&#x308;" 
d="M590 1203v285h329v-285h-329zM154 1203v285h329v-285h-329z" />
    <glyph glyph-name="uni030A" unicode="&#x30a;" 
d="M590 1029q-122 0 -208 86.5t-86 207.5t86.5 207t207.5 86t207 -86t86 -207t-86 -207.5t-207 -86.5zM515 1323q0 -31 21.5 -52.5t53.5 -21.5t53.5 21.5t21.5 52.5t-21.5 53t-53.5 22t-53.5 -22t-21.5 -53z" />
    <glyph glyph-name="uni0327" unicode="&#x327;" 
d="M507 -316q40 -31 73.5 -34t51 15t20.5 46q2 19 -7 37t-27.5 29t-41 14t-51 -10.5t-54.5 -43.5l-124 104l184 275l160 -85l-59 -97q93 -17 146.5 -90t47.5 -162q-6 -81 -70 -141t-157.5 -65.5t-199.5 70.5z" />
    <glyph glyph-name="uni060C" unicode="&#x60c;" horiz-adv-x="1004" 
d="M666 358q-57 -247 -97 -502h-354l-15 23q45 182 176 479h290z" />
    <glyph glyph-name="uni0615" unicode="&#x615;" 
d="M1 1134v114h60v326h140v-193q70 64 155 64q38 0 71.5 -14t59 -49.5t25.5 -87.5q0 -48 -22.5 -82t-57 -49.5t-65 -22t-58.5 -6.5h-308zM201 1248h86q12 0 28.5 2.5t36 12.5t19.5 27q0 18 -13 29.5t-34 11.5q-31 0 -67.5 -23.5t-55.5 -59.5z" />
    <glyph glyph-name="uni061B" unicode="&#x61b;" horiz-adv-x="628" 
d="M570 1235q-59 -257 -97 -502h-354l-15 23q45 182 176 479h290zM101 9q0 93 57 146.5t157 53.5q105 0 162 -52.5t57 -147.5q0 -98 -56 -149t-163 -51q-101 0 -157.5 53t-56.5 147z" />
    <glyph glyph-name="uni061F" unicode="&#x61f;" horiz-adv-x="1041" 
d="M774 629v-90h-357v81q0 16 -3 27t-6 18.5t-17 19t-23.5 18t-38 25t-48.5 32.5q-65 46 -103 79t-72 74.5t-48 87.5t-14 104q0 180 130.5 279t353.5 99q137 0 274 -37.5t253 -107.5l-144 -282q-211 108 -363 108q-61 0 -92 -19t-31 -62q0 -37 30 -70t117 -89
q113 -79 157.5 -143.5t44.5 -151.5zM375 -22v393h422v-393h-422z" />
    <glyph glyph-name="uni0621" unicode="&#x621;" horiz-adv-x="1047" 
d="M95 0v334h126q-4 24 -4 57q0 175 118 286.5t294 111.5q86 0 169 -25t139 -66l-143 -283q-33 21 -74.5 33.5t-68.5 10.5t-51.5 -18.5t-24.5 -46.5q0 -24 17.5 -42t41.5 -18h318v-334h-857z" />
    <glyph glyph-name="uni0622" unicode="&#x622;" horiz-adv-x="647" 
d="M120 0v1155h407v-1155h-407zM25 1427l208 155q29 -27 79 -52t103 -25q104 0 206 81v-192q-92 -74 -216 -74q-87 0 -157 47l-120 -83z" />
    <glyph glyph-name="uni0623" unicode="&#x623;" horiz-adv-x="647" 
d="M120 0v1155h407v-1155h-407zM110 1384q0 131 58.5 203t179.5 72h146v-172h-136q-23 0 -37 -14.5t-15 -37.5h233v-180h-419q-10 72 -10 129z" />
    <glyph glyph-name="uni0624" unicode="&#x624;" horiz-adv-x="1153" 
d="M561 -451q-94 0 -224.5 26t-240.5 84l111 303q94 -46 168 -65t165 -19q47 0 81.5 25.5t34.5 74.5v22h-98q-238 0 -363 115t-125 320q0 102 31.5 182t81 128.5t115.5 80.5t128 44t126 12q270 0 506 -112v-817q0 -86 -27.5 -155t-74 -114.5t-110.5 -76.5t-135 -44.5
t-150 -13.5zM351 1166q0 131 58.5 203t179.5 72h146v-172h-136q-23 0 -37 -14.5t-15 -37.5h233v-180h-419q-10 72 -10 129zM472 435q0 -44 32 -72.5t87 -28.5h65v199q-26 8 -55 8q-108 0 -126 -77q-3 -14 -3 -29z" />
    <glyph glyph-name="uni0625" unicode="&#x625;" horiz-adv-x="647" 
d="M120 0v1462h407v-1462h-407zM110 -416q0 131 58.5 203t179.5 72h146v-172h-136q-23 0 -37 -14.5t-15 -37.5h233v-180h-419q-10 72 -10 129z" />
    <glyph glyph-name="uni0626" unicode="&#x626;" horiz-adv-x="2096" 
d="M654 -174q-270 0 -414.5 132.5t-144.5 361.5q0 43 18.5 156.5t41.5 188.5l388 -71q-42 -143 -42 -297q0 -29 4.5 -51.5t12 -36.5t18 -24.5t23 -15t26 -7t27.5 -2.5h28h14h326v654q59 22 173 49t217 27q172 0 310 -76.5t217 -217t79 -318.5v-278h-407v278q0 123 -49.5 196
t-132.5 81v-729h-733zM255 889q0 131 58.5 203t179.5 72h146v-172h-136q-23 0 -37 -14.5t-15 -37.5h233v-180h-419q-10 72 -10 129z" />
    <glyph glyph-name="uni0627" unicode="&#x627;" horiz-adv-x="647" 
d="M120 0v1462h407v-1462h-407z" />
    <glyph glyph-name="uni0628" unicode="&#x628;" horiz-adv-x="1781" 
d="M642 0q-252 0 -387 109t-135 318v309h407v-256q0 -88 36 -117t129 -29h426q73 0 104.5 33t31.5 113v390h407v-443q0 -209 -121 -318t-352 -109h-546zM709 -525v325h375v-325h-375z" />
    <glyph glyph-name="uni0629" unicode="&#x629;" horiz-adv-x="1194" 
d="M620 0q-113 0 -205 28.5t-150 73.5t-97.5 104.5t-56 118t-16.5 116.5q0 60 17.5 121t56.5 120.5t96 105t142.5 74t188.5 28.5t189 -28.5t143 -74t96.5 -104.5t57 -119t17.5 -119v-290q-85 -72 -211.5 -113.5t-267.5 -41.5zM255 1037v320h297v-320h-297zM501 445
q0 -39 25.5 -74.5t72.5 -35.5q55 0 93 42v68q0 39 -26 75t-69 36q-44 0 -70 -36t-26 -75zM638 1037v320h297v-320h-297z" />
    <glyph glyph-name="uni062A" unicode="&#x62a;" horiz-adv-x="1781" 
d="M642 0q-252 0 -387 109t-135 318v309h407v-256q0 -88 36 -117t129 -29h426q73 0 104.5 33t31.5 113v390h407v-443q0 -209 -121 -318t-352 -109h-546zM554 1037v320h297v-320h-297zM937 1037v320h297v-320h-297z" />
    <glyph glyph-name="uni062B" unicode="&#x62b;" horiz-adv-x="1781" 
d="M642 0q-252 0 -387 109t-135 318v309h407v-256q0 -88 36 -117t129 -29h426q73 0 104.5 33t31.5 113v390h407v-443q0 -209 -121 -318t-352 -109h-546zM548 1040v289h303v-289h-303zM738 1399v267h309v-267h-309zM938 1040v289h303v-289h-303z" />
    <glyph glyph-name="uni062C" unicode="&#x62c;" horiz-adv-x="1347" 
d="M665 -451q-263 0 -416.5 125t-153.5 368q0 179 61 292h1h687q-7 99 -78 160.5t-165 61.5q-137 0 -239 -52l-150 296q82 34 114 46t111 28t162 16q95 0 187 -23.5t176.5 -74.5t149 -123.5t102.5 -177.5t38 -229q0 -148 -26 -262h-722q6 -64 41 -90.5t121 -26.5h41v-334
h-42zM801 -449v325h375v-325h-375z" />
    <glyph glyph-name="uni062D" unicode="&#x62d;" horiz-adv-x="1346" 
d="M1085 -413q-76 -30 -166.5 -46.5t-240.5 -16.5q-111 0 -216.5 38t-186.5 104t-130.5 164.5t-49.5 211.5q0 179 61 292h687q-7 99 -78 160.5t-165 61.5q-137 0 -239 -52l-150 296q82 34 114 46t111 28t162 16q95 0 187 -23.5t176.5 -74.5t149 -123.5t102.5 -177.5t38 -229
q0 -148 -26 -262h-752q26 -119 214 -142q72 -9 154 3.5t146 36.5z" />
    <glyph glyph-name="uni062E" unicode="&#x62e;" horiz-adv-x="1346" 
d="M1085 -413q-76 -30 -166.5 -46.5t-240.5 -16.5q-111 0 -216.5 38t-186.5 104t-130.5 164.5t-49.5 211.5q0 179 61 292h687q-7 99 -78 160.5t-165 61.5q-137 0 -239 -52l-150 296q82 34 114 46t111 28t162 16q95 0 187 -23.5t176.5 -74.5t149 -123.5t102.5 -177.5t38 -229
q0 -148 -26 -262h-752q26 -119 214 -142q72 -9 154 3.5t146 36.5zM466 1039v325h375v-325h-375z" />
    <glyph glyph-name="uni062F" unicode="&#x62f;" horiz-adv-x="1023" 
d="M70 0v334h476q-5 102 -64 162t-153 60q-64 0 -142 -22l-70 320q121 36 264 36q117 0 219 -38.5t181.5 -114t125.5 -197.5t46 -278q0 -118 -33 -262h-850z" />
    <glyph glyph-name="uni0630" unicode="&#x630;" horiz-adv-x="1023" 
d="M70 0v334h476q-5 102 -64 162t-153 60q-64 0 -142 -22l-70 320q121 36 264 36q117 0 219 -38.5t181.5 -114t125.5 -197.5t46 -278q0 -118 -33 -262h-850zM248 1039v325h375v-325h-375z" />
    <glyph glyph-name="uni0631" unicode="&#x631;" horiz-adv-x="644" 
d="M-70 -451v334h92q52 0 73.5 33t21.5 96v858h407v-887q0 -191 -136 -312.5t-343 -121.5h-115z" />
    <glyph glyph-name="uni0632" unicode="&#x632;" horiz-adv-x="644" 
d="M-70 -451v334h92q52 0 73.5 33t21.5 96v858h407v-887q0 -191 -136 -312.5t-343 -121.5h-115zM137 1039v325h375v-325h-375z" />
    <glyph glyph-name="uni0633" unicode="&#x633;" horiz-adv-x="2551" 
d="M737 -451q-145 0 -267 47.5t-203.5 128.5t-126.5 188.5t-45 228.5q0 168 106 421l376 -131q-75 -175 -75 -291q0 -122 62 -190t174 -68q85 0 123.5 50.5t38.5 166.5v770h407v-536h58q51 0 74.5 28t23.5 92v416h407v-437l-1 -30h1q0 -114 78 -114q42 0 59 31t17 112v438
h407v-438q0 -228 -121 -352.5t-353 -124.5q-192 0 -303 103q-108 -58 -251 -58h-103q-31 -203 -178 -327t-385 -124z" />
    <glyph glyph-name="uni0634" unicode="&#x634;" horiz-adv-x="2551" 
d="M737 -451q-145 0 -267 47.5t-203.5 128.5t-126.5 188.5t-45 228.5q0 168 106 421l376 -131q-75 -175 -75 -291q0 -122 62 -190t174 -68q85 0 123.5 50.5t38.5 166.5v770h407v-536h58q51 0 74.5 28t23.5 92v416h407v-437l-1 -30h1q0 -114 78 -114q42 0 59 31t17 112v438
h407v-438q0 -228 -121 -352.5t-353 -124.5q-192 0 -303 103q-108 -58 -251 -58h-103q-31 -203 -178 -327t-385 -124zM1291 1040v289h303v-289h-303zM1481 1399v267h309v-267h-309zM1681 1040v289h303v-289h-303z" />
    <glyph glyph-name="uni0635" unicode="&#x635;" horiz-adv-x="2308" 
d="M737 -451q-145 0 -267 47.5t-203.5 128.5t-126.5 188.5t-45 228.5q0 168 106 421l376 -131q-75 -175 -75 -291q0 -122 62 -190t174 -68q85 0 123.5 50.5t38.5 166.5v770h407v-150q211 188 460 188q61 0 122 -15t120 -49.5t104 -84.5t72.5 -126t27.5 -169
q0 -111 -45 -197.5t-110 -135t-149.5 -80t-151.5 -41.5t-128 -10h-329q-31 -203 -178 -327t-385 -124zM1307 334h255q22 0 54 4t79 14.5t79 37t32 64.5q0 55 -37 87.5t-101 32.5q-92 0 -199 -69t-162 -170v-1z" />
    <glyph glyph-name="uni0636" unicode="&#x636;" horiz-adv-x="2308" 
d="M737 -451q-145 0 -267 47.5t-203.5 128.5t-126.5 188.5t-45 228.5q0 168 106 421l376 -131q-75 -175 -75 -291q0 -122 62 -190t174 -68q85 0 123.5 50.5t38.5 166.5v770h407v-150q211 188 460 188q61 0 122 -15t120 -49.5t104 -84.5t72.5 -126t27.5 -169
q0 -111 -45 -197.5t-110 -135t-149.5 -80t-151.5 -41.5t-128 -10h-329q-31 -203 -178 -327t-385 -124zM1307 334h255q22 0 54 4t79 14.5t79 37t32 64.5q0 55 -37 87.5t-101 32.5q-92 0 -199 -69t-162 -170v-1zM1332 1039v325h375v-325h-375z" />
    <glyph glyph-name="uni0637" unicode="&#x637;" horiz-adv-x="1660" 
d="M80 0v334h172v1128h407v-742q211 188 460 188q61 0 122 -15t120 -49.5t104 -84.5t72.5 -126t27.5 -169q0 -111 -45 -197.5t-110 -135t-149.5 -80t-151.5 -41.5t-128 -10h-901zM659 334h255q22 0 54 4t79 14.5t79 37t32 64.5q0 55 -37 87.5t-101 32.5q-92 0 -199 -69
t-162 -170v-1z" />
    <glyph glyph-name="uni0638" unicode="&#x638;" horiz-adv-x="1660" 
d="M80 0v334h172v1128h407v-742q211 188 460 188q61 0 122 -15t120 -49.5t104 -84.5t72.5 -126t27.5 -169q0 -111 -45 -197.5t-110 -135t-149.5 -80t-151.5 -41.5t-128 -10h-901zM659 334h255q22 0 54 4t79 14.5t79 37t32 64.5q0 55 -37 87.5t-101 32.5q-92 0 -199 -69
t-162 -170v-1zM846 1039v325h375v-325h-375z" />
    <glyph glyph-name="uni0639" unicode="&#x639;" horiz-adv-x="1249" 
d="M1101 -413q-160 -63 -423 -63q-111 0 -216.5 38t-186.5 104t-130.5 164.5t-49.5 211.5q0 176 60 290v2h128q-9 46 -9 94q0 194 135.5 328t331.5 134q227 0 397 -93l-145 -295q-130 64 -226 54q-54 -6 -90 -41t-36 -77q0 -44 27.5 -74t72.5 -30h413v-334h-681
q26 -119 214 -142q72 -9 162.5 4t153.5 36z" />
    <glyph glyph-name="uni063A" unicode="&#x63a;" horiz-adv-x="1249" 
d="M1101 -413q-160 -63 -423 -63q-111 0 -216.5 38t-186.5 104t-130.5 164.5t-49.5 211.5q0 176 60 290v2h128q-9 46 -9 94q0 194 135.5 328t331.5 134q227 0 397 -93l-145 -295q-130 64 -226 54q-54 -6 -90 -41t-36 -77q0 -44 27.5 -74t72.5 -30h413v-334h-681
q26 -119 214 -142q72 -9 162.5 4t153.5 36zM528 1039v325h375v-325h-375z" />
    <glyph glyph-name="uni0640" unicode="&#x640;" horiz-adv-x="520" 
d="M0 0q-11 0 -15 12q-5 15 -5 155q0 142 9 160q3 7 11 7h519q7 0 11 -7q9 -18 9 -160q0 -140 -5 -155q-4 -12 -15 -12h-519z" />
    <glyph glyph-name="uni0641" unicode="&#x641;" horiz-adv-x="1869" 
d="M643 0q-236 0 -379.5 133t-143.5 375v228h407v-228q0 -103 24.5 -138.5t91.5 -35.5h129q-11 57 -11 115q0 73 19 135t51 106t77 78.5t92.5 56t102 35t102.5 19t96 5.5q253 0 448 -137v-747h-1106zM1079 1039v325h375v-325h-375zM1163 449q0 -53 31.5 -84t87.5 -31h65v211
q-25 10 -55 10q-52 0 -90.5 -29t-38.5 -77z" />
    <glyph glyph-name="uni0642" unicode="&#x642;" horiz-adv-x="1698" 
d="M900 -451q-333 0 -528 84.5t-252 272.5q-22 73 -24 171t6 166t21 125l383 -73q-41 -149 -12 -240q28 -93 127.5 -132.5t278.5 -39.5h272v117h-99q-237 0 -362.5 121.5t-125.5 327.5q0 101 35 180.5t88 126t124 76.5t135.5 41t129.5 11q247 0 481 -111v-1224h-678z
M765 1037v320h297v-320h-297zM987 449q0 -53 31.5 -84t87.5 -31h65v209q-26 8 -55 8q-14 0 -32 -3.5t-42 -13t-39.5 -31.5t-15.5 -54zM1148 1037v320h297v-320h-297z" />
    <glyph glyph-name="uni0643" unicode="&#x643;" horiz-adv-x="1712" 
d="M654 0q-271 0 -415 128.5t-144 356.5q0 83 36 193l387 -70q-17 -58 -17 -137q0 -29 4.5 -51.5t12 -36.5t18 -24.5t23 -15t26 -7t27.5 -2.5h28h14h531v1128h407v-1462h-938zM656 793v141h220q-8 35 -49 35h-171v151l211 185l94 -114l-89 -78q81 -17 124.5 -69t43.5 -107
q0 -72 -10 -144h-374z" />
    <glyph glyph-name="uni0644" unicode="&#x644;" horiz-adv-x="1427" 
d="M737 -451q-145 0 -267 47.5t-203.5 128.5t-126.5 188.5t-45 228.5q0 168 106 421l376 -131q-75 -175 -75 -291q0 -122 62 -190t174 -68q85 0 123.5 50.5t38.5 166.5v1362h407v-1362q0 -241 -151.5 -396t-418.5 -155z" />
    <glyph glyph-name="uni0645" unicode="&#x645;" horiz-adv-x="1640" 
d="M992 0q-159 0 -267 68t-163 177q-77 -45 -61 -147l80 -549h-408l-73 505q-30 207 96 358.5t349 188.5q50 125 169 207t303 82q103 0 189 -28.5t143 -74t96.5 -104.5t57 -119t17.5 -119v-445h-528zM922 441q0 -48 27.5 -77.5t82.5 -29.5h81v111q0 49 -23.5 80t-72.5 31
q-44 0 -69.5 -33t-25.5 -82z" />
    <glyph glyph-name="uni0646" unicode="&#x646;" horiz-adv-x="1519" 
d="M787 -401q-173 0 -306.5 48t-217 133.5t-126 199t-42.5 250.5q0 118 34 269t87 294l384 -131q-41 -94 -69.5 -217.5t-28.5 -215.5q0 -155 62.5 -225.5t201.5 -70.5q117 0 171.5 50.5t54.5 166.5v720h407v-720q0 -118 -38.5 -217.5t-113.5 -174.5t-192.5 -117t-267.5 -42z
M569 1039v325h375v-325h-375z" />
    <glyph glyph-name="uni0647" unicode="&#x647;" horiz-adv-x="1194" 
d="M620 0q-113 0 -205 28.5t-150 73.5t-97.5 104.5t-56 118t-16.5 116.5q0 60 17.5 121t56.5 120.5t96 105t142.5 74t188.5 28.5t189 -28.5t143 -74t96.5 -104.5t57 -119t17.5 -119v-290q-85 -72 -211.5 -113.5t-267.5 -41.5zM501 445q0 -39 25.5 -74.5t72.5 -35.5
q55 0 93 42v68q0 39 -26 75t-69 36q-44 0 -70 -36t-26 -75z" />
    <glyph glyph-name="uni0648" unicode="&#x648;" horiz-adv-x="1153" 
d="M561 -451q-94 0 -224.5 26t-240.5 84l111 303q94 -46 168 -65t165 -19q47 0 81.5 25.5t34.5 74.5v22h-98q-238 0 -363 115t-125 320q0 102 31.5 182t81 128.5t115.5 80.5t128 44t126 12q270 0 506 -112v-817q0 -86 -27.5 -155t-74 -114.5t-110.5 -76.5t-135 -44.5
t-150 -13.5zM472 435q0 -44 32 -72.5t87 -28.5h65v199q-26 8 -55 8q-108 0 -126 -77q-3 -14 -3 -29z" />
    <glyph glyph-name="uni0649" unicode="&#x649;" horiz-adv-x="2096" 
d="M654 -174q-270 0 -414.5 132.5t-144.5 361.5q0 43 18.5 156.5t41.5 188.5l388 -71q-42 -143 -42 -297q0 -29 4.5 -51.5t12 -36.5t18 -24.5t23 -15t26 -7t27.5 -2.5h28h14h326v654q59 22 173 49t217 27q172 0 310 -76.5t217 -217t79 -318.5v-278h-407v278q0 123 -49.5 196
t-132.5 81v-729h-733z" />
    <glyph glyph-name="uni064A" unicode="&#x64a;" horiz-adv-x="2096" 
d="M654 -174q-270 0 -414.5 132.5t-144.5 361.5q0 43 18.5 156.5t41.5 188.5l388 -71q-42 -143 -42 -297q0 -29 4.5 -51.5t12 -36.5t18 -24.5t23 -15t26 -7t27.5 -2.5h28h14h326v654q59 22 173 49t217 27q172 0 310 -76.5t217 -217t79 -318.5v-278h-407v278q0 123 -49.5 196
t-132.5 81v-729h-733zM642 -648v320h297v-320h-297zM1025 -648v320h297v-320h-297z" />
    <glyph glyph-name="uni064B" unicode="&#x64b;" 
d="M0 1133v186l626 90v-185zM0 1375v186l626 90v-185z" />
    <glyph glyph-name="uni064C" unicode="&#x64c;" 
d="M40 1149l-26 247l102 1l16 -152q69 3 134 21q-27 34 -32 71q-13 81 27.5 136t116.5 67q67 11 118.5 -24t61.5 -101q9 -63 -33.5 -117t-110.5 -86q-150 -71 -290 -64zM350 1352q3 -22 21 -47q11 6 23 14q33 23 43 38.5t8 34.5q-3 19 -18.5 30t-35.5 7q-51 -12 -41 -77z
" />
    <glyph glyph-name="uni064D" unicode="&#x64d;" 
d="M0 -223v186l626 90v-185zM0 -499v186l626 90v-185z" />
    <glyph glyph-name="uni064E" unicode="&#x64e;" 
d="M0 1133v186l626 90v-185z" />
    <glyph glyph-name="uni064F" unicode="&#x64f;" 
d="M19 1230q70 0 152 21q-27 34 -32 71q-13 81 27.5 136t116.5 67q67 11 118.5 -24t61.5 -101q9 -63 -33.5 -117t-110.5 -86q-150 -71 -290 -64zM255 1337q3 -22 21 -47q11 6 23 14q33 23 43 38.5t8 34.5q-3 19 -18.5 30t-35.5 7q-51 -12 -41 -77z" />
    <glyph glyph-name="uni0650" unicode="&#x650;" 
d="M0 -223v186l626 90v-185z" />
    <glyph glyph-name="uni0651" unicode="&#x651;" 
d="M-5 1400l133 20l12 -82q6 -41 35 -49t53 14t17 55l1 -1l-13 77l133 20l12 -83q6 -41 35.5 -53.5t53 10t16.5 64.5l-13 76l133 19l19 -100q9 -52 -5.5 -96t-45.5 -70.5t-71 -41t-83 -11t-79 23.5q-48 -47 -118 -56.5t-131 30t-75 121.5z" />
    <glyph glyph-name="uni0652" unicode="&#x652;" 
d="M191 1133q-79 0 -135 55.5t-56 134.5q0 78 56 134t135 56t134 -56t55 -134q0 -80 -55 -135t-134 -55zM125 1324q0 -18 19 -35t47 -17q31 0 47.5 15t16.5 37t-18 37t-46 15q-26 0 -46 -17.5t-20 -34.5z" />
    <glyph glyph-name="uni0653" unicode="&#x653;" 
d="M103 1132l-103 143l208 155q29 -27 79 -52t103 -25q104 0 206 81v-192q-92 -74 -216 -74q-86 0 -157 47z" />
    <glyph glyph-name="uni0654" unicode="&#x654;" 
d="M10 1136q-10 72 -10 129q0 131 58.5 203t179.5 72h146v-172h-136q-23 0 -37 -14.5t-15 -37.5h233v-180h-419z" />
    <glyph glyph-name="uni0655" unicode="&#x655;" 
d="M10 -406q-10 72 -10 129q0 131 58.5 203t179.5 72h146v-172h-136q-23 0 -37 -14.5t-15 -37.5h233v-180h-419z" />
    <glyph glyph-name="uni0656" unicode="&#x656;" 
d="M-44 -208v436h206v-436h-206z" />
    <glyph glyph-name="uni0658" unicode="&#x658;" 
d="M248 1317q26 0 39 24t13 92v127h196v-127q0 -137 -63.5 -218.5t-184.5 -81.5t-184.5 81.5t-63.5 218.5v127h196v-127q0 -68 13 -92t39 -24z" />
    <glyph glyph-name="uni0660" unicode="&#x660;" horiz-adv-x="1019" 
d="M514 321l-414 406l414 414l405 -414z" />
    <glyph glyph-name="uni0661" unicode="&#x661;" horiz-adv-x="707" 
d="M150 0v1462h407v-1462h-407z" />
    <glyph glyph-name="uni0662" unicode="&#x662;" horiz-adv-x="1152" 
d="M707 1126q-150 0 -150 -125v-1001h-407v929q0 89 15.5 165.5t51.5 144t90 114.5t135.5 74t184.5 27l455 8v-336h-375z" />
    <glyph glyph-name="uni0663" unicode="&#x663;" horiz-adv-x="1740" 
d="M150 0v1462h407v-382h95q20 0 30.5 1t20 8.5t13.5 15.5t6.5 30.5t3 45t0.5 67.5v214h407v-216q0 -92 -15 -166h71q20 0 30.5 1t20 8.5t13.5 15.5t6.5 30.5t3 45t0.5 67.5v214h407v-216q0 -116 -24.5 -204t-66.5 -144t-104.5 -91t-131.5 -49t-154 -14h-632v-744h-407z" />
    <glyph glyph-name="uni0664" unicode="&#x664;" horiz-adv-x="1229" 
d="M683 562l-38 1q-74 -7 -106 -33.5t-32 -80.5q0 -63 45 -89t152 -26h300v-334h-300q-91 0 -175 14t-163.5 48t-137.5 84t-93 128t-35 175q0 173 109 285q-105 116 -105 296q0 123 74.5 222t204 154.5t289.5 55.5q93 0 202.5 -21t204.5 -58l-152 -310q-140 55 -255 55
q-161 0 -161 -98q0 -65 31.5 -96t102.5 -37q38 2 59 2h300v-337h-321z" />
    <glyph glyph-name="uni0665" unicode="&#x665;" horiz-adv-x="1445" 
d="M722 0q-327 0 -474.5 167.5t-147.5 534.5q0 154 38 288.5t112 241t195.5 168.5t276.5 62q125 0 229 -40.5t176 -111.5t122 -168t73 -207.5t23 -232.5q0 -364 -148 -533t-475 -169zM507 702q0 -84 4 -141.5t14.5 -99.5t25 -66t40.5 -38t55.5 -18.5t75.5 -4.5q55 0 88 7.5
t60.5 28t40.5 62.5t20 106t7 164q0 203 -60.5 314.5t-155.5 111.5q-94 0 -154.5 -111.5t-60.5 -314.5z" />
    <glyph glyph-name="uni0666" unicode="&#x666;" horiz-adv-x="1231" 
d="M80 1126v336h1001v-1462h-407v1126h-594z" />
    <glyph glyph-name="uni0667" unicode="&#x667;" horiz-adv-x="1547" 
d="M551 0l-531 1462h424l329 -900l331 900h423l-532 -1462h-444z" />
    <glyph glyph-name="uni0668" unicode="&#x668;" horiz-adv-x="1679" 
d="M551 1462h444l532 -1462h-423l-331 900l-329 -900h-424z" />
    <glyph glyph-name="uni0669" unicode="&#x669;" horiz-adv-x="1272" 
d="M538 592q-238 0 -363 115t-125 320t125 320t363 115h584v-1462h-407v592h-177zM457 1027q0 -42 30.5 -71.5t82.5 -29.5h145v202h-145q-52 0 -82.5 -29.5t-30.5 -71.5z" />
    <glyph glyph-name="uni066A" unicode="&#x66a;" horiz-adv-x="1801" 
d="M356 0l811 1462h307l-811 -1462h-307zM72 1143l263 263l258 -263l-258 -259zM1155 351l263 263l258 -263l-258 -259z" />
    <glyph glyph-name="uni066B" unicode="&#x66b;" horiz-adv-x="415" 
d="M148 -180q38 163 65 335h236l10 -16q-30 -121 -117 -319h-194z" />
    <glyph glyph-name="uni066C" unicode="&#x66c;" horiz-adv-x="415" 
d="M148 -180q38 163 65 335h236l10 -16q-30 -121 -117 -319h-194z" />
    <glyph glyph-name="uni066D" unicode="&#x66d;" horiz-adv-x="1110" 
d="M691 565l-140 280l-119 -276l-284 139l207 275l-310 23l47 302l347 -101l-40 349h314l-41 -349l356 101l38 -306l-311 -19l207 -275z" />
    <glyph glyph-name="uni066E" unicode="&#x66e;" horiz-adv-x="1781" 
d="M642 0q-252 0 -387 109t-135 318v309h407v-256q0 -88 36 -117t129 -29h426q73 0 104.5 33t31.5 113v390h407v-443q0 -209 -121 -318t-352 -109h-546z" />
    <glyph glyph-name="uni066F" unicode="&#x66f;" horiz-adv-x="1698" 
d="M900 -451q-333 0 -528 84.5t-252 272.5q-22 73 -24 171t6 166t21 125l383 -73q-41 -149 -12 -240q28 -93 127.5 -132.5t278.5 -39.5h272v117h-99q-237 0 -362.5 121.5t-125.5 327.5q0 101 35 180.5t88 126t124 76.5t135.5 41t129.5 11q247 0 481 -111v-1224h-678z
M987 449q0 -53 31.5 -84t87.5 -31h65v209q-26 8 -55 8q-14 0 -32 -3.5t-42 -13t-39.5 -31.5t-15.5 -54z" />
    <glyph glyph-name="uni0670" unicode="&#x670;" 
d="M-44 1131v436h206v-436h-206z" />
    <glyph glyph-name="uni0671" unicode="&#x671;" horiz-adv-x="647" 
d="M120 0v1155h407v-1155h-407zM66 1347v114h60v186h140v-53q70 64 155 64q38 0 71.5 -14t59 -49.5t25.5 -87.5q0 -48 -22.5 -82t-57 -49.5t-65 -22t-58.5 -6.5h-308zM266 1461h86q12 0 28.5 2.5t36 12.5t19.5 27q0 18 -13 29.5t-34 11.5q-31 0 -67.5 -23.5t-55.5 -59.5z
" />
    <glyph glyph-name="uni0679" unicode="&#x679;" horiz-adv-x="1781" 
d="M642 0q-252 0 -387 109t-135 318v309h407v-256q0 -88 36 -117t129 -29h426q73 0 104.5 33t31.5 113v390h407v-443q0 -209 -121 -318t-352 -109h-546zM650 1099v114h60v326h140v-193q70 64 155 64q38 0 71.5 -14t59 -49.5t25.5 -87.5q0 -48 -22.5 -82t-57 -49.5t-65 -22
t-58.5 -6.5h-308zM850 1213h86q12 0 28.5 2.5t36 12.5t19.5 27q0 18 -13 29.5t-34 11.5q-31 0 -67.5 -23.5t-55.5 -59.5z" />
    <glyph glyph-name="uni067E" unicode="&#x67e;" horiz-adv-x="1773" 
d="M642 0q-252 0 -387 109t-135 318v309h407v-256q0 -88 36 -117t129 -29h426q73 0 104.5 33t31.5 113v390h407v-443q0 -209 -121 -318t-352 -109h-546zM548 -488v289h303v-289h-303zM738 -825v267h309v-267h-309zM938 -488v289h303v-289h-303z" />
    <glyph glyph-name="uni0686" unicode="&#x686;" horiz-adv-x="1260" 
d="M482 -415q-175 23 -281 154t-106 300q0 180 61 295h614q-6 106 -75.5 169.5t-182.5 63.5q-72 0 -158 -37l-142 286q182 74 341 74q290 0 451 -157.5t161 -474.5q0 -78 -41 -258h-647q1 -48 17 -75t52 -36zM610 -371v215h226v-215h-226zM752 -622v199h229v-199h-229z
M900 -371v215h226v-215h-226z" />
    <glyph glyph-name="uni0688" unicode="&#x688;" horiz-adv-x="1023" 
d="M70 0v334h476q-5 102 -64 162t-153 60q-64 0 -142 -22l-70 320q121 36 264 36q117 0 219 -38.5t181.5 -114t125.5 -197.5t46 -278q0 -118 -33 -262h-850zM187 1099v114h60v326h140v-193q70 64 155 64q38 0 71.5 -14t59 -49.5t25.5 -87.5q0 -48 -22.5 -82t-57 -49.5
t-65 -22t-58.5 -6.5h-308zM387 1213h86q12 0 28.5 2.5t36 12.5t19.5 27q0 18 -13 29.5t-34 11.5q-31 0 -67.5 -23.5t-55.5 -59.5z" />
    <glyph glyph-name="uni0691" unicode="&#x691;" horiz-adv-x="644" 
d="M-70 -451v334h92q52 0 73.5 33t21.5 96v858h407v-887q0 -191 -136 -312.5t-343 -121.5h-115zM76 1099v114h60v326h140v-193q70 64 155 64q38 0 71.5 -14t59 -49.5t25.5 -87.5q0 -48 -22.5 -82t-57 -49.5t-65 -22t-58.5 -6.5h-308zM276 1213h86q12 0 28.5 2.5t36 12.5
t19.5 27q0 18 -13 29.5t-34 11.5q-31 0 -67.5 -23.5t-55.5 -59.5z" />
    <glyph glyph-name="uni0698" unicode="&#x698;" horiz-adv-x="787" 
d="M-70 -451v334h92q52 0 73.5 33t21.5 96v858h407v-887q0 -191 -136 -312.5t-343 -121.5h-115zM-26 1040v289h303v-289h-303zM164 1399v267h309v-267h-309zM364 1040v289h303v-289h-303z" />
    <glyph glyph-name="uni06A1" unicode="&#x6a1;" horiz-adv-x="1869" 
d="M643 0q-236 0 -379.5 133t-143.5 375v228h407v-228q0 -103 24.5 -138.5t91.5 -35.5h129q-11 57 -11 115q0 73 19 135t51 106t77 78.5t92.5 56t102 35t102.5 19t96 5.5q253 0 448 -137v-747h-1106zM1163 449q0 -53 31.5 -84t87.5 -31h65v211q-25 10 -55 10
q-52 0 -90.5 -29t-38.5 -77z" />
    <glyph glyph-name="uni06A4" unicode="&#x6a4;" horiz-adv-x="1777" 
d="M643 0q-236 0 -379.5 133t-143.5 375v228h407v-228q0 -103 24.5 -138.5t91.5 -35.5h129q-11 57 -11 115q0 73 19 135t51 106t77 78.5t92.5 56t102 35t102.5 19t96 5.5q253 0 448 -137v-747h-1106zM916 1040v289h303v-289h-303zM1106 1399v267h309v-267h-309zM1163 449
q0 -53 31.5 -84t87.5 -31h65v211q-25 10 -55 10q-52 0 -90.5 -29t-38.5 -77zM1306 1040v289h303v-289h-303z" />
    <glyph glyph-name="uni06A9" unicode="&#x6a9;" horiz-adv-x="1856" 
d="M654 0q-270 0 -414.5 132.5t-144.5 361.5q0 74 25 187l398 -73q-17 -58 -17 -137q0 -29 4.5 -51.5t12 -36.5t18 -24.5t23 -15t26 -7t27.5 -2.5h28h14h683q-20 56 -52.5 93.5t-78 58.5t-96.5 30t-119 10h-329v405l363 528l337 -188l-273 -398q162 0 290.5 -58
t211.5 -161.5t126.5 -243.5t43.5 -308q0 -27 -6 -102h-1101z" />
    <glyph glyph-name="uni06AF" unicode="&#x6af;" horiz-adv-x="1856" 
d="M654 0q-270 0 -414.5 132.5t-144.5 361.5q0 74 25 187l398 -73q-17 -58 -17 -137q0 -29 4.5 -51.5t12 -36.5t18 -24.5t23 -15t26 -7t27.5 -2.5h28h14h683q-20 56 -52.5 93.5t-78 58.5t-96.5 30t-119 10h-329v405l363 528l337 -188l-273 -398q162 0 290.5 -58
t211.5 -161.5t126.5 -243.5t43.5 -308q0 -27 -6 -102h-1101zM330 1119l376 543l200 -137l-376 -544z" />
    <glyph glyph-name="uni06BA" unicode="&#x6ba;" horiz-adv-x="1519" 
d="M787 -401q-173 0 -306.5 48t-217 133.5t-126 199t-42.5 250.5q0 118 34 269t87 294l384 -131q-41 -94 -69.5 -217.5t-28.5 -215.5q0 -155 62.5 -225.5t201.5 -70.5q117 0 171.5 50.5t54.5 166.5v720h407v-720q0 -118 -38.5 -217.5t-113.5 -174.5t-192.5 -117t-267.5 -42z
" />
    <glyph glyph-name="uni06BE" unicode="&#x6be;" horiz-adv-x="1885" 
d="M80 0v334h194q-11 57 -11 115q0 83 29.5 150.5t81.5 111.5t111 72t130 44q24 57 56.5 106.5t80.5 96t106 79.5t136 52.5t167 19.5q196 0 339.5 -85.5t216.5 -235t73 -344.5v-516h-1710zM665 449q0 -53 31.5 -84t87.5 -31h65v211q-25 10 -55 10q-52 0 -90.5 -29t-38.5 -77
zM1005 824q133 -34 246 -113v-377h132v232q0 296 -222 296q-115 0 -156 -38z" />
    <glyph glyph-name="uni06C1" unicode="&#x6c1;" horiz-adv-x="1194" 
d="M620 0q-113 0 -205 28.5t-150 73.5t-97.5 104.5t-56 118t-16.5 116.5q0 60 17.5 121t56.5 120.5t96 105t142.5 74t188.5 28.5t189 -28.5t143 -74t96.5 -104.5t57 -119t17.5 -119v-290q-85 -72 -211.5 -113.5t-267.5 -41.5zM501 445q0 -39 25.5 -74.5t72.5 -35.5
q55 0 93 42v68q0 39 -26 75t-69 36q-44 0 -70 -36t-26 -75z" />
    <glyph glyph-name="uni06C2" unicode="&#x6c2;" horiz-adv-x="1194" 
d="M620 0q-113 0 -205 28.5t-150 73.5t-97.5 104.5t-56 118t-16.5 116.5q0 60 17.5 121t56.5 120.5t96 105t142.5 74t188.5 28.5t189 -28.5t143 -74t96.5 -104.5t57 -119t17.5 -119v-290q-85 -72 -211.5 -113.5t-267.5 -41.5zM382 1166q0 131 58.5 203t179.5 72h146v-172
h-136q-23 0 -37 -14.5t-15 -37.5h233v-180h-419q-10 72 -10 129zM501 445q0 -39 25.5 -74.5t72.5 -35.5q55 0 93 42v68q0 39 -26 75t-69 36q-44 0 -70 -36t-26 -75z" />
    <glyph glyph-name="uni06C3" unicode="&#x6c3;" horiz-adv-x="1194" 
d="M620 0q-113 0 -205 28.5t-150 73.5t-97.5 104.5t-56 118t-16.5 116.5q0 60 17.5 121t56.5 120.5t96 105t142.5 74t188.5 28.5t189 -28.5t143 -74t96.5 -104.5t57 -119t17.5 -119v-290q-85 -72 -211.5 -113.5t-267.5 -41.5zM255 1037v320h297v-320h-297zM501 445
q0 -39 25.5 -74.5t72.5 -35.5q55 0 93 42v68q0 39 -26 75t-69 36q-44 0 -70 -36t-26 -75zM638 1037v320h297v-320h-297z" />
    <glyph glyph-name="uni06CC" unicode="&#x6cc;" horiz-adv-x="2096" 
d="M654 -174q-270 0 -414.5 132.5t-144.5 361.5q0 43 18.5 156.5t41.5 188.5l388 -71q-42 -143 -42 -297q0 -29 4.5 -51.5t12 -36.5t18 -24.5t23 -15t26 -7t27.5 -2.5h28h14h326v654q59 22 173 49t217 27q172 0 310 -76.5t217 -217t79 -318.5v-278h-407v278q0 123 -49.5 196
t-132.5 81v-729h-733z" />
    <glyph glyph-name="uni06D2" unicode="&#x6d2;" horiz-adv-x="1297" 
d="M170 -451q-19 51 -34.5 123t-15.5 128q0 261 138.5 397.5t415.5 136.5h503v-334h-503q-83 0 -112 -20.5t-34 -96.5h529l-55 -334h-832z" />
    <glyph glyph-name="uni06D3" unicode="&#x6d3;" horiz-adv-x="1297" 
d="M170 -451q-19 51 -34.5 123t-15.5 128q0 261 138.5 397.5t415.5 136.5h503v-334h-503q-83 0 -112 -20.5t-34 -96.5h529l-55 -334h-832zM495 607q0 131 58.5 203t179.5 72h146v-172h-136q-23 0 -37 -14.5t-15 -37.5h233v-180h-419q-10 72 -10 129z" />
    <glyph glyph-name="uni06D4" unicode="&#x6d4;" horiz-adv-x="628" 
d="M94 -17v388h433v-388h-433z" />
    <glyph glyph-name="uni06F0" unicode="&#x6f0;" horiz-adv-x="1019" 
d="M514 321l-414 406l414 414l405 -414z" />
    <glyph glyph-name="uni06F1" unicode="&#x6f1;" horiz-adv-x="707" 
d="M150 0v1462h407v-1462h-407z" />
    <glyph glyph-name="uni06F2" unicode="&#x6f2;" horiz-adv-x="1067" 
d="M707 1126q-150 0 -150 -125v-1001h-407v929q0 89 15.5 165.5t51.5 144t90 114.5t135.5 74t184.5 27l455 8v-336h-375z" />
    <glyph glyph-name="uni06F3" unicode="&#x6f3;" horiz-adv-x="1469" 
d="M150 0v1462h407v-382h95q20 0 30.5 1t20 8.5t13.5 15.5t6.5 30.5t3 45t0.5 67.5v214h407v-216q0 -92 -15 -166h71q20 0 30.5 1t20 8.5t13.5 15.5t6.5 30.5t3 45t0.5 67.5v214h407v-216q0 -116 -24.5 -204t-66.5 -144t-104.5 -91t-131.5 -49t-154 -14h-632v-744h-407z" />
    <glyph glyph-name="uni06F4" unicode="&#x6f4;" horiz-adv-x="1565" 
d="M150 0v1462h407v-384h137q11 162 90.5 264t254 155t456.5 53v-334q-150 0 -230.5 -13t-117 -41.5t-44.5 -83.5h392v-334h-938v-744h-407z" />
    <glyph glyph-name="uni06F5" unicode="&#x6f5;" horiz-adv-x="1583" 
d="M1021 0q-132 0 -229 57q-99 -57 -230 -57q-462 0 -462 638q0 249 80.5 434t237.5 287.5t374 102.5q218 0 374.5 -102.5t236.5 -287t80 -432.5q0 -640 -462 -640zM507 593q-1 -208 45 -259q36 0 36 169v66h407v-66q0 -81 7 -125t29 -44v1q45 44 45 258q0 270 -75 402.5
t-209 132.5t-209.5 -132t-75.5 -403z" />
    <glyph glyph-name="uni06F6" unicode="&#x6f6;" horiz-adv-x="1279" 
d="M733 562l-38 1q-74 -7 -106 -33.5t-32 -80.5v-449h-407v449q0 173 109 285q-105 116 -105 296q0 123 74.5 222t204 154.5t289.5 55.5q93 0 202.5 -21t204.5 -58l-152 -310q-140 55 -255 55q-161 0 -161 -98q0 -65 31.5 -96t102.5 -37q38 2 59 2h300v-337h-321z" />
    <glyph glyph-name="uni06F7" unicode="&#x6f7;" horiz-adv-x="1547" 
d="M551 0l-531 1462h424l329 -900l331 900h423l-532 -1462h-444z" />
    <glyph glyph-name="uni06F8" unicode="&#x6f8;" horiz-adv-x="1679" 
d="M551 1462h444l532 -1462h-423l-331 900l-329 -900h-424z" />
    <glyph glyph-name="uni06F9" unicode="&#x6f9;" horiz-adv-x="1272" 
d="M538 592q-238 0 -363 115t-125 320t125 320t363 115h584v-1462h-407v592h-177zM457 1027q0 -42 30.5 -71.5t82.5 -29.5h145v202h-145q-52 0 -82.5 -29.5t-30.5 -71.5z" />
    <glyph glyph-name="Wgrave" unicode="&#x1e80;" horiz-adv-x="2170" 
d="M381 0l-361 1462h416l223 -1129l243 1129h376l233 -1129l222 1129h417l-357 -1462h-502l-203 998l-207 -998h-500zM703 2113l15 22h352l163 -501h-289z" />
    <glyph glyph-name="wgrave" unicode="&#x1e81;" horiz-adv-x="1842" 
d="M326 0l-326 1133h397l166 -815h5l129 815h449l122 -816h6l177 816h391l-335 -1133h-434l-155 862h-7l-154 -862h-431zM539 1787l15 22h352l163 -501h-289z" />
    <glyph glyph-name="Wacute" unicode="&#x1e82;" horiz-adv-x="2170" 
d="M381 0l-361 1462h416l223 -1129l243 1129h376l233 -1129l222 1129h417l-357 -1462h-502l-203 998l-207 -998h-500zM937 1634l163 501h352l15 -22l-241 -479h-289z" />
    <glyph glyph-name="wacute" unicode="&#x1e83;" horiz-adv-x="1842" 
d="M326 0l-326 1133h397l166 -815h5l129 815h449l122 -816h6l177 816h391l-335 -1133h-434l-155 862h-7l-154 -862h-431zM773 1308l163 501h352l15 -22l-241 -479h-289z" />
    <glyph glyph-name="Wdieresis" unicode="&#x1e84;" horiz-adv-x="2170" 
d="M381 0l-361 1462h416l223 -1129l243 1129h376l233 -1129l222 1129h417l-357 -1462h-502l-203 998l-207 -998h-500zM703 1635v285h329v-285h-329zM1139 1635v285h329v-285h-329z" />
    <glyph glyph-name="wdieresis" unicode="&#x1e85;" horiz-adv-x="1842" 
d="M326 0l-326 1133h397l166 -815h5l129 815h449l122 -816h6l177 816h391l-335 -1133h-434l-155 862h-7l-154 -862h-431zM539 1309v285h329v-285h-329zM975 1309v285h329v-285h-329z" />
    <glyph glyph-name="uni1E9E" unicode="&#x1e9e;" horiz-adv-x="1775" 
d="M150 1462h1424v-333l-412 -276q40 18 109 18q173 0 288.5 -114.5t115.5 -300.5q0 -220 -152 -348t-417 -128q-242 0 -397 78l167 287q95 -37 228 -37q78 0 119.5 33.5t41.5 86.5q0 47 -39 81.5t-85 34.5q-67 0 -128.5 -11.5t-82.5 -21.5l-210 378l296 239h-459v-1128
h-407v1462z" />
    <glyph glyph-name="Ygrave" unicode="&#x1ef2;" horiz-adv-x="1411" 
d="M503 0v560l-483 902h441l244 -509l246 509h440l-484 -891v-571h-404zM324 2105l15 22h352l163 -501h-289z" />
    <glyph glyph-name="ygrave" unicode="&#x1ef3;" horiz-adv-x="1267" 
d="M273 -493q-90 0 -172 19v318q59 -14 124 -14q175 0 243 208l-468 1095h444l192 -574l198 574h433l-455 -1239q-69 -187 -210 -287t-329 -100zM252 1734l15 22h352l163 -501h-289z" />
    <glyph glyph-name="endash" unicode="&#x2013;" horiz-adv-x="1024" 
d="M82 405v293h860v-293h-860z" />
    <glyph glyph-name="emdash" unicode="&#x2014;" horiz-adv-x="2048" 
d="M82 405v293h1884v-293h-1884z" />
    <glyph glyph-name="uni2015" unicode="&#x2015;" horiz-adv-x="2048" 
d="M82 405v293h1884v-293h-1884z" />
    <glyph glyph-name="underscoredbl" unicode="&#x2017;" horiz-adv-x="842" 
d="M-4 -203v158h847v-158h-847zM-4 -480v158h847v-158h-847z" />
    <glyph glyph-name="quoteleft" unicode="&#x2018;" horiz-adv-x="513" 
d="M24 984q20 86 71 224t106 254h289q-65 -278 -98 -501h-353z" />
    <glyph glyph-name="quoteright" unicode="&#x2019;" horiz-adv-x="513" 
d="M24 961q64 296 97 501h355l14 -22q-40 -171 -176 -479h-290z" />
    <glyph glyph-name="quotesinglbase" unicode="&#x201a;" horiz-adv-x="664" 
d="M63 -263q64 296 97 501h355l14 -22q-40 -171 -176 -479h-290z" />
    <glyph glyph-name="quotereversed" unicode="&#x201b;" horiz-adv-x="510" 
d="M200 961q-65 140 -112.5 271.5t-63.5 207.5l15 22h352q45 -278 98 -501h-289z" />
    <glyph glyph-name="quotedblleft" unicode="&#x201c;" horiz-adv-x="1050" 
d="M562 984q17 78 70 222.5t106 255.5h289q-63 -269 -98 -501h-353zM24 984q20 86 71 224t106 254h289q-65 -278 -98 -501h-353z" />
    <glyph glyph-name="quotedblright" unicode="&#x201d;" horiz-adv-x="1050" 
d="M562 961q59 270 96 501h353l16 -22q-40 -173 -176 -479h-289zM24 961q64 296 97 501h355l14 -22q-40 -171 -176 -479h-290z" />
    <glyph glyph-name="quotedblbase" unicode="&#x201e;" horiz-adv-x="1212" 
d="M612 -263q59 270 96 501h353l16 -22q-40 -173 -176 -479h-289zM74 -263q64 296 97 501h355l14 -22q-40 -171 -176 -479h-290z" />
    <glyph glyph-name="dagger" unicode="&#x2020;" horiz-adv-x="1079" 
d="M356 0l64 905l-297 -32v297l297 -31l-64 417h346l-64 -417l318 31v-297l-318 32l64 -905h-346z" />
    <glyph glyph-name="daggerdbl" unicode="&#x2021;" horiz-adv-x="1106" 
d="M383 0l66 371l-326 -33v299l326 -33l-56 182l56 170l-326 -31v297l326 -31l-66 365h347l-64 -365l316 31v-297l-316 31l56 -170l-56 -182l316 33v-299l-316 33l64 -371h-347z" />
    <glyph glyph-name="bullet" unicode="&#x2022;" horiz-adv-x="770" 
d="M385 372q-165 0 -253.5 98t-88.5 278q0 181 88 278t254 97q164 0 253 -97.5t89 -277.5t-90 -278t-252 -98z" />
    <glyph glyph-name="ellipsis" unicode="&#x2026;" horiz-adv-x="1871" 
d="M94 -17v388h433v-388h-433zM726 -17v388h433v-388h-433zM1347 -17v388h433v-388h-433z" />
    <glyph glyph-name="perthousand" unicode="&#x2030;" horiz-adv-x="2750" 
d="M2335 -16q-178 0 -273.5 118.5t-95.5 341.5q0 457 369 457q182 0 279 -118.5t97 -338.5q0 -460 -376 -460zM37 1026q0 231 93.5 344t283.5 113q184 0 282.5 -118t98.5 -339q0 -461 -381 -461q-182 0 -279.5 118t-97.5 343zM365 1023q0 -25 0.5 -41.5t1.5 -42t4.5 -42.5
t9 -33.5t15 -25t21.5 -8.5q49 0 49 193q0 191 -49 191q-18 0 -29.5 -16.5t-16 -49.5t-5.5 -55.5t-1 -61.5v-8zM411 0l811 1462h307l-811 -1462h-307zM1152 444q0 230 93 343.5t283 113.5q185 0 283.5 -118.5t98.5 -338.5q0 -229 -97 -344.5t-285 -115.5q-181 0 -278.5 118.5
t-97.5 341.5zM1480 441q0 -25 0.5 -41.5t1.5 -42.5t4.5 -42.5t9 -33.5t15 -25.5t21.5 -8.5q13 0 23.5 17.5t18 62.5t7.5 114q0 191 -49 191q-18 0 -29.5 -16.5t-16 -50t-5.5 -56t-1 -61.5v-7zM2295 441q0 -7 -0.5 -29.5t-0.5 -36.5t1 -36t4 -36t7.5 -28t13 -21t19.5 -7
q43 0 43 194q0 191 -43 191q-16 0 -26.5 -13t-14 -40.5t-4.5 -46t0 -53t1 -38.5z" />
    <glyph glyph-name="minute" unicode="&#x2032;" horiz-adv-x="614" 
d="M176 934l-43 528h348l-43 -528h-262z" />
    <glyph glyph-name="second" unicode="&#x2033;" horiz-adv-x="1082" 
d="M639 934l-43 528h348l-43 -528h-262zM133 1462h348l-43 -528h-262z" />
    <glyph glyph-name="guilsinglleft" unicode="&#x2039;" horiz-adv-x="855" 
d="M478 79l-396 483v26l396 486l292 -154l-282 -344l282 -343z" />
    <glyph glyph-name="guilsinglright" unicode="&#x203a;" horiz-adv-x="855" 
d="M378 79l-293 154l281 343l-281 344l293 154l395 -487v-25z" />
    <glyph glyph-name="exclamdbl" unicode="&#x203c;" horiz-adv-x="1287" 
d="M1070 539l-56 923h449l-56 -923h-337zM-167 1462h449l-56 -923h-337zM-154 -22v393h422v-393h-422zM1027 -22v393h422v-393h-422z" />
    <glyph glyph-name="fraction" unicode="&#x2044;" horiz-adv-x="1128" 
d="M20 0l780 1462h308l-781 -1462h-307z" />
    <glyph glyph-name="franc" unicode="&#x20a3;" horiz-adv-x="1168" 
d="M129 0v251h-132v219h132v992h940v-328h-538v-201h502v-329h-502v-134h304v-219h-304v-251h-402z" />
    </font>
</defs>
</svg>
