<?xml version="1.0" standalone="no"?>
<!DOCTYPE svg PUBLIC "-//W3C//DTD SVG 1.1//EN" "http://www.w3.org/Graphics/SVG/1.1/DTD/svg11.dtd" >
<svg xmlns="http://www.w3.org/2000/svg" xmlns:xlink="http://www.w3.org/1999/xlink" version="1.1">
<metadata>
Created by FontForge 20201107 at Thu Jun 16 14:06:33 2022
 By 
copyright missing
</metadata>
<defs>
<font id="Shubbak-Light" horiz-adv-x="0" >
  <font-face 
    font-family="Shubbak-Light"
    font-weight="300"
    font-stretch="normal"
    units-per-em="2048"
    panose-1="1 0 0 0 0 0 0 0 0 0"
    ascent="1638"
    descent="-410"
    x-height="1088"
    cap-height="1462"
    bbox="-394 -583 2924 2107"
    underline-thickness="102"
    underline-position="-255"
    unicode-range="U+0020-FEFC"
  />
<missing-glyph horiz-adv-x="1124" 
d="M141 0v1462h841v-1462h-841zM245 104h633v1254h-633v-1254z" />
    <glyph glyph-name="uniFDF2" unicode="&#x627;&#xfedf;&#xfee0;&#xfeea;" horiz-adv-x="2215" arabic-form="isolated" 
d="M604 0q-238 0 -363 115t-125 320q0 99 30.5 177.5t78 125.5t111.5 78t124.5 42.5t123.5 11.5q85 0 175.5 -21.5t135 -40t76.5 -35.5v-681h266v1123h109v-1123h282v1370h109v-1462h-1133zM224 429q0 -158 98 -247.5t287 -89.5h255v620q-140 67 -278 67q-161 0 -261.5 -93
t-100.5 -257zM1104 1469l58 8l12 -67q6 -30 35.5 -26t29.5 30l-1 3l-12 70l57 9l12 -68q4 -20 21.5 -25.5t32 5.5t11.5 30l-12 67l57 8l11 -65q7 -42 -17 -71t-58 -32.5t-65 12.5q-22 -25 -56 -31.5t-64.5 12.5t-38.5 61zM1215 1539v208h80v-208h-80zM1944 0v1462h108v-1462
h-108z" />
    <glyph glyph-name="uni06440622" unicode="&#xfedf;&#xfe82;" horiz-adv-x="968" arabic-form="isolated" 
d="M54 0v92h660v1370h108v-1462h-768zM-23 1391l109 81q47 -41 96 -41q56 0 108 43v-85q-45 -39 -114 -39q-57 0 -88 31l-69 -48zM108 1203h109l227 -1015h-110z" />
    <glyph glyph-name="uni06440622.fina" unicode="&#xfee0;&#xfe82;" horiz-adv-x="1003" arabic-form="final" 
d="M54 0v92h660v1370h108v-1370h181q8 0 12 -4q8 -10 8 -42q0 -33 -6 -40q-5 -6 -14 -6h-949zM-23 1391l109 81q47 -41 96 -41q56 0 108 43v-85q-45 -39 -114 -39q-57 0 -88 31l-69 -48zM108 1203h109l227 -1015h-110z" />
    <glyph glyph-name="uni06440623" unicode="&#xfedf;&#xfe84;" horiz-adv-x="968" arabic-form="isolated" 
d="M54 0v92h660v1370h108v-1462h-768zM-2 1390q0 84 40 134.5t117 50.5h86v-69h-85q-40 0 -61 -29t-21 -80v-8h195v-70h-264q-7 48 -7 71zM108 1203h109l227 -1015h-110z" />
    <glyph glyph-name="uni06440623.fina" unicode="&#xfee0;&#xfe84;" horiz-adv-x="1003" arabic-form="final" 
d="M54 0v92h660v1370h108v-1370h181q8 0 12 -4q8 -10 8 -42q0 -33 -6 -40q-5 -6 -14 -6h-949zM-2 1390q0 84 40 134.5t117 50.5h86v-69h-85q-40 0 -61 -29t-21 -80v-8h195v-70h-264q-7 48 -7 71zM108 1203h109l227 -1015h-110z" />
    <glyph glyph-name="uni06440625" unicode="&#xfedf;&#xfe88;" horiz-adv-x="968" arabic-form="isolated" 
d="M54 0v92h660v1370h108v-1462h-768zM108 1203h109l227 -1015h-110zM221 -270q0 84 40 134.5t117 50.5h86v-69h-85q-40 0 -61 -29t-21 -80v-8h195v-70h-264q-7 48 -7 71z" />
    <glyph glyph-name="uni06440625.fina" unicode="&#xfee0;&#xfe88;" horiz-adv-x="1003" arabic-form="final" 
d="M54 0v92h660v1370h108v-1370h181q8 0 12 -4q8 -10 8 -42q0 -33 -6 -40q-5 -6 -14 -6h-949zM108 1203h109l227 -1015h-110zM221 -270q0 84 40 134.5t117 50.5h86v-69h-85q-40 0 -61 -29t-21 -80v-8h195v-70h-264q-7 48 -7 71z" />
    <glyph glyph-name="uni06440627" unicode="&#xfedf;&#xfe8e;" horiz-adv-x="968" arabic-form="isolated" 
d="M54 0v92h660v1370h108v-1462h-768zM108 1203h109l227 -1015h-110z" />
    <glyph glyph-name="uni06440627.fina" unicode="&#xfee0;&#xfe8e;" horiz-adv-x="1003" arabic-form="final" 
d="M54 0v92h660v1370h108v-1370h181q8 0 12 -4q8 -10 8 -42q0 -33 -6 -40q-5 -6 -14 -6h-949zM108 1203h109l227 -1015h-110z" />
    <glyph glyph-name="uni06440671" unicode="&#xfedf;&#xfb51;" horiz-adv-x="968" 
d="M54 0v92h660v1370h108v-1462h-768zM-42 1376v57h50v170h72v-36q50 43 114 43q46 0 78.5 -27.5t32.5 -83.5q0 -45 -26.5 -74.5t-56 -39t-58.5 -9.5h-206zM80 1433h75q34 0 57.5 20t23.5 49q0 22 -15.5 36.5t-45.5 14.5q-48 0 -95 -49v-71zM108 1203h109l227 -1015h-110z
" />
    <glyph glyph-name="uni06280631.fina" unicode="&#xfe92;&#xfeae;" horiz-adv-x="1014" 
d="M-96 -451v92h29q65 0 113 19.5t77 52t46 83.5t23 105t6 126v801q172 62 370 62q93 0 157.5 -19.5t100.5 -58.5t51 -88t15 -115v-517h122q8 0 12 -4q8 -10 8 -42q0 -33 -6 -40q-5 -6 -14 -6h-230v596q0 108 -51 155t-175 47q-126 0 -251 -38v-745q0 -224 -87 -345
t-284 -121h-32zM576 -333v133h139v-133h-139z" />
    <glyph glyph-name="uni06280632.fina" unicode="&#xfe92;&#xfeb0;" horiz-adv-x="1014" 
d="M-96 -451v92h29q65 0 113 19.5t77 52t46 83.5t23 105t6 126v801q172 62 370 62q93 0 157.5 -19.5t100.5 -58.5t51 -88t15 -115v-517h122q8 0 12 -4q8 -10 8 -42q0 -33 -6 -40q-5 -6 -14 -6h-230v596q0 108 -51 155t-175 47q-126 0 -251 -38v-745q0 -224 -87 -345
t-284 -121h-32zM166 1042v133h139v-133h-139zM576 -333v133h139v-133h-139z" />
    <glyph glyph-name="uni06280646.fina" unicode="&#xfe92;&#xfee6;" horiz-adv-x="1843" 
d="M644 -401q-125 0 -225 31.5t-176.5 96.5t-118.5 174.5t-42 256.5q0 266 123 504l100 -39q-115 -221 -115 -463q0 -469 450 -469q191 0 289 92.5t98 260.5v784q172 62 370 62q93 0 157.5 -19.5t100.5 -58.5t51 -88t15 -115v-517h122q8 0 12 -4q8 -10 8 -42q0 -33 -6 -40
q-5 -6 -14 -6h-230v596q0 108 -51 155t-175 47q-129 0 -252 -39v-715q0 -115 -38 -202.5t-106 -139.5t-155 -77.5t-192 -25.5zM596 1036v133h139v-133h-139zM1368 -333v133h139v-133h-139z" />
    <glyph glyph-name="uni06280649.fina" unicode="&#xfe92;&#xfef0;" horiz-adv-x="1821" 
d="M641 -186q-270 0 -414.5 132.5t-144.5 361.5q0 66 24 177t61 195l100 -29q-34 -78 -55 -178t-21 -165q0 -192 114.5 -297t335.5 -105h364v922q170 62 369 62q94 0 158.5 -19.5t100 -58.5t50.5 -87.5t15 -115.5v-517h123q8 0 12 -4q8 -10 8 -42q0 -33 -6 -40q-5 -6 -14 -6
h-231v596q0 109 -50.5 155.5t-174.5 46.5q-129 0 -252 -39v-945h-472zM1356 -333v133h139v-133h-139z" />
    <glyph glyph-name="uni0628064A.fina" unicode="&#xfe92;&#xfef2;" horiz-adv-x="1821" 
d="M641 -186q-270 0 -414.5 132.5t-144.5 361.5q0 66 24 177t61 195l100 -29q-34 -78 -55 -178t-21 -165q0 -192 114.5 -297t335.5 -105h364v922q170 62 369 62q94 0 158.5 -19.5t100 -58.5t50.5 -87.5t15 -115.5v-517h123q8 0 12 -4q8 -10 8 -42q0 -33 -6 -40q-5 -6 -14 -6
h-231v596q0 109 -50.5 155.5t-174.5 46.5q-129 0 -252 -39v-945h-472zM501 -469v133h135v-133h-135zM754 -469v133h135v-133h-135zM1356 -333v133h139v-133h-139z" />
    <glyph glyph-name="uni06280626.fina" unicode="&#xfe92;&#xfe8a;" horiz-adv-x="1821" 
d="M641 -186q-270 0 -414.5 132.5t-144.5 361.5q0 66 24 177t61 195l100 -29q-34 -78 -55 -178t-21 -165q0 -192 114.5 -297t335.5 -105h364v922q170 62 369 62q94 0 158.5 -19.5t100 -58.5t50.5 -87.5t15 -115.5v-517h123q8 0 12 -4q8 -10 8 -42q0 -33 -6 -40q-5 -6 -14 -6
h-231v596q0 109 -50.5 155.5t-174.5 46.5q-129 0 -252 -39v-945h-472zM195 907q0 84 40 134.5t117 50.5h86v-69h-85q-40 0 -61 -29t-21 -80v-8h195v-70h-264q-7 48 -7 71zM1356 -333v133h139v-133h-139z" />
    <glyph glyph-name="uni06440671.fina" unicode="&#xfee0;&#xfb51;" horiz-adv-x="1003" 
d="M54 0v92h660v1370h108v-1370h181q8 0 12 -4q8 -10 8 -42q0 -33 -6 -40q-5 -6 -14 -6h-949zM-42 1376v57h50v170h72v-36q50 43 114 43q46 0 78.5 -27.5t32.5 -83.5q0 -45 -26.5 -74.5t-56 -39t-58.5 -9.5h-206zM80 1433h75q34 0 57.5 20t23.5 49q0 22 -15.5 36.5
t-45.5 14.5q-48 0 -95 -49v-71zM108 1203h109l227 -1015h-110z" />
    <glyph glyph-name="uni067E0631.fina" unicode="&#xfb59;&#xfeae;" horiz-adv-x="1014" 
d="M-96 -451v92h29q65 0 113 19.5t77 52t46 83.5t23 105t6 126v801q172 62 370 62q93 0 157.5 -19.5t100.5 -58.5t51 -88t15 -115v-517h122q8 0 12 -4q8 -10 8 -42q0 -33 -6 -40q-5 -6 -14 -6h-230v596q0 108 -51 155t-175 47q-126 0 -251 -38v-745q0 -224 -87 -345
t-284 -121h-32zM452 -331v131h136v-131h-136zM577 -536v130h135v-130h-135zM703 -331v131h135v-131h-135z" />
    <glyph glyph-name="uni067E0632.fina" unicode="&#xfb59;&#xfeb0;" horiz-adv-x="1014" 
d="M-96 -451v92h29q65 0 113 19.5t77 52t46 83.5t23 105t6 126v801q172 62 370 62q93 0 157.5 -19.5t100.5 -58.5t51 -88t15 -115v-517h122q8 0 12 -4q8 -10 8 -42q0 -33 -6 -40q-5 -6 -14 -6h-230v596q0 108 -51 155t-175 47q-126 0 -251 -38v-745q0 -224 -87 -345
t-284 -121h-32zM166 1042v133h139v-133h-139zM452 -331v131h136v-131h-136zM577 -536v130h135v-130h-135zM703 -331v131h135v-131h-135z" />
    <glyph glyph-name="uni067E0646.fina" unicode="&#xfb59;&#xfee6;" horiz-adv-x="1843" 
d="M644 -401q-125 0 -225 31.5t-176.5 96.5t-118.5 174.5t-42 256.5q0 266 123 504l100 -39q-115 -221 -115 -463q0 -469 450 -469q191 0 289 92.5t98 260.5v784q172 62 370 62q93 0 157.5 -19.5t100.5 -58.5t51 -88t15 -115v-517h122q8 0 12 -4q8 -10 8 -42q0 -33 -6 -40
q-5 -6 -14 -6h-230v596q0 108 -51 155t-175 47q-129 0 -252 -39v-715q0 -115 -38 -202.5t-106 -139.5t-155 -77.5t-192 -25.5zM596 1036v133h139v-133h-139zM1244 -331v131h136v-131h-136zM1369 -536v130h135v-130h-135zM1495 -331v131h135v-131h-135z" />
    <glyph glyph-name="uni067E0649.fina" unicode="&#xfb59;&#xfef0;" horiz-adv-x="1821" 
d="M641 -186q-270 0 -414.5 132.5t-144.5 361.5q0 66 24 177t61 195l100 -29q-34 -78 -55 -178t-21 -165q0 -192 114.5 -297t335.5 -105h364v922q170 62 369 62q94 0 158.5 -19.5t100 -58.5t50.5 -87.5t15 -115.5v-517h123q8 0 12 -4q8 -10 8 -42q0 -33 -6 -40q-5 -6 -14 -6
h-231v596q0 109 -50.5 155.5t-174.5 46.5q-129 0 -252 -39v-945h-472zM1231 -331v131h136v-131h-136zM1356 -536v130h135v-130h-135zM1482 -331v131h135v-131h-135z" />
    <glyph glyph-name="uni067E064A.fina" unicode="&#xfb59;&#xfef2;" horiz-adv-x="1821" 
d="M641 -186q-270 0 -414.5 132.5t-144.5 361.5q0 66 24 177t61 195l100 -29q-34 -78 -55 -178t-21 -165q0 -192 114.5 -297t335.5 -105h364v922q170 62 369 62q94 0 158.5 -19.5t100 -58.5t50.5 -87.5t15 -115.5v-517h123q8 0 12 -4q8 -10 8 -42q0 -33 -6 -40q-5 -6 -14 -6
h-231v596q0 109 -50.5 155.5t-174.5 46.5q-129 0 -252 -39v-945h-472zM501 -469v133h135v-133h-135zM754 -469v133h135v-133h-135zM1231 -331v131h136v-131h-136zM1356 -536v130h135v-130h-135zM1482 -331v131h135v-131h-135z" />
    <glyph glyph-name="uni067E0626.fina" unicode="&#xfb59;&#xfe8a;" horiz-adv-x="1821" 
d="M641 -186q-270 0 -414.5 132.5t-144.5 361.5q0 66 24 177t61 195l100 -29q-34 -78 -55 -178t-21 -165q0 -192 114.5 -297t335.5 -105h364v922q170 62 369 62q94 0 158.5 -19.5t100 -58.5t50.5 -87.5t15 -115.5v-517h123q8 0 12 -4q8 -10 8 -42q0 -33 -6 -40q-5 -6 -14 -6
h-231v596q0 109 -50.5 155.5t-174.5 46.5q-129 0 -252 -39v-945h-472zM195 907q0 84 40 134.5t117 50.5h86v-69h-85q-40 0 -61 -29t-21 -80v-8h195v-70h-264q-7 48 -7 71zM1231 -331v131h136v-131h-136zM1356 -536v130h135v-130h-135zM1482 -331v131h135v-131h-135z" />
    <glyph glyph-name="uni062A0631.fina" unicode="&#xfe98;&#xfeae;" horiz-adv-x="1014" 
d="M-96 -451v92h29q65 0 113 19.5t77 52t46 83.5t23 105t6 126v801q172 62 370 62q93 0 157.5 -19.5t100.5 -58.5t51 -88t15 -115v-517h122q8 0 12 -4q8 -10 8 -42q0 -33 -6 -40q-5 -6 -14 -6h-230v596q0 108 -51 155t-175 47q-126 0 -251 -38v-745q0 -224 -87 -345
t-284 -121h-32zM458 1043v133h135v-133h-135zM711 1043v133h135v-133h-135z" />
    <glyph glyph-name="uni062A0646.fina" unicode="&#xfe98;&#xfee6;" horiz-adv-x="1843" 
d="M644 -401q-125 0 -225 31.5t-176.5 96.5t-118.5 174.5t-42 256.5q0 266 123 504l100 -39q-115 -221 -115 -463q0 -469 450 -469q191 0 289 92.5t98 260.5v784q172 62 370 62q93 0 157.5 -19.5t100.5 -58.5t51 -88t15 -115v-517h122q8 0 12 -4q8 -10 8 -42q0 -33 -6 -40
q-5 -6 -14 -6h-230v596q0 108 -51 155t-175 47q-129 0 -252 -39v-715q0 -115 -38 -202.5t-106 -139.5t-155 -77.5t-192 -25.5zM596 1036v133h139v-133h-139zM1219 1043v133h135v-133h-135zM1472 1043v133h135v-133h-135z" />
    <glyph glyph-name="uni062A0649.fina" unicode="&#xfe98;&#xfef0;" horiz-adv-x="1821" 
d="M641 -186q-270 0 -414.5 132.5t-144.5 361.5q0 66 24 177t61 195l100 -29q-34 -78 -55 -178t-21 -165q0 -192 114.5 -297t335.5 -105h364v922q170 62 369 62q94 0 158.5 -19.5t100 -58.5t50.5 -87.5t15 -115.5v-517h123q8 0 12 -4q8 -10 8 -42q0 -33 -6 -40q-5 -6 -14 -6
h-231v596q0 109 -50.5 155.5t-174.5 46.5q-129 0 -252 -39v-945h-472zM1206 1043v133h135v-133h-135zM1459 1043v133h135v-133h-135z" />
    <glyph glyph-name="uni062A064A.fina" unicode="&#xfe98;&#xfef2;" horiz-adv-x="1821" 
d="M641 -186q-270 0 -414.5 132.5t-144.5 361.5q0 66 24 177t61 195l100 -29q-34 -78 -55 -178t-21 -165q0 -192 114.5 -297t335.5 -105h364v922q170 62 369 62q94 0 158.5 -19.5t100 -58.5t50.5 -87.5t15 -115.5v-517h123q8 0 12 -4q8 -10 8 -42q0 -33 -6 -40q-5 -6 -14 -6
h-231v596q0 109 -50.5 155.5t-174.5 46.5q-129 0 -252 -39v-945h-472zM501 -469v133h135v-133h-135zM754 -469v133h135v-133h-135zM1206 1043v133h135v-133h-135zM1459 1043v133h135v-133h-135z" />
    <glyph glyph-name="uni062A0626.fina" unicode="&#xfe98;&#xfe8a;" horiz-adv-x="1821" 
d="M641 -186q-270 0 -414.5 132.5t-144.5 361.5q0 66 24 177t61 195l100 -29q-34 -78 -55 -178t-21 -165q0 -192 114.5 -297t335.5 -105h364v922q170 62 369 62q94 0 158.5 -19.5t100 -58.5t50.5 -87.5t15 -115.5v-517h123q8 0 12 -4q8 -10 8 -42q0 -33 -6 -40q-5 -6 -14 -6
h-231v596q0 109 -50.5 155.5t-174.5 46.5q-129 0 -252 -39v-945h-472zM195 907q0 84 40 134.5t117 50.5h86v-69h-85q-40 0 -61 -29t-21 -80v-8h195v-70h-264q-7 48 -7 71zM1206 1043v133h135v-133h-135zM1459 1043v133h135v-133h-135z" />
    <glyph glyph-name="uni062B0631.fina" unicode="&#xfe9c;&#xfeae;" horiz-adv-x="1014" 
d="M-96 -451v92h29q65 0 113 19.5t77 52t46 83.5t23 105t6 126v801q172 62 370 62q93 0 157.5 -19.5t100.5 -58.5t51 -88t15 -115v-517h122q8 0 12 -4q8 -10 8 -42q0 -33 -6 -40q-5 -6 -14 -6h-230v596q0 108 -51 155t-175 47q-126 0 -251 -38v-745q0 -224 -87 -345
t-284 -121h-32zM459 1043v131h136v-131h-136zM584 1249v130h135v-130h-135zM710 1043v131h135v-131h-135z" />
    <glyph glyph-name="uni062B0646.fina" unicode="&#xfe9c;&#xfee6;" horiz-adv-x="1843" 
d="M644 -401q-125 0 -225 31.5t-176.5 96.5t-118.5 174.5t-42 256.5q0 266 123 504l100 -39q-115 -221 -115 -463q0 -469 450 -469q191 0 289 92.5t98 260.5v784q172 62 370 62q93 0 157.5 -19.5t100.5 -58.5t51 -88t15 -115v-517h122q8 0 12 -4q8 -10 8 -42q0 -33 -6 -40
q-5 -6 -14 -6h-230v596q0 108 -51 155t-175 47q-129 0 -252 -39v-715q0 -115 -38 -202.5t-106 -139.5t-155 -77.5t-192 -25.5zM596 1036v133h139v-133h-139zM1220 1043v131h136v-131h-136zM1345 1249v130h135v-130h-135zM1471 1043v131h135v-131h-135z" />
    <glyph glyph-name="uni062B0649.fina" unicode="&#xfe9c;&#xfef0;" horiz-adv-x="1821" 
d="M641 -186q-270 0 -414.5 132.5t-144.5 361.5q0 66 24 177t61 195l100 -29q-34 -78 -55 -178t-21 -165q0 -192 114.5 -297t335.5 -105h364v922q170 62 369 62q94 0 158.5 -19.5t100 -58.5t50.5 -87.5t15 -115.5v-517h123q8 0 12 -4q8 -10 8 -42q0 -33 -6 -40q-5 -6 -14 -6
h-231v596q0 109 -50.5 155.5t-174.5 46.5q-129 0 -252 -39v-945h-472zM1208 1043v131h136v-131h-136zM1333 1249v130h135v-130h-135zM1459 1043v131h135v-131h-135z" />
    <glyph glyph-name="uni062B064A.fina" unicode="&#xfe9c;&#xfef2;" horiz-adv-x="1821" 
d="M641 -186q-270 0 -414.5 132.5t-144.5 361.5q0 66 24 177t61 195l100 -29q-34 -78 -55 -178t-21 -165q0 -192 114.5 -297t335.5 -105h364v922q170 62 369 62q94 0 158.5 -19.5t100 -58.5t50.5 -87.5t15 -115.5v-517h123q8 0 12 -4q8 -10 8 -42q0 -33 -6 -40q-5 -6 -14 -6
h-231v596q0 109 -50.5 155.5t-174.5 46.5q-129 0 -252 -39v-945h-472zM501 -469v133h135v-133h-135zM754 -469v133h135v-133h-135zM1208 1043v131h136v-131h-136zM1333 1249v130h135v-130h-135zM1459 1043v131h135v-131h-135z" />
    <glyph glyph-name="uni062B0626.fina" unicode="&#xfe9c;&#xfe8a;" horiz-adv-x="1821" 
d="M641 -186q-270 0 -414.5 132.5t-144.5 361.5q0 66 24 177t61 195l100 -29q-34 -78 -55 -178t-21 -165q0 -192 114.5 -297t335.5 -105h364v922q170 62 369 62q94 0 158.5 -19.5t100 -58.5t50.5 -87.5t15 -115.5v-517h123q8 0 12 -4q8 -10 8 -42q0 -33 -6 -40q-5 -6 -14 -6
h-231v596q0 109 -50.5 155.5t-174.5 46.5q-129 0 -252 -39v-945h-472zM195 907q0 84 40 134.5t117 50.5h86v-69h-85q-40 0 -61 -29t-21 -80v-8h195v-70h-264q-7 48 -7 71zM1208 1043v131h136v-131h-136zM1333 1249v130h135v-130h-135zM1459 1043v131h135v-131h-135z" />
    <glyph glyph-name="uni06330631" unicode="&#xfeb3;&#xfeae;" horiz-adv-x="1948" 
d="M714 0v596q0 108 -51 155t-175 47q-76 0 -181 -37v-746q0 -224 -87 -345t-284 -121h-32v92h29q65 0 113 19.5t77 52t46 83.5t23 105t6 126v801q172 62 300 62q93 0 157.5 -19.5t100.5 -58.5t51 -88t15 -115v-517h227q156 0 156 172v606h108v-609v-20q0 -101 47.5 -147.5
t146.5 -46.5q91 0 139.5 51t48.5 147v625h108v-625q0 -130 -72.5 -210t-221.5 -80q-189 0 -257 120q-68 -75 -198 -75h-340z" />
    <glyph glyph-name="uni06330631.fina" unicode="&#xfeb4;&#xfeae;" horiz-adv-x="2028" 
d="M1939 0q-125 0 -195 50q-77 -95 -235 -95q-189 0 -257 120q-68 -75 -198 -75h-340v596q0 108 -51 155t-175 47q-76 0 -181 -37v-746q0 -224 -87 -345t-284 -121h-32v92h29q65 0 113 19.5t77 52t46 83.5t23 105t6 126v801q172 62 300 62q93 0 157.5 -19.5t100.5 -58.5
t51 -88t15 -115v-517h227q156 0 156 172v606h108v-609v-20q0 -101 47.5 -147.5t146.5 -46.5q91 0 139.5 51t48.5 147v625h108v-625q0 -64 -17 -114q46 -39 153 -39h89q8 0 12 -4q8 -10 8 -42q0 -33 -6 -40q-4 -6 -14 -6h-89z" />
    <glyph glyph-name="uni06330649" unicode="&#xfeb3;&#xfef0;" horiz-adv-x="2755" 
d="M641 -186q-270 0 -414.5 132.5t-144.5 361.5q0 66 24 177t61 195l100 -29q-34 -78 -55 -178t-21 -165q0 -192 114.5 -297t335.5 -105h364v922q170 62 299 62q94 0 158.5 -19.5t100 -58.5t50.5 -87.5t15 -115.5v-517h227q156 0 156 172v606h108v-609v-20q0 -101 48 -147.5
t147 -46.5q91 0 139 51t48 147v625h108v-625q0 -130 -72.5 -210t-221.5 -80q-189 0 -257 120q-68 -75 -197 -75h-341v596q0 109 -50.5 155.5t-174.5 46.5q-77 0 -182 -37v-947h-472z" />
    <glyph glyph-name="uni06330649.fina" unicode="&#xfeb4;&#xfef0;" horiz-adv-x="2834" 
d="M2745 0q-125 0 -195 50q-77 -95 -235 -95q-189 0 -257 120q-68 -75 -197 -75h-341v596q0 109 -50.5 155.5t-174.5 46.5q-77 0 -182 -37v-947h-472q-270 0 -414.5 132.5t-144.5 361.5q0 66 24 177t61 195l100 -29q-34 -78 -55 -178t-21 -165q0 -192 114.5 -297t335.5 -105
h364v922q170 62 299 62q94 0 158.5 -19.5t100 -58.5t50.5 -87.5t15 -115.5v-517h227q156 0 156 172v606h108v-609v-20q0 -101 48 -147.5t147 -46.5q91 0 139 51t48 147v625h108v-625q0 -64 -17 -114q46 -39 153 -39h89q8 0 12 -4q8 -10 8 -42q0 -33 -6 -40q-4 -6 -14 -6h-89
z" />
    <glyph glyph-name="uni0633064A" unicode="&#xfeb3;&#xfef2;" horiz-adv-x="2755" 
d="M641 -186q-270 0 -414.5 132.5t-144.5 361.5q0 66 24 177t61 195l100 -29q-34 -78 -55 -178t-21 -165q0 -192 114.5 -297t335.5 -105h364v922q170 62 299 62q94 0 158.5 -19.5t100 -58.5t50.5 -87.5t15 -115.5v-517h227q156 0 156 172v606h108v-609v-20q0 -101 48 -147.5
t147 -46.5q91 0 139 51t48 147v625h108v-625q0 -130 -72.5 -210t-221.5 -80q-189 0 -257 120q-68 -75 -197 -75h-341v596q0 109 -50.5 155.5t-174.5 46.5q-77 0 -182 -37v-947h-472zM568 -469v133h135v-133h-135zM821 -469v133h135v-133h-135z" />
    <glyph glyph-name="uni0633064A.fina" unicode="&#xfeb4;&#xfef2;" horiz-adv-x="2834" 
d="M2745 0q-125 0 -195 50q-77 -95 -235 -95q-189 0 -257 120q-68 -75 -197 -75h-341v596q0 109 -50.5 155.5t-174.5 46.5q-77 0 -182 -37v-947h-472q-270 0 -414.5 132.5t-144.5 361.5q0 66 24 177t61 195l100 -29q-34 -78 -55 -178t-21 -165q0 -192 114.5 -297t335.5 -105
h364v922q170 62 299 62q94 0 158.5 -19.5t100 -58.5t50.5 -87.5t15 -115.5v-517h227q156 0 156 172v606h108v-609v-20q0 -101 48 -147.5t147 -46.5q91 0 139 51t48 147v625h108v-625q0 -64 -17 -114q46 -39 153 -39h89q8 0 12 -4q8 -10 8 -42q0 -33 -6 -40q-4 -6 -14 -6h-89
zM568 -469v133h135v-133h-135zM821 -469v133h135v-133h-135z" />
    <glyph glyph-name="uni06330632" unicode="&#xfeb3;&#xfeb0;" horiz-adv-x="1948" 
d="M714 0v596q0 108 -51 155t-175 47q-76 0 -181 -37v-746q0 -224 -87 -345t-284 -121h-32v92h29q65 0 113 19.5t77 52t46 83.5t23 105t6 126v801q172 62 300 62q93 0 157.5 -19.5t100.5 -58.5t51 -88t15 -115v-517h227q156 0 156 172v606h108v-609v-20q0 -101 47.5 -147.5
t146.5 -46.5q91 0 139.5 51t48.5 147v625h108v-625q0 -130 -72.5 -210t-221.5 -80q-189 0 -257 120q-68 -75 -198 -75h-340zM187 1042v133h139v-133h-139z" />
    <glyph glyph-name="uni06330632.fina" unicode="&#xfeb4;&#xfeb0;" horiz-adv-x="2028" 
d="M1939 0q-125 0 -195 50q-77 -95 -235 -95q-189 0 -257 120q-68 -75 -198 -75h-340v596q0 108 -51 155t-175 47q-76 0 -181 -37v-746q0 -224 -87 -345t-284 -121h-32v92h29q65 0 113 19.5t77 52t46 83.5t23 105t6 126v801q172 62 300 62q93 0 157.5 -19.5t100.5 -58.5
t51 -88t15 -115v-517h227q156 0 156 172v606h108v-609v-20q0 -101 47.5 -147.5t146.5 -46.5q91 0 139.5 51t48.5 147v625h108v-625q0 -64 -17 -114q46 -39 153 -39h89q8 0 12 -4q8 -10 8 -42q0 -33 -6 -40q-4 -6 -14 -6h-89zM187 1042v133h139v-133h-139z" />
    <glyph glyph-name="uni06330626" unicode="&#xfeb3;&#xfe8a;" horiz-adv-x="2834" 
d="M2745 0q-125 0 -195 50q-77 -95 -235 -95q-189 0 -257 120q-68 -75 -197 -75h-341v596q0 109 -50.5 155.5t-174.5 46.5q-77 0 -182 -37v-947h-472q-270 0 -414.5 132.5t-144.5 361.5q0 66 24 177t61 195l100 -29q-34 -78 -55 -178t-21 -165q0 -192 114.5 -297t335.5 -105
h364v922q170 62 299 62q94 0 158.5 -19.5t100 -58.5t50.5 -87.5t15 -115.5v-517h227q156 0 156 172v606h108v-609v-20q0 -101 48 -147.5t147 -46.5q91 0 139 51t48 147v625h108v-625q0 -64 -17 -114q46 -39 153 -39h89q8 0 12 -4q8 -10 8 -42q0 -33 -6 -40q-4 -6 -14 -6h-89
zM189 907q0 84 40 134.5t117 50.5h86v-69h-85q-40 0 -61 -29t-21 -80v-8h195v-70h-264q-7 48 -7 71z" />
    <glyph glyph-name="uni06330626.fina" unicode="&#xfeb4;&#xfe8a;" horiz-adv-x="2834" 
d="M2745 0q-125 0 -195 50q-77 -95 -235 -95q-189 0 -257 120q-68 -75 -197 -75h-341v596q0 109 -50.5 155.5t-174.5 46.5q-77 0 -182 -37v-947h-472q-270 0 -414.5 132.5t-144.5 361.5q0 66 24 177t61 195l100 -29q-34 -78 -55 -178t-21 -165q0 -192 114.5 -297t335.5 -105
h364v922q170 62 299 62q94 0 158.5 -19.5t100 -58.5t50.5 -87.5t15 -115.5v-517h227q156 0 156 172v606h108v-609v-20q0 -101 48 -147.5t147 -46.5q91 0 139 51t48 147v625h108v-625q0 -64 -17 -114q46 -39 153 -39h89q8 0 12 -4q8 -10 8 -42q0 -33 -6 -40q-4 -6 -14 -6h-89
zM189 907q0 84 40 134.5t117 50.5h86v-69h-85q-40 0 -61 -29t-21 -80v-8h195v-70h-264q-7 48 -7 71z" />
    <glyph glyph-name="uni06340631" unicode="&#xfeb7;&#xfeae;" horiz-adv-x="1948" 
d="M714 0v596q0 108 -51 155t-175 47q-76 0 -181 -37v-746q0 -224 -87 -345t-284 -121h-32v92h29q65 0 113 19.5t77 52t46 83.5t23 105t6 126v801q172 62 300 62q93 0 157.5 -19.5t100.5 -58.5t51 -88t15 -115v-517h227q156 0 156 172v606h108v-609v-20q0 -101 47.5 -147.5
t146.5 -46.5q91 0 139.5 51t48.5 147v625h108v-625q0 -130 -72.5 -210t-221.5 -80q-189 0 -257 120q-68 -75 -198 -75h-340zM1067 1037v131h136v-131h-136zM1192 1243v130h135v-130h-135zM1318 1037v131h135v-131h-135z" />
    <glyph glyph-name="uni06340631.fina" unicode="&#xfeb8;&#xfeae;" horiz-adv-x="2028" 
d="M1939 0q-125 0 -195 50q-77 -95 -235 -95q-189 0 -257 120q-68 -75 -198 -75h-340v596q0 108 -51 155t-175 47q-76 0 -181 -37v-746q0 -224 -87 -345t-284 -121h-32v92h29q65 0 113 19.5t77 52t46 83.5t23 105t6 126v801q172 62 300 62q93 0 157.5 -19.5t100.5 -58.5
t51 -88t15 -115v-517h227q156 0 156 172v606h108v-609v-20q0 -101 47.5 -147.5t146.5 -46.5q91 0 139.5 51t48.5 147v625h108v-625q0 -64 -17 -114q46 -39 153 -39h89q8 0 12 -4q8 -10 8 -42q0 -33 -6 -40q-4 -6 -14 -6h-89zM1067 1037v131h136v-131h-136zM1192 1243v130
h135v-130h-135zM1318 1037v131h135v-131h-135z" />
    <glyph glyph-name="uni06340632" unicode="&#xfeb7;&#xfeb0;" horiz-adv-x="1948" 
d="M714 0v596q0 108 -51 155t-175 47q-76 0 -181 -37v-746q0 -224 -87 -345t-284 -121h-32v92h29q65 0 113 19.5t77 52t46 83.5t23 105t6 126v801q172 62 300 62q93 0 157.5 -19.5t100.5 -58.5t51 -88t15 -115v-517h227q156 0 156 172v606h108v-609v-20q0 -101 47.5 -147.5
t146.5 -46.5q91 0 139.5 51t48.5 147v625h108v-625q0 -130 -72.5 -210t-221.5 -80q-189 0 -257 120q-68 -75 -198 -75h-340zM187 1042v133h139v-133h-139zM1067 1037v131h136v-131h-136zM1192 1243v130h135v-130h-135zM1318 1037v131h135v-131h-135z" />
    <glyph glyph-name="uni06340632.fina" unicode="&#xfeb8;&#xfeb0;" horiz-adv-x="2028" 
d="M1939 0q-125 0 -195 50q-77 -95 -235 -95q-189 0 -257 120q-68 -75 -198 -75h-340v596q0 108 -51 155t-175 47q-76 0 -181 -37v-746q0 -224 -87 -345t-284 -121h-32v92h29q65 0 113 19.5t77 52t46 83.5t23 105t6 126v801q172 62 300 62q93 0 157.5 -19.5t100.5 -58.5
t51 -88t15 -115v-517h227q156 0 156 172v606h108v-609v-20q0 -101 47.5 -147.5t146.5 -46.5q91 0 139.5 51t48.5 147v625h108v-625q0 -64 -17 -114q46 -39 153 -39h89q8 0 12 -4q8 -10 8 -42q0 -33 -6 -40q-4 -6 -14 -6h-89zM187 1042v133h139v-133h-139zM1067 1037v131h136
v-131h-136zM1192 1243v130h135v-130h-135zM1318 1037v131h135v-131h-135z" />
    <glyph glyph-name="uni06340649" unicode="&#xfeb7;&#xfef0;" horiz-adv-x="2755" 
d="M641 -186q-270 0 -414.5 132.5t-144.5 361.5q0 66 24 177t61 195l100 -29q-34 -78 -55 -178t-21 -165q0 -192 114.5 -297t335.5 -105h364v922q170 62 299 62q94 0 158.5 -19.5t100 -58.5t50.5 -87.5t15 -115.5v-517h227q156 0 156 172v606h108v-609v-20q0 -101 48 -147.5
t147 -46.5q91 0 139 51t48 147v625h108v-625q0 -130 -72.5 -210t-221.5 -80q-189 0 -257 120q-68 -75 -197 -75h-341v596q0 109 -50.5 155.5t-174.5 46.5q-77 0 -182 -37v-947h-472zM1874 1037v131h136v-131h-136zM1999 1243v130h135v-130h-135zM2125 1037v131h135v-131
h-135z" />
    <glyph glyph-name="uni06340649.fina" unicode="&#xfeb8;&#xfef0;" horiz-adv-x="2834" 
d="M2745 0q-125 0 -195 50q-77 -95 -235 -95q-189 0 -257 120q-68 -75 -197 -75h-341v596q0 109 -50.5 155.5t-174.5 46.5q-77 0 -182 -37v-947h-472q-270 0 -414.5 132.5t-144.5 361.5q0 66 24 177t61 195l100 -29q-34 -78 -55 -178t-21 -165q0 -192 114.5 -297t335.5 -105
h364v922q170 62 299 62q94 0 158.5 -19.5t100 -58.5t50.5 -87.5t15 -115.5v-517h227q156 0 156 172v606h108v-609v-20q0 -101 48 -147.5t147 -46.5q91 0 139 51t48 147v625h108v-625q0 -64 -17 -114q46 -39 153 -39h89q8 0 12 -4q8 -10 8 -42q0 -33 -6 -40q-4 -6 -14 -6h-89
zM1874 1037v131h136v-131h-136zM1999 1243v130h135v-130h-135zM2125 1037v131h135v-131h-135z" />
    <glyph glyph-name="uni0634064A" unicode="&#xfeb7;&#xfef2;" horiz-adv-x="2755" 
d="M641 -186q-270 0 -414.5 132.5t-144.5 361.5q0 66 24 177t61 195l100 -29q-34 -78 -55 -178t-21 -165q0 -192 114.5 -297t335.5 -105h364v922q170 62 299 62q94 0 158.5 -19.5t100 -58.5t50.5 -87.5t15 -115.5v-517h227q156 0 156 172v606h108v-609v-20q0 -101 48 -147.5
t147 -46.5q91 0 139 51t48 147v625h108v-625q0 -130 -72.5 -210t-221.5 -80q-189 0 -257 120q-68 -75 -197 -75h-341v596q0 109 -50.5 155.5t-174.5 46.5q-77 0 -182 -37v-947h-472zM568 -469v133h135v-133h-135zM821 -469v133h135v-133h-135zM1874 1037v131h136v-131h-136z
M1999 1243v130h135v-130h-135zM2125 1037v131h135v-131h-135z" />
    <glyph glyph-name="uni0634064A.fina" unicode="&#xfeb8;&#xfef2;" horiz-adv-x="2834" 
d="M2745 0q-125 0 -195 50q-77 -95 -235 -95q-189 0 -257 120q-68 -75 -197 -75h-341v596q0 109 -50.5 155.5t-174.5 46.5q-77 0 -182 -37v-947h-472q-270 0 -414.5 132.5t-144.5 361.5q0 66 24 177t61 195l100 -29q-34 -78 -55 -178t-21 -165q0 -192 114.5 -297t335.5 -105
h364v922q170 62 299 62q94 0 158.5 -19.5t100 -58.5t50.5 -87.5t15 -115.5v-517h227q156 0 156 172v606h108v-609v-20q0 -101 48 -147.5t147 -46.5q91 0 139 51t48 147v625h108v-625q0 -64 -17 -114q46 -39 153 -39h89q8 0 12 -4q8 -10 8 -42q0 -33 -6 -40q-4 -6 -14 -6h-89
zM568 -469v133h135v-133h-135zM821 -469v133h135v-133h-135zM1874 1037v131h136v-131h-136zM1999 1243v130h135v-130h-135zM2125 1037v131h135v-131h-135z" />
    <glyph glyph-name="uni06340626" unicode="&#xfeb7;&#xfe8a;" horiz-adv-x="2755" 
d="M641 -186q-270 0 -414.5 132.5t-144.5 361.5q0 66 24 177t61 195l100 -29q-34 -78 -55 -178t-21 -165q0 -192 114.5 -297t335.5 -105h364v922q170 62 299 62q94 0 158.5 -19.5t100 -58.5t50.5 -87.5t15 -115.5v-517h227q156 0 156 172v606h108v-609v-20q0 -101 48 -147.5
t147 -46.5q91 0 139 51t48 147v625h108v-625q0 -130 -72.5 -210t-221.5 -80q-189 0 -257 120q-68 -75 -197 -75h-341v596q0 109 -50.5 155.5t-174.5 46.5q-77 0 -182 -37v-947h-472zM189 907q0 84 40 134.5t117 50.5h86v-69h-85q-40 0 -61 -29t-21 -80v-8h195v-70h-264
q-7 48 -7 71zM1874 1037v131h136v-131h-136zM1999 1243v130h135v-130h-135zM2125 1037v131h135v-131h-135z" />
    <glyph glyph-name="uni06340626.fina" unicode="&#xfeb8;&#xfe8a;" horiz-adv-x="2834" 
d="M2745 0q-125 0 -195 50q-77 -95 -235 -95q-189 0 -257 120q-68 -75 -197 -75h-341v596q0 109 -50.5 155.5t-174.5 46.5q-77 0 -182 -37v-947h-472q-270 0 -414.5 132.5t-144.5 361.5q0 66 24 177t61 195l100 -29q-34 -78 -55 -178t-21 -165q0 -192 114.5 -297t335.5 -105
h364v922q170 62 299 62q94 0 158.5 -19.5t100 -58.5t50.5 -87.5t15 -115.5v-517h227q156 0 156 172v606h108v-609v-20q0 -101 48 -147.5t147 -46.5q91 0 139 51t48 147v625h108v-625q0 -64 -17 -114q46 -39 153 -39h89q8 0 12 -4q8 -10 8 -42q0 -33 -6 -40q-4 -6 -14 -6h-89
zM189 907q0 84 40 134.5t117 50.5h86v-69h-85q-40 0 -61 -29t-21 -80v-8h195v-70h-264q-7 48 -7 71zM1874 1037v131h136v-131h-136zM1999 1243v130h135v-130h-135zM2125 1037v131h135v-131h-135z" />
    <glyph glyph-name="uni06350631" unicode="&#xfebb;&#xfeae;" horiz-adv-x="1957" 
d="M714 0v596q0 108 -51 155t-175 47q-76 0 -181 -37v-746q0 -224 -87 -345t-284 -121h-32v92h29q65 0 113 19.5t77 52t46 83.5t23 105t6 126v801q172 62 300 62q93 0 157.5 -19.5t100.5 -58.5t51 -88t15 -115v-18q106 144 254 230.5t297 86.5q230 0 365.5 -120t135.5 -311
q0 -76 -18 -144t-59.5 -129.5t-104.5 -106t-158.5 -71t-215.5 -26.5h-604zM822 92h499q208 0 327 95t119 278q0 158 -106 254.5t-302 96.5q-155 0 -304 -106.5t-233 -265.5v-352z" />
    <glyph glyph-name="uni06350631.fina" unicode="&#xfebc;&#xfeae;" horiz-adv-x="1910" 
d="M714 0v596q0 108 -51 155t-175 47q-76 0 -181 -37v-746q0 -224 -87 -345t-284 -121h-32v92h29q65 0 113 19.5t77 52t46 83.5t23 105t6 126v801q172 62 300 62q93 0 157.5 -19.5t100.5 -58.5t51 -88t15 -115v-18q106 144 254 230.5t297 86.5q230 0 365.5 -120t135.5 -311
q0 -119 -46.5 -220t-143.5 -165h226q8 0 12 -4q8 -10 8 -42q0 -33 -6 -40q-5 -6 -14 -6h-1196zM822 92h499q208 0 327 95t119 278q0 158 -106 254.5t-302 96.5q-155 0 -304 -106.5t-233 -265.5v-352z" />
    <glyph glyph-name="uni06350632" unicode="&#xfebb;&#xfeb0;" horiz-adv-x="1957" 
d="M714 0v596q0 108 -51 155t-175 47q-76 0 -181 -37v-746q0 -224 -87 -345t-284 -121h-32v92h29q65 0 113 19.5t77 52t46 83.5t23 105t6 126v801q172 62 300 62q93 0 157.5 -19.5t100.5 -58.5t51 -88t15 -115v-18q106 144 254 230.5t297 86.5q230 0 365.5 -120t135.5 -311
q0 -76 -18 -144t-59.5 -129.5t-104.5 -106t-158.5 -71t-215.5 -26.5h-604zM187 1036v133h139v-133h-139zM822 92h499q208 0 327 95t119 278q0 158 -106 254.5t-302 96.5q-155 0 -304 -106.5t-233 -265.5v-352z" />
    <glyph glyph-name="uni06350632.fina" unicode="&#xfebc;&#xfeb0;" horiz-adv-x="1910" 
d="M714 0v596q0 108 -51 155t-175 47q-76 0 -181 -37v-746q0 -224 -87 -345t-284 -121h-32v92h29q65 0 113 19.5t77 52t46 83.5t23 105t6 126v801q172 62 300 62q93 0 157.5 -19.5t100.5 -58.5t51 -88t15 -115v-18q106 144 254 230.5t297 86.5q230 0 365.5 -120t135.5 -311
q0 -119 -46.5 -220t-143.5 -165h226q8 0 12 -4q8 -10 8 -42q0 -33 -6 -40q-5 -6 -14 -6h-1196zM187 1036v133h139v-133h-139zM822 92h499q208 0 327 95t119 278q0 158 -106 254.5t-302 96.5q-155 0 -304 -106.5t-233 -265.5v-352z" />
    <glyph glyph-name="uni06350646.fina" unicode="&#xfebc;&#xfee6;" horiz-adv-x="2904" 
d="M1613 0v596q0 108 -51 155t-175 47q-129 0 -252 -39v-715q0 -115 -38 -202.5t-106 -139.5t-155 -77.5t-192 -25.5q-125 0 -225 31.5t-176.5 96.5t-118.5 174.5t-42 256.5q0 266 123 504l100 -39q-115 -221 -115 -463q0 -469 450 -469q191 0 289 92.5t98 260.5v784
q172 62 370 62q93 0 157.5 -19.5t100.5 -58.5t51 -88t15 -115v-18q105 144 253 230.5t297 86.5q230 0 366 -120t136 -311q0 -119 -46.5 -220t-143.5 -165h321q8 0 12 -4q8 -10 8 -42q0 -33 -6 -40q-4 -6 -14 -6h-1291zM589 1036v133h139v-133h-139zM1721 92h499
q208 0 326.5 95t118.5 278q0 158 -105.5 254.5t-301.5 96.5q-155 0 -303.5 -106t-233.5 -265v-353z" />
    <glyph glyph-name="uni06350649" unicode="&#xfebb;&#xfef0;" horiz-adv-x="2763" 
d="M641 -186q-270 0 -414.5 132.5t-144.5 361.5q0 66 24 177t61 195l100 -29q-34 -78 -55 -178t-21 -165q0 -192 114.5 -297t335.5 -105h364v922q170 62 299 62q94 0 158.5 -19.5t100 -58.5t50.5 -87.5t15 -115.5v-20q105 145 253.5 232t297.5 87q230 0 366 -120t136 -311
q0 -96 -30 -178.5t-93 -151t-174 -108t-260 -39.5h-604v596q0 109 -50.5 155.5t-174.5 46.5q-77 0 -182 -37v-947h-472zM1628 92h500q207 0 326 95t119 278q0 157 -106 254t-301 97q-155 0 -304.5 -106.5t-233.5 -265.5v-352z" />
    <glyph glyph-name="uni06350649.fina" unicode="&#xfebc;&#xfef0;" horiz-adv-x="2720" 
d="M1520 0v596q0 109 -50.5 155.5t-174.5 46.5q-77 0 -182 -37v-947h-472q-270 0 -414.5 132.5t-144.5 361.5q0 66 24 177t61 195l100 -29q-34 -78 -55 -178t-21 -165q0 -192 114.5 -297t335.5 -105h364v922q170 62 299 62q94 0 158.5 -19.5t100 -58.5t50.5 -87.5t15 -115.5
v-20q105 145 253.5 232t297.5 87q230 0 366 -120t136 -311q0 -120 -46.5 -220.5t-144.5 -164.5h230q8 0 12 -4q8 -10 8 -42q0 -33 -6 -40q-4 -6 -14 -6h-1200zM1628 92h500q207 0 326 95t119 278q0 157 -106 254t-301 97q-155 0 -304.5 -106.5t-233.5 -265.5v-352z" />
    <glyph glyph-name="uni0635064A" unicode="&#xfebb;&#xfef2;" horiz-adv-x="2763" 
d="M641 -186q-270 0 -414.5 132.5t-144.5 361.5q0 66 24 177t61 195l100 -29q-34 -78 -55 -178t-21 -165q0 -192 114.5 -297t335.5 -105h364v922q170 62 299 62q94 0 158.5 -19.5t100 -58.5t50.5 -87.5t15 -115.5v-20q105 145 253.5 232t297.5 87q230 0 366 -120t136 -311
q0 -96 -30 -178.5t-93 -151t-174 -108t-260 -39.5h-604v596q0 109 -50.5 155.5t-174.5 46.5q-77 0 -182 -37v-947h-472zM555 -469v133h135v-133h-135zM808 -469v133h135v-133h-135zM1628 92h500q207 0 326 95t119 278q0 157 -106 254t-301 97q-155 0 -304.5 -106.5
t-233.5 -265.5v-352z" />
    <glyph glyph-name="uni0635064A.fina" unicode="&#xfebc;&#xfef2;" horiz-adv-x="2720" 
d="M1520 0v596q0 109 -50.5 155.5t-174.5 46.5q-77 0 -182 -37v-947h-472q-270 0 -414.5 132.5t-144.5 361.5q0 66 24 177t61 195l100 -29q-34 -78 -55 -178t-21 -165q0 -192 114.5 -297t335.5 -105h364v922q170 62 299 62q94 0 158.5 -19.5t100 -58.5t50.5 -87.5t15 -115.5
v-20q105 145 253.5 232t297.5 87q230 0 366 -120t136 -311q0 -120 -46.5 -220.5t-144.5 -164.5h230q8 0 12 -4q8 -10 8 -42q0 -33 -6 -40q-4 -6 -14 -6h-1200zM555 -469v133h135v-133h-135zM808 -469v133h135v-133h-135zM1628 92h500q207 0 326 95t119 278q0 157 -106 254
t-301 97q-155 0 -304.5 -106.5t-233.5 -265.5v-352z" />
    <glyph glyph-name="uni06350626" unicode="&#xfebb;&#xfe8a;" horiz-adv-x="2763" 
d="M641 -186q-270 0 -414.5 132.5t-144.5 361.5q0 66 24 177t61 195l100 -29q-34 -78 -55 -178t-21 -165q0 -192 114.5 -297t335.5 -105h364v922q170 62 299 62q94 0 158.5 -19.5t100 -58.5t50.5 -87.5t15 -115.5v-20q105 145 253.5 232t297.5 87q230 0 366 -120t136 -311
q0 -96 -30 -178.5t-93 -151t-174 -108t-260 -39.5h-604v596q0 109 -50.5 155.5t-174.5 46.5q-77 0 -182 -37v-947h-472zM176 907q0 84 40 134.5t117 50.5h86v-69h-85q-40 0 -61 -29t-21 -80v-8h195v-70h-264q-7 48 -7 71zM1628 92h500q207 0 326 95t119 278q0 157 -106 254
t-301 97q-155 0 -304.5 -106.5t-233.5 -265.5v-352z" />
    <glyph glyph-name="uni06350626.fina" unicode="&#xfebc;&#xfe8a;" horiz-adv-x="2720" 
d="M1520 0v596q0 109 -50.5 155.5t-174.5 46.5q-77 0 -182 -37v-947h-472q-270 0 -414.5 132.5t-144.5 361.5q0 66 24 177t61 195l100 -29q-34 -78 -55 -178t-21 -165q0 -192 114.5 -297t335.5 -105h364v922q170 62 299 62q94 0 158.5 -19.5t100 -58.5t50.5 -87.5t15 -115.5
v-20q105 145 253.5 232t297.5 87q230 0 366 -120t136 -311q0 -120 -46.5 -220.5t-144.5 -164.5h230q8 0 12 -4q8 -10 8 -42q0 -33 -6 -40q-4 -6 -14 -6h-1200zM176 907q0 84 40 134.5t117 50.5h86v-69h-85q-40 0 -61 -29t-21 -80v-8h195v-70h-264q-7 48 -7 71zM1628 92h500
q207 0 326 95t119 278q0 157 -106 254t-301 97q-155 0 -304.5 -106.5t-233.5 -265.5v-352z" />
    <glyph glyph-name="uni06360631" unicode="&#xfebf;&#xfeae;" horiz-adv-x="1957" 
d="M714 0v596q0 108 -51 155t-175 47q-76 0 -181 -37v-746q0 -224 -87 -345t-284 -121h-32v92h29q65 0 113 19.5t77 52t46 83.5t23 105t6 126v801q172 62 300 62q93 0 157.5 -19.5t100.5 -58.5t51 -88t15 -115v-18q106 144 254 230.5t297 86.5q230 0 365.5 -120t135.5 -311
q0 -76 -18 -144t-59.5 -129.5t-104.5 -106t-158.5 -71t-215.5 -26.5h-604zM822 92h499q208 0 327 95t119 278q0 158 -106 254.5t-302 96.5q-155 0 -304 -106.5t-233 -265.5v-352zM1187 1036v133h139v-133h-139z" />
    <glyph glyph-name="uni06360631.fina" unicode="&#xfec0;&#xfeae;" horiz-adv-x="1910" 
d="M714 0v596q0 108 -51 155t-175 47q-76 0 -181 -37v-746q0 -224 -87 -345t-284 -121h-32v92h29q65 0 113 19.5t77 52t46 83.5t23 105t6 126v801q172 62 300 62q93 0 157.5 -19.5t100.5 -58.5t51 -88t15 -115v-18q106 144 254 230.5t297 86.5q230 0 365.5 -120t135.5 -311
q0 -119 -46.5 -220t-143.5 -165h226q8 0 12 -4q8 -10 8 -42q0 -33 -6 -40q-5 -6 -14 -6h-1196zM822 92h499q208 0 327 95t119 278q0 158 -106 254.5t-302 96.5q-155 0 -304 -106.5t-233 -265.5v-352zM1187 1036v133h139v-133h-139z" />
    <glyph glyph-name="uni06360632" unicode="&#xfebf;&#xfeb0;" horiz-adv-x="1957" 
d="M714 0v596q0 108 -51 155t-175 47q-76 0 -181 -37v-746q0 -224 -87 -345t-284 -121h-32v92h29q65 0 113 19.5t77 52t46 83.5t23 105t6 126v801q172 62 300 62q93 0 157.5 -19.5t100.5 -58.5t51 -88t15 -115v-18q106 144 254 230.5t297 86.5q230 0 365.5 -120t135.5 -311
q0 -76 -18 -144t-59.5 -129.5t-104.5 -106t-158.5 -71t-215.5 -26.5h-604zM187 1036v133h139v-133h-139zM822 92h499q208 0 327 95t119 278q0 158 -106 254.5t-302 96.5q-155 0 -304 -106.5t-233 -265.5v-352zM1187 1036v133h139v-133h-139z" />
    <glyph glyph-name="uni06360632.fina" unicode="&#xfec0;&#xfeb0;" horiz-adv-x="1910" 
d="M714 0v596q0 108 -51 155t-175 47q-76 0 -181 -37v-746q0 -224 -87 -345t-284 -121h-32v92h29q65 0 113 19.5t77 52t46 83.5t23 105t6 126v801q172 62 300 62q93 0 157.5 -19.5t100.5 -58.5t51 -88t15 -115v-18q106 144 254 230.5t297 86.5q230 0 365.5 -120t135.5 -311
q0 -119 -46.5 -220t-143.5 -165h226q8 0 12 -4q8 -10 8 -42q0 -33 -6 -40q-5 -6 -14 -6h-1196zM187 1036v133h139v-133h-139zM822 92h499q208 0 327 95t119 278q0 158 -106 254.5t-302 96.5q-155 0 -304 -106.5t-233 -265.5v-352zM1187 1036v133h139v-133h-139z" />
    <glyph glyph-name="uni06360646.fina" unicode="&#xfec0;&#xfee6;" horiz-adv-x="2904" 
d="M1613 0v596q0 108 -51 155t-175 47q-129 0 -252 -39v-715q0 -115 -38 -202.5t-106 -139.5t-155 -77.5t-192 -25.5q-125 0 -225 31.5t-176.5 96.5t-118.5 174.5t-42 256.5q0 266 123 504l100 -39q-115 -221 -115 -463q0 -469 450 -469q191 0 289 92.5t98 260.5v784
q172 62 370 62q93 0 157.5 -19.5t100.5 -58.5t51 -88t15 -115v-18q105 144 253 230.5t297 86.5q230 0 366 -120t136 -311q0 -119 -46.5 -220t-143.5 -165h321q8 0 12 -4q8 -10 8 -42q0 -33 -6 -40q-4 -6 -14 -6h-1291zM589 1036v133h139v-133h-139zM1721 92h499
q208 0 326.5 95t118.5 278q0 158 -105.5 254.5t-301.5 96.5q-155 0 -303.5 -106t-233.5 -265v-353zM2045 1032v133h139v-133h-139z" />
    <glyph glyph-name="uni06360649" unicode="&#xfebf;&#xfef0;" horiz-adv-x="2763" 
d="M641 -186q-270 0 -414.5 132.5t-144.5 361.5q0 66 24 177t61 195l100 -29q-34 -78 -55 -178t-21 -165q0 -192 114.5 -297t335.5 -105h364v922q170 62 299 62q94 0 158.5 -19.5t100 -58.5t50.5 -87.5t15 -115.5v-20q105 145 253.5 232t297.5 87q230 0 366 -120t136 -311
q0 -96 -30 -178.5t-93 -151t-174 -108t-260 -39.5h-604v596q0 109 -50.5 155.5t-174.5 46.5q-77 0 -182 -37v-947h-472zM1628 92h500q207 0 326 95t119 278q0 157 -106 254t-301 97q-155 0 -304.5 -106.5t-233.5 -265.5v-352zM1992 1036v133h139v-133h-139z" />
    <glyph glyph-name="uni06360649.fina" unicode="&#xfec0;&#xfef0;" horiz-adv-x="2720" 
d="M1520 0v596q0 109 -50.5 155.5t-174.5 46.5q-77 0 -182 -37v-947h-472q-270 0 -414.5 132.5t-144.5 361.5q0 66 24 177t61 195l100 -29q-34 -78 -55 -178t-21 -165q0 -192 114.5 -297t335.5 -105h364v922q170 62 299 62q94 0 158.5 -19.5t100 -58.5t50.5 -87.5t15 -115.5
v-20q105 145 253.5 232t297.5 87q230 0 366 -120t136 -311q0 -120 -46.5 -220.5t-144.5 -164.5h230q8 0 12 -4q8 -10 8 -42q0 -33 -6 -40q-4 -6 -14 -6h-1200zM1628 92h500q207 0 326 95t119 278q0 157 -106 254t-301 97q-155 0 -304.5 -106.5t-233.5 -265.5v-352z
M1992 1036v133h139v-133h-139z" />
    <glyph glyph-name="uni0636064A" unicode="&#xfebf;&#xfef2;" horiz-adv-x="2763" 
d="M641 -186q-270 0 -414.5 132.5t-144.5 361.5q0 66 24 177t61 195l100 -29q-34 -78 -55 -178t-21 -165q0 -192 114.5 -297t335.5 -105h364v922q170 62 299 62q94 0 158.5 -19.5t100 -58.5t50.5 -87.5t15 -115.5v-20q105 145 253.5 232t297.5 87q230 0 366 -120t136 -311
q0 -96 -30 -178.5t-93 -151t-174 -108t-260 -39.5h-604v596q0 109 -50.5 155.5t-174.5 46.5q-77 0 -182 -37v-947h-472zM555 -469v133h135v-133h-135zM808 -469v133h135v-133h-135zM1628 92h500q207 0 326 95t119 278q0 157 -106 254t-301 97q-155 0 -304.5 -106.5
t-233.5 -265.5v-352zM1992 1036v133h139v-133h-139z" />
    <glyph glyph-name="uni0636064A.fina" unicode="&#xfec0;&#xfef2;" horiz-adv-x="2720" 
d="M1520 0v596q0 109 -50.5 155.5t-174.5 46.5q-77 0 -182 -37v-947h-472q-270 0 -414.5 132.5t-144.5 361.5q0 66 24 177t61 195l100 -29q-34 -78 -55 -178t-21 -165q0 -192 114.5 -297t335.5 -105h364v922q170 62 299 62q94 0 158.5 -19.5t100 -58.5t50.5 -87.5t15 -115.5
v-20q105 145 253.5 232t297.5 87q230 0 366 -120t136 -311q0 -120 -46.5 -220.5t-144.5 -164.5h230q8 0 12 -4q8 -10 8 -42q0 -33 -6 -40q-4 -6 -14 -6h-1200zM555 -469v133h135v-133h-135zM808 -469v133h135v-133h-135zM1628 92h500q207 0 326 95t119 278q0 157 -106 254
t-301 97q-155 0 -304.5 -106.5t-233.5 -265.5v-352zM1992 1036v133h139v-133h-139z" />
    <glyph glyph-name="uni06360626" unicode="&#xfebf;&#xfe8a;" horiz-adv-x="2763" 
d="M641 -186q-270 0 -414.5 132.5t-144.5 361.5q0 66 24 177t61 195l100 -29q-34 -78 -55 -178t-21 -165q0 -192 114.5 -297t335.5 -105h364v922q170 62 299 62q94 0 158.5 -19.5t100 -58.5t50.5 -87.5t15 -115.5v-20q105 145 253.5 232t297.5 87q230 0 366 -120t136 -311
q0 -96 -30 -178.5t-93 -151t-174 -108t-260 -39.5h-604v596q0 109 -50.5 155.5t-174.5 46.5q-77 0 -182 -37v-947h-472zM176 907q0 84 40 134.5t117 50.5h86v-69h-85q-40 0 -61 -29t-21 -80v-8h195v-70h-264q-7 48 -7 71zM1628 92h500q207 0 326 95t119 278q0 157 -106 254
t-301 97q-155 0 -304.5 -106.5t-233.5 -265.5v-352zM1992 1036v133h139v-133h-139z" />
    <glyph glyph-name="uni06360626.fina" unicode="&#xfec0;&#xfe8a;" horiz-adv-x="2720" 
d="M1520 0v596q0 109 -50.5 155.5t-174.5 46.5q-77 0 -182 -37v-947h-472q-270 0 -414.5 132.5t-144.5 361.5q0 66 24 177t61 195l100 -29q-34 -78 -55 -178t-21 -165q0 -192 114.5 -297t335.5 -105h364v922q170 62 299 62q94 0 158.5 -19.5t100 -58.5t50.5 -87.5t15 -115.5
v-20q105 145 253.5 232t297.5 87q230 0 366 -120t136 -311q0 -120 -46.5 -220.5t-144.5 -164.5h230q8 0 12 -4q8 -10 8 -42q0 -33 -6 -40q-4 -6 -14 -6h-1200zM176 907q0 84 40 134.5t117 50.5h86v-69h-85q-40 0 -61 -29t-21 -80v-8h195v-70h-264q-7 48 -7 71zM1628 92h500
q207 0 326 95t119 278q0 157 -106 254t-301 97q-155 0 -304.5 -106.5t-233.5 -265.5v-352zM1992 1036v133h139v-133h-139z" />
    <glyph glyph-name="uni06460631.fina" unicode="&#xfee8;&#xfeae;" horiz-adv-x="1014" 
d="M-96 -451v92h29q65 0 113 19.5t77 52t46 83.5t23 105t6 126v801q172 62 370 62q93 0 157.5 -19.5t100.5 -58.5t51 -88t15 -115v-517h122q8 0 12 -4q8 -10 8 -42q0 -33 -6 -40q-5 -6 -14 -6h-230v596q0 108 -51 155t-175 47q-126 0 -251 -38v-745q0 -224 -87 -345
t-284 -121h-32zM580 1042v133h139v-133h-139z" />
    <glyph glyph-name="uni06460646.fina" unicode="&#xfee8;&#xfee6;" horiz-adv-x="1843" 
d="M644 -401q-125 0 -225 31.5t-176.5 96.5t-118.5 174.5t-42 256.5q0 266 123 504l100 -39q-115 -221 -115 -463q0 -469 450 -469q191 0 289 92.5t98 260.5v784q172 62 370 62q93 0 157.5 -19.5t100.5 -58.5t51 -88t15 -115v-517h122q8 0 12 -4q8 -10 8 -42q0 -33 -6 -40
q-5 -6 -14 -6h-230v596q0 108 -51 155t-175 47q-129 0 -252 -39v-715q0 -115 -38 -202.5t-106 -139.5t-155 -77.5t-192 -25.5zM596 1036v133h139v-133h-139zM1341 1042v133h139v-133h-139z" />
    <glyph glyph-name="uni06460649.fina" unicode="&#xfee8;&#xfef0;" horiz-adv-x="1821" 
d="M641 -186q-270 0 -414.5 132.5t-144.5 361.5q0 66 24 177t61 195l100 -29q-34 -78 -55 -178t-21 -165q0 -192 114.5 -297t335.5 -105h364v922q170 62 369 62q94 0 158.5 -19.5t100 -58.5t50.5 -87.5t15 -115.5v-517h123q8 0 12 -4q8 -10 8 -42q0 -33 -6 -40q-5 -6 -14 -6
h-231v596q0 109 -50.5 155.5t-174.5 46.5q-129 0 -252 -39v-945h-472zM1328 1042v133h139v-133h-139z" />
    <glyph glyph-name="uni0646064A.fina" unicode="&#xfee8;&#xfef2;" horiz-adv-x="1821" 
d="M641 -186q-270 0 -414.5 132.5t-144.5 361.5q0 66 24 177t61 195l100 -29q-34 -78 -55 -178t-21 -165q0 -192 114.5 -297t335.5 -105h364v922q170 62 369 62q94 0 158.5 -19.5t100 -58.5t50.5 -87.5t15 -115.5v-517h123q8 0 12 -4q8 -10 8 -42q0 -33 -6 -40q-5 -6 -14 -6
h-231v596q0 109 -50.5 155.5t-174.5 46.5q-129 0 -252 -39v-945h-472zM501 -469v133h135v-133h-135zM754 -469v133h135v-133h-135zM1328 1042v133h139v-133h-139z" />
    <glyph glyph-name="uni06460626.fina" unicode="&#xfee8;&#xfe8a;" horiz-adv-x="1821" 
d="M641 -186q-270 0 -414.5 132.5t-144.5 361.5q0 66 24 177t61 195l100 -29q-34 -78 -55 -178t-21 -165q0 -192 114.5 -297t335.5 -105h364v922q170 62 369 62q94 0 158.5 -19.5t100 -58.5t50.5 -87.5t15 -115.5v-517h123q8 0 12 -4q8 -10 8 -42q0 -33 -6 -40q-5 -6 -14 -6
h-231v596q0 109 -50.5 155.5t-174.5 46.5q-129 0 -252 -39v-945h-472zM195 907q0 84 40 134.5t117 50.5h86v-69h-85q-40 0 -61 -29t-21 -80v-8h195v-70h-264q-7 48 -7 71zM1328 1042v133h139v-133h-139z" />
    <glyph glyph-name="uni064A0631.fina" unicode="&#xfef4;&#xfeae;" horiz-adv-x="1014" 
d="M-96 -451v92h29q65 0 113 19.5t77 52t46 83.5t23 105t6 126v801q172 62 370 62q93 0 157.5 -19.5t100.5 -58.5t51 -88t15 -115v-517h122q8 0 12 -4q8 -10 8 -42q0 -33 -6 -40q-5 -6 -14 -6h-230v596q0 108 -51 155t-175 47q-126 0 -251 -38v-745q0 -224 -87 -345
t-284 -121h-32zM452 -333v133h135v-133h-135zM705 -333v133h135v-133h-135z" />
    <glyph glyph-name="uni064A0632.fina" unicode="&#xfef4;&#xfeb0;" horiz-adv-x="1014" 
d="M-96 -451v92h29q65 0 113 19.5t77 52t46 83.5t23 105t6 126v801q172 62 370 62q93 0 157.5 -19.5t100.5 -58.5t51 -88t15 -115v-517h122q8 0 12 -4q8 -10 8 -42q0 -33 -6 -40q-5 -6 -14 -6h-230v596q0 108 -51 155t-175 47q-126 0 -251 -38v-745q0 -224 -87 -345
t-284 -121h-32zM166 1042v133h139v-133h-139zM452 -333v133h135v-133h-135zM705 -333v133h135v-133h-135z" />
    <glyph glyph-name="uni064A0646.fina" unicode="&#xfef4;&#xfee6;" horiz-adv-x="1843" 
d="M644 -401q-125 0 -225 31.5t-176.5 96.5t-118.5 174.5t-42 256.5q0 266 123 504l100 -39q-115 -221 -115 -463q0 -469 450 -469q191 0 289 92.5t98 260.5v784q172 62 370 62q93 0 157.5 -19.5t100.5 -58.5t51 -88t15 -115v-517h122q8 0 12 -4q8 -10 8 -42q0 -33 -6 -40
q-5 -6 -14 -6h-230v596q0 108 -51 155t-175 47q-129 0 -252 -39v-715q0 -115 -38 -202.5t-106 -139.5t-155 -77.5t-192 -25.5zM596 1036v133h139v-133h-139zM1244 -333v133h135v-133h-135zM1497 -333v133h135v-133h-135z" />
    <glyph glyph-name="uni06260631.fina" unicode="&#xfe8c;&#xfeae;" horiz-adv-x="1014" 
d="M-96 -451v92h29q65 0 113 19.5t77 52t46 83.5t23 105t6 126v801q172 62 370 62q93 0 157.5 -19.5t100.5 -58.5t51 -88t15 -115v-517h122q8 0 12 -4q8 -10 8 -42q0 -33 -6 -40q-5 -6 -14 -6h-230v596q0 108 -51 155t-175 47q-126 0 -251 -38v-745q0 -224 -87 -345
t-284 -121h-32zM513 1115q0 84 40 134.5t117 50.5h86v-69h-85q-40 0 -61 -29t-21 -80v-8h195v-70h-264q-7 48 -7 71z" />
    <glyph glyph-name="uni06260632.fina" unicode="&#xfe8c;&#xfeb0;" horiz-adv-x="1014" 
d="M-96 -451v92h29q65 0 113 19.5t77 52t46 83.5t23 105t6 126v801q172 62 370 62q93 0 157.5 -19.5t100.5 -58.5t51 -88t15 -115v-517h122q8 0 12 -4q8 -10 8 -42q0 -33 -6 -40q-5 -6 -14 -6h-230v596q0 108 -51 155t-175 47q-126 0 -251 -38v-745q0 -224 -87 -345
t-284 -121h-32zM166 1042v133h139v-133h-139zM513 1115q0 84 40 134.5t117 50.5h86v-69h-85q-40 0 -61 -29t-21 -80v-8h195v-70h-264q-7 48 -7 71z" />
    <glyph glyph-name="uni06260646.fina" unicode="&#xfe8c;&#xfee6;" horiz-adv-x="1843" 
d="M644 -401q-125 0 -225 31.5t-176.5 96.5t-118.5 174.5t-42 256.5q0 266 123 504l100 -39q-115 -221 -115 -463q0 -469 450 -469q191 0 289 92.5t98 260.5v784q172 62 370 62q93 0 157.5 -19.5t100.5 -58.5t51 -88t15 -115v-517h122q8 0 12 -4q8 -10 8 -42q0 -33 -6 -40
q-5 -6 -14 -6h-230v596q0 108 -51 155t-175 47q-129 0 -252 -39v-715q0 -115 -38 -202.5t-106 -139.5t-155 -77.5t-192 -25.5zM596 1036v133h139v-133h-139zM1274 1115q0 84 40 134.5t117 50.5h86v-69h-85q-40 0 -61 -29t-21 -80v-8h195v-70h-264q-7 48 -7 71z" />
    <glyph glyph-name="uni06260649.fina" unicode="&#xfe8c;&#xfef0;" horiz-adv-x="1821" 
d="M641 -186q-270 0 -414.5 132.5t-144.5 361.5q0 66 24 177t61 195l100 -29q-34 -78 -55 -178t-21 -165q0 -192 114.5 -297t335.5 -105h364v922q170 62 369 62q94 0 158.5 -19.5t100 -58.5t50.5 -87.5t15 -115.5v-517h123q8 0 12 -4q8 -10 8 -42q0 -33 -6 -40q-5 -6 -14 -6
h-231v596q0 109 -50.5 155.5t-174.5 46.5q-129 0 -252 -39v-945h-472zM1262 1115q0 84 40 134.5t117 50.5h86v-69h-85q-40 0 -61 -29t-21 -80v-8h195v-70h-264q-7 48 -7 71z" />
    <glyph glyph-name="uni0626064A.fina" unicode="&#xfe8c;&#xfef2;" horiz-adv-x="1821" 
d="M641 -186q-270 0 -414.5 132.5t-144.5 361.5q0 66 24 177t61 195l100 -29q-34 -78 -55 -178t-21 -165q0 -192 114.5 -297t335.5 -105h364v922q170 62 369 62q94 0 158.5 -19.5t100 -58.5t50.5 -87.5t15 -115.5v-517h123q8 0 12 -4q8 -10 8 -42q0 -33 -6 -40q-5 -6 -14 -6
h-231v596q0 109 -50.5 155.5t-174.5 46.5q-129 0 -252 -39v-945h-472zM501 -469v133h135v-133h-135zM754 -469v133h135v-133h-135zM1262 1115q0 84 40 134.5t117 50.5h86v-69h-85q-40 0 -61 -29t-21 -80v-8h195v-70h-264q-7 48 -7 71z" />
    <glyph glyph-name="uni06260626.fina" unicode="&#xfe8c;&#xfe8a;" horiz-adv-x="1821" 
d="M641 -186q-270 0 -414.5 132.5t-144.5 361.5q0 66 24 177t61 195l100 -29q-34 -78 -55 -178t-21 -165q0 -192 114.5 -297t335.5 -105h364v922q170 62 369 62q94 0 158.5 -19.5t100 -58.5t50.5 -87.5t15 -115.5v-517h123q8 0 12 -4q8 -10 8 -42q0 -33 -6 -40q-5 -6 -14 -6
h-231v596q0 109 -50.5 155.5t-174.5 46.5q-129 0 -252 -39v-945h-472zM195 907q0 84 40 134.5t117 50.5h86v-69h-85q-40 0 -61 -29t-21 -80v-8h195v-70h-264q-7 48 -7 71zM1262 1115q0 84 40 134.5t117 50.5h86v-69h-85q-40 0 -61 -29t-21 -80v-8h195v-70h-264q-7 48 -7 71z
" />
    <glyph glyph-name="uni064A.init" unicode="&#x64a;" horiz-adv-x="564" arabic-form="initial" 
d="M0 0q-9 0 -14 6q-6 7 -6 40q0 32 8 42q4 4 12 4h153q158 0 158 200v578h107v-589q0 -135 -63 -208t-180 -73h-175zM62 -333v133h135v-133h-135zM315 -333v133h135v-133h-135z" />
    <glyph glyph-name="uni066E.init" unicode="&#x66e;" horiz-adv-x="564" 
d="M0 0q-9 0 -14 6q-6 7 -6 40q0 32 8 42q4 4 12 4h153q158 0 158 200v578h107v-589q0 -135 -63 -208t-180 -73h-175z" />
    <glyph glyph-name="uni066E.medi" unicode="&#x66e;" horiz-adv-x="677" 
d="M0 0q-9 0 -14 6q-6 7 -6 40q0 32 8 42q4 4 12 4h153q158 0 158 200v578h107v-585q0 -93 33.5 -143t95.5 -50h129v-92h-126q-118 0 -173 103q-61 -103 -202 -103h-175zM677 0v92q8 0 12 -4q8 -10 8 -42q0 -33 -6 -40q-5 -6 -14 -6z" />
    <glyph glyph-name="uni066E.fina" unicode="&#x66e;" horiz-adv-x="1881" 
d="M554 0q-107 0 -187 31t-127.5 86.5t-70.5 126.5t-23 157v281h108v-273q0 -308 307 -308h811q161 0 161 181v588h107v-585q0 -93 33.5 -143t95.5 -50h129v-92h-126q-118 0 -173 103q-64 -103 -217 -103h-828z" />
    <glyph glyph-name="uni066F.fina" unicode="&#x66f;" horiz-adv-x="1451" 
d="M676 -443q-279 0 -430.5 122t-159.5 344q-9 86 22 227l102 -22q-26 -114 -21 -180q4 -190 127 -294.5t360 -104.5h511v351h-260q-238 0 -363 116t-125 321q0 102 31.5 181t79.5 125.5t112.5 76.5t124 41t120.5 11q84 0 175 -21.5t135.5 -39.5t77.5 -35v-684h156
q8 0 12 -4q8 -10 8 -42q0 -33 -6 -40q-5 -6 -14 -6h-156v-443h-619zM546 431q0 -158 100.5 -248.5t285.5 -90.5h255v622q-143 66 -278 66q-162 0 -262.5 -93.5t-100.5 -255.5z" />
    <glyph glyph-name="uni06A1.init" unicode="&#x6a1;" horiz-adv-x="1119" 
d="M0 0q-9 0 -14 6q-6 7 -6 40q0 32 8 42q4 4 12 4h275q-157 115 -157 345q0 83 21.5 151.5t59.5 114.5t85 80.5t102 53t106.5 27.5t102.5 9q88 0 176 -22t132 -42t70 -37v-772h-973zM225 431q0 -158 100 -248.5t285 -90.5h256v624q-135 65 -272 65q-165 0 -267 -95
t-102 -255z" />
    <glyph glyph-name="uni06A1.medi" unicode="&#x6a1;" horiz-adv-x="1117" 
d="M0 0q-9 0 -14 6q-6 7 -6 40q0 32 8 42q4 4 12 4h275q-157 115 -157 345q0 83 21.5 151.5t59.5 114.5t85 80.5t102 53t106.5 27.5t102.5 9q88 0 176 -22t132 -42t70 -37v-680h144q8 0 12 -4q8 -10 8 -42q0 -33 -6 -40q-5 -6 -14 -6h-1117zM225 431q0 -158 100 -248.5
t285 -90.5h256v624q-135 65 -272 65q-165 0 -267 -95t-102 -255z" />
    <glyph glyph-name="uni06A1.fina" unicode="&#x6a1;" horiz-adv-x="1778" 
d="M564 0q-108 0 -189.5 32.5t-130.5 90.5t-73.5 133t-24.5 165v261h108v-261q0 -159 79 -244t231 -85h367q-157 115 -157 345q0 83 21.5 151.5t59.5 114.5t85 80.5t102 53t106.5 27.5t102.5 9q88 0 176 -22t132 -42t70 -37v-680h149q8 0 12 -4q8 -10 8 -42q0 -33 -6 -40
q-5 -6 -14 -6h-1214zM881 431q0 -158 100 -248.5t285 -90.5h256v624q-135 65 -272 65q-165 0 -267 -95t-102 -255z" />
    <glyph glyph-name="uni06C2.fina" unicode="&#x6c2;" horiz-adv-x="1131" 
d="M570 0q-238 0 -363 115t-125 320q0 99 30.5 177.5t78 125.5t111.5 78t124.5 42.5t123.5 11.5q85 0 175.5 -21.5t135 -40t76.5 -35.5v-681h138q8 0 12 -4q8 -10 8 -42q0 -33 -6 -40q-5 -6 -14 -6h-505zM190 429q0 -158 98 -247.5t287 -89.5h255v620q-140 67 -278 67
q-161 0 -261.5 -93t-100.5 -257zM422 1108q0 84 40 134.5t117 50.5h86v-69h-85q-40 0 -61 -29t-21 -80v-8h195v-70h-264q-7 48 -7 71z" />
    <glyph glyph-name="uni06C3.fina" unicode="&#x6c3;" horiz-adv-x="1075" 
d="M570 0q-238 0 -363 115t-125 320q0 99 30.5 177.5t78 125.5t111.5 78t124.5 42.5t123.5 11.5q85 0 175.5 -21.5t135 -40t76.5 -35.5v-681h138q8 0 12 -4q8 -10 8 -42q0 -33 -6 -40q-5 -6 -14 -6h-505zM190 429q0 -158 98 -247.5t287 -89.5h255v620q-140 67 -278 67
q-161 0 -261.5 -93t-100.5 -257zM358 1036v133h135v-133h-135zM611 1036v133h135v-133h-135z" />
    <glyph glyph-name="uni0671.fina" unicode="&#x671;" horiz-adv-x="459" arabic-form="final" 
d="M146 0v1296h108v-1204h205q8 0 12 -4q8 -10 8 -42q0 -33 -6 -40q-5 -6 -14 -6h-313zM24 1432v57h50v170h72v-36q50 43 114 43q46 0 78.5 -27.5t32.5 -83.5q0 -45 -26.5 -74.5t-56 -39t-58.5 -9.5h-206zM146 1489h75q34 0 57.5 20t23.5 49q0 22 -15.5 36.5t-45.5 14.5
q-48 0 -95 -49v-71z" />
    <glyph glyph-name="uni067E.fina" unicode="&#x67e;" horiz-adv-x="1877" arabic-form="final" 
d="M554 0q-107 0 -187 31t-127.5 86.5t-70.5 126.5t-23 157v281h108v-273q0 -308 307 -308h811q161 0 161 181v588h107v-585q0 -93 33.5 -143t95.5 -50h129v-92h-126q-118 0 -173 103q-64 -103 -217 -103h-828zM702 -288v131h135v-131h-135zM826 -493v130h136v-130h-136z
M952 -288v131h135v-131h-135z" />
    <glyph glyph-name="uni067E.init" unicode="&#x67e;" horiz-adv-x="560" arabic-form="initial" 
d="M0 0q-9 0 -14 6q-6 7 -6 40q0 32 8 42q4 4 12 4h153q158 0 158 200v578h107v-589q0 -135 -63 -208t-180 -73h-175zM62 -331v131h135v-131h-135zM186 -536v130h136v-130h-136zM312 -331v131h135v-131h-135z" />
    <glyph glyph-name="uni067E.medi" unicode="&#x67e;" horiz-adv-x="670" arabic-form="medial" 
d="M0 0q-9 0 -14 6q-6 7 -6 40q0 32 8 42q4 4 12 4h153q158 0 158 200v578h107v-585q0 -93 33.5 -143t95.5 -50h129v-92h-126q-118 0 -173 103q-61 -103 -202 -103h-175zM62 -331v131h135v-131h-135zM186 -536v130h136v-130h-136zM312 -331v131h135v-131h-135zM677 0v92
q8 0 12 -4q8 -10 8 -42q0 -33 -6 -40q-5 -6 -14 -6z" />
    <glyph glyph-name="uni0679.fina" unicode="&#x679;" horiz-adv-x="1881" arabic-form="final" 
d="M554 0q-107 0 -187 31t-127.5 86.5t-70.5 126.5t-23 157v281h108v-273q0 -308 307 -308h811q161 0 161 181v588h107v-585q0 -93 33.5 -143t95.5 -50h129v-92h-126q-118 0 -173 103q-64 -103 -217 -103h-828zM729 1072v57h50v284h72v-150q50 43 114 43q46 0 78.5 -27.5
t32.5 -83.5q0 -45 -26.5 -74.5t-56 -39t-58.5 -9.5h-206zM851 1129h75q34 0 57.5 20t23.5 49q0 22 -15.5 36.5t-45.5 14.5q-48 0 -95 -49v-71z" />
    <glyph glyph-name="uni0679.init" unicode="&#x679;" horiz-adv-x="564" arabic-form="initial" 
d="M0 0q-9 0 -14 6q-6 7 -6 40q0 32 8 42q4 4 12 4h153q158 0 158 200v578h107v-589q0 -135 -63 -208t-180 -73h-175zM197 1072v57h50v284h72v-150q50 43 114 43q46 0 78.5 -27.5t32.5 -83.5q0 -45 -26.5 -74.5t-56 -39t-58.5 -9.5h-206zM319 1129h75q34 0 57.5 20t23.5 49
q0 22 -15.5 36.5t-45.5 14.5q-48 0 -95 -49v-71z" />
    <glyph glyph-name="uni0679.medi" unicode="&#x679;" horiz-adv-x="677" arabic-form="medial" 
d="M0 0q-9 0 -14 6q-6 7 -6 40q0 32 8 42q4 4 12 4h153q158 0 158 200v578h107v-585q0 -93 33.5 -143t95.5 -50h129v-92h-126q-118 0 -173 103q-61 -103 -202 -103h-175zM197 1072v57h50v284h72v-150q50 43 114 43q46 0 78.5 -27.5t32.5 -83.5q0 -45 -26.5 -74.5t-56 -39
t-58.5 -9.5h-206zM319 1129h75q34 0 57.5 20t23.5 49q0 22 -15.5 36.5t-45.5 14.5q-48 0 -95 -49v-71zM677 0v92q8 0 12 -4q8 -10 8 -42q0 -33 -6 -40q-5 -6 -14 -6z" />
    <glyph glyph-name="uni06A4.fina" unicode="&#x6a4;" horiz-adv-x="1778" arabic-form="final" 
d="M564 0q-108 0 -189.5 32.5t-130.5 90.5t-73.5 133t-24.5 165v261h108v-261q0 -159 79 -244t231 -85h367q-157 115 -157 345q0 83 21.5 151.5t59.5 114.5t85 80.5t102 53t106.5 27.5t102.5 9q88 0 176 -22t132 -42t70 -37v-680h149q8 0 12 -4q8 -10 8 -42q0 -33 -6 -40
q-5 -6 -14 -6h-1214zM881 431q0 -158 100 -248.5t285 -90.5h256v624q-135 65 -272 65q-165 0 -267 -95t-102 -255zM1052 1037v131h136v-131h-136zM1177 1243v130h135v-130h-135zM1303 1037v131h135v-131h-135z" />
    <glyph glyph-name="uni06A4.init" unicode="&#x6a4;" horiz-adv-x="1099" arabic-form="initial" 
d="M0 0q-9 0 -14 6q-6 7 -6 40q0 32 8 42q4 4 12 4h275q-157 115 -157 345q0 83 21.5 151.5t59.5 114.5t85 80.5t102 53t106.5 27.5t102.5 9q88 0 176 -22t132 -42t70 -37v-772h-973zM225 431q0 -158 100 -248.5t285 -90.5h256v624q-135 65 -272 65q-165 0 -267 -95
t-102 -255zM397 1037v131h135v-131h-135zM521 1243v130h135v-130h-135zM647 1037v131h135v-131h-135z" />
    <glyph glyph-name="uni06A4.medi" unicode="&#x6a4;" horiz-adv-x="1117" arabic-form="medial" 
d="M0 0q-9 0 -14 6q-6 7 -6 40q0 32 8 42q4 4 12 4h275q-157 115 -157 345q0 83 21.5 151.5t59.5 114.5t85 80.5t102 53t106.5 27.5t102.5 9q88 0 176 -22t132 -42t70 -37v-680h144q8 0 12 -4q8 -10 8 -42q0 -33 -6 -40q-5 -6 -14 -6h-1117zM225 431q0 -158 100 -248.5
t285 -90.5h256v624q-135 65 -272 65q-165 0 -267 -95t-102 -255zM397 1037v131h135v-131h-135zM521 1243v130h135v-130h-135zM647 1037v131h135v-131h-135z" />
    <glyph glyph-name="uni0686.fina" unicode="&#x686;" horiz-adv-x="1123" arabic-form="final" 
d="M208 0q-21 -59 -21 -123q-1 -112 94.5 -170.5t281.5 -57.5l-12 -89q-469 8 -469 323q0 136 59 209h735q31 121 31 260q0 231 -96 339t-302 108q-137 0 -289 -62l-35 82q177 71 323 71q505 0 505 -540q0 -132 -30 -258h140q8 0 12 -4q8 -10 8 -42q0 -33 -6 -40
q-5 -6 -14 -6h-915zM657 -293v130h134v-130h-134zM780 -497v129h135v-129h-135zM905 -293v130h134v-130h-134z" />
    <glyph glyph-name="uni0686.init" unicode="&#x686;" horiz-adv-x="1023" arabic-form="initial" 
d="M0 92h803q30 112 30 260q0 229 -98.5 337.5t-302.5 108.5q-132 0 -292 -69l-43 82q180 79 332 79q133 0 232 -38.5t159.5 -111t90 -170t29.5 -220.5q0 -186 -47 -350h-893q-9 0 -14 6q-6 7 -6 40q0 32 8 42q4 4 12 4zM327 -281v131h135v-131h-135zM451 -486v130h136v-130
h-136zM578 -281v131h135v-131h-135z" />
    <glyph glyph-name="uni0686.medi" unicode="&#x686;" horiz-adv-x="1092" arabic-form="medial" 
d="M0 0q-9 0 -14 6q-6 7 -6 40q0 32 8 42q4 4 12 4h803q30 112 30 260q0 229 -98.5 337.5t-302.5 108.5q-132 0 -292 -69l-43 82q180 79 332 79q133 0 232 -38.5t159.5 -111t90 -170t29.5 -220.5q0 -137 -25 -258h177q8 0 12 -4q8 -10 8 -42q0 -33 -6 -40q-4 -6 -14 -6
h-1092zM252 -324v131h136v-131h-136zM377 -529v130h135v-130h-135zM503 -324v131h135v-131h-135z" />
    <glyph glyph-name="uni0688.fina" unicode="&#x688;" horiz-adv-x="932" arabic-form="final" 
d="M83 0v92h590q29 116 29 260q0 229 -96.5 337.5t-300.5 108.5q-66 0 -129 -15l-23 88q75 19 157 19q132 0 229.5 -38.5t156 -111t86.5 -169.5t28 -221q0 -132 -26 -258h148q8 0 12 -4q8 -10 8 -42q0 -33 -6 -40q-4 -6 -14 -6h-849zM196 1072v57h50v284h72v-150
q50 43 114 43q46 0 78.5 -27.5t32.5 -83.5q0 -45 -26.5 -74.5t-56 -39t-58.5 -9.5h-206zM318 1129h75q34 0 57.5 20t23.5 49q0 22 -15.5 36.5t-45.5 14.5q-48 0 -95 -49v-71z" />
    <glyph glyph-name="uni0698.fina" unicode="&#x698;" horiz-adv-x="471" arabic-form="final" 
d="M-96 -451v92h29q65 0 113 19.5t77 52t46 83.5t23 105t6 126v860h109v-795h149q8 0 12 -4q8 -10 8 -42q0 -33 -6 -40q-4 -6 -14 -6h-149q-8 -451 -371 -451h-32zM64 1037v131h135v-131h-135zM188 1243v130h135v-130h-135zM314 1037v131h135v-131h-135z" />
    <glyph glyph-name="uni0691.fina" unicode="&#x691;" horiz-adv-x="456" arabic-form="final" 
d="M-96 -451v92h29q65 0 113 19.5t77 52t46 83.5t23 105t6 126v860h109v-795h149q8 0 12 -4q8 -10 8 -42q0 -33 -6 -40q-4 -6 -14 -6h-149q-8 -451 -371 -451h-32zM86 1072v57h50v284h72v-150q50 43 114 43q46 0 78.5 -27.5t32.5 -83.5q0 -45 -26.5 -74.5t-56 -39
t-58.5 -9.5h-206zM208 1129h75q34 0 57.5 20t23.5 49q0 22 -15.5 36.5t-45.5 14.5q-48 0 -95 -49v-71z" />
    <glyph glyph-name="uni06A9.fina" unicode="&#x6a9;" horiz-adv-x="1546" arabic-form="final" 
d="M641 0q-270 0 -414.5 132.5t-144.5 361.5q0 74 25 187l107 -22q-23 -98 -23 -165q0 -192 114.5 -297t335.5 -105h622v10q0 162 -47.5 292.5t-128.5 213t-185.5 127t-222.5 44.5h-98v111l391 572l89 -56l-365 -533q149 0 275.5 -58.5t213 -160.5t135 -244.5t48.5 -307.5
v-10h178q8 0 12 -4q8 -10 8 -42q0 -33 -6 -40q-4 -6 -14 -6h-905z" />
    <glyph glyph-name="uni06A9.init" unicode="&#x6a9;" horiz-adv-x="962" arabic-form="initial" 
d="M0 0q-9 0 -14 6q-6 7 -6 40q0 32 8 42q4 4 12 4h772v10q0 179 -45.5 313t-126.5 211.5t-182.5 115t-224.5 37.5h-98v111l389 572l89 -56l-365 -533q166 0 295.5 -56.5t211 -159.5t123.5 -243t42 -312q0 -27 -6 -102h-874z" />
    <glyph glyph-name="uni06A9.medi" unicode="&#x6a9;" horiz-adv-x="1146" arabic-form="medial" 
d="M0 0q-9 0 -14 6q-6 7 -6 40q0 32 8 42q4 4 12 4h772v10q0 179 -45.5 313t-126.5 211.5t-182.5 115t-224.5 37.5h-98v111l389 572l89 -56l-365 -533q166 0 295.5 -56.5t211 -159.5t123.5 -243t42 -312v-10h113q8 0 12 -4q8 -10 8 -42q0 -33 -6 -40q-5 -6 -14 -6h-993z" />
    <glyph glyph-name="uni06AF.fina" unicode="&#x6af;" horiz-adv-x="1546" arabic-form="final" 
d="M641 0q-270 0 -414.5 132.5t-144.5 361.5q0 74 25 187l107 -22q-23 -98 -23 -165q0 -192 114.5 -297t335.5 -105h622v10q0 162 -47.5 292.5t-128.5 213t-185.5 127t-222.5 44.5h-98v111l391 572l89 -56l-365 -533q149 0 275.5 -58.5t213 -160.5t135 -244.5t48.5 -307.5
v-10h178q8 0 12 -4q8 -10 8 -42q0 -33 -6 -40q-4 -6 -14 -6h-905zM415 1026l366 534l69 -49l-365 -534z" />
    <glyph glyph-name="uni06AF.init" unicode="&#x6af;" horiz-adv-x="962" arabic-form="initial" 
d="M34 970l-69 49l365 534l70 -49zM-20 46q0 32 8 42q4 4 12 4h772v10q0 179 -45.5 313t-126.5 211.5t-182.5 115t-224.5 37.5h-98v111l389 572l89 -56l-365 -533q166 0 295.5 -56.5t211 -159.5t123.5 -243t42 -312q0 -27 -6 -102h-874q-9 0 -14 6q-6 7 -6 40z" />
    <glyph glyph-name="uni06AF.medi" unicode="&#x6af;" horiz-adv-x="1145" arabic-form="medial" 
d="M21 977l-70 49l366 534l70 -49zM-21 46q0 32 8 42q4 4 12 4h772v10q0 179 -45.5 313t-126.5 211.5t-182.5 115t-224.5 37.5h-98v111l389 572l89 -56l-365 -533q166 0 295.5 -56.5t211 -159.5t123.5 -243t42 -312v-10h113v-92h-993q-9 0 -14 6q-6 7 -6 40zM993 0v92
q8 0 12 -4q8 -10 8 -42q0 -33 -6 -40q-5 -6 -14 -6z" />
    <glyph glyph-name="uni06BA.fina" unicode="&#x6ba;" horiz-adv-x="1306" arabic-form="final" 
d="M644 -401q-125 0 -225 31.5t-176.5 96.5t-118.5 174.5t-42 256.5q0 266 123 504l100 -39q-115 -221 -115 -463q0 -469 450 -469q191 0 289 92.5t98 260.5v826h108v-778h171q8 0 12 -4q8 -10 8 -42q0 -33 -6 -40q-4 -6 -14 -6h-172q-7 -104 -48 -182.5t-107.5 -125.5
t-150.5 -70t-184 -23z" />
    <glyph glyph-name="uni06C1.fina" unicode="&#x6c1;" horiz-adv-x="1075" arabic-form="final" 
d="M570 0q-238 0 -363 115t-125 320q0 99 30.5 177.5t78 125.5t111.5 78t124.5 42.5t123.5 11.5q85 0 175.5 -21.5t135 -40t76.5 -35.5v-681h138q8 0 12 -4q8 -10 8 -42q0 -33 -6 -40q-5 -6 -14 -6h-505zM190 429q0 -158 98 -247.5t287 -89.5h255v620q-140 67 -278 67
q-161 0 -261.5 -93t-100.5 -257z" />
    <glyph glyph-name="uni06C1.init" unicode="&#x6c1;" horiz-adv-x="564" arabic-form="initial" 
d="M0 0q-9 0 -14 6q-6 7 -6 40q0 32 8 42q4 4 12 4h153q158 0 158 200v578h107v-589q0 -135 -63 -208t-180 -73h-175zM72 -562q69 254 174 481h73q-79 -293 -109 -502h-126z" />
    <glyph glyph-name="uni06C1.medi" unicode="&#x6c1;" horiz-adv-x="1017" arabic-form="medial" 
d="M492 -451q-46 0 -96.5 10t-76.5 18.5t-90 30.5v392h-229q-9 0 -14 6q-6 7 -6 40q0 32 8 42q4 4 12 4h337v-414q101 -36 169 -36q173 0 173 212v238h338q8 0 12 -4q8 -10 8 -42q0 -33 -6 -40q-5 -6 -14 -6h-232v-134q-10 -317 -293 -317z" />
    <glyph glyph-name="uni06BE.fina" unicode="&#x6be;" horiz-adv-x="1748" arabic-form="final" 
d="M54 0v92h340q-135 102 -135 324q0 75 22.5 137t59.5 105t87.5 75t102 49.5t108.5 26.5q66 100 182 172t265 72q129 0 231 -44t165.5 -121.5t96 -178.5t32.5 -220v-397h137q8 0 12 -4q8 -10 8 -42q0 -33 -6 -40q-5 -6 -14 -6h-1694zM366 416q0 -168 96.5 -246t288.5 -78
h256v573q-135 65 -272 65q-164 0 -266.5 -87.5t-102.5 -226.5zM752 816q84 -2 168.5 -24t126 -41t67.5 -36v-623h389v405q0 98 -24.5 181t-73.5 148t-130.5 101.5t-187.5 36.5q-105 0 -193 -43t-142 -105z" />
    <glyph glyph-name="uni06BE.init" unicode="&#x6be;" horiz-adv-x="1639" arabic-form="initial" 
d="M0 0q-9 0 -14 6q-6 7 -6 40q0 32 8 42q4 4 12 4h339q-135 102 -135 324q0 92 33.5 165t90.5 118t121 71.5t136 37.5q65 100 181.5 172.5t265.5 72.5q129 0 231 -44t165.5 -121.5t96 -178.5t32.5 -220v-489h-1557zM312 416q0 -168 96.5 -246t288.5 -78h255v573
q-135 65 -271 65q-164 0 -266.5 -87.5t-102.5 -226.5zM697 816q85 -2 169.5 -24t126 -41t67.5 -36v-623h389v405q0 98 -24.5 181t-73.5 148t-130.5 101.5t-187.5 36.5q-105 0 -193 -43t-143 -105z" />
    <glyph glyph-name="uni06BE.medi" unicode="&#x6be;" horiz-adv-x="1430" arabic-form="medial" 
d="M0 0q-9 0 -14 6q-6 7 -6 40q0 32 8 42q4 4 12 4h339q-135 102 -135 324q0 92 33.5 165t90.5 118t121 71.5t136 37.5q65 100 181.5 172.5t265.5 72.5q129 0 231 -44t165.5 -121.5t96 -178.5t32.5 -220v-489h-1557zM312 416q0 -168 96.5 -246t288.5 -78h255v573
q-135 65 -271 65q-164 0 -266.5 -87.5t-102.5 -226.5zM697 816q85 -2 169.5 -24t126 -41t67.5 -36v-623h389v405q0 98 -24.5 181t-73.5 148t-130.5 101.5t-187.5 36.5q-105 0 -193 -43t-143 -105z" />
    <glyph glyph-name="uni06D2.fina" unicode="&#x6d2;" horiz-adv-x="1254" arabic-form="final" 
d="M216 -442q-70 133 -70 256q0 155 74.5 217t216.5 62l817 -1q8 0 12 -4q8 -10 8 -42q0 -33 -6 -40q-4 -6 -14 -6l-817 1q-103 0 -143 -41t-40 -147q0 -77 36 -163h699l-17 -92h-756z" />
    <glyph glyph-name="uni06D3.fina" unicode="&#x6d3;" horiz-adv-x="1254" arabic-form="final" 
d="M216 -442q-70 133 -70 256q0 155 74.5 217t216.5 62l817 -1q8 0 12 -4q8 -10 8 -42q0 -33 -6 -40q-4 -6 -14 -6l-817 1q-103 0 -143 -41t-40 -147q0 -77 36 -163h699l-17 -92h-756zM409 326q0 84 40 134.5t117 50.5h86v-69h-85q-40 0 -61 -29t-21 -80v-8h195v-70h-264
q-7 48 -7 71z" />
    <glyph glyph-name="uni06CC.fina" unicode="&#x6cc;" horiz-adv-x="1728" arabic-form="final" 
d="M1454 0v575q0 116 -47 169.5t-146 53.5q-64 0 -148 -31v-953h-472q-270 0 -414.5 132.5t-144.5 361.5q0 66 24 177t61 195l100 -29q-34 -78 -55 -178t-21 -165q0 -192 114.5 -297t335.5 -105h364v925q4 1 25.5 9t26 9.5l24 8t25.5 8t23.5 6.5t26 6.5t24.5 4.5t27.5 4
t26.5 2t30 1q152 0 225 -83.5t73 -231.5v-483h166q8 0 12 -4q8 -10 8 -42q0 -33 -6 -40q-4 -6 -14 -6h-274z" />
    <glyph glyph-name="uni06CC.init" unicode="&#x6cc;" horiz-adv-x="564" arabic-form="initial" 
d="M0 0q-9 0 -14 6q-6 7 -6 40q0 32 8 42q4 4 12 4h153q158 0 158 200v578h107v-589q0 -135 -63 -208t-180 -73h-175zM62 -333v133h135v-133h-135zM315 -333v133h135v-133h-135z" />
    <glyph glyph-name="uni06CC.medi" unicode="&#x6cc;" horiz-adv-x="677" arabic-form="medial" 
d="M0 0q-9 0 -14 6q-6 7 -6 40q0 32 8 42q4 4 12 4h153q158 0 158 200v578h107v-585q0 -93 33.5 -143t95.5 -50h129v-92h-126q-118 0 -173 103q-61 -103 -202 -103h-175zM62 -333v133h135v-133h-135zM315 -333v133h135v-133h-135zM677 0v92q8 0 12 -4q8 -10 8 -42
q0 -33 -6 -40q-5 -6 -14 -6z" />
    <glyph glyph-name="uniFDFA" unicode="&#xfdfa;" horiz-adv-x="2399" arabic-form="isolated" 
d="M673 79q-7 46 18.5 78t71.5 38q8 41 41.5 71t89.5 30q63 0 98 -39t35 -84v-79h94v362h54v-362h96v197h53v-197h51q38 0 38 44v153h54v-162q0 -47 44 -47t44 50v159h54v-159q0 -43 -24 -69t-72 -26q-51 0 -75 31q-23 -18 -59 -18h-485q-56 0 -88.5 29t-41.5 69
q-44 -9 -38 -62l22 -161h-54zM150 534q0 45 23.5 73.5t51.5 37.5t59 9q55 0 115 -27v-169h75q41 0 41 52v144h54v-145q0 -51 34 -51h89v361h54v-361h121q-31 28 -31 79q0 52 36.5 87.5t89.5 35.5q55 0 106 -26l-21 -40q-42 23 -83 21q-33 -1 -56 -24t-23 -53q0 -29 18 -54.5
t59 -25.5h111v-45h-468q-35 0 -52 28q-22 -28 -61 -28h-207q-66 0 -100.5 32t-34.5 89zM204 533q0 -35 21.5 -55t63.5 -20h56v139q-32 14 -60 14q-34 0 -57.5 -20t-23.5 -58zM451 305v52h51v-52h-51zM529 305v52h52v-52h-52zM815 172q0 -33 23 -55.5t60 -22.5h75v79
q0 33 -21.5 56t-57.5 23q-34 0 -56.5 -23.5t-22.5 -56.5zM950 863q0 65 40.5 93t91.5 28q58 0 116 -29v-168h71v297h55v-297h76v361h55v-406h-370q-66 0 -100.5 32t-34.5 89zM1003 862q0 -35 22 -55t64 -20h55v139q-30 14 -59 14q-34 0 -58 -20t-24 -58zM1223 499
q0 50 22 102l50 -12q-18 -49 -18 -91q0 -91 101 -91h99v236q57 17 81 17q51 0 79.5 -29.5t28.5 -77.5v-95h95v361h54v-361h99v196h55v-66q62 77 145 77q59 0 97 -32.5t38 -87.5q0 -60 -43 -96t-114 -36h-479v136q0 60 -49 63q-10 2 -34 -2v-248h-152q-75 0 -115 36.5
t-40 100.5zM1234 1166l22 2l4 -19q1 -10 11 -9q9 1 8 9l-4 22l22 4l3 -20q1 -7 7 -9t10.5 2t3.5 11l-3 19l22 3l4 -21q4 -22 -14 -33t-35 -1q-12 -14 -32.5 -9.5t-24.5 25.5zM1276 1186v42h21v-42h-21zM1512 742v406h54v-406h-54zM1668 170q0 66 40.5 94.5t90.5 28.5
q62 0 117 -29v-227q0 -53 -37 -82.5t-91 -29.5q-59 0 -116 24l15 41q55 -21 98 -21q34 0 56 20t22 50v11h-59q-66 0 -101 31.5t-35 88.5zM1722 169q0 -34 22 -54.5t63 -20.5h56v139q-28 13 -60 13q-34 0 -57.5 -19t-23.5 -58zM1969 458h119q46 0 76.5 21t30.5 62
q0 36 -24 57.5t-68 21.5q-38 0 -76 -26.5t-58 -65.5v-70z" />
    <glyph glyph-name="uni0622.isol" unicode="&#x622;" horiz-adv-x="399" arabic-form="isolated" 
d="M146 0v1296h108v-1296h-108zM43 1447l109 81q47 -41 96 -41q56 0 108 43v-85q-45 -39 -114 -39q-57 0 -88 31l-69 -48z" />
    <glyph glyph-name="uni0622.fina" unicode="&#x622;" horiz-adv-x="459" arabic-form="final" 
d="M146 0v1296h108v-1204h205q8 0 12 -4q8 -10 8 -42q0 -33 -6 -40q-5 -6 -14 -6h-313zM43 1447l109 81q47 -41 96 -41q56 0 108 43v-85q-45 -39 -114 -39q-57 0 -88 31l-69 -48z" />
    <glyph glyph-name="uni0623.fina" unicode="&#x623;" horiz-adv-x="459" arabic-form="final" 
d="M146 0v1296h108v-1204h205q8 0 12 -4q8 -10 8 -42q0 -33 -6 -40q-5 -6 -14 -6h-313zM64 1446q0 84 40 134.5t117 50.5h86v-69h-85q-40 0 -61 -29t-21 -80v-8h195v-70h-264q-7 48 -7 71z" />
    <glyph glyph-name="uni0624.fina" unicode="&#x624;" horiz-adv-x="1077" arabic-form="final" 
d="M483 -451q-167 0 -394 78l29 87q118 -38 198.5 -55.5t162.5 -17.5q150 0 249 91.5t99 224.5v43h-260q-238 0 -363 115t-125 320q0 85 21 154t58 115.5t82.5 80.5t99 52t103 26.5t99.5 8.5q85 0 176.5 -21.5t137.5 -40t78 -35.5v-683h143q8 0 12 -4q8 -10 8 -42
q0 -33 -6 -40q-5 -6 -14 -6h-143v-47q0 -124 -64.5 -217.5t-165.5 -140t-221 -46.5zM186 429q0 -156 100 -246.5t285 -90.5h256v620q-142 66 -278 66q-163 0 -263 -90t-100 -259zM371 1108q0 84 40 134.5t117 50.5h86v-69h-85q-40 0 -61 -29t-21 -80v-8h195v-70h-264
q-7 48 -7 71z" />
    <glyph glyph-name="uni0625.fina" unicode="&#x625;" horiz-adv-x="448" arabic-form="final" 
d="M146 0v1462h108v-1370h194q8 0 12 -4q8 -10 8 -42q0 -33 -6 -40q-4 -6 -14 -6h-302zM64 -290q0 84 40 134.5t117 50.5h86v-69h-85q-40 0 -61 -29t-21 -80v-8h195v-70h-264q-7 48 -7 71z" />
    <glyph glyph-name="uni0626.fina" unicode="&#x626;" horiz-adv-x="1728" arabic-form="final" 
d="M1454 0v575q0 116 -47 169.5t-146 53.5q-64 0 -148 -31v-953h-472q-270 0 -414.5 132.5t-144.5 361.5q0 66 24 177t61 195l100 -29q-34 -78 -55 -178t-21 -165q0 -192 114.5 -297t335.5 -105h364v925q4 1 25.5 9t26 9.5l24 8t25.5 8t23.5 6.5t26 6.5t24.5 4.5t27.5 4
t26.5 2t30 1q152 0 225 -83.5t73 -231.5v-483h166q8 0 12 -4q8 -10 8 -42q0 -33 -6 -40q-4 -6 -14 -6h-274zM176 907q0 84 40 134.5t117 50.5h86v-69h-85q-40 0 -61 -29t-21 -80v-8h195v-70h-264q-7 48 -7 71z" />
    <glyph glyph-name="uni0626.init" unicode="&#x626;" horiz-adv-x="564" arabic-form="initial" 
d="M0 0q-9 0 -14 6q-6 7 -6 40q0 32 8 42q4 4 12 4h153q158 0 158 200v578h107v-589q0 -135 -63 -208t-180 -73h-175zM228 1108q0 84 40 134.5t117 50.5h86v-69h-85q-40 0 -61 -29t-21 -80v-8h195v-70h-264q-7 48 -7 71z" />
    <glyph glyph-name="uni0626.medi" unicode="&#x626;" horiz-adv-x="677" arabic-form="medial" 
d="M0 0q-9 0 -14 6q-6 7 -6 40q0 32 8 42q4 4 12 4h153q158 0 158 200v578h107v-585q0 -93 33.5 -143t95.5 -50h129v-92h-126q-118 0 -173 103q-61 -103 -202 -103h-175zM228 1108q0 84 40 134.5t117 50.5h86v-69h-85q-40 0 -61 -29t-21 -80v-8h195v-70h-264q-7 48 -7 71z
M677 0v92q8 0 12 -4q8 -10 8 -42q0 -33 -6 -40q-5 -6 -14 -6z" />
    <glyph glyph-name="uni0627.isol" unicode="&#x627;" horiz-adv-x="399" arabic-form="isolated" 
d="M146 0v1462h108v-1462h-108z" />
    <glyph glyph-name="uni0627.fina" unicode="&#x627;" horiz-adv-x="448" arabic-form="final" 
d="M146 0v1462h108v-1370h194q8 0 12 -4q8 -10 8 -42q0 -33 -6 -40q-4 -6 -14 -6h-302z" />
    <glyph glyph-name="uni0628.isol" unicode="&#x628;" horiz-adv-x="1786" arabic-form="isolated" 
d="M554 0q-107 0 -187 31t-127.5 86.5t-70.5 126.5t-23 157v281h108v-273q0 -308 307 -308h811q161 0 161 181v588h107v-596q0 -136 -68 -205t-190 -69h-828zM826 -290v133h139v-133h-139z" />
    <glyph glyph-name="uni0628.fina" unicode="&#x628;" horiz-adv-x="1881" arabic-form="final" 
d="M554 0q-107 0 -187 31t-127.5 86.5t-70.5 126.5t-23 157v281h108v-273q0 -308 307 -308h811q161 0 161 181v588h107v-585q0 -93 33.5 -143t95.5 -50h129v-92h-126q-118 0 -173 103q-64 -103 -217 -103h-828zM826 -290v133h139v-133h-139z" />
    <glyph glyph-name="uni0628.init" unicode="&#x628;" horiz-adv-x="564" arabic-form="initial" 
d="M0 0q-9 0 -14 6q-6 7 -6 40q0 32 8 42q4 4 12 4h153q158 0 158 200v578h107v-589q0 -135 -63 -208t-180 -73h-175zM186 -333v133h139v-133h-139z" />
    <glyph glyph-name="uni0628.medi" unicode="&#x628;" horiz-adv-x="677" arabic-form="medial" 
d="M0 0q-9 0 -14 6q-6 7 -6 40q0 32 8 42q4 4 12 4h153q158 0 158 200v578h107v-585q0 -93 33.5 -143t95.5 -50h129v-92h-126q-118 0 -173 103q-61 -103 -202 -103h-175zM186 -333v133h139v-133h-139zM677 0v92q8 0 12 -4q8 -10 8 -42q0 -33 -6 -40q-5 -6 -14 -6z" />
    <glyph glyph-name="uni0629.isol" unicode="&#x629;" horiz-adv-x="1101" arabic-form="isolated" 
d="M567 0q-100 0 -183.5 28.5t-138 74t-92.5 104.5t-54.5 118.5t-16.5 117.5q0 75 29 151t84 143.5t148 110t208 42.5q93 0 172 -28.5t132.5 -74t91 -104.5t55 -119.5t17.5 -118.5v-290q-86 -72 -206.5 -113.5t-245.5 -41.5zM191 443q0 -146 106 -248.5t267 -102.5
q179 0 347 118v235q0 144 -104 248.5t-256 104.5t-256 -105t-104 -250zM348 1036v133h135v-133h-135zM601 1036v133h135v-133h-135z" />
    <glyph glyph-name="uni0629.fina" unicode="&#x629;" horiz-adv-x="1075" arabic-form="final" 
d="M570 0q-238 0 -363 115t-125 320q0 99 30.5 177.5t78 125.5t111.5 78t124.5 42.5t123.5 11.5q85 0 175.5 -21.5t135 -40t76.5 -35.5v-681h138q8 0 12 -4q8 -10 8 -42q0 -33 -6 -40q-5 -6 -14 -6h-505zM190 429q0 -158 98 -247.5t287 -89.5h255v620q-140 67 -278 67
q-161 0 -261.5 -93t-100.5 -257zM358 1036v133h135v-133h-135zM611 1036v133h135v-133h-135z" />
    <glyph glyph-name="uni062A.isol" unicode="&#x62a;" horiz-adv-x="1786" arabic-form="isolated" 
d="M554 0q-107 0 -187 31t-127.5 86.5t-70.5 126.5t-23 157v281h108v-273q0 -308 307 -308h811q161 0 161 181v588h107v-596q0 -136 -68 -205t-190 -69h-828zM705 1036v133h134v-133h-134zM957 1036v133h135v-133h-135z" />
    <glyph glyph-name="uni062A.fina" unicode="&#x62a;" horiz-adv-x="1881" arabic-form="final" 
d="M554 0q-107 0 -187 31t-127.5 86.5t-70.5 126.5t-23 157v281h108v-273q0 -308 307 -308h811q161 0 161 181v588h107v-585q0 -93 33.5 -143t95.5 -50h129v-92h-126q-118 0 -173 103q-64 -103 -217 -103h-828zM705 1036v133h135v-133h-135zM958 1036v133h135v-133h-135z
" />
    <glyph glyph-name="uni062A.init" unicode="&#x62a;" horiz-adv-x="564" arabic-form="initial" 
d="M0 0q-9 0 -14 6q-6 7 -6 40q0 32 8 42q4 4 12 4h153q158 0 158 200v578h107v-589q0 -135 -63 -208t-180 -73h-175zM173 1036v133h135v-133h-135zM426 1036v133h135v-133h-135z" />
    <glyph glyph-name="uni062A.medi" unicode="&#x62a;" horiz-adv-x="677" arabic-form="medial" 
d="M0 0q-9 0 -14 6q-6 7 -6 40q0 32 8 42q4 4 12 4h153q158 0 158 200v578h107v-585q0 -93 33.5 -143t95.5 -50h129v-92h-126q-118 0 -173 103q-61 -103 -202 -103h-175zM173 1036v133h135v-133h-135zM426 1036v133h135v-133h-135zM677 0v92q8 0 12 -4q8 -10 8 -42
q0 -33 -6 -40q-5 -6 -14 -6z" />
    <glyph glyph-name="uni062B.isol" unicode="&#x62b;" horiz-adv-x="1786" arabic-form="isolated" 
d="M554 0q-107 0 -187 31t-127.5 86.5t-70.5 126.5t-23 157v281h108v-273q0 -308 307 -308h811q161 0 161 181v588h107v-596q0 -136 -68 -205t-190 -69h-828zM706 1037v131h136v-131h-136zM831 1243v130h135v-130h-135zM957 1037v131h135v-131h-135z" />
    <glyph glyph-name="uni062B.fina" unicode="&#x62b;" horiz-adv-x="1877" arabic-form="final" 
d="M554 0q-107 0 -187 31t-127.5 86.5t-70.5 126.5t-23 157v281h108v-273q0 -308 307 -308h811q161 0 161 181v588h107v-585q0 -93 33.5 -143t95.5 -50h129v-92h-126q-118 0 -173 103q-64 -103 -217 -103h-828zM706 1037v131h135v-131h-135zM830 1243v130h136v-130h-136z
M957 1037v131h135v-131h-135z" />
    <glyph glyph-name="uni062B.init" unicode="&#x62b;" horiz-adv-x="573" arabic-form="initial" 
d="M0 0q-9 0 -14 6q-6 7 -6 40q0 32 8 42q4 4 12 4h153q158 0 158 200v578h107v-589q0 -135 -63 -208t-180 -73h-175zM174 1037v131h136v-131h-136zM299 1243v130h135v-130h-135zM425 1037v131h135v-131h-135z" />
    <glyph glyph-name="uni062B.medi" unicode="&#x62b;" horiz-adv-x="670" arabic-form="medial" 
d="M0 0q-9 0 -14 6q-6 7 -6 40q0 32 8 42q4 4 12 4h153q158 0 158 200v578h107v-585q0 -93 33.5 -143t95.5 -50h129v-92h-126q-118 0 -173 103q-61 -103 -202 -103h-175zM174 1037v131h136v-131h-136zM299 1243v130h135v-130h-135zM425 1037v131h135v-131h-135zM677 0v92
q8 0 12 -4q8 -10 8 -42q0 -33 -6 -40q-5 -6 -14 -6z" />
    <glyph glyph-name="uni062C.isol" unicode="&#x62c;" horiz-adv-x="1108" arabic-form="isolated" 
d="M581 -451q-499 0 -499 334q0 131 58 208v1h748q30 112 30 260q0 229 -98.5 337.5t-302.5 108.5q-132 0 -292 -69l-43 82q180 79 332 79q133 0 232 -38.5t159.5 -111t90 -170t29.5 -220.5q0 -186 -47 -350h-770q-18 -54 -18 -118q0 -118 92 -180t298 -62h49l3 -90
q-27 -1 -51 -1zM785 -410v133h139v-133h-139z" />
    <glyph glyph-name="uni062C.fina" unicode="&#x62c;" horiz-adv-x="1239" arabic-form="final" 
d="M208 0q-18 -54 -18 -118q0 -118 92 -180t298 -62h49l3 -90q-27 -1 -51 -1q-499 0 -499 334q0 131 58 208v1h748q30 112 30 260q0 229 -98.5 337.5t-302.5 108.5q-132 0 -292 -69l-43 82q180 79 332 79q133 0 232 -38.5t159.5 -111t90 -170t29.5 -220.5q0 -137 -25 -258
h239q8 0 12 -4q8 -10 8 -42q0 -33 -6 -40q-5 -6 -14 -6h-1031zM785 -410v133h139v-133h-139z" />
    <glyph glyph-name="uni062C.init" unicode="&#x62c;" horiz-adv-x="1023" arabic-form="initial" 
d="M0 92h803q30 112 30 260q0 229 -98.5 337.5t-302.5 108.5q-132 0 -292 -69l-43 82q180 79 332 79q133 0 232 -38.5t159.5 -111t90 -170t29.5 -220.5q0 -186 -47 -350h-893q-9 0 -14 6q-6 7 -6 40q0 32 8 42q4 4 12 4zM377 -325v133h139v-133h-139z" />
    <glyph glyph-name="uni062C.medi" unicode="&#x62c;" horiz-adv-x="1092" arabic-form="medial" 
d="M0 0q-9 0 -14 6q-6 7 -6 40q0 32 8 42q4 4 12 4h803q30 112 30 260q0 229 -98.5 337.5t-302.5 108.5q-132 0 -292 -69l-43 82q180 79 332 79q133 0 232 -38.5t159.5 -111t90 -170t29.5 -220.5q0 -137 -25 -258h177q8 0 12 -4q8 -10 8 -42q0 -33 -6 -40q-4 -6 -14 -6
h-1092zM377 -325v133h139v-133h-139z" />
    <glyph glyph-name="uni062D.isol" unicode="&#x62d;" horiz-adv-x="1115" arabic-form="isolated" 
d="M890 -416q-39 -16 -122 -30t-177 -14q-245 0 -377 96.5t-132 239.5q0 68 20 125.5t46 90.5h748q30 112 30 260q0 229 -98.5 337.5t-302.5 108.5q-132 0 -292 -69l-43 82q180 79 332 79q133 0 232 -38.5t159.5 -111t90 -170t29.5 -220.5q0 -186 -47 -350h-772
q-29 -58 -29 -122q0 -114 111 -179t295 -66q79 -1 154.5 12t116.5 27z" />
    <glyph glyph-name="uni062D.fina" unicode="&#x62d;" horiz-adv-x="1239" arabic-form="final" 
d="M805 -1v1h-591q-29 -58 -29 -122q0 -114 111 -179t295 -66q79 -1 154.5 12t116.5 27l28 -88q-39 -16 -122 -30t-177 -14q-245 0 -377 96.5t-132 239.5q0 68 20 125.5t46 90.5h748q30 112 30 260q0 229 -98.5 337.5t-302.5 108.5q-132 0 -292 -69l-43 82q180 79 332 79
q133 0 232 -38.5t159.5 -111t90 -170t29.5 -220.5q0 -137 -25 -258h231q8 0 12 -4q8 -10 8 -42q0 -33 -6 -40q-5 -6 -14 -6z" />
    <glyph glyph-name="uni062D.init" unicode="&#x62d;" horiz-adv-x="1023" arabic-form="initial" 
d="M0 92h803q30 112 30 260q0 229 -98.5 337.5t-302.5 108.5q-132 0 -292 -69l-43 82q180 79 332 79q133 0 232 -38.5t159.5 -111t90 -170t29.5 -220.5q0 -186 -47 -350h-893q-9 0 -14 6q-6 7 -6 40q0 32 8 42q4 4 12 4z" />
    <glyph glyph-name="uni062D.medi" unicode="&#x62d;" horiz-adv-x="1092" arabic-form="medial" 
d="M0 0q-9 0 -14 6q-6 7 -6 40q0 32 8 42q4 4 12 4h803q30 112 30 260q0 229 -98.5 337.5t-302.5 108.5q-132 0 -292 -69l-43 82q180 79 332 79q133 0 232 -38.5t159.5 -111t90 -170t29.5 -220.5q0 -137 -25 -258h177q8 0 12 -4q8 -10 8 -42q0 -33 -6 -40q-4 -6 -14 -6
h-1092z" />
    <glyph glyph-name="uni062E.isol" unicode="&#x62e;" horiz-adv-x="1115" arabic-form="isolated" 
d="M890 -416q-39 -16 -122 -30t-177 -14q-245 0 -377 96.5t-132 239.5q0 68 20 125.5t46 90.5h748q30 112 30 260q0 229 -98.5 337.5t-302.5 108.5q-132 0 -292 -69l-43 82q180 79 332 79q133 0 232 -38.5t159.5 -111t90 -170t29.5 -220.5q0 -186 -47 -350h-772
q-29 -58 -29 -122q0 -114 111 -179t295 -66q79 -1 154.5 12t116.5 27zM513 1026v133h139v-133h-139z" />
    <glyph glyph-name="uni062E.fina" unicode="&#x62e;" horiz-adv-x="1239" arabic-form="final" 
d="M805 -1v1h-591q-29 -58 -29 -122q0 -114 111 -179t295 -66q79 -1 154.5 12t116.5 27l28 -88q-39 -16 -122 -30t-177 -14q-245 0 -377 96.5t-132 239.5q0 68 20 125.5t46 90.5h748q30 112 30 260q0 229 -98.5 337.5t-302.5 108.5q-132 0 -292 -69l-43 82q180 79 332 79
q133 0 232 -38.5t159.5 -111t90 -170t29.5 -220.5q0 -137 -25 -258h231q8 0 12 -4q8 -10 8 -42q0 -33 -6 -40q-5 -6 -14 -6zM513 1026v133h139v-133h-139z" />
    <glyph glyph-name="uni062E.init" unicode="&#x62e;" horiz-adv-x="1023" arabic-form="initial" 
d="M0 92h803q30 112 30 260q0 229 -98.5 337.5t-302.5 108.5q-132 0 -292 -69l-43 82q180 79 332 79q133 0 232 -38.5t159.5 -111t90 -170t29.5 -220.5q0 -186 -47 -350h-893q-9 0 -14 6q-6 7 -6 40q0 32 8 42q4 4 12 4zM377 1036v133h139v-133h-139z" />
    <glyph glyph-name="uni062E.medi" unicode="&#x62e;" horiz-adv-x="1092" arabic-form="medial" 
d="M0 0q-9 0 -14 6q-6 7 -6 40q0 32 8 42q4 4 12 4h803q30 112 30 260q0 229 -98.5 337.5t-302.5 108.5q-132 0 -292 -69l-43 82q180 79 332 79q133 0 232 -38.5t159.5 -111t90 -170t29.5 -220.5q0 -137 -25 -258h177q8 0 12 -4q8 -10 8 -42q0 -33 -6 -40q-4 -6 -14 -6
h-1092zM377 1036v133h139v-133h-139z" />
    <glyph glyph-name="uni062F.isol" unicode="&#x62f;" horiz-adv-x="884" arabic-form="isolated" 
d="M79 0v92h590q29 116 29 260q0 229 -96.5 337.5t-300.5 108.5q-66 0 -129 -15l-23 88q75 19 157 19q132 0 229.5 -38.5t156 -111t86.5 -169.5t28 -221q0 -178 -49 -350h-678z" />
    <glyph glyph-name="uni062F.fina" unicode="&#x62f;" horiz-adv-x="932" arabic-form="final" 
d="M83 0v92h590q29 116 29 260q0 229 -96.5 337.5t-300.5 108.5q-66 0 -129 -15l-23 88q75 19 157 19q132 0 229.5 -38.5t156 -111t86.5 -169.5t28 -221q0 -132 -26 -258h148q8 0 12 -4q8 -10 8 -42q0 -33 -6 -40q-4 -6 -14 -6h-849z" />
    <glyph glyph-name="uni0630.isol" unicode="&#x630;" horiz-adv-x="884" arabic-form="isolated" 
d="M79 0v92h590q29 116 29 260q0 229 -96.5 337.5t-300.5 108.5q-66 0 -129 -15l-23 88q75 19 157 19q132 0 229.5 -38.5t156 -111t86.5 -169.5t28 -221q0 -178 -49 -350h-678zM291 1036v133h139v-133h-139z" />
    <glyph glyph-name="uni0630.fina" unicode="&#x630;" horiz-adv-x="932" arabic-form="final" 
d="M83 0v92h590q29 116 29 260q0 229 -96.5 337.5t-300.5 108.5q-66 0 -129 -15l-23 88q75 19 157 19q132 0 229.5 -38.5t156 -111t86.5 -169.5t28 -221q0 -132 -26 -258h148q8 0 12 -4q8 -10 8 -42q0 -33 -6 -40q-4 -6 -14 -6h-849zM294 1036v133h139v-133h-139z" />
    <glyph glyph-name="uni0631.isol" unicode="&#x631;" horiz-adv-x="453" arabic-form="isolated" 
d="M-96 -451v92h29q65 0 113 19.5t77 52t46 83.5t23 105t6 126v860h109v-864q0 -474 -371 -474h-32z" />
    <glyph glyph-name="uni0631.fina" unicode="&#x631;" horiz-adv-x="456" arabic-form="final" 
d="M-96 -451v92h29q65 0 113 19.5t77 52t46 83.5t23 105t6 126v860h109v-795h149q8 0 12 -4q8 -10 8 -42q0 -33 -6 -40q-4 -6 -14 -6h-149q-8 -451 -371 -451h-32z" />
    <glyph glyph-name="uni0632.isol" unicode="&#x632;" horiz-adv-x="453" arabic-form="isolated" 
d="M-96 -451v92h29q65 0 113 19.5t77 52t46 83.5t23 105t6 126v860h109v-864q0 -474 -371 -474h-32zM184 1036v133h139v-133h-139z" />
    <glyph glyph-name="uni0632.fina" unicode="&#x632;" horiz-adv-x="456" arabic-form="final" 
d="M-96 -451v92h29q65 0 113 19.5t77 52t46 83.5t23 105t6 126v860h109v-795h149q8 0 12 -4q8 -10 8 -42q0 -33 -6 -40q-4 -6 -14 -6h-149q-8 -451 -371 -451h-32zM184 1036v133h139v-133h-139z" />
    <glyph glyph-name="uni0633.isol" unicode="&#x633;" horiz-adv-x="2172" arabic-form="isolated" 
d="M598 -451q-97 0 -187.5 30.5t-164.5 88t-119 152.5t-45 213q0 153 94 372l99 -39q-85 -201 -85 -331q0 -173 113.5 -283.5t293.5 -110.5q161 0 250.5 93.5t89.5 259.5v876h108v-778h227q157 0 157 172v606h108v-609v-20q0 -101 47.5 -147.5t146.5 -46.5q91 0 139.5 51
t48.5 147v625h107v-625q0 -130 -72.5 -210t-221.5 -80q-188 0 -257 120q-67 -75 -197 -75h-233v-6q0 -115 -37.5 -203t-101.5 -139.5t-141.5 -77t-166.5 -25.5z" />
    <glyph glyph-name="uni0633.fina" unicode="&#x633;" horiz-adv-x="2242" arabic-form="final" 
d="M2152 0q-119 0 -189 46q-76 -91 -231 -91q-188 0 -257 120q-67 -75 -197 -75h-233v-6q0 -115 -37.5 -203t-101.5 -139.5t-141.5 -77t-166.5 -25.5q-97 0 -187.5 30.5t-164.5 88t-119 152.5t-45 213q0 153 94 372l99 -39q-85 -201 -85 -331q0 -173 113.5 -283.5
t293.5 -110.5q161 0 250.5 93.5t89.5 259.5v876h108v-778h227q157 0 157 172v606h108v-609v-20q0 -101 47.5 -147.5t146.5 -46.5q91 0 139.5 51t48.5 147v625h107v-625q0 -66 -19 -120q46 -33 145 -33h90q8 0 12 -4q8 -10 8 -42q0 -33 -6 -40q-4 -6 -14 -6h-90z" />
    <glyph glyph-name="uni0633.init" unicode="&#x633;" horiz-adv-x="1455" arabic-form="initial" 
d="M0 0q-9 0 -14 6q-6 7 -6 40q0 32 8 42q4 4 12 4h221v778h108v-778h226q157 0 157 172v606h108v-609v-20q0 -101 47.5 -147.5t146.5 -46.5q91 0 139.5 51t48.5 147v625h107v-625q0 -130 -72.5 -210t-221.5 -80q-188 0 -257 120q-67 -75 -197 -75h-561z" />
    <glyph glyph-name="uni0633.medi" unicode="&#x633;" horiz-adv-x="1534" arabic-form="medial" 
d="M1444 0q-124 0 -194 50q-77 -95 -235 -95q-188 0 -257 120q-67 -75 -197 -75h-561q-9 0 -14 6q-6 7 -6 40q0 32 8 42q4 4 12 4h221v778h108v-778h226q157 0 157 172v606h108v-609v-20q0 -101 47.5 -147.5t146.5 -46.5q91 0 139.5 51t48.5 147v625h107v-625
q0 -64 -17 -114q46 -39 152 -39h90q8 0 12 -4q8 -10 8 -42q0 -33 -6 -40q-4 -6 -14 -6h-90z" />
    <glyph glyph-name="uni0634.isol" unicode="&#x634;" horiz-adv-x="2172" arabic-form="isolated" 
d="M598 -451q-97 0 -187.5 30.5t-164.5 88t-119 152.5t-45 213q0 153 94 372l99 -39q-85 -201 -85 -331q0 -173 113.5 -283.5t293.5 -110.5q161 0 250.5 93.5t89.5 259.5v876h108v-778h227q157 0 157 172v606h108v-609v-20q0 -101 47.5 -147.5t146.5 -46.5q91 0 139.5 51
t48.5 147v625h107v-625q0 -130 -72.5 -210t-221.5 -80q-188 0 -257 120q-67 -75 -197 -75h-233v-6q0 -115 -37.5 -203t-101.5 -139.5t-141.5 -77t-166.5 -25.5zM1282 1037v131h136v-131h-136zM1407 1243v130h135v-130h-135zM1533 1037v131h135v-131h-135z" />
    <glyph glyph-name="uni0634.fina" unicode="&#x634;" horiz-adv-x="2242" arabic-form="final" 
d="M2152 0q-119 0 -189 46q-76 -91 -231 -91q-188 0 -257 120q-67 -75 -197 -75h-233v-6q0 -115 -37.5 -203t-101.5 -139.5t-141.5 -77t-166.5 -25.5q-97 0 -187.5 30.5t-164.5 88t-119 152.5t-45 213q0 153 94 372l99 -39q-85 -201 -85 -331q0 -173 113.5 -283.5
t293.5 -110.5q161 0 250.5 93.5t89.5 259.5v876h108v-778h227q157 0 157 172v606h108v-609v-20q0 -101 47.5 -147.5t146.5 -46.5q91 0 139.5 51t48.5 147v625h107v-625q0 -66 -19 -120q46 -33 145 -33h90q8 0 12 -4q8 -10 8 -42q0 -33 -6 -40q-4 -6 -14 -6h-90zM1286 1045
v131h135v-131h-135zM1410 1252v129h135v-129h-135zM1536 1045v131h135v-131h-135z" />
    <glyph glyph-name="uni0634.init" unicode="&#x634;" horiz-adv-x="1439" arabic-form="initial" 
d="M0 0q-9 0 -14 6q-6 7 -6 40q0 32 8 42q4 4 12 4h221v778h108v-778h226q157 0 157 172v606h108v-609v-20q0 -101 47.5 -147.5t146.5 -46.5q91 0 139.5 51t48.5 147v625h107v-625q0 -130 -72.5 -210t-221.5 -80q-188 0 -257 120q-67 -75 -197 -75h-561zM577 1045v131h136
v-131h-136zM702 1252v129h135v-129h-135zM828 1045v131h135v-131h-135z" />
    <glyph glyph-name="uni0634.medi" unicode="&#x634;" horiz-adv-x="1529" arabic-form="medial" 
d="M1444 0q-124 0 -194 50q-77 -95 -235 -95q-188 0 -257 120q-67 -75 -197 -75h-561q-9 0 -14 6q-6 7 -6 40q0 32 8 42q4 4 12 4h221v778h108v-778h226q157 0 157 172v606h108v-609v-20q0 -101 47.5 -147.5t146.5 -46.5q91 0 139.5 51t48.5 147v625h107v-625
q0 -64 -17 -114q46 -39 152 -39h90q8 0 12 -4q8 -10 8 -42q0 -33 -6 -40q-4 -6 -14 -6h-90zM574 1037v131h136v-131h-136zM699 1243v130h135v-130h-135zM825 1037v131h135v-131h-135z" />
    <glyph glyph-name="uni0635.isol" unicode="&#x635;" horiz-adv-x="2097" arabic-form="isolated" 
d="M598 -451q-97 0 -187.5 30.5t-164.5 88t-119 152.5t-45 213q0 153 94 372l99 -39q-85 -201 -85 -331q0 -173 113.5 -284t293.5 -111q161 0 250.5 94t89.5 260v876h108v-279q105 144 253 230.5t298 86.5q184 0 301.5 -128t117.5 -313q0 -32 -5 -68.5t-19.5 -83
t-36.5 -89.5t-59.5 -84.5t-85 -72.5t-117 -50t-151.5 -19h-496v-6q0 -115 -37.5 -203t-101.5 -139.5t-141.5 -77t-166.5 -25.5zM1045 92h499q78 0 141 23.5t103.5 61t68 86.5t39 97.5t11.5 95.5q0 151 -87 255.5t-238 104.5q-155 0 -304 -106.5t-233 -265.5v-352z" />
    <glyph glyph-name="uni0635.fina" unicode="&#x635;" horiz-adv-x="2185" arabic-form="final" 
d="M1045 0v-6q0 -115 -37.5 -203t-101.5 -139.5t-141.5 -77t-166.5 -25.5q-97 0 -187.5 30.5t-164.5 88t-119 152.5t-45 213q0 153 94 372l99 -39q-85 -201 -85 -331q0 -173 113.5 -284t293.5 -111q161 0 250.5 94t89.5 260v876h108v-279q105 144 253 230.5t298 86.5
q184 0 301.5 -128t117.5 -313q0 -54 -13 -114t-54 -135.5t-106 -125.5h343q8 0 12 -4q8 -10 8 -42q0 -33 -6 -40q-5 -6 -14 -6h-1140zM1045 92h499q78 0 141 23.5t103.5 61t68 86.5t39 97.5t11.5 95.5q0 151 -87 255.5t-238 104.5q-155 0 -304 -106.5t-233 -265.5v-352z" />
    <glyph glyph-name="uni0635.init" unicode="&#x635;" horiz-adv-x="1442" arabic-form="initial" 
d="M0 0q-9 0 -14 6q-6 7 -6 40q0 32 8 42q4 4 12 4h199v778h108v-279q106 144 254 230.5t297 86.5q230 0 366 -120t136 -311q0 -96 -30 -178.5t-93 -151t-174 -108t-260 -39.5h-803zM307 92h499q208 0 327 95t119 278q0 157 -106 254t-301 97q-155 0 -304.5 -106.5
t-233.5 -265.5v-352z" />
    <glyph glyph-name="uni0635.medi" unicode="&#x635;" horiz-adv-x="1490" arabic-form="medial" 
d="M0 0q-9 0 -14 6q-6 7 -6 40q0 32 8 42q4 4 12 4h199v778h108v-279q106 144 254 230.5t297 86.5q230 0 366 -120t136 -311q0 -120 -46.5 -220.5t-144.5 -164.5h321q8 0 12 -4q8 -10 8 -42q0 -33 -6 -40q-4 -6 -14 -6h-1490zM307 92h499q208 0 327 95t119 278
q0 157 -106 254t-301 97q-155 0 -304.5 -106.5t-233.5 -265.5v-352z" />
    <glyph glyph-name="uni0636.isol" unicode="&#x636;" horiz-adv-x="2097" arabic-form="isolated" 
d="M598 -451q-97 0 -187.5 30.5t-164.5 88t-119 152.5t-45 213q0 153 94 372l99 -39q-85 -201 -85 -331q0 -173 113.5 -284t293.5 -111q161 0 250.5 94t89.5 260v876h108v-279q105 144 253 230.5t298 86.5q184 0 301.5 -128t117.5 -313q0 -32 -5 -68.5t-19.5 -83
t-36.5 -89.5t-59.5 -84.5t-85 -72.5t-117 -50t-151.5 -19h-496v-6q0 -115 -37.5 -203t-101.5 -139.5t-141.5 -77t-166.5 -25.5zM1045 92h499q78 0 141 23.5t103.5 61t68 86.5t39 97.5t11.5 95.5q0 151 -87 255.5t-238 104.5q-155 0 -304 -106.5t-233 -265.5v-352zM1410 1036
v133h139v-133h-139z" />
    <glyph glyph-name="uni0636.fina" unicode="&#x636;" horiz-adv-x="2185" arabic-form="final" 
d="M1045 0v-6q0 -115 -37.5 -203t-101.5 -139.5t-141.5 -77t-166.5 -25.5q-97 0 -187.5 30.5t-164.5 88t-119 152.5t-45 213q0 153 94 372l99 -39q-85 -201 -85 -331q0 -173 113.5 -284t293.5 -111q161 0 250.5 94t89.5 260v876h108v-279q105 144 253 230.5t298 86.5
q184 0 301.5 -128t117.5 -313q0 -54 -13 -114t-54 -135.5t-106 -125.5h343q8 0 12 -4q8 -10 8 -42q0 -33 -6 -40q-5 -6 -14 -6h-1140zM1045 92h499q78 0 141 23.5t103.5 61t68 86.5t39 97.5t11.5 95.5q0 151 -87 255.5t-238 104.5q-155 0 -304 -106.5t-233 -265.5v-352z
M1410 1036v133h139v-133h-139z" />
    <glyph glyph-name="uni0636.init" unicode="&#x636;" horiz-adv-x="1442" arabic-form="initial" 
d="M0 0q-9 0 -14 6q-6 7 -6 40q0 32 8 42q4 4 12 4h199v778h108v-279q106 144 254 230.5t297 86.5q230 0 366 -120t136 -311q0 -96 -30 -178.5t-93 -151t-174 -108t-260 -39.5h-803zM307 92h499q208 0 327 95t119 278q0 157 -106 254t-301 97q-155 0 -304.5 -106.5
t-233.5 -265.5v-352zM672 1036v133h139v-133h-139z" />
    <glyph glyph-name="uni0636.medi" unicode="&#x636;" horiz-adv-x="1490" arabic-form="medial" 
d="M0 0q-9 0 -14 6q-6 7 -6 40q0 32 8 42q4 4 12 4h199v778h108v-279q106 144 254 230.5t297 86.5q230 0 366 -120t136 -311q0 -120 -46.5 -220.5t-144.5 -164.5h321q8 0 12 -4q8 -10 8 -42q0 -33 -6 -40q-4 -6 -14 -6h-1490zM307 92h499q208 0 327 95t119 278
q0 157 -106 254t-301 97q-155 0 -304.5 -106.5t-233.5 -265.5v-352zM672 1036v133h139v-133h-139z" />
    <glyph glyph-name="uni0637.isol" unicode="&#x637;" horiz-adv-x="1380" arabic-form="isolated" 
d="M54 0v92h162v1370h108v-877q105 147 254 235t300 88q122 0 219 -60t149 -160.5t52 -220.5q0 -32 -5 -68.5t-19.5 -83t-36.5 -89.5t-59.5 -84.5t-85 -72.5t-117.5 -50t-152 -19h-769zM324 92h503q77 0 140.5 23.5t104 61t68 86.5t39 97.5t11.5 95.5q0 151 -87.5 255.5
t-237.5 104.5q-157 0 -307 -108.5t-234 -269.5v-346z" />
    <glyph glyph-name="uni0637.fina" unicode="&#x637;" horiz-adv-x="1488" arabic-form="final" 
d="M54 0v92h162v1370h108v-877q105 147 254 235t300 88q122 0 219 -60t149 -160.5t52 -220.5q0 -54 -13 -114t-54 -135.5t-106 -125.5h363q8 0 12 -4q8 -10 8 -42q0 -33 -6 -40q-4 -6 -14 -6h-1434zM324 92h503q77 0 140.5 23.5t104 61t68 86.5t39 97.5t11.5 95.5
q0 151 -87.5 255.5t-237.5 104.5q-157 0 -307 -108.5t-234 -269.5v-346z" />
    <glyph glyph-name="uni0637.init" unicode="&#x637;" horiz-adv-x="1363" arabic-form="initial" 
d="M1 0v92h198v1370h108v-877q105 147 254 235t300 88q122 0 219 -60t149 -160.5t52 -220.5q0 -32 -5 -68.5t-19.5 -83t-36.5 -89.5t-59.5 -84.5t-85 -72.5t-117.5 -50t-152 -19h-805zM-20 46q0 32 8 42q4 4 12 4v-92q-9 0 -14 6q-6 7 -6 40zM307 92h503q77 0 140.5 23.5
t104 61t68 86.5t39 97.5t11.5 95.5q0 151 -87.5 255.5t-237.5 104.5q-157 0 -307 -108.5t-234 -269.5v-346z" />
    <glyph glyph-name="uni0637.medi" unicode="&#x637;" horiz-adv-x="1449" arabic-form="medial" 
d="M839 1q-11 -1 -33 -1h-805v92h198v1370h108v-877q105 147 254 235t300 88q122 0 219 -60t149 -160.5t52 -220.5q0 -54 -13 -114t-54 -135.5t-106 -125.5h341q8 0 12 -4q8 -10 8 -42q0 -33 -6 -40q-5 -6 -14 -6zM-20 46q0 32 8 42q4 4 12 4v-92q-9 0 -14 6q-6 7 -6 40z
M307 92h503q77 0 140.5 23.5t104 61t68 86.5t39 97.5t11.5 95.5q0 151 -87.5 255.5t-237.5 104.5q-157 0 -307 -108.5t-234 -269.5v-346z" />
    <glyph glyph-name="uni0638.isol" unicode="&#x638;" horiz-adv-x="1380" arabic-form="isolated" 
d="M54 0v92h162v1370h108v-877q105 147 254 235t300 88q122 0 219 -60t149 -160.5t52 -220.5q0 -32 -5 -68.5t-19.5 -83t-36.5 -89.5t-59.5 -84.5t-85 -72.5t-117.5 -50t-152 -19h-769zM324 92h503q77 0 140.5 23.5t104 61t68 86.5t39 97.5t11.5 95.5q0 151 -87.5 255.5
t-237.5 104.5q-157 0 -307 -108.5t-234 -269.5v-346zM739 1036v133h139v-133h-139z" />
    <glyph glyph-name="uni0638.fina" unicode="&#x638;" horiz-adv-x="1488" arabic-form="final" 
d="M54 0v92h162v1370h108v-877q105 147 254 235t300 88q122 0 219 -60t149 -160.5t52 -220.5q0 -54 -13 -114t-54 -135.5t-106 -125.5h363q8 0 12 -4q8 -10 8 -42q0 -33 -6 -40q-4 -6 -14 -6h-1434zM324 92h503q77 0 140.5 23.5t104 61t68 86.5t39 97.5t11.5 95.5
q0 151 -87.5 255.5t-237.5 104.5q-157 0 -307 -108.5t-234 -269.5v-346zM739 1036v133h139v-133h-139z" />
    <glyph glyph-name="uni0638.init" unicode="&#x638;" horiz-adv-x="1363" arabic-form="initial" 
d="M1 0v92h198v1370h108v-877q105 147 254 235t300 88q122 0 219 -60t149 -160.5t52 -220.5q0 -32 -5 -68.5t-19.5 -83t-36.5 -89.5t-59.5 -84.5t-85 -72.5t-117.5 -50t-152 -19h-805zM-20 46q0 32 8 42q4 4 12 4v-92q-9 0 -14 6q-6 7 -6 40zM307 92h503q77 0 140.5 23.5
t104 61t68 86.5t39 97.5t11.5 95.5q0 151 -87.5 255.5t-237.5 104.5q-157 0 -307 -108.5t-234 -269.5v-346zM722 1036v133h139v-133h-139z" />
    <glyph glyph-name="uni0638.medi" unicode="&#x638;" horiz-adv-x="1449" arabic-form="medial" 
d="M839 1q-11 -1 -33 -1h-805v92h198v1370h108v-877q105 147 254 235t300 88q122 0 219 -60t149 -160.5t52 -220.5q0 -54 -13 -114t-54 -135.5t-106 -125.5h341q8 0 12 -4q8 -10 8 -42q0 -33 -6 -40q-5 -6 -14 -6zM-20 46q0 32 8 42q4 4 12 4v-92q-9 0 -14 6q-6 7 -6 40z
M307 92h503q77 0 140.5 23.5t104 61t68 86.5t39 97.5t11.5 95.5q0 151 -87.5 255.5t-237.5 104.5q-157 0 -307 -108.5t-234 -269.5v-346zM722 1036v133h139v-133h-139z" />
    <glyph glyph-name="uni0639.isol" unicode="&#x639;" horiz-adv-x="1132" arabic-form="isolated" 
d="M892 -416q-39 -16 -123 -30t-178 -14q-245 0 -377 96.5t-132 239.5q0 68 20 125.5t46 90.5h228q-49 33 -84.5 81t-53.5 99t-25.5 95.5t-7.5 86.5q0 182 130 309t320 127q179 0 370 -93l-43 -86q-175 88 -326 87q-147 -1 -249.5 -103t-102.5 -241q0 -40 8 -83t31.5 -94.5
t60 -91.5t100 -66.5t145.5 -26.5h400v-92h-835q-29 -58 -29 -122q0 -114 111 -179t295 -66q79 -1 155.5 12t117.5 27z" />
    <glyph glyph-name="uni0639.fina" unicode="&#x639;" horiz-adv-x="1287" arabic-form="final" 
d="M634 -452q-108 0 -200 29t-166 88t-116.5 159.5t-42.5 233.5v29h156q184 0 338 29q-167 86 -304 210.5t-214 230.5q94 141 247.5 238.5t337.5 97.5q129 0 232.5 -32.5t164.5 -85.5t93 -114.5t32 -124.5q0 -282 -311 -424q92 -20 189 -20h217q8 0 12 -4q8 -10 8 -42
q0 -33 -6 -40q-5 -6 -14 -6h-238q-155 0 -315 58q-202 -58 -454 -58h-63q16 -173 126 -265.5t290 -94.5q126 -1 330 58l27 -89q-209 -61 -356 -61zM207 558q36 -46 82 -94.5t113.5 -108t157 -114t184.5 -89.5q159 52 249.5 143.5t90.5 225.5q0 116 -111 200.5t-303 84.5
q-77 0 -151.5 -24t-133.5 -64t-101.5 -79t-76.5 -81z" />
    <glyph glyph-name="uni0639.init" unicode="&#x639;" horiz-adv-x="1104" arabic-form="initial" 
d="M0 0q-9 0 -14 6q-6 7 -6 40q0 32 8 42q4 4 12 4h349q-49 33 -84.5 81t-53.5 99t-25.5 95.5t-7.5 86.5q0 182 130 309t320 127q180 0 369 -93l-43 -86q-175 88 -325 87q-148 -1 -250.5 -103t-102.5 -241q0 -40 8 -83t31.5 -94.5t60 -91.5t100.5 -66.5t146 -26.5h400v-92
h-1022z" />
    <glyph glyph-name="uni0639.medi" unicode="&#x639;" horiz-adv-x="1293" arabic-form="medial" 
d="M0 0q-9 0 -14 6q-6 7 -6 40q0 32 8 42q4 4 12 4h292q170 0 310 26q-90 47 -176 109.5t-152 127t-110 112.5t-80 95q44 66 104 124t135 107t167.5 77.5t187.5 28.5q124 0 225 -32.5t162 -85.5t93.5 -115t32.5 -125q0 -286 -309 -429q94 -20 196 -20h215q8 0 12 -4
q8 -10 8 -42q0 -33 -6 -40q-5 -6 -14 -6h-237q-161 0 -319 58q-203 -58 -449 -58h-288zM207 562q35 -48 79.5 -96.5t111.5 -109t156.5 -115t186.5 -89.5q160 51 251 144t91 231q0 114 -110.5 199t-294.5 85q-90 0 -171 -26.5t-140.5 -70.5t-95 -79t-64.5 -73z" />
    <glyph glyph-name="uni063A.isol" unicode="&#x63a;" horiz-adv-x="1132" arabic-form="isolated" 
d="M892 -416q-39 -16 -123 -30t-178 -14q-245 0 -377 96.5t-132 239.5q0 68 20 125.5t46 90.5h228q-49 33 -84.5 81t-53.5 99t-25.5 95.5t-7.5 86.5q0 182 130 309t320 127q179 0 370 -93l-43 -86q-175 88 -326 87q-147 -1 -249.5 -103t-102.5 -241q0 -40 8 -83t31.5 -94.5
t60 -91.5t100 -66.5t145.5 -26.5h400v-92h-835q-29 -58 -29 -122q0 -114 111 -179t295 -66q79 -1 155.5 12t117.5 27zM576 1036v133h139v-133h-139z" />
    <glyph glyph-name="uni063A.fina" unicode="&#x63a;" horiz-adv-x="1287" arabic-form="final" 
d="M634 -452q-108 0 -200 29t-166 88t-116.5 159.5t-42.5 233.5v29h156q184 0 338 29q-167 86 -304 210.5t-214 230.5q94 141 247.5 238.5t337.5 97.5q129 0 232.5 -32.5t164.5 -85.5t93 -114.5t32 -124.5q0 -282 -311 -424q92 -20 189 -20h217q8 0 12 -4q8 -10 8 -42
q0 -33 -6 -40q-5 -6 -14 -6h-238q-155 0 -315 58q-202 -58 -454 -58h-63q16 -173 126 -265.5t290 -94.5q126 -1 330 58l27 -89q-209 -61 -356 -61zM207 558q36 -46 82 -94.5t113.5 -108t157 -114t184.5 -89.5q159 52 249.5 143.5t90.5 225.5q0 116 -111 200.5t-303 84.5
q-77 0 -151.5 -24t-133.5 -64t-101.5 -79t-76.5 -81zM601 1044v133h139v-133h-139z" />
    <glyph glyph-name="uni063A.init" unicode="&#x63a;" horiz-adv-x="1104" arabic-form="initial" 
d="M0 0q-9 0 -14 6q-6 7 -6 40q0 32 8 42q4 4 12 4h349q-49 33 -84.5 81t-53.5 99t-25.5 95.5t-7.5 86.5q0 182 130 309t320 127q180 0 369 -93l-43 -86q-175 88 -325 87q-148 -1 -250.5 -103t-102.5 -241q0 -40 8 -83t31.5 -94.5t60 -91.5t100.5 -66.5t146 -26.5h400v-92
h-1022zM551 1036v133h139v-133h-139z" />
    <glyph glyph-name="uni063A.medi" unicode="&#x63a;" horiz-adv-x="1293" arabic-form="medial" 
d="M0 0q-9 0 -14 6q-6 7 -6 40q0 32 8 42q4 4 12 4h292q170 0 310 26q-90 47 -176 109.5t-152 127t-110 112.5t-80 95q44 66 104 124t135 107t167.5 77.5t187.5 28.5q124 0 225 -32.5t162 -85.5t93.5 -115t32.5 -125q0 -286 -309 -429q94 -20 196 -20h215q8 0 12 -4
q8 -10 8 -42q0 -33 -6 -40q-5 -6 -14 -6h-237q-161 0 -319 58q-203 -58 -449 -58h-288zM207 562q35 -48 79.5 -96.5t111.5 -109t156.5 -115t186.5 -89.5q160 51 251 144t91 231q0 114 -110.5 199t-294.5 85q-90 0 -171 -26.5t-140.5 -70.5t-95 -79t-64.5 -73zM609 1044v133
h139v-133h-139z" />
    <glyph glyph-name="uni0641.isol" unicode="&#x641;" horiz-adv-x="1775" arabic-form="isolated" 
d="M564 0q-108 0 -189.5 32.5t-130.5 90.5t-73.5 133t-24.5 165v261h108v-261q0 -159 79 -244t231 -85h367q-157 115 -157 345q0 83 21.5 151.5t59.5 114.5t85 80.5t102 53t106.5 27.5t102.5 9q88 0 176 -22t132 -42t70 -37v-772h-1065zM881 431q0 -158 100 -248.5
t285 -90.5h256v624q-135 65 -272 65q-165 0 -267 -95t-102 -255zM1173 1036v133h139v-133h-139z" />
    <glyph glyph-name="uni0641.fina" unicode="&#x641;" horiz-adv-x="1778" arabic-form="final" 
d="M564 0q-108 0 -189.5 32.5t-130.5 90.5t-73.5 133t-24.5 165v261h108v-261q0 -159 79 -244t231 -85h367q-157 115 -157 345q0 83 21.5 151.5t59.5 114.5t85 80.5t102 53t106.5 27.5t102.5 9q88 0 176 -22t132 -42t70 -37v-680h149q8 0 12 -4q8 -10 8 -42q0 -33 -6 -40
q-5 -6 -14 -6h-1214zM881 431q0 -158 100 -248.5t285 -90.5h256v624q-135 65 -272 65q-165 0 -267 -95t-102 -255zM1173 1036v133h139v-133h-139z" />
    <glyph glyph-name="uni0641.init" unicode="&#x641;" horiz-adv-x="1119" arabic-form="initial" 
d="M0 0q-9 0 -14 6q-6 7 -6 40q0 32 8 42q4 4 12 4h275q-157 115 -157 345q0 83 21.5 151.5t59.5 114.5t85 80.5t102 53t106.5 27.5t102.5 9q88 0 176 -22t132 -42t70 -37v-772h-973zM225 431q0 -158 100 -248.5t285 -90.5h256v624q-135 65 -272 65q-165 0 -267 -95
t-102 -255zM517 1036v133h139v-133h-139z" />
    <glyph glyph-name="uni0641.medi" unicode="&#x641;" horiz-adv-x="1117" arabic-form="medial" 
d="M0 0q-9 0 -14 6q-6 7 -6 40q0 32 8 42q4 4 12 4h275q-157 115 -157 345q0 83 21.5 151.5t59.5 114.5t85 80.5t102 53t106.5 27.5t102.5 9q88 0 176 -22t132 -42t70 -37v-680h144q8 0 12 -4q8 -10 8 -42q0 -33 -6 -40q-5 -6 -14 -6h-1117zM225 431q0 -158 100 -248.5
t285 -90.5h256v624q-135 65 -272 65q-165 0 -267 -95t-102 -255zM517 1036v133h139v-133h-139z" />
    <glyph glyph-name="uni0642.isol" unicode="&#x642;" horiz-adv-x="1441" arabic-form="isolated" 
d="M676 -443q-279 0 -430.5 122t-159.5 344q-9 86 22 227l102 -22q-26 -114 -21 -180q4 -190 127 -294.5t360 -104.5h511v351h-260q-238 0 -363 116t-125 321q0 102 31.5 181t79.5 125.5t112.5 76.5t124 41t120.5 11q84 0 175 -21.5t135.5 -39.5t77.5 -35v-1219h-619z
M546 431q0 -158 100.5 -248.5t285.5 -90.5h255v622q-143 66 -278 66q-162 0 -262.5 -93.5t-100.5 -255.5zM717 1036v133h135v-133h-135zM970 1036v133h135v-133h-135z" />
    <glyph glyph-name="uni0642.fina" unicode="&#x642;" horiz-adv-x="1451" arabic-form="final" 
d="M676 -443q-279 0 -430.5 122t-159.5 344q-9 86 22 227l102 -22q-26 -114 -21 -180q4 -190 127 -294.5t360 -104.5h511v351h-260q-238 0 -363 116t-125 321q0 102 31.5 181t79.5 125.5t112.5 76.5t124 41t120.5 11q84 0 175 -21.5t135.5 -39.5t77.5 -35v-684h156
q8 0 12 -4q8 -10 8 -42q0 -33 -6 -40q-5 -6 -14 -6h-156v-443h-619zM546 431q0 -158 100.5 -248.5t285.5 -90.5h255v622q-143 66 -278 66q-162 0 -262.5 -93.5t-100.5 -255.5zM717 1036v133h135v-133h-135zM970 1036v133h135v-133h-135z" />
    <glyph glyph-name="uni0642.init" unicode="&#x642;" horiz-adv-x="1119" arabic-form="initial" 
d="M0 0q-9 0 -14 6q-6 7 -6 40q0 32 8 42q4 4 12 4h275q-157 115 -157 345q0 83 21.5 151.5t59.5 114.5t85 80.5t102 53t106.5 27.5t102.5 9q88 0 176 -22t132 -42t70 -37v-772h-973zM225 431q0 -158 100 -248.5t285 -90.5h256v624q-135 65 -272 65q-165 0 -267 -95
t-102 -255zM395 1036v133h135v-133h-135zM648 1036v133h135v-133h-135z" />
    <glyph glyph-name="uni0642.medi" unicode="&#x642;" horiz-adv-x="1117" arabic-form="medial" 
d="M0 0q-9 0 -14 6q-6 7 -6 40q0 32 8 42q4 4 12 4h275q-157 115 -157 345q0 83 21.5 151.5t59.5 114.5t85 80.5t102 53t106.5 27.5t102.5 9q88 0 176 -22t132 -42t70 -37v-680h144q8 0 12 -4q8 -10 8 -42q0 -33 -6 -40q-5 -6 -14 -6h-1117zM225 431q0 -158 100 -248.5
t285 -90.5h256v624q-135 65 -272 65q-165 0 -267 -95t-102 -255zM395 1036v133h135v-133h-135zM648 1036v133h135v-133h-135z" />
    <glyph glyph-name="uni0643.isol" unicode="&#x643;" horiz-adv-x="1389" arabic-form="isolated" 
d="M641 0q-270 0 -414.5 132t-144.5 361q0 72 27 188l104 -22q-23 -98 -23 -165q0 -192 115 -297t336 -105h494v1370h108v-1462h-602zM547 777v64h181v5q0 45 -22 64t-65 19h-85v67h1l148 114l39 -52l-81 -63q68 -6 102 -46.5t34 -98.5q0 -25 -7 -73h-245z" />
    <glyph glyph-name="uni0643.fina" unicode="&#x643;" horiz-adv-x="1460" arabic-form="final" 
d="M641 0q-270 0 -414.5 132t-144.5 361q0 72 27 188l104 -22q-23 -98 -23 -165q0 -192 115 -297t336 -105h494v1370h108v-1370h217q8 0 12 -4q8 -10 8 -42q0 -33 -6 -40q-4 -6 -14 -6h-819zM547 777v64h181v5q0 45 -22 64t-65 19h-85v67h1l148 114l39 -52l-81 -63
q68 -6 102 -46.5t34 -98.5q0 -25 -7 -73h-245z" />
    <glyph glyph-name="uni0643.init" unicode="&#x643;" horiz-adv-x="962" arabic-form="initial" 
d="M0 0q-9 0 -14 6q-6 7 -6 40q0 32 8 42q4 4 12 4h772v10q0 179 -45.5 313t-126.5 211.5t-182.5 115t-224.5 37.5h-98v111l389 572l89 -56l-365 -533q166 0 295.5 -56.5t211 -159.5t123.5 -243t42 -312q0 -27 -6 -102h-874z" />
    <glyph glyph-name="uni0643.medi" unicode="&#x643;" horiz-adv-x="993" arabic-form="medial" 
d="M0 0q-9 0 -14 6q-6 7 -6 40q0 32 8 42q4 4 12 4h772v10q0 179 -45.5 313t-126.5 211.5t-182.5 115t-224.5 37.5h-98v111l389 572l89 -56l-365 -533q166 0 295.5 -56.5t211 -159.5t123.5 -243t42 -312v-10h113q8 0 12 -4q8 -10 8 -42q0 -33 -6 -40q-5 -6 -14 -6h-993z" />
    <glyph glyph-name="uni0644.isol" unicode="&#x644;" horiz-adv-x="1190" arabic-form="isolated" 
d="M598 -443q-77 0 -150.5 17.5t-140 56t-116.5 93.5t-79.5 134.5t-29.5 174.5q0 153 94 372l99 -39q-85 -201 -85 -331q0 -172 113 -279t294 -107q162 0 251 90t89 255v1468h108v-1468q0 -114 -37 -201t-101.5 -137t-142 -74.5t-166.5 -24.5z" />
    <glyph glyph-name="uni0644.fina" unicode="&#x644;" horiz-adv-x="1228" arabic-form="final" 
d="M598 -443q-77 0 -150.5 17.5t-140 56t-116.5 93.5t-79.5 134.5t-29.5 174.5q0 153 94 372l99 -39q-85 -201 -85 -331q0 -172 113 -279t294 -107q162 0 251 90t89 255v1468h108v-1370h183q8 0 12 -4q8 -10 8 -42q0 -33 -6 -40q-4 -6 -14 -6h-183v-6q0 -114 -37 -201
t-101.5 -137t-142 -74.5t-166.5 -24.5z" />
    <glyph glyph-name="uni0644.init" unicode="&#x644;" horiz-adv-x="477" arabic-form="initial" 
d="M0 0q-9 0 -14 6q-6 7 -6 40q0 32 8 42q4 4 12 4h224v1370h108v-1462h-332z" />
    <glyph glyph-name="uni0644.medi" unicode="&#x644;" horiz-adv-x="483" arabic-form="medial" 
d="M0 0q-9 0 -14 6q-6 7 -6 40q0 32 8 42q4 4 12 4h224v1370h108v-1370h151q8 0 12 -4q8 -10 8 -42q0 -33 -6 -40q-5 -6 -14 -6h-483z" />
    <glyph glyph-name="uni0645.isol" unicode="&#x645;" horiz-adv-x="1448" arabic-form="isolated" 
d="M843 0q-91 0 -168 24.5t-130 64.5t-92 92.5t-59.5 107.5t-26.5 111q-96 -16 -142 -83t-32 -174l80 -594h-108l-79 580q-20 150 58 250t224 115q9 72 42.5 139.5t88.5 126.5t142.5 94.5t192.5 35.5q93 0 172 -28.5t132.5 -74t91 -104.5t55 -119.5t17.5 -118.5v-445h-459z
M473 443q0 -148 106.5 -249.5t269.5 -101.5h345v353q0 148 -100 251t-260 103q-158 0 -259.5 -104t-101.5 -252z" />
    <glyph glyph-name="uni0645.fina" unicode="&#x645;" horiz-adv-x="1456" arabic-form="final" 
d="M843 0q-91 0 -168 24.5t-130 64.5t-92 92.5t-59.5 107.5t-26.5 111q-96 -16 -142 -83t-32 -174l80 -594h-108l-79 580q-20 150 58 250t224 115q9 72 42.5 139.5t88.5 126.5t142.5 94.5t192.5 35.5q93 0 172 -28.5t132.5 -74t91 -104.5t55 -119.5t17.5 -118.5v-353h154
q8 0 12 -4q8 -10 8 -42q0 -33 -6 -40q-4 -6 -14 -6h-613zM473 443q0 -148 106.5 -249.5t269.5 -101.5h345v353q0 148 -100 251t-260 103q-158 0 -259.5 -104t-101.5 -252z" />
    <glyph glyph-name="uni0645.init" unicode="&#x645;" horiz-adv-x="1279" arabic-form="initial" 
d="M674 0q-249 0 -382 170q-22 -84 -82 -127t-153 -43h-57q-9 0 -14 6q-6 7 -6 40q0 32 8 42q4 4 12 4h57q139 0 139 181v170v1q0 59 17.5 120t55.5 119.5t91.5 104.5t132.5 74t172 28t172.5 -28.5t133 -74t91 -104.5t55 -119.5t17.5 -118.5v-445h-460zM304 443
q0 -148 107 -249.5t269 -101.5h345v353q0 149 -99 251t-261 102q-158 0 -259.5 -104t-101.5 -251z" />
    <glyph glyph-name="uni0645.medi" unicode="&#x645;" horiz-adv-x="1268" arabic-form="medial" 
d="M674 0q-249 0 -382 170q-22 -84 -82 -127t-153 -43h-57q-9 0 -14 6q-6 7 -6 40q0 32 8 42q4 4 12 4h57q139 0 139 181v170v1q0 59 17.5 120t55.5 119.5t91.5 104.5t132.5 74t172 28t172.5 -28.5t133 -74t91 -104.5t55 -119.5t17.5 -118.5v-353h134q8 0 12 -4q8 -10 8 -42
q0 -33 -6 -40q-4 -6 -14 -6h-594zM304 443q0 -148 107 -249.5t269 -101.5h345v353q0 149 -99 251t-261 102q-158 0 -259.5 -104t-101.5 -251z" />
    <glyph glyph-name="uni0646.isol" unicode="&#x646;" horiz-adv-x="1281" arabic-form="isolated" 
d="M644 -401q-125 0 -225 31.5t-176.5 96.5t-118.5 174.5t-42 256.5q0 266 123 504l100 -39q-115 -221 -115 -463q0 -469 450 -469q191 0 289 92.5t98 260.5v826h108v-826q0 -115 -38 -202.5t-106 -139.5t-155 -77.5t-192 -25.5zM593 1036v133h139v-133h-139z" />
    <glyph glyph-name="uni0646.fina" unicode="&#x646;" horiz-adv-x="1306" arabic-form="final" 
d="M644 -401q-125 0 -225 31.5t-176.5 96.5t-118.5 174.5t-42 256.5q0 266 123 504l100 -39q-115 -221 -115 -463q0 -469 450 -469q191 0 289 92.5t98 260.5v826h108v-778h171q8 0 12 -4q8 -10 8 -42q0 -33 -6 -40q-4 -6 -14 -6h-172q-7 -104 -48 -182.5t-107.5 -125.5
t-150.5 -70t-184 -23zM593 1036v133h139v-133h-139z" />
    <glyph glyph-name="uni0646.init" unicode="&#x646;" horiz-adv-x="564" arabic-form="initial" 
d="M0 0q-9 0 -14 6q-6 7 -6 40q0 32 8 42q4 4 12 4h153q158 0 158 200v578h107v-589q0 -135 -63 -208t-180 -73h-175zM295 1036v133h139v-133h-139z" />
    <glyph glyph-name="uni0646.medi" unicode="&#x646;" horiz-adv-x="677" arabic-form="medial" 
d="M0 0q-9 0 -14 6q-6 7 -6 40q0 32 8 42q4 4 12 4h153q158 0 158 200v578h107v-585q0 -93 33.5 -143t95.5 -50h129v-92h-126q-118 0 -173 103q-61 -103 -202 -103h-175zM295 1036v133h139v-133h-139zM677 0v92q8 0 12 -4q8 -10 8 -42q0 -33 -6 -40q-5 -6 -14 -6z" />
    <glyph glyph-name="uni0647.isol" unicode="&#x647;" horiz-adv-x="1101" arabic-form="isolated" 
d="M567 0q-100 0 -183.5 28.5t-138 74t-92.5 104.5t-54.5 118.5t-16.5 117.5q0 75 29 151t84 143.5t148 110t208 42.5q93 0 172 -28.5t132.5 -74t91 -104.5t55 -119.5t17.5 -118.5v-290q-86 -72 -206.5 -113.5t-245.5 -41.5zM191 443q0 -146 106 -248.5t267 -102.5
q179 0 347 118v235q0 144 -104 248.5t-256 104.5t-256 -105t-104 -250z" />
    <glyph glyph-name="uni0647.fina" unicode="&#x647;" horiz-adv-x="1075" arabic-form="final" 
d="M570 0q-238 0 -363 115t-125 320q0 99 30.5 177.5t78 125.5t111.5 78t124.5 42.5t123.5 11.5q85 0 175.5 -21.5t135 -40t76.5 -35.5v-681h138q8 0 12 -4q8 -10 8 -42q0 -33 -6 -40q-5 -6 -14 -6h-505zM190 429q0 -158 98 -247.5t287 -89.5h255v620q-140 67 -278 67
q-161 0 -261.5 -93t-100.5 -257z" />
    <glyph glyph-name="uni0647.init" unicode="&#x647;" horiz-adv-x="1639" arabic-form="initial" 
d="M0 0q-9 0 -14 6q-6 7 -6 40q0 32 8 42q4 4 12 4h339q-135 102 -135 324q0 92 33.5 165t90.5 118t121 71.5t136 37.5q65 100 181.5 172.5t265.5 72.5q129 0 231 -44t165.5 -121.5t96 -178.5t32.5 -220v-489h-1557zM312 416q0 -168 96.5 -246t288.5 -78h255v573
q-135 65 -271 65q-164 0 -266.5 -87.5t-102.5 -226.5zM697 816q85 -2 169.5 -24t126 -41t67.5 -36v-623h389v405q0 98 -24.5 181t-73.5 148t-130.5 101.5t-187.5 36.5q-105 0 -193 -43t-143 -105z" />
    <glyph glyph-name="uni0647.medi" unicode="&#x647;" horiz-adv-x="1188" arabic-form="medial" 
d="M1188 92q8 0 12 -4q8 -10 8 -42q0 -33 -6 -40q-4 -6 -14 -6h-188v-125q0 -140 -108.5 -233t-298.5 -93q-98 0 -172 20t-117 51t-70 75t-36 85t-9 89v131h-189q-9 0 -14 6q-6 7 -6 40q0 32 8 42q4 4 12 4h189v416q0 177 112.5 284.5t297.5 107.5q85 0 164 -25t144.5 -73.5
t105 -131t39.5 -186.5q0 -235 -154.5 -359.5t-439.5 -124.5h-162v-134q0 -29 5.5 -55.5t24.5 -59t50 -55.5t88 -39t132 -16q130 0 213.5 60.5t83.5 176.5v122v40v52h295zM296 92h162q229 0 358 92.5t129 285.5q0 65 -21.5 124.5t-62.5 108t-108.5 77.5t-152.5 29
q-147 0 -225.5 -85t-78.5 -218v-414z" />
    <glyph glyph-name="uni0648.isol" unicode="&#x648;" horiz-adv-x="1016" arabic-form="isolated" 
d="M483 -451q-167 0 -394 78l29 87q118 -38 198.5 -55.5t162.5 -17.5q150 0 249 91.5t99 224.5v43h-260q-238 0 -363 115t-125 320q0 85 21 154t58 115.5t82.5 80.5t99 52t103 26.5t99.5 8.5q85 0 176.5 -21.5t137.5 -40t78 -35.5v-822q0 -124 -64.5 -217.5t-165.5 -140
t-221 -46.5zM186 429q0 -156 100 -246.5t285 -90.5h256v620q-142 66 -278 66q-163 0 -263 -90t-100 -259z" />
    <glyph glyph-name="uni0648.fina" unicode="&#x648;" horiz-adv-x="1077" arabic-form="final" 
d="M483 -451q-167 0 -394 78l29 87q118 -38 198.5 -55.5t162.5 -17.5q150 0 249 91.5t99 224.5v43h-260q-238 0 -363 115t-125 320q0 85 21 154t58 115.5t82.5 80.5t99 52t103 26.5t99.5 8.5q85 0 176.5 -21.5t137.5 -40t78 -35.5v-683h143q8 0 12 -4q8 -10 8 -42
q0 -33 -6 -40q-5 -6 -14 -6h-143v-47q0 -124 -64.5 -217.5t-165.5 -140t-221 -46.5zM186 429q0 -156 100 -246.5t285 -90.5h256v620q-142 66 -278 66q-163 0 -263 -90t-100 -259z" />
    <glyph glyph-name="uni0649.isol" unicode="&#x649;" horiz-adv-x="1708" arabic-form="isolated" 
d="M641 -186q-270 0 -414.5 132.5t-144.5 361.5q0 66 24 177t61 195l100 -29q-34 -78 -55 -178t-21 -165q0 -192 114.5 -297t335.5 -105h364v925q4 1 25.5 9t26 9.5l24 8t25.5 8t23.5 6.5t26 6.5t24.5 4.5t27.5 4t26.5 2t30 1q152 0 225 -83.5t73 -231.5v-575h-108v575
q0 116 -47 169.5t-146 53.5q-64 0 -148 -31v-953h-472z" />
    <glyph glyph-name="uni0649.fina" unicode="&#x649;" horiz-adv-x="1728" arabic-form="final" 
d="M1454 0v575q0 116 -47 169.5t-146 53.5q-64 0 -148 -31v-953h-472q-270 0 -414.5 132.5t-144.5 361.5q0 66 24 177t61 195l100 -29q-34 -78 -55 -178t-21 -165q0 -192 114.5 -297t335.5 -105h364v925q4 1 25.5 9t26 9.5l24 8t25.5 8t23.5 6.5t26 6.5t24.5 4.5t27.5 4
t26.5 2t30 1q152 0 225 -83.5t73 -231.5v-483h166q8 0 12 -4q8 -10 8 -42q0 -33 -6 -40q-4 -6 -14 -6h-274z" />
    <glyph glyph-name="uni064A.isol" unicode="&#x64a;" horiz-adv-x="1708" arabic-form="isolated" 
d="M641 -186q-270 0 -414.5 132.5t-144.5 361.5q0 66 24 177t61 195l100 -29q-34 -78 -55 -178t-21 -165q0 -192 114.5 -297t335.5 -105h364v925q4 1 25.5 9t26 9.5l24 8t25.5 8t23.5 6.5t26 6.5t24.5 4.5t27.5 4t26.5 2t30 1q152 0 225 -83.5t73 -231.5v-575h-108v575
q0 116 -47 169.5t-146 53.5q-64 0 -148 -31v-953h-472zM555 -469v133h135v-133h-135zM808 -469v133h135v-133h-135z" />
    <glyph glyph-name="uni064A.fina" unicode="&#x64a;" horiz-adv-x="1728" arabic-form="final" 
d="M1454 0v575q0 116 -47 169.5t-146 53.5q-64 0 -148 -31v-953h-472q-270 0 -414.5 132.5t-144.5 361.5q0 66 24 177t61 195l100 -29q-34 -78 -55 -178t-21 -165q0 -192 114.5 -297t335.5 -105h364v925q4 1 25.5 9t26 9.5l24 8t25.5 8t23.5 6.5t26 6.5t24.5 4.5t27.5 4
t26.5 2t30 1q152 0 225 -83.5t73 -231.5v-483h166q8 0 12 -4q8 -10 8 -42q0 -33 -6 -40q-4 -6 -14 -6h-274zM555 -469v133h135v-133h-135zM808 -469v133h135v-133h-135z" />
    <glyph glyph-name="uni064A.medi" unicode="&#x64a;" horiz-adv-x="677" arabic-form="medial" 
d="M0 0q-9 0 -14 6q-6 7 -6 40q0 32 8 42q4 4 12 4h153q158 0 158 200v578h107v-585q0 -93 33.5 -143t95.5 -50h129v-92h-126q-118 0 -173 103q-61 -103 -202 -103h-175zM62 -333v133h135v-133h-135zM315 -333v133h135v-133h-135zM677 0v92q8 0 12 -4q8 -10 8 -42
q0 -33 -6 -40q-5 -6 -14 -6z" />
    <glyph glyph-name=".notdef" horiz-adv-x="1124" 
d="M141 0v1462h841v-1462h-841zM245 104h633v1254h-633v-1254z" />
    <glyph glyph-name=".null" 
 />
    <glyph glyph-name="nonmarkingreturn" horiz-adv-x="1044" 
 />
    <glyph glyph-name="space" unicode=" " horiz-adv-x="443" 
 />
    <glyph glyph-name="exclam" unicode="!" horiz-adv-x="504" 
d="M212 377l-27 1085h131l-27 -1085h-77zM171 -42v230h158v-230h-158z" />
    <glyph glyph-name="quotedbl" unicode="&#x22;" horiz-adv-x="737" 
d="M504 934l-35 528h136l-36 -528h-65zM133 1462h135l-35 -528h-65z" />
    <glyph glyph-name="numbersign" unicode="#" horiz-adv-x="1323" 
d="M249 0l85 448h-279v85h296l76 392h-294v85h309l85 452h97l-87 -452h358l87 452h92l-87 -452h281v-85h-299l-75 -392h300v-85h-317l-86 -448h-96l88 448h-354l-86 -448h-94zM444 533h356l77 392h-357z" />
    <glyph glyph-name="dollar" unicode="$" horiz-adv-x="1170" 
d="M535 -72v187h-31q-197 0 -362 53l35 74q169 -51 321 -51q189 0 290.5 67t101.5 179q0 41 -13.5 75.5t-40 60.5t-56.5 46t-73 37t-79 29t-85 27q-9 3 -14 4q-198 59 -282 132.5t-84 192.5q0 139 99.5 220.5t272.5 94.5v183h87v-181q157 -6 328 -70l-33 -73
q-173 66 -323 66q-152 0 -241.5 -61t-89.5 -168q0 -36 11 -66.5t25.5 -52.5t44.5 -43.5t51 -33.5t64 -28t64.5 -23t69.5 -21q223 -69 310 -141t87 -193q0 -136 -93.5 -222t-274.5 -107v-193h-87z" />
    <glyph glyph-name="percent" unicode="%" horiz-adv-x="1647" 
d="M368 0l811 1462h102l-811 -1462h-102zM115 1026q0 225 71.5 341t210.5 116q138 0 213.5 -120t75.5 -337q0 -225 -74 -343t-215 -118q-133 0 -207.5 121t-74.5 340zM213 1026q0 -182 43.5 -277t139.5 -95q192 0 192 372q0 183 -49 276t-143 93q-183 0 -183 -369zM962 439
q0 224 72.5 340.5t210.5 116.5q136 0 212 -119.5t76 -337.5q0 -226 -73.5 -344t-214.5 -118q-135 0 -209 121.5t-74 340.5zM1059 439q0 -182 43.5 -276t140.5 -94q191 0 191 370q0 368 -191 368q-97 0 -140.5 -93t-43.5 -275z" />
    <glyph glyph-name="ampersand" unicode="&#x26;" horiz-adv-x="1466" 
d="M565 -20q-209 0 -326 103.5t-117 288.5q0 137 75.5 235t270.5 204q-125 136 -164 207t-39 157q0 144 94.5 227t257.5 83q157 0 245.5 -81t88.5 -227q0 -106 -75 -195.5t-256 -196.5l458 -450q126 133 186 362h98q-65 -259 -208 -428l279 -269h-148l-198 198
q-127 -124 -246.5 -171t-275.5 -47zM230 374q0 -140 87 -222t240 -83q258 -3 457 199l-486 468q-174 -94 -236 -169t-62 -193zM369 1179q0 -78 41 -147.5t149 -174.5q156 85 222.5 160t66.5 168q0 95 -61 154t-171 59q-118 0 -182.5 -59t-64.5 -160z" />
    <glyph glyph-name="quotesingle" unicode="'" horiz-adv-x="401" 
d="M168 934l-35 528h135l-35 -528h-65z" />
    <glyph glyph-name="parenleft" unicode="(" horiz-adv-x="563" 
d="M383 -324q-147 170 -224 397t-77 488q0 265 77.5 496t223.5 405h119q-147 -184 -224.5 -415.5t-77.5 -483.5q0 -489 300 -887h-117z" />
    <glyph glyph-name="parenright" unicode=")" horiz-adv-x="563" 
d="M63 -324q300 398 300 887q0 253 -77.5 483.5t-224.5 415.5h119q147 -174 224 -405.5t77 -495.5q0 -263 -77.5 -490t-223.5 -395h-117z" />
    <glyph glyph-name="asterisk" unicode="*" horiz-adv-x="1130" 
d="M746 668l-188 378l-177 -378l-134 75l245 339l-390 37l20 139l400 -106l-40 404h154l-38 -404l404 106l22 -139l-395 -37l250 -339z" />
    <glyph glyph-name="plus" unicode="+" horiz-adv-x="1170" 
d="M538 243v435h-428v90h428v436h91v-436h430v-90h-430v-435h-91z" />
    <glyph glyph-name="comma" unicode="," horiz-adv-x="478" 
d="M87 -264q79 293 109 502h126l12 -21q-69 -254 -174 -481h-73z" />
    <glyph glyph-name="hyphen" unicode="-" horiz-adv-x="659" 
d="M92 506v93h476v-93h-476z" />
    <glyph glyph-name="period" unicode="." horiz-adv-x="500" 
d="M191 -23v172h146v-172h-146z" />
    <glyph glyph-name="slash" unicode="/" horiz-adv-x="704" 
d="M24 0l545 1462h112l-545 -1462h-112z" />
    <glyph glyph-name="zero" unicode="0" horiz-adv-x="1143" 
d="M574 -20q-474 0 -474 762q0 373 114.5 558t350.5 185q478 0 478 -759q0 -746 -469 -746zM212 735q0 -337 93 -500t265 -163q173 0 265.5 165.5t92.5 496.5q0 328 -92.5 493t-266.5 165t-265.5 -164t-91.5 -493z" />
    <glyph glyph-name="one" unicode="1" horiz-adv-x="663" 
d="M413 0v1346l-314 -251l-56 70l382 297h96v-1462h-108z" />
    <glyph glyph-name="two" unicode="2" horiz-adv-x="1125" 
d="M103 0v97l393 402q43 44 58 59.5t54.5 57.5t56 63t49 61.5t47 66.5t36.5 65.5t31.5 71.5t17 70.5t7.5 76.5q0 138 -83 218.5t-227 80.5q-183 0 -352 -134l-56 73q184 154 420 154q187 0 296 -103t109 -289q0 -134 -73.5 -267.5t-272.5 -338.5l-374 -388v-4h785v-93h-922z
" />
    <glyph glyph-name="three" unicode="3" horiz-adv-x="1133" 
d="M490 -20q-226 0 -390 82l50 75q147 -66 332 -66q214 0 328.5 89t114.5 250q0 144 -114.5 224t-330.5 80h-157v90h159q178 0 285.5 89.5t107.5 234.5q0 119 -86 191.5t-223 72.5q-107 0 -197 -30t-202 -103l-52 69q86 72 205 113.5t241 41.5q203 0 314.5 -96t111.5 -270
q0 -136 -82.5 -228t-226.5 -119v-7q175 -22 265 -112t90 -241q0 -207 -141 -318.5t-402 -111.5z" />
    <glyph glyph-name="four" unicode="4" horiz-adv-x="1159" 
d="M792 0v362h-749v87l721 1023h136v-1018h236v-92h-236v-362h-108zM150 454h642v916z" />
    <glyph glyph-name="five" unicode="5" horiz-adv-x="1099" 
d="M463 -20q-105 0 -203 21.5t-160 60.5l55 82q150 -70 311 -70q198 0 311 98t113 269q0 166 -109 256.5t-305 90.5q-122 0 -270 -36l-64 43l57 667h704v-93h-609l-44 -517q150 28 250 28q233 0 366 -114t133 -321q0 -215 -142.5 -340t-393.5 -125z" />
    <glyph glyph-name="six" unicode="6" horiz-adv-x="1119" 
d="M574 -20q-225 0 -349.5 169.5t-124.5 508.5q0 390 165 608.5t459 218.5q110 0 182 -22v-94q-72 27 -172 27q-240 0 -373.5 -163t-156.5 -481q72 73 180 112.5t217 39.5q196 0 307 -118.5t111 -327.5q0 -219 -120.5 -348.5t-324.5 -129.5zM202 618q5 -274 99.5 -410.5
t270.5 -136.5q160 0 251 105t91 284q0 167 -85.5 261.5t-239.5 94.5q-111 0 -216 -46.5t-171 -114.5v-37z" />
    <glyph glyph-name="seven" unicode="7" horiz-adv-x="1012" 
d="M259 0l608 1369h-834v93h946v-84l-606 -1378h-114z" />
    <glyph glyph-name="eight" unicode="8" horiz-adv-x="1128" 
d="M563 -20q-224 0 -343.5 102t-119.5 293q0 266 354 390q-168 79 -237.5 166t-69.5 206q0 84 33.5 152t91.5 110.5t133 65t159 22.5q189 0 302 -95t113 -257q0 -112 -72.5 -200t-233.5 -162q194 -76 274.5 -168t80.5 -227q0 -182 -125.5 -290t-339.5 -108zM204 361
q0 -137 95.5 -216t262.5 -79q163 0 262.5 84t99.5 221q0 119 -80.5 196.5t-285.5 154.5q-192 -65 -273 -149t-81 -212zM252 1136q0 -60 22.5 -108t69.5 -86t99 -66t129 -60q160 63 231.5 138.5t71.5 181.5q0 119 -85 192t-228 73q-141 0 -225.5 -73t-84.5 -192z" />
    <glyph glyph-name="nine" unicode="9" horiz-adv-x="1119" 
d="M545 1483q225 0 349.5 -169.5t124.5 -508.5q0 -390 -165 -608.5t-459 -218.5q-110 0 -182 22v94q72 -27 172 -27q240 0 373.5 163t156.5 481q-72 -73 -180 -112.5t-217 -39.5q-196 0 -307 118.5t-111 327.5q0 219 120.5 348.5t324.5 129.5zM205 1003q0 -167 85.5 -261.5
t239.5 -94.5q111 0 216 46.5t171 114.5v37q-5 274 -99.5 410.5t-270.5 136.5q-160 0 -251 -105t-91 -284z" />
    <glyph glyph-name="colon" unicode=":" horiz-adv-x="500" 
d="M248 581q-38 0 -61.5 25.5t-23.5 80.5q0 106 85 106q89 0 89 -106q0 -53 -24 -79.5t-65 -26.5zM163 83q0 106 85 106q89 0 89 -106q0 -105 -89 -105q-85 0 -85 105z" />
    <glyph glyph-name="semicolon" unicode=";" horiz-adv-x="499" 
d="M73 -264q28 98 61.5 250.5t47.5 251.5h126l12 -21q-69 -254 -174 -481h-73zM161 978q0 106 85 106q89 0 89 -106q0 -53 -24 -79t-65 -26q-85 0 -85 105z" />
    <glyph glyph-name="less" unicode="&#x3c;" horiz-adv-x="1170" 
d="M1059 263l-949 417v66l949 475v-102l-821 -401l821 -351v-104z" />
    <glyph glyph-name="equal" unicode="=" horiz-adv-x="1170" 
d="M117 886v89h936v-89h-936zM117 469v91h936v-91h-936z" />
    <glyph glyph-name="greater" unicode="&#x3e;" horiz-adv-x="1170" 
d="M110 263v104l822 350l-822 402v102l949 -475v-66z" />
    <glyph glyph-name="question" unicode="?" horiz-adv-x="858" 
d="M276 416q0 56 9 101t21 75.5t41 67t50.5 58t68.5 65.5q21 20 56 51.5t51 46.5t39.5 39.5t34 42t22.5 42t16 51t4 58.5q0 135 -80.5 207t-224.5 72q-143 0 -296 -76l-38 84q185 82 340 82q191 0 297 -96t106 -265q0 -36 -6 -69t-13 -57.5t-25.5 -53.5t-29 -44.5t-39 -44
t-40.5 -39.5t-49 -43t-49 -43q-104 -92 -135 -155t-31 -179v-17h-100v39zM267 -42v230h132v-230h-132z" />
    <glyph glyph-name="at" unicode="@" horiz-adv-x="1823" 
d="M860 -197q-352 0 -547.5 200.5t-195.5 558.5q0 168 44.5 311.5t124 249t188 180.5t237.5 112t271 37q174 0 313.5 -57t228 -156.5t135.5 -231.5t47 -285q0 -222 -92 -362t-243 -140q-89 0 -147 49.5t-72 131.5q-42 -87 -123.5 -134t-183.5 -47q-146 0 -227 97.5
t-81 269.5q0 207 117.5 333t326.5 126q128 0 272 -40l-20 -494q-8 -204 138 -204q111 0 176.5 113t65.5 300q0 156 -48.5 278.5t-135.5 200.5t-205.5 119t-261.5 41q-178 0 -322 -63.5t-235.5 -173t-140.5 -254t-49 -310.5q0 -312 168 -485.5t478 -173.5q189 0 415 86v-103
q-198 -80 -416 -80zM646 586q0 -278 221 -278q244 0 263 340l16 287q-79 26 -176 26q-156 0 -240 -99.5t-84 -275.5z" />
    <glyph glyph-name="A" unicode="A" horiz-adv-x="1315" 
d="M26 0l583 1468h97l582 -1468h-109l-204 513h-636l-206 -513h-107zM373 606h569l-285 753z" />
    <glyph glyph-name="B" unicode="B" horiz-adv-x="1211" 
d="M141 0v1462h344q270 0 399.5 -88t129.5 -268q0 -110 -52.5 -198.5t-146.5 -133.5q145 -29 220.5 -124.5t75.5 -235.5q0 -196 -132.5 -305t-374.5 -109h-463zM249 93h351q199 0 300.5 81.5t101.5 238.5q0 156 -103.5 232t-317.5 76h-332v-628zM249 813h375q117 0 199 85.5
t82 198.5q0 272 -393 272h-263v-556z" />
    <glyph glyph-name="C" unicode="C" horiz-adv-x="1280" 
d="M797 -20q-155 0 -282.5 48t-220 139.5t-143.5 233t-51 320.5q0 187 53.5 334t148.5 239.5t221 140.5t276 48q200 0 381 -88l-41 -88q-168 84 -340 84q-280 0 -435 -176.5t-155 -491.5q0 -304 155.5 -477.5t436.5 -173.5q156 0 330 72l37 -83q-92 -38 -192.5 -59.5
t-178.5 -21.5z" />
    <glyph glyph-name="D" unicode="D" horiz-adv-x="1356" 
d="M141 0v1462h450q338 0 501.5 -177t163.5 -540q0 -383 -170 -564t-539 -181h-406zM249 92h289q171 0 287.5 38t188.5 119.5t103 200.5t31 291q0 331 -132 480t-446 149h-321v-1278z" />
    <glyph glyph-name="E" unicode="E" horiz-adv-x="1042" 
d="M141 0v1462h801v-92h-693v-552h614v-91h-614v-635h693v-92h-801z" />
    <glyph glyph-name="F" unicode="F" horiz-adv-x="1044" 
d="M141 0v1462h803v-92h-695v-619h589v-91h-589v-660h-108z" />
    <glyph glyph-name="G" unicode="G" horiz-adv-x="1398" 
d="M833 -20q-355 0 -544 193t-189 541q0 153 43.5 281.5t116.5 217.5t170.5 151.5t205 91.5t220.5 29q193 0 417 -102l-38 -85q-209 94 -378 94q-132 0 -249 -46t-206.5 -130.5t-141.5 -214t-52 -286.5q0 -308 163.5 -475t465.5 -167q88 0 188.5 16t164.5 40v553h108v-617
q-212 -85 -465 -85z" />
    <glyph glyph-name="H" unicode="H" horiz-adv-x="1347" 
d="M141 0v1462h108v-654h848v654h108v-1462h-108v716h-848v-716h-108z" />
    <glyph glyph-name="I" unicode="I" horiz-adv-x="391" 
d="M141 0v1462h108v-1462h-108z" />
    <glyph glyph-name="J" unicode="J" horiz-adv-x="650" 
d="M166 -10q-69 0 -146 28v94q77 -29 155 -29q110 0 167.5 67t57.5 193v1119h108v-1107q0 -180 -86.5 -272.5t-255.5 -92.5z" />
    <glyph glyph-name="K" unicode="K" horiz-adv-x="1157" 
d="M141 0v1462h108v-747l741 747h125l-602 -622l621 -840h-124l-568 765l-193 -195v-570h-108z" />
    <glyph glyph-name="L" unicode="L" horiz-adv-x="983" 
d="M141 0v1462h108v-1370h688v-92h-796z" />
    <glyph glyph-name="M" unicode="M" horiz-adv-x="1655" 
d="M141 0v1462h167l519 -997l518 997h168v-1462h-109l10 1347h-17l-515 -1001h-110l-515 1001h-16l10 -1347h-110z" />
    <glyph glyph-name="N" unicode="N" horiz-adv-x="1367" 
d="M141 0v1462h121l859 -1287h6l-8 1287h107v-1462h-120l-860 1290h-9l10 -1290h-106z" />
    <glyph glyph-name="O" unicode="O" horiz-adv-x="1507" 
d="M755 -20q-308 0 -481.5 201t-173.5 552q0 353 173.5 552.5t481.5 199.5q307 0 479.5 -201t172.5 -551q0 -349 -173 -551t-479 -202zM214 733q0 -311 146 -486t394 -175q249 0 394.5 174.5t145.5 486.5t-145 486t-394 174q-247 0 -394 -175.5t-147 -484.5z" />
    <glyph glyph-name="P" unicode="P" horiz-adv-x="1119" 
d="M141 0v1462h406q253 0 362.5 -102t109.5 -319q0 -220 -110.5 -330t-361.5 -110h-298v-601h-108zM249 693h268q117 0 194 20t121 65t61.5 107.5t17.5 155.5q0 88 -17.5 147t-61.5 101.5t-121.5 61.5t-195.5 19h-266v-677z" />
    <glyph glyph-name="Q" unicode="Q" horiz-adv-x="1503" 
d="M1100 -348l-285 330l-64 -1q-304 -3 -477.5 197.5t-173.5 554.5q0 353 172.5 552.5t478.5 199.5q307 0 478.5 -200.5t171.5 -549.5q0 -302 -119.5 -496t-357.5 -242l309 -345h-133zM208 731q0 -313 143.5 -485t405.5 -172q260 0 398 171t138 487q0 317 -139.5 489
t-400.5 172q-260 0 -402.5 -173.5t-142.5 -488.5z" />
    <glyph glyph-name="R" unicode="R" horiz-adv-x="1205" 
d="M141 0v1462h418q132 0 221 -25.5t141.5 -80t75 -130.5t22.5 -185q0 -184 -62.5 -286t-212.5 -136l361 -619h-113l-354 604q-38 -3 -79 -3h-310v-601h-108zM249 693h264q83 0 144 7.5t105.5 25.5t73 43.5t45.5 65.5t23.5 86.5t6.5 111.5q0 94 -14.5 153t-54.5 103
t-112 62.5t-187 18.5h-294v-677z" />
    <glyph glyph-name="S" unicode="S" horiz-adv-x="1104" 
d="M485 -20q-92 0 -198 17.5t-187 47.5l37 89q181 -62 342 -62q200 0 308.5 81.5t108.5 216.5q0 59 -23.5 108t-51.5 79t-88 61t-94 44t-110 39q-11 4 -17 6q-210 71 -300 160t-90 233q0 183 124 283t337 100q182 0 377 -84l-36 -88q-187 80 -343 80q-162 0 -257 -74
t-95 -204q0 -42 10.5 -78.5t27 -63.5t45 -51t54 -40.5t65 -34t68.5 -28t72 -25.5l9 -3q237 -83 329.5 -170t92.5 -234q0 -191 -131.5 -298t-385.5 -107z" />
    <glyph glyph-name="T" unicode="T" horiz-adv-x="1114" 
d="M503 0v1370h-478v92h1063v-92h-477v-1370h-108z" />
    <glyph glyph-name="U" unicode="U" horiz-adv-x="1373" 
d="M697 -20q-268 0 -412 129.5t-144 372.5v980h108v-991q0 -193 118 -296t331 -103q207 0 316.5 100.5t109.5 291.5v998h108v-984q0 -246 -136.5 -372t-398.5 -126z" />
    <glyph glyph-name="V" unicode="V" horiz-adv-x="1217" 
d="M562 0l-542 1462h111l477 -1329l476 1329h113l-543 -1462h-92z" />
    <glyph glyph-name="W" unicode="W" horiz-adv-x="1783" 
d="M420 0l-400 1462h115l335 -1291l354 1291h121l368 -1293l338 1293h112l-403 -1462h-89l-385 1344l-375 -1344h-91z" />
    <glyph glyph-name="X" unicode="X" horiz-adv-x="1135" 
d="M22 0l486 768l-443 694h115l390 -618l397 618h110l-451 -698l486 -764h-117l-429 686l-431 -686h-113z" />
    <glyph glyph-name="Y" unicode="Y" horiz-adv-x="1121" 
d="M506 0v558l-486 904h117l422 -792l425 792h117l-490 -902v-560h-105z" />
    <glyph glyph-name="Z" unicode="Z" horiz-adv-x="1188" 
d="M100 0v91l840 1279h-805v92h930v-91l-841 -1280h864v-91h-988z" />
    <glyph glyph-name="bracketleft" unicode="[" horiz-adv-x="659" 
d="M174 -324v1786h434v-100h-325v-1584h325v-102h-434z" />
    <glyph glyph-name="backslash" unicode="\" horiz-adv-x="704" 
d="M571 0l-545 1462h108l548 -1462h-111z" />
    <glyph glyph-name="bracketright" unicode="]" horiz-adv-x="659" 
d="M51 -324v102h325v1584h-325v100h434v-1786h-434z" />
    <glyph glyph-name="asciicircum" unicode="^" horiz-adv-x="1154" 
d="M81 562l455 911h73l464 -911h-107l-393 787l-385 -787h-107z" />
    <glyph glyph-name="underscore" unicode="_" horiz-adv-x="871" 
d="M-4 -279v95h879v-95h-879z" />
    <glyph glyph-name="a" unicode="a" horiz-adv-x="1015" 
d="M427 -20q-171 0 -261 80.5t-90 223.5q0 171 131 261.5t387 91.5h196v73q0 169 -59 239t-199 70q-145 0 -308 -83l-40 78q171 92 356 92q180 0 267.5 -91.5t87.5 -283.5v-731h-87l-15 147q-141 -167 -366 -167zM183 286q0 -104 72 -162.5t191 -58.5q117 0 193 40t151 136
v320h-180q-215 -1 -321 -73t-106 -202z" />
    <glyph glyph-name="b" unicode="b" horiz-adv-x="1116" 
d="M594 -20q-123 0 -219 47t-151 133l-18 -160h-86v1462h104v-532q56 86 152 132t218 46q215 0 330.5 -144.5t115.5 -418.5q0 -275 -115.5 -420t-330.5 -145zM224 286q57 -101 140.5 -157.5t218.5 -56.5q350 0 350 472t-349 472q-71 0 -128.5 -16t-100 -47t-73 -67
t-58.5 -84v-516z" />
    <glyph glyph-name="c" unicode="c" horiz-adv-x="924" 
d="M575 -20q-241 0 -370 146.5t-129 411.5q0 271 129.5 421t367.5 150q142 0 277 -55l-28 -87q-160 52 -248 52q-186 0 -288 -124t-102 -351q0 -223 103 -348.5t293 -125.5q105 0 227 46l30 -80q-114 -56 -262 -56z" />
    <glyph glyph-name="d" unicode="d" horiz-adv-x="1116" 
d="M522 -20q-215 0 -330.5 145t-115.5 420q0 274 115.5 418.5t330.5 144.5q122 0 218 -46t152 -132v532h104v-1462h-86l-18 160q-55 -86 -151 -133t-219 -47zM183 544q0 -472 350 -472q135 0 218.5 56.5t140.5 157.5v516q-28 48 -58.5 84t-73 67t-100 47t-128.5 16
q-349 0 -349 -472z" />
    <glyph glyph-name="e" unicode="e" horiz-adv-x="1022" 
d="M573 -20q-240 0 -368.5 145t-128.5 407q0 263 125 420t337 157q195 0 301.5 -133t106.5 -363v-83h-764q11 -464 394 -464q136 0 308 62l33 -79q-161 -69 -344 -69zM186 611h658q0 188 -81 301t-227 113q-151 0 -244 -111.5t-106 -302.5z" />
    <glyph glyph-name="f" unicode="f" horiz-adv-x="691" 
d="M195 1060q0 402 321 402q75 0 182 -30l-25 -87q-93 30 -156 27q-104 -1 -159 -73t-55 -230v-161h297v-87h-297v-821h-108v821h-172v87h172v152z" />
    <glyph glyph-name="g" unicode="g" horiz-adv-x="1116" 
d="M546 -492q-145 0 -265 56.5t-180 142.5l59 62q54 -76 150 -123t228 -47q176 0 264.5 104.5t88.5 328.5v128q-114 -179 -358 -179q-217 0 -337 145t-120 417q0 274 120 419.5t337 145.5q244 0 359 -179l13 159h91v-1057q0 -272 -120 -397.5t-330 -125.5zM183 545
q0 -474 349 -474q92 0 164 30.5t115 75t80 110.5v515q-27 49 -57 85t-72 67t-98.5 47t-127.5 16q-174 0 -263.5 -118.5t-89.5 -353.5z" />
    <glyph glyph-name="h" unicode="h" horiz-adv-x="1100" 
d="M876 708q0 158 -75.5 235.5t-231.5 77.5q-195 0 -345 -148v-873h-104v1462h104v-509q161 156 384 156q372 0 372 -401v-708h-104v708z" />
    <glyph glyph-name="i" unicode="i" horiz-adv-x="355" 
d="M126 0v1088h104v-1088h-104zM120 1260v193h115v-193h-115z" />
    <glyph glyph-name="j" unicode="j" horiz-adv-x="419" 
d="M42 -492q-89 0 -142 29l33 86q41 -18 99 -18q78 0 118 52t40 149v1282h104v-1292q0 -141 -64.5 -214.5t-187.5 -73.5zM184 1260v193h115v-193h-115z" />
    <glyph glyph-name="k" unicode="k" horiz-adv-x="933" 
d="M120 0v1462h103v-965l538 591h129l-433 -463l469 -625h-129l-412 548l-162 -174v-374h-103z" />
    <glyph glyph-name="l" unicode="l" horiz-adv-x="391" 
d="M328 0q-114 0 -161 64.5t-47 186.5v1211h105v-1199q0 -91 24 -128.5t84 -37.5h22v-97h-27z" />
    <glyph glyph-name="m" unicode="m" horiz-adv-x="1808" 
d="M120 0v1088h72l27 -125q67 66 169 106t222 40q234 0 315 -161q65 70 170 113.5t230 43.5q193 0 278 -104.5t85 -310.5v-695h-105v695q0 165 -61 246t-213 81q-102 0 -198.5 -33t-162.5 -95q24 -83 24 -195v-694h-104v694q0 166 -61.5 246.5t-213.5 80.5
q-106 0 -204.5 -34.5t-164.5 -100.5v-886h-104z" />
    <glyph glyph-name="n" unicode="n" horiz-adv-x="1101" 
d="M120 0v1088h89l16 -119v-16q161 156 384 156q372 0 372 -401v-708h-104v708q0 158 -76 235.5t-232 77.5q-194 0 -344 -147v-874h-105z" />
    <glyph glyph-name="o" unicode="o" horiz-adv-x="1107" 
d="M553 -20q-98 0 -178.5 30t-135 82.5t-92 125.5t-54.5 155.5t-17 175.5q0 261 126.5 410.5t350.5 149.5q225 0 351.5 -149.5t126.5 -412.5q0 -267 -127 -417t-351 -150zM180 549q0 -229 97 -354t276 -125t276.5 125t97.5 353q0 223 -98 346.5t-278 123.5
q-178 0 -274.5 -123t-96.5 -346z" />
    <glyph glyph-name="p" unicode="p" horiz-adv-x="1119" 
d="M120 -492v1580h95l9 -159q115 179 359 179q217 0 339 -146t122 -419t-122 -418t-339 -145q-241 0 -358 179v-651h-105zM225 286q57 -101 140.5 -158t218.5 -57q349 0 349 473t-350 473q-92 0 -164 -30.5t-114.5 -74.5t-79.5 -110v-516z" />
    <glyph glyph-name="q" unicode="q" horiz-adv-x="1119" 
d="M999 -492h-105v651q-117 -179 -358 -179q-217 0 -339 145t-122 418t122 419t339 146q244 0 359 -179l9 159h95v-1580zM186 544q0 -473 349 -473q135 0 218.5 57t140.5 158v516q-37 66 -79.5 110t-114.5 74.5t-164 30.5q-350 0 -350 -473z" />
    <glyph glyph-name="r" unicode="r" horiz-adv-x="863" 
d="M120 -1v1088h91l10 -181q60 72 130.5 115t137 55.5t133.5 4.5t121.5 -32.5t99.5 -60.5l-55 -85q-49 46 -114.5 69t-140 20t-156.5 -50.5t-152 -136.5v-806h-105z" />
    <glyph glyph-name="s" unicode="s" horiz-adv-x="918" 
d="M411 -20q-207 0 -334 68l37 79q142 -62 309 -62q150 0 234 57t84 151q0 45 -19 80.5t-62 64.5t-86.5 49t-117.5 48q-165 62 -225 99q-126 77 -135 200q-1 10 -1 21q0 126 103 200t281 74q151 0 336 -77l-35 -83q-96 39 -163.5 57.5t-136.5 18.5q-128 0 -205.5 -50.5
t-77.5 -135.5q0 -58 45.5 -103.5t89 -66t145.5 -58.5q13 -5 20 -8q197 -74 271 -140t74 -177q0 -147 -110.5 -226.5t-320.5 -79.5z" />
    <glyph glyph-name="t" unicode="t" horiz-adv-x="619" 
d="M451 -5q-130 0 -198.5 81t-68.5 244v680h-161v88h161v414h104v-414h315v-88h-315v-684q0 -113 44.5 -170.5t122.5 -57.5q61 0 118 20l29 -88q-71 -25 -151 -25z" />
    <glyph glyph-name="u" unicode="u" horiz-adv-x="1101" 
d="M981 1088v-1088h-89l-16 119v16q-161 -156 -384 -156q-372 0 -372 401v708h104v-708q0 -158 76 -235.5t232 -77.5q194 0 344 147v874h105z" />
    <glyph glyph-name="v" unicode="v" horiz-adv-x="986" 
d="M435 0l-418 1088h111l361 -983h7l362 983h111l-418 -1088h-116z" />
    <glyph glyph-name="w" unicode="w" horiz-adv-x="1461" 
d="M320 0l-303 1088h107l250 -965h6l310 965h98l301 -962h7l244 962h104l-294 -1088h-113l-296 937h-7l-306 -937h-108z" />
    <glyph glyph-name="x" unicode="x" horiz-adv-x="962" 
d="M24 0l398 559l-381 529h119l320 -453l319 453h114l-377 -529l402 -559h-119l-339 479l-341 -479h-115z" />
    <glyph glyph-name="y" unicode="y" horiz-adv-x="987" 
d="M142 -490q-49 0 -109 13v85q45 -11 106 -11q147 0 211 179l93 224l-426 1088h109l365 -964l369 964h110l-524 -1333q-49 -126 -123.5 -185.5t-180.5 -59.5z" />
    <glyph glyph-name="z" unicode="z" horiz-adv-x="925" 
d="M76 0v71l640 929h-596v88h723v-75l-640 -925h646v-88h-773z" />
    <glyph glyph-name="braceleft" unicode="{" horiz-adv-x="735" 
d="M665 -324q-191 1 -279 74.5t-88 241.5v327q0 104 -58 153.5t-175 51.5v89q123 2 178 50t55 148v335q0 313 367 316v-87q-132 -4 -200.5 -61.5t-68.5 -162.5v-303q0 -118 -35 -186t-111 -93q146 -47 146 -274v-314q0 -211 269 -217v-88z" />
    <glyph glyph-name="bar" unicode="|" horiz-adv-x="1114" 
d="M508 -507v2067h99v-2067h-99z" />
    <glyph glyph-name="braceright" unicode="}" horiz-adv-x="735" 
d="M70 -236q269 6 269 217v314q0 227 146 274q-76 25 -111 93t-35 186v303q0 105 -68.5 162.5t-200.5 61.5v87q367 -3 367 -316v-335q0 -100 55 -148t178 -50v-89q-117 -2 -175 -51.5t-58 -153.5v-327q0 -168 -88 -241.5t-279 -74.5v88z" />
    <glyph glyph-name="asciitilde" unicode="~" horiz-adv-x="1170" 
d="M825 610q-64 0 -132 20t-117.5 44.5t-115.5 44.5t-126 20q-50 0 -109 -31t-114 -89v95q55 58 114 89t109 31q60 0 126 -20t115.5 -44.5t117.5 -44.5t132 -20q123 0 234 113v-95q-111 -113 -234 -113z" />
    <glyph glyph-name="uni00A0" unicode="&#xa0;" horiz-adv-x="532" 
 />
    <glyph glyph-name="exclamdown" unicode="&#xa1;" horiz-adv-x="504" 
d="M212 710h77l27 -1085h-131zM171 899v230h158v-230h-158z" />
    <glyph glyph-name="cent" unicode="&#xa2;" horiz-adv-x="1170" 
d="M600 -20v212q-211 19 -324 163.5t-113 391.5q0 253 113.5 401t323.5 167v168h93v-166q129 -8 244 -54l-28 -87q-160 52 -248 52q-186 0 -288 -124t-102 -351q0 -223 103 -348.5t293 -125.5q105 0 227 46l30 -80q-98 -49 -232 -55v-210h-92z" />
    <glyph glyph-name="sterling" unicode="&#xa3;" horiz-adv-x="1170" 
d="M72 90q108 19 167.5 105t59.5 220v255h-209v86h209v315q0 194 102 302t286 108q172 0 333 -76l-37 -87q-157 71 -291 71q-133 0 -209 -80t-76 -243v-310h419v-86h-419v-253q0 -114 -34.5 -190.5t-110.5 -123.5h813v-103h-1003v90z" />
    <glyph glyph-name="currency" unicode="&#xa4;" horiz-adv-x="1170" 
d="M585 315q-143 0 -253 89l-141 -141l-65 63l141 143q-87 113 -87 254q0 143 88 255l-142 142l63 65l142 -142q111 92 254 92q145 0 255 -94l144 144l63 -65l-144 -144q86 -111 86 -253t-86 -253l144 -144l-65 -63l-142 142q-111 -90 -255 -90zM267 723q0 -133 92.5 -226.5
t225.5 -93.5t225 93t92 227t-93 228.5t-224 94.5q-132 0 -225 -95t-93 -228z" />
    <glyph glyph-name="yen" unicode="&#xa5;" horiz-adv-x="1170" 
d="M530 0v299h-338v90h338v198h-338v90h278l-428 785h121l423 -788l425 788h115l-430 -785h282v-90h-338v-198h338v-90h-338v-299h-110z" />
    <glyph glyph-name="brokenbar" unicode="&#xa6;" horiz-adv-x="1114" 
d="M508 1074h99v-1094h-99v1094z" />
    <glyph glyph-name="section" unicode="&#xa7;" horiz-adv-x="1063" 
d="M461 -10q-78 0 -171 18t-161 51l38 77q151 -62 307 -62q150 0 233.5 53.5t83.5 143.5q0 34 -13 62t-37.5 50t-57.5 40.5t-74.5 37t-86.5 36.5q-11 4 -16 6q-159 64 -189 80q-123 61 -157 143q-15 38 -15 84q0 91 57.5 155t166.5 90q-97 44 -149 101.5t-52 145.5
q0 122 104 192t287 70q175 0 332 -66l-37 -78q-151 61 -294 61q-136 0 -212.5 -46.5t-76.5 -128.5q0 -22 5 -41t18.5 -36t25.5 -30.5t37 -27.5t41 -23t50 -22.5t51.5 -20t57.5 -20.5q9 -3 14 -5q197 -72 271 -134.5t74 -169.5q0 -90 -49.5 -158t-144.5 -102q93 -47 132 -100
t39 -132q0 -140 -111 -217t-321 -77zM244 815q0 -35 17.5 -64.5t36 -48t66.5 -41.5t72.5 -32.5t89.5 -32.5q15 -5 22 -8q39 -14 72 -27q85 18 141.5 73.5t56.5 129.5q0 35 -15 64.5t-36 50t-64.5 42.5t-77 35.5t-96.5 36.5l-17 6q-124 -1 -196 -51t-72 -133z" />
    <glyph glyph-name="copyright" unicode="&#xa9;" horiz-adv-x="1704" 
d="M852 4q-159 0 -297.5 62.5t-231.5 164.5t-146 232.5t-53 267.5q0 158 62 296t163.5 231.5t233 147t269.5 53.5q158 0 296 -62t231.5 -163.5t147 -233t53.5 -269.5q0 -157 -61.5 -295t-163 -231.5t-233 -147t-270.5 -53.5zM193 731q0 -143 56.5 -268t148.5 -209.5
t211 -133t243 -48.5q143 0 268.5 56.5t210 148.5t133 211t48.5 243q0 143 -56 268t-148.5 210t-211.5 133.5t-244 48.5q-143 0 -268 -56.5t-209.5 -148.5t-133 -211t-48.5 -244zM447 718q0 216 103 335.5t293 119.5q114 0 221 -44l-23 -69q-130 42 -197 42q-149 0 -230 -99
t-81 -280q0 -177 82 -277.5t233 -100.5q82 0 181 37l24 -64q-92 -44 -209 -44q-191 0 -294 116.5t-103 327.5z" />
    <glyph glyph-name="guillemotleft" unicode="&#xab;" horiz-adv-x="900" 
d="M759 125l-317 392v26l317 393l67 -46l-264 -359l264 -360zM82 517v26l316 393l69 -46l-265 -359l265 -360l-69 -46z" />
    <glyph glyph-name="logicalnot" unicode="&#xac;" horiz-adv-x="1170" 
d="M955 270v408h-845v90h935v-498h-90z" />
    <glyph glyph-name="uni00AD" unicode="&#xad;" horiz-adv-x="659" 
d="M92 506v93h476v-93h-476z" />
    <glyph glyph-name="registered" unicode="&#xae;" horiz-adv-x="1704" 
d="M852 19q-156 0 -292 61t-226.5 161t-142.5 228t-52 262q0 155 60.5 290.5t160 226.5t228 143.5t264.5 52.5q155 0 290.5 -60.5t226.5 -160t143.5 -228t52.5 -264.5q0 -154 -60 -289t-159.5 -226.5t-228.5 -144t-265 -52.5zM193 731q0 -143 56.5 -268t148.5 -209.5
t211 -133t243 -48.5q143 0 268.5 56.5t210 148.5t133 211t48.5 243q0 143 -56 268t-148.5 210t-211.5 133.5t-244 48.5q-143 0 -268 -56.5t-209.5 -148.5t-133 -211t-48.5 -244zM588 350v784h224q137 0 191.5 -54t54.5 -172q0 -98 -33.5 -153t-113.5 -73l193 -332h-60
l-189 323q-14 -1 -43 -1h-166v-322h-58zM646 722h141q88 0 134 18.5t62.5 56t16.5 107.5q0 100 -39 140t-158 40h-157v-362z" />
    <glyph glyph-name="degree" unicode="&#xb0;" horiz-adv-x="877" 
d="M438 884q-129 0 -214 84.5t-85 214.5q0 129 86 214.5t213 85.5t213.5 -85t86.5 -215t-87.5 -214.5t-212.5 -84.5zM229 1183q0 -89 61.5 -151.5t148.5 -62.5q86 0 147.5 61.5t61.5 152.5q0 93 -60 154.5t-149 61.5t-149.5 -63t-60.5 -153z" />
    <glyph glyph-name="plusminus" unicode="&#xb1;" horiz-adv-x="1170" 
d="M110 0v90h949v-90h-949zM110 681v90h428v436h91v-436h430v-90h-430v-435h-91v435h-428z" />
    <glyph glyph-name="paragraph" unicode="&#xb6;" horiz-adv-x="1341" 
d="M678 559q-63 -18 -146 -18q-215 0 -317 124t-102 377q0 261 109.5 387.5t340.5 126.5h542v-1816h-99v1729h-228v-1729h-100v819z" />
    <glyph glyph-name="periodcentered" unicode="&#xb7;" horiz-adv-x="500" 
d="M191 616v172h146v-172h-146z" />
    <glyph glyph-name="guillemotright" unicode="&#xbb;" horiz-adv-x="900" 
d="M502 125l-68 46l264 360l-264 359l68 46l316 -391v-28zM75 171l264 360l-264 359l66 46l317 -391v-28l-317 -392z" />
    <glyph glyph-name="questiondown" unicode="&#xbf;" horiz-adv-x="858" 
d="M580 674q0 -56 -9 -101t-21 -75.5t-41 -67t-50.5 -58t-68.5 -65.5q-21 -20 -56 -51.5t-51 -46.5t-39.5 -39.5t-34 -42t-22.5 -42t-16 -51t-4 -58.5q0 -135 80.5 -207t224.5 -72q143 0 296 76l38 -84q-185 -82 -340 -82q-191 0 -297 96t-106 265q0 36 6 69t13 57.5
t25.5 53.5t29 44.5t39 44t40.5 39.5t49 43t49 43q104 92 135 155t31 179v17h100v-39zM457 902v230h132v-230h-132z" />
    <glyph glyph-name="Agrave" unicode="&#xc0;" horiz-adv-x="1315" 
d="M26 0l583 1468h97l582 -1468h-109l-204 513h-636l-206 -513h-107zM373 606h569l-285 753zM448 1991l13 20h126l107 -399h-73z" />
    <glyph glyph-name="Aacute" unicode="&#xc1;" horiz-adv-x="1315" 
d="M26 0l583 1468h97l582 -1468h-109l-204 513h-636l-206 -513h-107zM373 606h569l-285 753zM621 1612l107 399h126l13 -20l-174 -379h-72z" />
    <glyph glyph-name="Acircumflex" unicode="&#xc2;" horiz-adv-x="1315" 
d="M26 0l583 1468h97l582 -1468h-109l-204 513h-636l-206 -513h-107zM340 1615l265 309h103l266 -309h-98l-219 255l-219 -255h-98zM373 606h569l-285 753z" />
    <glyph glyph-name="Atilde" unicode="&#xc3;" horiz-adv-x="1315" 
d="M26 0l583 1468h97l582 -1468h-109l-204 513h-636l-206 -513h-107zM373 606h569l-285 753zM387 1637q-24 206 81 242q48 16 94 -7t113 -84l32 -32q46 -48 71.5 -65.5t51.5 -10.5q56 12 29 175l67 10q8 -57 7.5 -108.5t-22.5 -91t-65 -48.5q-48 -10 -90 14.5t-92 76.5
q-21 21 -33 31q-56 54 -85 70.5t-57 6.5q-53 -19 -35 -172z" />
    <glyph glyph-name="Adieresis" unicode="&#xc4;" horiz-adv-x="1315" 
d="M26 0l583 1468h97l582 -1468h-109l-204 513h-636l-206 -513h-107zM373 606h569l-285 753zM406 1613v131h137v-131h-137zM774 1613v131h136v-131h-136z" />
    <glyph glyph-name="Aring" unicode="&#xc5;" horiz-adv-x="1315" 
d="M26 0l583 1468h97l582 -1468h-109l-204 513h-636l-206 -513h-107zM373 606h569l-285 753zM447 1898q0 87 61 148t149 61q87 0 148 -61t61 -148q0 -88 -61 -149t-148 -61q-88 0 -149 61t-61 149zM517 1898q0 -58 40.5 -98.5t99.5 -40.5q58 0 98.5 40.5t40.5 98.5
t-40.5 98.5t-98.5 40.5q-59 0 -99.5 -40.5t-40.5 -98.5z" />
    <glyph glyph-name="AE" unicode="&#xc6;" horiz-adv-x="1842" 
d="M940 0v507h-498l-294 -507h-122l854 1462h861v-92h-693v-552h614v-91h-614v-635h693v-92h-801zM495 599h445v766z" />
    <glyph glyph-name="Ccedilla" unicode="&#xc7;" horiz-adv-x="1280" 
d="M797 -20q-51 0 -88 4l-51 -125q106 11 160.5 -45.5t48.5 -141.5q-4 -62 -54.5 -107t-124.5 -47.5t-159 58.5l40 51q44 -34 87 -43.5t74 3t51 37.5t22 56q6 73 -47.5 107.5t-147.5 2.5l-38 44l71 159q-251 45 -396 232t-145 496q0 187 53.5 334t148.5 239.5t221 140.5
t276 48q200 0 381 -88l-41 -88q-168 84 -340 84q-280 0 -435 -176.5t-155 -491.5q0 -304 155.5 -477.5t436.5 -173.5q156 0 330 72l37 -83q-92 -38 -192.5 -59.5t-178.5 -21.5z" />
    <glyph glyph-name="Egrave" unicode="&#xc8;" horiz-adv-x="1042" 
d="M141 0v1462h801v-92h-693v-552h614v-91h-614v-635h693v-92h-801zM313 2030l13 20h126l107 -399h-73z" />
    <glyph glyph-name="Eacute" unicode="&#xc9;" horiz-adv-x="1042" 
d="M141 0v1462h801v-92h-693v-552h614v-91h-614v-635h693v-92h-801zM485 1651l107 399h126l13 -20l-174 -379h-72z" />
    <glyph glyph-name="Ecircumflex" unicode="&#xca;" horiz-adv-x="1042" 
d="M141 0v1462h801v-92h-693v-552h614v-91h-614v-635h693v-92h-801zM204 1654l265 309h103l266 -309h-98l-219 255l-219 -255h-98z" />
    <glyph glyph-name="Edieresis" unicode="&#xcb;" horiz-adv-x="1042" 
d="M141 0v1462h801v-92h-693v-552h614v-91h-614v-635h693v-92h-801zM270 1652v131h137v-131h-137zM638 1652v131h136v-131h-136z" />
    <glyph glyph-name="Igrave" unicode="&#xcc;" horiz-adv-x="391" 
d="M141 0v1462h108v-1462h-108zM-14 2013l13 20h126l107 -399h-73z" />
    <glyph glyph-name="Iacute" unicode="&#xcd;" horiz-adv-x="391" 
d="M141 0v1462h108v-1462h-108zM159 1634l107 399h126l13 -20l-174 -379h-72z" />
    <glyph glyph-name="Icircumflex" unicode="&#xce;" horiz-adv-x="391" 
d="M141 0v1462h108v-1462h-108zM-122 1637l265 309h103l266 -309h-98l-219 255l-219 -255h-98z" />
    <glyph glyph-name="Idieresis" unicode="&#xcf;" horiz-adv-x="391" 
d="M141 0v1462h108v-1462h-108zM-56 1635v131h137v-131h-137zM312 1635v131h136v-131h-136z" />
    <glyph glyph-name="Eth" unicode="&#xd0;" horiz-adv-x="1387" 
d="M172 0v691h-162v90h162v681h450q338 0 501.5 -177t163.5 -540q0 -383 -170 -564t-539 -181h-406zM280 92h289q171 0 287.5 38t188.5 119.5t103 200.5t31 291q0 331 -132 480t-446 149h-321v-589h344v-90h-344v-599z" />
    <glyph glyph-name="Ntilde" unicode="&#xd1;" horiz-adv-x="1367" 
d="M141 0v1462h121l859 -1287h6l-8 1287h107v-1462h-120l-860 1290h-9l10 -1290h-106zM414 1606q-24 206 81 242q48 16 94 -7t113 -84l32 -32q46 -48 71.5 -65.5t51.5 -10.5q56 12 29 175l67 10q8 -57 7.5 -108.5t-22.5 -91t-65 -48.5q-48 -10 -90 14.5t-92 76.5
q-21 21 -33 31q-56 54 -85 70.5t-57 6.5q-53 -19 -35 -172z" />
    <glyph glyph-name="Ograve" unicode="&#xd2;" horiz-adv-x="1507" 
d="M755 -20q-308 0 -481.5 201t-173.5 552q0 353 173.5 552.5t481.5 199.5q307 0 479.5 -201t172.5 -551q0 -349 -173 -551t-479 -202zM214 733q0 -311 146 -486t394 -175q249 0 394.5 174.5t145.5 486.5t-145 486t-394 174q-247 0 -394 -175.5t-147 -484.5zM545 2022l13 20
h126l107 -399h-73z" />
    <glyph glyph-name="Oacute" unicode="&#xd3;" horiz-adv-x="1507" 
d="M755 -20q-308 0 -481.5 201t-173.5 552q0 353 173.5 552.5t481.5 199.5q307 0 479.5 -201t172.5 -551q0 -349 -173 -551t-479 -202zM214 733q0 -311 146 -486t394 -175q249 0 394.5 174.5t145.5 486.5t-145 486t-394 174q-247 0 -394 -175.5t-147 -484.5zM717 1643
l107 399h126l13 -20l-174 -379h-72z" />
    <glyph glyph-name="Ocircumflex" unicode="&#xd4;" horiz-adv-x="1507" 
d="M755 -20q-308 0 -481.5 201t-173.5 552q0 353 173.5 552.5t481.5 199.5q307 0 479.5 -201t172.5 -551q0 -349 -173 -551t-479 -202zM214 733q0 -311 146 -486t394 -175q249 0 394.5 174.5t145.5 486.5t-145 486t-394 174q-247 0 -394 -175.5t-147 -484.5zM436 1646
l265 309h103l266 -309h-98l-219 255l-219 -255h-98z" />
    <glyph glyph-name="Otilde" unicode="&#xd5;" horiz-adv-x="1507" 
d="M755 -20q-308 0 -481.5 201t-173.5 552q0 353 173.5 552.5t481.5 199.5q307 0 479.5 -201t172.5 -551q0 -349 -173 -551t-479 -202zM214 733q0 -311 146 -486t394 -175q249 0 394.5 174.5t145.5 486.5t-145 486t-394 174q-247 0 -394 -175.5t-147 -484.5zM484 1669
q-24 206 81 242q48 16 94 -7t113 -84l10.5 -10.5t12 -11.5t9.5 -10q46 -48 71.5 -65.5t51.5 -10.5q56 12 29 175l67 10q8 -57 7.5 -108.5t-22.5 -91t-65 -48.5q-48 -10 -90 14.5t-92 76.5q-21 21 -33 31q-56 54 -85 70.5t-57 6.5q-53 -19 -35 -172z" />
    <glyph glyph-name="Odieresis" unicode="&#xd6;" horiz-adv-x="1507" 
d="M755 -20q-308 0 -481.5 201t-173.5 552q0 353 173.5 552.5t481.5 199.5q307 0 479.5 -201t172.5 -551q0 -349 -173 -551t-479 -202zM214 733q0 -311 146 -486t394 -175q249 0 394.5 174.5t145.5 486.5t-145 486t-394 174q-247 0 -394 -175.5t-147 -484.5zM502 1644v131
h137v-131h-137zM870 1644v131h136v-131h-136z" />
    <glyph glyph-name="multiply" unicode="&#xd7;" horiz-adv-x="1170" 
d="M191 263l-65 63l396 397l-396 397l63 65l397 -397l398 397l63 -65l-397 -397l397 -397l-65 -63l-396 396z" />
    <glyph glyph-name="Oslash" unicode="&#xd8;" horiz-adv-x="1509" 
d="M756 -20q-270 0 -439 157l-109 -128l-79 67l118 139q-146 197 -146 518q0 353 173.5 552.5t481.5 199.5q271 0 439 -159l105 123l79 -68l-114 -134q143 -197 143 -514q0 -349 -173 -551t-479 -202zM215 733q0 -262 107 -431l804 943q-140 148 -370 148
q-247 0 -394 -175.5t-147 -484.5zM387 218q141 -146 368 -146q249 0 394.5 174.5t145.5 486.5q0 260 -104 428z" />
    <glyph glyph-name="Ugrave" unicode="&#xd9;" horiz-adv-x="1373" 
d="M697 -20q-268 0 -412 129.5t-144 372.5v980h108v-991q0 -193 118 -296t331 -103q207 0 316.5 100.5t109.5 291.5v998h108v-984q0 -246 -136.5 -372t-398.5 -126zM478 1954l13 20h126l107 -399h-73z" />
    <glyph glyph-name="Uacute" unicode="&#xda;" horiz-adv-x="1373" 
d="M697 -20q-268 0 -412 129.5t-144 372.5v980h108v-991q0 -193 118 -296t331 -103q207 0 316.5 100.5t109.5 291.5v998h108v-984q0 -246 -136.5 -372t-398.5 -126zM650 1575l107 399h126l13 -20l-174 -379h-72z" />
    <glyph glyph-name="Ucircumflex" unicode="&#xdb;" horiz-adv-x="1373" 
d="M697 -20q-268 0 -412 129.5t-144 372.5v980h108v-991q0 -193 118 -296t331 -103q207 0 316.5 100.5t109.5 291.5v998h108v-984q0 -246 -136.5 -372t-398.5 -126zM370 1577l265 309h103l266 -309h-98l-219 255l-219 -255h-98z" />
    <glyph glyph-name="Udieresis" unicode="&#xdc;" horiz-adv-x="1373" 
d="M697 -20q-268 0 -412 129.5t-144 372.5v980h108v-991q0 -193 118 -296t331 -103q207 0 316.5 100.5t109.5 291.5v998h108v-984q0 -246 -136.5 -372t-398.5 -126zM436 1575v131h137v-131h-137zM804 1575v131h136v-131h-136z" />
    <glyph glyph-name="Yacute" unicode="&#xdd;" horiz-adv-x="1121" 
d="M506 0v558l-486 904h117l422 -792l425 792h117l-490 -902v-560h-105zM524 1605l107 399h126l13 -20l-174 -379h-72z" />
    <glyph glyph-name="Thorn" unicode="&#xde;" horiz-adv-x="1119" 
d="M141 0v1462h108v-305h298q253 0 362.5 -102t109.5 -319q0 -219 -110.5 -329.5t-361.5 -110.5h-298v-296h-108zM249 388h268q117 0 194 20.5t121 65.5t61.5 107t17.5 155q0 89 -17.5 147.5t-61.5 101.5t-121.5 62t-195.5 19h-266v-678z" />
    <glyph glyph-name="germandbls" unicode="&#xdf;" horiz-adv-x="1092" 
d="M250 0h-109v1042q0 209 97.5 314.5t272.5 105.5q174 0 279 -95t105 -261q0 -110 -52.5 -198.5t-146.5 -133.5q145 -29 220.5 -124.5t75.5 -235.5q0 -194 -128.5 -304t-352.5 -110h-77v93h73q175 0 275.5 83t100.5 237q0 308 -396 308h-53v92l78 -1q112 1 193 87t81 198
q0 132 -75.5 202t-199.5 70q-129 0 -195.5 -84t-66.5 -249z" />
    <glyph glyph-name="agrave" unicode="&#xe0;" horiz-adv-x="1015" 
d="M427 -20q-171 0 -261 80.5t-90 223.5q0 171 131 261.5t387 91.5h196v73q0 169 -59 239t-199 70q-145 0 -308 -83l-40 78q171 92 356 92q180 0 267.5 -91.5t87.5 -283.5v-731h-87l-15 147q-141 -167 -366 -167zM183 286q0 -104 72 -162.5t191 -58.5q117 0 193 40t151 136
v320h-180q-215 -1 -321 -73t-106 -202zM299 1615l13 20h126l107 -399h-73z" />
    <glyph glyph-name="aacute" unicode="&#xe1;" horiz-adv-x="1015" 
d="M427 -20q-171 0 -261 80.5t-90 223.5q0 171 131 261.5t387 91.5h196v73q0 169 -59 239t-199 70q-145 0 -308 -83l-40 78q171 92 356 92q180 0 267.5 -91.5t87.5 -283.5v-731h-87l-15 147q-141 -167 -366 -167zM183 286q0 -104 72 -162.5t191 -58.5q117 0 193 40t151 136
v320h-180q-215 -1 -321 -73t-106 -202zM471 1236l107 399h126l13 -20l-174 -379h-72z" />
    <glyph glyph-name="acircumflex" unicode="&#xe2;" horiz-adv-x="1015" 
d="M427 -20q-171 0 -261 80.5t-90 223.5q0 171 131 261.5t387 91.5h196v73q0 169 -59 239t-199 70q-145 0 -308 -83l-40 78q171 92 356 92q180 0 267.5 -91.5t87.5 -283.5v-731h-87l-15 147q-141 -167 -366 -167zM183 286q0 -104 72 -162.5t191 -58.5q117 0 193 40t151 136
v320h-180q-215 -1 -321 -73t-106 -202zM190 1239l265 309h103l266 -309h-98l-219 255l-219 -255h-98z" />
    <glyph glyph-name="atilde" unicode="&#xe3;" horiz-adv-x="1015" 
d="M427 -20q-171 0 -261 80.5t-90 223.5q0 171 131 261.5t387 91.5h196v73q0 169 -59 239t-199 70q-145 0 -308 -83l-40 78q171 92 356 92q180 0 267.5 -91.5t87.5 -283.5v-731h-87l-15 147q-141 -167 -366 -167zM183 286q0 -104 72 -162.5t191 -58.5q117 0 193 40t151 136
v320h-180q-215 -1 -321 -73t-106 -202zM238 1261q-24 206 81 242q48 16 94 -7t113 -84l10.5 -10.5t12 -11.5t9.5 -10q46 -48 71.5 -65.5t51.5 -10.5q56 12 29 175l67 10q8 -57 7.5 -108.5t-22.5 -91t-65 -48.5q-48 -10 -90 14.5t-92 76.5q-21 21 -33 31q-56 54 -85 70.5
t-57 6.5q-53 -19 -35 -172z" />
    <glyph glyph-name="adieresis" unicode="&#xe4;" horiz-adv-x="1015" 
d="M427 -20q-171 0 -261 80.5t-90 223.5q0 171 131 261.5t387 91.5h196v73q0 169 -59 239t-199 70q-145 0 -308 -83l-40 78q171 92 356 92q180 0 267.5 -91.5t87.5 -283.5v-731h-87l-15 147q-141 -167 -366 -167zM183 286q0 -104 72 -162.5t191 -58.5q117 0 193 40t151 136
v320h-180q-215 -1 -321 -73t-106 -202zM256 1237v131h137v-131h-137zM624 1237v131h136v-131h-136z" />
    <glyph glyph-name="aring" unicode="&#xe5;" horiz-adv-x="1015" 
d="M427 -20q-171 0 -261 80.5t-90 223.5q0 171 131 261.5t387 91.5h196v73q0 169 -59 239t-199 70q-145 0 -308 -83l-40 78q171 92 356 92q180 0 267.5 -91.5t87.5 -283.5v-731h-87l-15 147q-141 -167 -366 -167zM183 286q0 -104 72 -162.5t191 -58.5q117 0 193 40t151 136
v320h-180q-215 -1 -321 -73t-106 -202zM298 1522q0 87 61 148t149 61q87 0 148 -61t61 -148q0 -88 -61 -149t-148 -61q-88 0 -149 61t-61 149zM368 1522q0 -58 40.5 -98.5t99.5 -40.5q58 0 98.5 40.5t40.5 98.5t-40.5 98.5t-98.5 40.5q-59 0 -99.5 -40.5t-40.5 -98.5z" />
    <glyph glyph-name="ae" unicode="&#xe6;" horiz-adv-x="1741" 
d="M437 -20q-176 0 -268.5 80.5t-92.5 223.5q0 166 130 245t388 80l196 1v99q0 168 -59 238t-199 70q-148 0 -308 -83l-40 79q169 91 356 91q276 0 336 -217q60 106 157.5 164t223.5 58q195 0 301.5 -133t106.5 -363v-83h-764q11 -464 394 -464q136 0 308 62l33 -79
q-160 -69 -344 -69q-161 0 -272.5 66t-168.5 191q-57 -124 -171 -190.5t-243 -66.5zM183 286q0 -104 72 -162.5t191 -58.5q135 0 236.5 98t107.5 239v132h-180q-220 -1 -323.5 -61t-103.5 -187zM905 611h658q0 188 -81 301t-227 113q-151 0 -244 -111.5t-106 -302.5z" />
    <glyph glyph-name="ccedilla" unicode="&#xe7;" horiz-adv-x="924" 
d="M575 -20q-28 0 -41 1l-50 -122q106 11 160.5 -45.5t48.5 -141.5q-4 -62 -54.5 -107t-124.5 -47.5t-159 58.5l40 51q44 -34 87 -43.5t74 3t51 37.5t22 56q6 73 -47.5 107.5t-147.5 2.5l-38 44l69 155q-189 32 -289 174t-100 375q0 271 129.5 421t367.5 150q142 0 277 -55
l-28 -87q-160 52 -248 52q-186 0 -288 -124t-102 -351q0 -223 103 -348.5t293 -125.5q105 0 227 46l30 -80q-114 -56 -262 -56z" />
    <glyph glyph-name="egrave" unicode="&#xe8;" horiz-adv-x="1022" 
d="M573 -20q-240 0 -368.5 145t-128.5 407q0 263 125 420t337 157q195 0 301.5 -133t106.5 -363v-83h-764q11 -464 394 -464q136 0 308 62l33 -79q-161 -69 -344 -69zM186 611h658q0 188 -81 301t-227 113q-151 0 -244 -111.5t-106 -302.5zM331 1586l13 20h126l107 -399h-73
z" />
    <glyph glyph-name="eacute" unicode="&#xe9;" horiz-adv-x="1022" 
d="M573 -20q-240 0 -368.5 145t-128.5 407q0 263 125 420t337 157q195 0 301.5 -133t106.5 -363v-83h-764q11 -464 394 -464q136 0 308 62l33 -79q-161 -69 -344 -69zM186 611h658q0 188 -81 301t-227 113q-151 0 -244 -111.5t-106 -302.5zM503 1207l107 399h126l13 -20
l-174 -379h-72z" />
    <glyph glyph-name="ecircumflex" unicode="&#xea;" horiz-adv-x="1022" 
d="M573 -20q-240 0 -368.5 145t-128.5 407q0 263 125 420t337 157q195 0 301.5 -133t106.5 -363v-83h-764q11 -464 394 -464q136 0 308 62l33 -79q-161 -69 -344 -69zM186 611h658q0 188 -81 301t-227 113q-151 0 -244 -111.5t-106 -302.5zM223 1210l265 309h103l266 -309
h-98l-219 255l-219 -255h-98z" />
    <glyph glyph-name="edieresis" unicode="&#xeb;" horiz-adv-x="1022" 
d="M573 -20q-240 0 -368.5 145t-128.5 407q0 263 125 420t337 157q195 0 301.5 -133t106.5 -363v-83h-764q11 -464 394 -464q136 0 308 62l33 -79q-161 -69 -344 -69zM186 611h658q0 188 -81 301t-227 113q-151 0 -244 -111.5t-106 -302.5zM289 1208v131h137v-131h-137z
M657 1208v131h136v-131h-136z" />
    <glyph glyph-name="igrave" unicode="&#xec;" horiz-adv-x="389" 
d="M164 0v1088h105v-1088h-105zM8 1564l13 20h126l107 -399h-73z" />
    <glyph glyph-name="iacute" unicode="&#xed;" horiz-adv-x="389" 
d="M120 0v1088h104v-1088h-104zM135 1184l107 399h126l13 -20l-174 -379h-72z" />
    <glyph glyph-name="icircumflex" unicode="&#xee;" horiz-adv-x="657" 
d="M280 0v1088h105v-1088h-105zM12 1175l265 309h103l266 -309h-98l-219 255l-219 -255h-98z" />
    <glyph glyph-name="idieresis" unicode="&#xef;" horiz-adv-x="540" 
d="M218 0v1088h104v-1088h-104zM19 1252v130h137v-130h-137zM387 1252v130h136v-130h-136z" />
    <glyph glyph-name="eth" unicode="&#xf0;" horiz-adv-x="1116" 
d="M532 -20q-219 0 -337.5 136t-118.5 374q0 226 118 360.5t328 131.5q122 -1 218 -47t152 -132q0 235 -87 460l-311 -111l-26 78l304 108q-52 110 -115 185l89 51q71 -97 121 -202l182 65l26 -78l-176 -63q97 -247 97 -588v-214q0 -112 -25 -202.5t-78 -162t-144.5 -110.5
t-216.5 -39zM183 490q0 -199 89.5 -308.5t260.5 -109.5q94 0 165 32t112.5 87.5t61.5 124t20 149.5v209q-28 49 -58.5 85t-73 67t-100 47t-128.5 16q-169 0 -259 -107t-90 -292z" />
    <glyph glyph-name="ntilde" unicode="&#xf1;" horiz-adv-x="1101" 
d="M120 0v1088h89l16 -119v-16q161 156 384 156q372 0 372 -401v-708h-104v708q0 158 -76 235.5t-232 77.5q-194 0 -344 -147v-874h-105zM281 1273q-24 206 81 242q48 16 94 -7t113 -84l10.5 -10.5t12 -11.5t9.5 -10q46 -48 71.5 -65.5t51.5 -10.5q56 12 29 175l67 10
q8 -57 7.5 -108.5t-22.5 -91t-65 -48.5q-48 -10 -90 14.5t-92 76.5q-21 21 -33 31q-56 54 -85 70.5t-57 6.5q-53 -19 -35 -172z" />
    <glyph glyph-name="ograve" unicode="&#xf2;" horiz-adv-x="1107" 
d="M553 -20q-98 0 -178.5 30t-135 82.5t-92 125.5t-54.5 155.5t-17 175.5q0 261 126.5 410.5t350.5 149.5q225 0 351.5 -149.5t126.5 -412.5q0 -267 -127 -417t-351 -150zM180 549q0 -229 97 -354t276 -125t276.5 125t97.5 353q0 223 -98 346.5t-278 123.5
q-178 0 -274.5 -123t-96.5 -346zM344 1652l13 20h126l107 -399h-73z" />
    <glyph glyph-name="oacute" unicode="&#xf3;" horiz-adv-x="1107" 
d="M553 -20q-98 0 -178.5 30t-135 82.5t-92 125.5t-54.5 155.5t-17 175.5q0 261 126.5 410.5t350.5 149.5q225 0 351.5 -149.5t126.5 -412.5q0 -267 -127 -417t-351 -150zM180 549q0 -229 97 -354t276 -125t276.5 125t97.5 353q0 223 -98 346.5t-278 123.5
q-178 0 -274.5 -123t-96.5 -346zM517 1273l107 399h126l13 -20l-174 -379h-72z" />
    <glyph glyph-name="ocircumflex" unicode="&#xf4;" horiz-adv-x="1107" 
d="M553 -20q-98 0 -178.5 30t-135 82.5t-92 125.5t-54.5 155.5t-17 175.5q0 261 126.5 410.5t350.5 149.5q225 0 351.5 -149.5t126.5 -412.5q0 -267 -127 -417t-351 -150zM180 549q0 -229 97 -354t276 -125t276.5 125t97.5 353q0 223 -98 346.5t-278 123.5
q-178 0 -274.5 -123t-96.5 -346zM236 1276l265 309h103l266 -309h-98l-219 255l-219 -255h-98z" />
    <glyph glyph-name="otilde" unicode="&#xf5;" horiz-adv-x="1107" 
d="M553 -20q-98 0 -178.5 30t-135 82.5t-92 125.5t-54.5 155.5t-17 175.5q0 261 126.5 410.5t350.5 149.5q225 0 351.5 -149.5t126.5 -412.5q0 -267 -127 -417t-351 -150zM180 549q0 -229 97 -354t276 -125t276.5 125t97.5 353q0 223 -98 346.5t-278 123.5
q-178 0 -274.5 -123t-96.5 -346zM284 1299q-24 206 81 242q48 16 94 -7t113 -84l32 -32q46 -48 71.5 -65.5t51.5 -10.5q56 12 29 175l67 10q8 -57 7.5 -108.5t-22.5 -91t-65 -48.5q-48 -10 -90 14.5t-92 76.5q-21 21 -33 31q-56 54 -85 70.5t-57 6.5q-53 -19 -35 -172z" />
    <glyph glyph-name="odieresis" unicode="&#xf6;" horiz-adv-x="1107" 
d="M553 -20q-98 0 -178.5 30t-135 82.5t-92 125.5t-54.5 155.5t-17 175.5q0 261 126.5 410.5t350.5 149.5q225 0 351.5 -149.5t126.5 -412.5q0 -267 -127 -417t-351 -150zM180 549q0 -229 97 -354t276 -125t276.5 125t97.5 353q0 223 -98 346.5t-278 123.5
q-178 0 -274.5 -123t-96.5 -346zM302 1274v131h137v-131h-137zM670 1274v131h136v-131h-136z" />
    <glyph glyph-name="divide" unicode="&#xf7;" horiz-adv-x="1170" 
d="M110 678v90h949v-90h-949zM532 288v167h142v-167h-142zM532 953v167h142v-167h-142z" />
    <glyph glyph-name="oslash" unicode="&#xf8;" horiz-adv-x="1107" 
d="M553 -20q-198 0 -321 121l-84 -99l-67 54l95 112q-100 149 -100 381q0 261 126.5 410.5t350.5 149.5q196 0 320 -116l84 99l67 -54l-94 -112q101 -144 101 -379q0 -267 -127 -417t-351 -150zM180 549q0 -183 63 -301l566 669q-96 101 -258 101q-178 0 -274.5 -123
t-96.5 -346zM294 175q96 -105 259 -105q179 0 276.5 125t97.5 353q0 179 -65 298z" />
    <glyph glyph-name="ugrave" unicode="&#xf9;" horiz-adv-x="1101" 
d="M981 1088v-1088h-89l-16 119v16q-161 -156 -384 -156q-372 0 -372 401v708h104v-708q0 -158 76 -235.5t232 -77.5q194 0 344 147v874h105zM342 1612l13 20h126l107 -399h-73z" />
    <glyph glyph-name="uacute" unicode="&#xfa;" horiz-adv-x="1101" 
d="M981 1088v-1088h-89l-16 119v16q-161 -156 -384 -156q-372 0 -372 401v708h104v-708q0 -158 76 -235.5t232 -77.5q194 0 344 147v874h105zM514 1233l107 399h126l13 -20l-174 -379h-72z" />
    <glyph glyph-name="ucircumflex" unicode="&#xfb;" horiz-adv-x="1101" 
d="M981 1088v-1088h-89l-16 119v16q-161 -156 -384 -156q-372 0 -372 401v708h104v-708q0 -158 76 -235.5t232 -77.5q194 0 344 147v874h105zM234 1236l265 309h103l266 -309h-98l-219 255l-219 -255h-98z" />
    <glyph glyph-name="udieresis" unicode="&#xfc;" horiz-adv-x="1101" 
d="M981 1088v-1088h-89l-16 119v16q-161 -156 -384 -156q-372 0 -372 401v708h104v-708q0 -158 76 -235.5t232 -77.5q194 0 344 147v874h105zM300 1234v131h137v-131h-137zM668 1234v131h136v-131h-136z" />
    <glyph glyph-name="yacute" unicode="&#xfd;" horiz-adv-x="987" 
d="M142 -490q-49 0 -109 13v85q45 -11 106 -11q147 0 211 179l93 224l-426 1088h109l365 -964l369 964h110l-524 -1333q-49 -126 -123.5 -185.5t-180.5 -59.5zM457 1253l107 399h126l13 -20l-174 -379h-72z" />
    <glyph glyph-name="thorn" unicode="&#xfe;" horiz-adv-x="1119" 
d="M120 -492v2059h107v-637q53 86 143.5 132t212.5 46q217 0 339 -146t122 -419t-122 -418t-339 -145q-241 0 -358 179v-651h-105zM225 286q57 -101 140.5 -158t218.5 -57q349 0 349 473t-350 473q-92 0 -164 -30.5t-114.5 -74.5t-79.5 -110v-516z" />
    <glyph glyph-name="ydieresis" unicode="&#xff;" horiz-adv-x="987" 
d="M142 -490q-49 0 -109 13v85q45 -11 106 -11q147 0 211 179l93 224l-426 1088h109l365 -964l369 964h110l-524 -1333q-49 -126 -123.5 -185.5t-180.5 -59.5zM242 1254v131h137v-131h-137zM610 1254v131h136v-131h-136z" />
    <glyph glyph-name="dotlessi" unicode="&#x131;" horiz-adv-x="344" 
d="M120 0v1088h104v-1088h-104z" />
    <glyph glyph-name="IJ" unicode="&#x132;" horiz-adv-x="1040" 
d="M141 0v1462h108v-1462h-108zM411 18v94q77 -29 155 -29q110 0 167.5 67t57.5 193v1119h108v-1107q0 -180 -86.5 -272.5t-255.5 -92.5q-69 0 -146 28z" />
    <glyph glyph-name="ij" unicode="&#x133;" horiz-adv-x="676" 
d="M157 0v1088h104v-1088h-104zM151 1260v193h115v-193h-115zM156 -463l33 86q41 -18 99 -18q78 0 118 52t40 149v1282h104v-1292q0 -141 -64.5 -214.5t-187.5 -73.5q-89 0 -142 29zM440 1260v193h115v-193h-115z" />
    <glyph glyph-name="OE" unicode="&#x152;" horiz-adv-x="2209" 
d="M755 -20q-308 0 -481.5 201t-173.5 552q0 353 173.5 552.5t481.5 199.5q190 0 331 -79.5t222 -228.5v285h801v-92h-693v-552h614v-91h-614v-635h693v-92h-801v289q-81 -149 -222 -229t-331 -80zM214 733q0 -311 146 -486t394 -175q249 0 394.5 174.5t145.5 486.5
t-145 486t-394 174q-247 0 -394 -175.5t-147 -484.5z" />
    <glyph glyph-name="oe" unicode="&#x153;" horiz-adv-x="1882" 
d="M553 -20q-98 0 -178.5 30t-135 82.5t-92 125.5t-54.5 155.5t-17 175.5q0 261 126.5 410.5t350.5 149.5q157 0 268 -75t165 -214q54 137 160.5 213t251.5 76q195 0 301.5 -133t106.5 -363v-83h-764q11 -464 394 -464q136 0 308 62l33 -79q-161 -69 -344 -69
q-168 0 -282.5 72.5t-168.5 208.5q-55 -136 -165 -208.5t-264 -72.5zM180 549q0 -229 97 -354t276 -125t276.5 125t97.5 353q0 223 -98 346.5t-278 123.5q-178 0 -274.5 -123t-96.5 -346zM1046 611h658q0 188 -81 301t-227 113q-151 0 -244 -111.5t-106 -302.5z" />
    <glyph glyph-name="Scaron" unicode="&#x160;" horiz-adv-x="1104" 
d="M485 -20q-92 0 -198 17.5t-187 47.5l37 89q181 -62 342 -62q200 0 308.5 81.5t108.5 216.5q0 59 -23.5 108t-51.5 79t-88 61t-94 44t-110 39q-11 4 -17 6q-210 71 -300 160t-90 233q0 183 124 283t337 100q182 0 377 -84l-36 -88q-187 80 -343 80q-162 0 -257 -74
t-95 -204q0 -42 10.5 -78.5t27 -63.5t45 -51t54 -40.5t65 -34t68.5 -28t72 -25.5l9 -3q237 -83 329.5 -170t92.5 -234q0 -191 -131.5 -298t-385.5 -107zM233 1879h98l219 -255l219 255h98l-266 -309h-103z" />
    <glyph glyph-name="scaron" unicode="&#x161;" horiz-adv-x="918" 
d="M411 -20q-207 0 -334 68l37 79q142 -62 309 -62q150 0 234 57t84 151q0 45 -19 80.5t-62 64.5t-86.5 49t-117.5 48q-165 62 -225 99q-126 77 -135 200q-1 10 -1 21q0 126 103 200t281 74q151 0 336 -77l-35 -83q-96 39 -163.5 57.5t-136.5 18.5q-128 0 -205.5 -50.5
t-77.5 -135.5q0 -58 45.5 -103.5t89 -66t145.5 -58.5q13 -5 20 -8q197 -74 271 -140t74 -177q0 -147 -110.5 -226.5t-320.5 -79.5zM145 1497h98l219 -255l219 255h98l-266 -309h-103z" />
    <glyph glyph-name="Wcircumflex" unicode="&#x174;" horiz-adv-x="1783" 
d="M420 0l-400 1462h115l335 -1291l354 1291h121l368 -1293l338 1293h112l-403 -1462h-89l-385 1344l-375 -1344h-91zM569 1654l265 309h103l266 -309h-98l-219 255l-219 -255h-98z" />
    <glyph glyph-name="wcircumflex" unicode="&#x175;" horiz-adv-x="1461" 
d="M320 0l-303 1088h107l250 -965h6l310 965h98l301 -962h7l244 962h104l-294 -1088h-113l-296 937h-7l-306 -937h-108zM420 1291l265 309h103l266 -309h-98l-219 255l-219 -255h-98z" />
    <glyph glyph-name="Ycircumflex" unicode="&#x176;" horiz-adv-x="1121" 
d="M506 0v558l-486 904h117l422 -792l425 792h117l-490 -902v-560h-105zM244 1608l265 309h103l266 -309h-98l-219 255l-219 -255h-98z" />
    <glyph glyph-name="ycircumflex" unicode="&#x177;" horiz-adv-x="987" 
d="M142 -490q-49 0 -109 13v85q45 -11 106 -11q147 0 211 179l93 224l-426 1088h109l365 -964l369 964h110l-524 -1333q-49 -126 -123.5 -185.5t-180.5 -59.5zM176 1256l265 309h103l266 -309h-98l-219 255l-219 -255h-98z" />
    <glyph glyph-name="Ydieresis" unicode="&#x178;" horiz-adv-x="1121" 
d="M506 0v558l-486 904h117l422 -792l425 792h117l-490 -902v-560h-105zM310 1606v131h137v-131h-137zM678 1606v131h136v-131h-136z" />
    <glyph glyph-name="zcaron" unicode="&#x17e;" horiz-adv-x="925" 
d="M76 0v71l640 929h-596v88h723v-75l-640 -925h646v-88h-773zM175 1511h98l219 -255l219 255h98l-266 -309h-103z" />
    <glyph glyph-name="florin" unicode="&#x192;" horiz-adv-x="830" 
d="M158 -492q-82 0 -135 18v76q56 -18 137 -18q100 0 145 52.5t45 168.5v1043h-211v74h211v173q0 202 75 295t237 93q79 0 175 -29l-20 -73q-78 25 -158 25q-214 0 -214 -302v-182h269v-74h-269v-1027q0 -91 -19.5 -153.5t-58.5 -97t-89 -48.5t-120 -14z" />
    <glyph glyph-name="uni0237" unicode="&#x237;" horiz-adv-x="414" 
d="M42 -492q-89 0 -142 29l33 86q41 -18 99 -18q78 0 118 52t40 149v1282h104v-1292q0 -141 -64.5 -214.5t-187.5 -73.5z" />
    <glyph glyph-name="gravecomb" unicode="&#x300;" 
d="M201 1063l-173 379l13 20h126l107 -399h-73z" />
    <glyph glyph-name="acutecomb" unicode="&#x301;" 
d="M100 1063h-72l107 399h126l13 -20z" />
    <glyph glyph-name="uni0302" unicode="&#x302;" 
d="M433 1435h103l266 -309h-98l-219 255l-219 -255h-98z" />
    <glyph glyph-name="tildecomb" unicode="&#x303;" 
d="M643 1432q8 -57 7.5 -108.5t-22.5 -91t-65 -48.5q-48 -10 -90 14.5t-92 76.5q-21 21 -33 31q-56 54 -85 70.5t-57 6.5q-53 -19 -35 -172l-67 -7q-24 206 81 242q48 16 94 -7t113 -84l10.5 -10.5t12 -11.5t9.5 -10q46 -48 71.5 -65.5t51.5 -10.5q56 12 29 175z" />
    <glyph glyph-name="uni0307" unicode="&#x307;" 
d="M100 1296v133h139v-133h-139z" />
    <glyph glyph-name="uni0308" unicode="&#x308;" 
d="M423 1244v131h136v-131h-136zM55 1244v131h137v-131h-137z" />
    <glyph glyph-name="uni030A" unicode="&#x30a;" 
d="M590 1113q-88 0 -149 61t-61 149q0 87 61 148t149 61q87 0 148 -61t61 -148q0 -88 -61 -149t-148 -61zM450 1323q0 -58 40.5 -98.5t99.5 -40.5q58 0 98.5 40.5t40.5 98.5t-40.5 98.5t-98.5 40.5q-59 0 -99.5 -40.5t-40.5 -98.5z" />
    <glyph glyph-name="uni0327" unicode="&#x327;" 
d="M557 -369q44 -34 87 -43.5t74 3t51 37.5t22 56q6 73 -47.5 107.5t-147.5 2.5l-38 44l87 194l59 -26l-58 -143q106 11 160.5 -45.5t48.5 -141.5q-4 -62 -54.5 -107t-124.5 -47.5t-159 58.5z" />
    <glyph glyph-name="uni060C" unicode="&#x60c;" horiz-adv-x="581" 
d="M404 358q-79 -293 -109 -502h-126l-12 21q69 254 174 481h73z" />
    <glyph glyph-name="uni0615" unicode="&#x615;" 
d="M-6 1193v57h50v284h72v-150q50 43 114 43q46 0 78.5 -27.5t32.5 -83.5q0 -45 -26.5 -74.5t-56 -39t-58.5 -9.5h-206zM116 1250h75q34 0 57.5 20t23.5 49q0 22 -15.5 36.5t-45.5 14.5q-48 0 -95 -49v-71z" />
    <glyph glyph-name="uni061B" unicode="&#x61b;" horiz-adv-x="519" 
d="M416 1235q-28 -98 -61.5 -250.5t-47.5 -251.5h-126l-12 21q69 254 174 481h73zM154 -7q0 53 24 79t65 26q85 0 85 -105q0 -106 -85 -106q-89 0 -89 106z" />
    <glyph glyph-name="uni061F" unicode="&#x61f;" horiz-adv-x="855" 
d="M579 416v-39h-100v17q0 116 -31 179t-135 155q-12 11 -49 43t-49 43t-40.5 39.5t-39 44t-29 44.5t-25.5 53.5t-13 57.5t-6 69q0 169 106 265t297 96q155 0 340 -82l-38 -84q-153 76 -296 76q-144 0 -224.5 -72t-80.5 -207q0 -32 4 -58.5t16 -51t22.5 -42t34 -42
t39.5 -39.5t51 -46.5t56 -51.5q47 -44 68.5 -65.5t50.5 -58t41 -67t21 -75.5t9 -101zM456 -42v230h132v-230h-132z" />
    <glyph glyph-name="uni0621" unicode="&#x621;" horiz-adv-x="906" 
d="M82 0v92h163q-124 110 -124 305q0 157 105.5 262t273.5 105q152 0 321 -79l-41 -82q-162 70 -277 69q-127 0 -203.5 -78t-76.5 -197q0 -147 76.5 -226t211.5 -79h312v-92h-741z" />
    <glyph glyph-name="uni0622" unicode="&#x622;" horiz-adv-x="399" 
d="M146 0v1296h108v-1296h-108zM43 1447l109 81q47 -41 96 -41q56 0 108 43v-85q-45 -39 -114 -39q-57 0 -88 31l-69 -48z" />
    <glyph glyph-name="uni0623" unicode="&#x623;" horiz-adv-x="399" 
d="M146 0v1296h108v-1296h-108zM64 1446q0 84 40 134.5t117 50.5h86v-69h-85q-40 0 -61 -29t-21 -80v-8h195v-70h-264q-7 48 -7 71z" />
    <glyph glyph-name="uni0624" unicode="&#x624;" horiz-adv-x="1016" 
d="M483 -451q-167 0 -394 78l29 87q118 -38 198.5 -55.5t162.5 -17.5q150 0 249 91.5t99 224.5v43h-260q-238 0 -363 115t-125 320q0 85 21 154t58 115.5t82.5 80.5t99 52t103 26.5t99.5 8.5q85 0 176.5 -21.5t137.5 -40t78 -35.5v-822q0 -124 -64.5 -217.5t-165.5 -140
t-221 -46.5zM186 429q0 -156 100 -246.5t285 -90.5h256v620q-142 66 -278 66q-163 0 -263 -90t-100 -259zM371 1108q0 84 40 134.5t117 50.5h86v-69h-85q-40 0 -61 -29t-21 -80v-8h195v-70h-264q-7 48 -7 71z" />
    <glyph glyph-name="uni0625" unicode="&#x625;" horiz-adv-x="399" 
d="M146 0v1462h108v-1462h-108zM64 -290q0 84 40 134.5t117 50.5h86v-69h-85q-40 0 -61 -29t-21 -80v-8h195v-70h-264q-7 48 -7 71z" />
    <glyph glyph-name="uni0626" unicode="&#x626;" horiz-adv-x="1708" 
d="M641 -186q-270 0 -414.5 132.5t-144.5 361.5q0 66 24 177t61 195l100 -29q-34 -78 -55 -178t-21 -165q0 -192 114.5 -297t335.5 -105h364v925q4 1 25.5 9t26 9.5l24 8t25.5 8t23.5 6.5t26 6.5t24.5 4.5t27.5 4t26.5 2t30 1q152 0 225 -83.5t73 -231.5v-575h-108v575
q0 116 -47 169.5t-146 53.5q-64 0 -148 -31v-953h-472zM176 907q0 84 40 134.5t117 50.5h86v-69h-85q-40 0 -61 -29t-21 -80v-8h195v-70h-264q-7 48 -7 71z" />
    <glyph glyph-name="uni0627" unicode="&#x627;" horiz-adv-x="399" 
d="M146 0v1462h108v-1462h-108z" />
    <glyph glyph-name="uni0628" unicode="&#x628;" horiz-adv-x="1786" 
d="M554 0q-107 0 -187 31t-127.5 86.5t-70.5 126.5t-23 157v281h108v-273q0 -308 307 -308h811q161 0 161 181v588h107v-596q0 -136 -68 -205t-190 -69h-828zM826 -290v133h139v-133h-139z" />
    <glyph glyph-name="uni0629" unicode="&#x629;" horiz-adv-x="1101" 
d="M567 0q-100 0 -183.5 28.5t-138 74t-92.5 104.5t-54.5 118.5t-16.5 117.5q0 75 29 151t84 143.5t148 110t208 42.5q93 0 172 -28.5t132.5 -74t91 -104.5t55 -119.5t17.5 -118.5v-290q-86 -72 -206.5 -113.5t-245.5 -41.5zM191 443q0 -146 106 -248.5t267 -102.5
q179 0 347 118v235q0 144 -104 248.5t-256 104.5t-256 -105t-104 -250zM348 1036v133h135v-133h-135zM601 1036v133h135v-133h-135z" />
    <glyph glyph-name="uni062A" unicode="&#x62a;" horiz-adv-x="1786" 
d="M554 0q-107 0 -187 31t-127.5 86.5t-70.5 126.5t-23 157v281h108v-273q0 -308 307 -308h811q161 0 161 181v588h107v-596q0 -136 -68 -205t-190 -69h-828zM705 1036v133h134v-133h-134zM957 1036v133h135v-133h-135z" />
    <glyph glyph-name="uni062B" unicode="&#x62b;" horiz-adv-x="1786" 
d="M554 0q-107 0 -187 31t-127.5 86.5t-70.5 126.5t-23 157v281h108v-273q0 -308 307 -308h811q161 0 161 181v588h107v-596q0 -136 -68 -205t-190 -69h-828zM706 1037v131h136v-131h-136zM831 1243v130h135v-130h-135zM957 1037v131h135v-131h-135z" />
    <glyph glyph-name="uni062C" unicode="&#x62c;" horiz-adv-x="1108" 
d="M581 -451q-499 0 -499 334q0 131 58 208v1h748q30 112 30 260q0 229 -98.5 337.5t-302.5 108.5q-132 0 -292 -69l-43 82q180 79 332 79q133 0 232 -38.5t159.5 -111t90 -170t29.5 -220.5q0 -186 -47 -350h-770q-18 -54 -18 -118q0 -118 92 -180t298 -62h49l3 -90
q-27 -1 -51 -1zM785 -410v133h139v-133h-139z" />
    <glyph glyph-name="uni062D" unicode="&#x62d;" horiz-adv-x="1115" 
d="M890 -416q-39 -16 -122 -30t-177 -14q-245 0 -377 96.5t-132 239.5q0 68 20 125.5t46 90.5h748q30 112 30 260q0 229 -98.5 337.5t-302.5 108.5q-132 0 -292 -69l-43 82q180 79 332 79q133 0 232 -38.5t159.5 -111t90 -170t29.5 -220.5q0 -186 -47 -350h-772
q-29 -58 -29 -122q0 -114 111 -179t295 -66q79 -1 154.5 12t116.5 27z" />
    <glyph glyph-name="uni062E" unicode="&#x62e;" horiz-adv-x="1115" 
d="M890 -416q-39 -16 -122 -30t-177 -14q-245 0 -377 96.5t-132 239.5q0 68 20 125.5t46 90.5h748q30 112 30 260q0 229 -98.5 337.5t-302.5 108.5q-132 0 -292 -69l-43 82q180 79 332 79q133 0 232 -38.5t159.5 -111t90 -170t29.5 -220.5q0 -186 -47 -350h-772
q-29 -58 -29 -122q0 -114 111 -179t295 -66q79 -1 154.5 12t116.5 27zM513 1026v133h139v-133h-139z" />
    <glyph glyph-name="uni062F" unicode="&#x62f;" horiz-adv-x="884" 
d="M79 0v92h590q29 116 29 260q0 229 -96.5 337.5t-300.5 108.5q-66 0 -129 -15l-23 88q75 19 157 19q132 0 229.5 -38.5t156 -111t86.5 -169.5t28 -221q0 -178 -49 -350h-678z" />
    <glyph glyph-name="uni0630" unicode="&#x630;" horiz-adv-x="884" 
d="M79 0v92h590q29 116 29 260q0 229 -96.5 337.5t-300.5 108.5q-66 0 -129 -15l-23 88q75 19 157 19q132 0 229.5 -38.5t156 -111t86.5 -169.5t28 -221q0 -178 -49 -350h-678zM291 1036v133h139v-133h-139z" />
    <glyph glyph-name="uni0631" unicode="&#x631;" horiz-adv-x="453" 
d="M-96 -451v92h29q65 0 113 19.5t77 52t46 83.5t23 105t6 126v860h109v-864q0 -474 -371 -474h-32z" />
    <glyph glyph-name="uni0632" unicode="&#x632;" horiz-adv-x="453" 
d="M-96 -451v92h29q65 0 113 19.5t77 52t46 83.5t23 105t6 126v860h109v-864q0 -474 -371 -474h-32zM184 1036v133h139v-133h-139z" />
    <glyph glyph-name="uni0633" unicode="&#x633;" horiz-adv-x="2172" 
d="M598 -451q-97 0 -187.5 30.5t-164.5 88t-119 152.5t-45 213q0 153 94 372l99 -39q-85 -201 -85 -331q0 -173 113.5 -283.5t293.5 -110.5q161 0 250.5 93.5t89.5 259.5v876h108v-778h227q157 0 157 172v606h108v-609v-20q0 -101 47.5 -147.5t146.5 -46.5q91 0 139.5 51
t48.5 147v625h107v-625q0 -130 -72.5 -210t-221.5 -80q-188 0 -257 120q-67 -75 -197 -75h-233v-6q0 -115 -37.5 -203t-101.5 -139.5t-141.5 -77t-166.5 -25.5z" />
    <glyph glyph-name="uni0634" unicode="&#x634;" horiz-adv-x="2172" 
d="M598 -451q-97 0 -187.5 30.5t-164.5 88t-119 152.5t-45 213q0 153 94 372l99 -39q-85 -201 -85 -331q0 -173 113.5 -283.5t293.5 -110.5q161 0 250.5 93.5t89.5 259.5v876h108v-778h227q157 0 157 172v606h108v-609v-20q0 -101 47.5 -147.5t146.5 -46.5q91 0 139.5 51
t48.5 147v625h107v-625q0 -130 -72.5 -210t-221.5 -80q-188 0 -257 120q-67 -75 -197 -75h-233v-6q0 -115 -37.5 -203t-101.5 -139.5t-141.5 -77t-166.5 -25.5zM1282 1037v131h136v-131h-136zM1407 1243v130h135v-130h-135zM1533 1037v131h135v-131h-135z" />
    <glyph glyph-name="uni0635" unicode="&#x635;" horiz-adv-x="2097" 
d="M598 -451q-97 0 -187.5 30.5t-164.5 88t-119 152.5t-45 213q0 153 94 372l99 -39q-85 -201 -85 -331q0 -173 113.5 -284t293.5 -111q161 0 250.5 94t89.5 260v876h108v-279q105 144 253 230.5t298 86.5q184 0 301.5 -128t117.5 -313q0 -32 -5 -68.5t-19.5 -83
t-36.5 -89.5t-59.5 -84.5t-85 -72.5t-117 -50t-151.5 -19h-496v-6q0 -115 -37.5 -203t-101.5 -139.5t-141.5 -77t-166.5 -25.5zM1045 92h499q78 0 141 23.5t103.5 61t68 86.5t39 97.5t11.5 95.5q0 151 -87 255.5t-238 104.5q-155 0 -304 -106.5t-233 -265.5v-352z" />
    <glyph glyph-name="uni0636" unicode="&#x636;" horiz-adv-x="2097" 
d="M598 -451q-97 0 -187.5 30.5t-164.5 88t-119 152.5t-45 213q0 153 94 372l99 -39q-85 -201 -85 -331q0 -173 113.5 -284t293.5 -111q161 0 250.5 94t89.5 260v876h108v-279q105 144 253 230.5t298 86.5q184 0 301.5 -128t117.5 -313q0 -32 -5 -68.5t-19.5 -83
t-36.5 -89.5t-59.5 -84.5t-85 -72.5t-117 -50t-151.5 -19h-496v-6q0 -115 -37.5 -203t-101.5 -139.5t-141.5 -77t-166.5 -25.5zM1045 92h499q78 0 141 23.5t103.5 61t68 86.5t39 97.5t11.5 95.5q0 151 -87 255.5t-238 104.5q-155 0 -304 -106.5t-233 -265.5v-352zM1410 1036
v133h139v-133h-139z" />
    <glyph glyph-name="uni0637" unicode="&#x637;" horiz-adv-x="1380" 
d="M54 0v92h162v1370h108v-877q105 147 254 235t300 88q122 0 219 -60t149 -160.5t52 -220.5q0 -32 -5 -68.5t-19.5 -83t-36.5 -89.5t-59.5 -84.5t-85 -72.5t-117.5 -50t-152 -19h-769zM324 92h503q77 0 140.5 23.5t104 61t68 86.5t39 97.5t11.5 95.5q0 151 -87.5 255.5
t-237.5 104.5q-157 0 -307 -108.5t-234 -269.5v-346z" />
    <glyph glyph-name="uni0638" unicode="&#x638;" horiz-adv-x="1380" 
d="M54 0v92h162v1370h108v-877q105 147 254 235t300 88q122 0 219 -60t149 -160.5t52 -220.5q0 -32 -5 -68.5t-19.5 -83t-36.5 -89.5t-59.5 -84.5t-85 -72.5t-117.5 -50t-152 -19h-769zM324 92h503q77 0 140.5 23.5t104 61t68 86.5t39 97.5t11.5 95.5q0 151 -87.5 255.5
t-237.5 104.5q-157 0 -307 -108.5t-234 -269.5v-346zM739 1036v133h139v-133h-139z" />
    <glyph glyph-name="uni0639" unicode="&#x639;" horiz-adv-x="1132" 
d="M892 -416q-39 -16 -123 -30t-178 -14q-245 0 -377 96.5t-132 239.5q0 68 20 125.5t46 90.5h228q-49 33 -84.5 81t-53.5 99t-25.5 95.5t-7.5 86.5q0 182 130 309t320 127q179 0 370 -93l-43 -86q-175 88 -326 87q-147 -1 -249.5 -103t-102.5 -241q0 -40 8 -83t31.5 -94.5
t60 -91.5t100 -66.5t145.5 -26.5h400v-92h-835q-29 -58 -29 -122q0 -114 111 -179t295 -66q79 -1 155.5 12t117.5 27z" />
    <glyph glyph-name="uni063A" unicode="&#x63a;" horiz-adv-x="1132" 
d="M892 -416q-39 -16 -123 -30t-178 -14q-245 0 -377 96.5t-132 239.5q0 68 20 125.5t46 90.5h228q-49 33 -84.5 81t-53.5 99t-25.5 95.5t-7.5 86.5q0 182 130 309t320 127q179 0 370 -93l-43 -86q-175 88 -326 87q-147 -1 -249.5 -103t-102.5 -241q0 -40 8 -83t31.5 -94.5
t60 -91.5t100 -66.5t145.5 -26.5h400v-92h-835q-29 -58 -29 -122q0 -114 111 -179t295 -66q79 -1 155.5 12t117.5 27zM576 1036v133h139v-133h-139z" />
    <glyph glyph-name="uni0640" unicode="&#x640;" horiz-adv-x="334" 
d="M0 0q-9 0 -14 6q-6 7 -6 40q0 32 8 42q4 4 12 4h334q8 0 12 -4q8 -10 8 -42q0 -33 -6 -40q-4 -6 -14 -6h-334z" />
    <glyph glyph-name="uni0641" unicode="&#x641;" horiz-adv-x="1775" 
d="M564 0q-108 0 -189.5 32.5t-130.5 90.5t-73.5 133t-24.5 165v261h108v-261q0 -159 79 -244t231 -85h367q-157 115 -157 345q0 83 21.5 151.5t59.5 114.5t85 80.5t102 53t106.5 27.5t102.5 9q88 0 176 -22t132 -42t70 -37v-772h-1065zM881 431q0 -158 100 -248.5
t285 -90.5h256v624q-135 65 -272 65q-165 0 -267 -95t-102 -255zM1173 1036v133h139v-133h-139z" />
    <glyph glyph-name="uni0642" unicode="&#x642;" horiz-adv-x="1441" 
d="M676 -443q-279 0 -430.5 122t-159.5 344q-9 86 22 227l102 -22q-26 -114 -21 -180q4 -190 127 -294.5t360 -104.5h511v351h-260q-238 0 -363 116t-125 321q0 102 31.5 181t79.5 125.5t112.5 76.5t124 41t120.5 11q84 0 175 -21.5t135.5 -39.5t77.5 -35v-1219h-619z
M546 431q0 -158 100.5 -248.5t285.5 -90.5h255v622q-143 66 -278 66q-162 0 -262.5 -93.5t-100.5 -255.5zM717 1036v133h135v-133h-135zM970 1036v133h135v-133h-135z" />
    <glyph glyph-name="uni0643" unicode="&#x643;" horiz-adv-x="1389" 
d="M641 0q-270 0 -414.5 132t-144.5 361q0 72 27 188l104 -22q-23 -98 -23 -165q0 -192 115 -297t336 -105h494v1370h108v-1462h-602zM547 777v64h181v5q0 45 -22 64t-65 19h-85v67h1l148 114l39 -52l-81 -63q68 -6 102 -46.5t34 -98.5q0 -25 -7 -73h-245z" />
    <glyph glyph-name="uni0644" unicode="&#x644;" horiz-adv-x="1190" 
d="M598 -443q-77 0 -150.5 17.5t-140 56t-116.5 93.5t-79.5 134.5t-29.5 174.5q0 153 94 372l99 -39q-85 -201 -85 -331q0 -172 113 -279t294 -107q162 0 251 90t89 255v1468h108v-1468q0 -114 -37 -201t-101.5 -137t-142 -74.5t-166.5 -24.5z" />
    <glyph glyph-name="uni0645" unicode="&#x645;" horiz-adv-x="1448" 
d="M843 0q-91 0 -168 24.5t-130 64.5t-92 92.5t-59.5 107.5t-26.5 111q-96 -16 -142 -83t-32 -174l80 -594h-108l-79 580q-20 150 58 250t224 115q9 72 42.5 139.5t88.5 126.5t142.5 94.5t192.5 35.5q93 0 172 -28.5t132.5 -74t91 -104.5t55 -119.5t17.5 -118.5v-445h-459z
M473 443q0 -148 106.5 -249.5t269.5 -101.5h345v353q0 148 -100 251t-260 103q-158 0 -259.5 -104t-101.5 -252z" />
    <glyph glyph-name="uni0646" unicode="&#x646;" horiz-adv-x="1281" 
d="M644 -401q-125 0 -225 31.5t-176.5 96.5t-118.5 174.5t-42 256.5q0 266 123 504l100 -39q-115 -221 -115 -463q0 -469 450 -469q191 0 289 92.5t98 260.5v826h108v-826q0 -115 -38 -202.5t-106 -139.5t-155 -77.5t-192 -25.5zM593 1036v133h139v-133h-139z" />
    <glyph glyph-name="uni0647" unicode="&#x647;" horiz-adv-x="1101" 
d="M567 0q-100 0 -183.5 28.5t-138 74t-92.5 104.5t-54.5 118.5t-16.5 117.5q0 75 29 151t84 143.5t148 110t208 42.5q93 0 172 -28.5t132.5 -74t91 -104.5t55 -119.5t17.5 -118.5v-290q-86 -72 -206.5 -113.5t-245.5 -41.5zM191 443q0 -146 106 -248.5t267 -102.5
q179 0 347 118v235q0 144 -104 248.5t-256 104.5t-256 -105t-104 -250z" />
    <glyph glyph-name="uni0648" unicode="&#x648;" horiz-adv-x="1016" 
d="M483 -451q-167 0 -394 78l29 87q118 -38 198.5 -55.5t162.5 -17.5q150 0 249 91.5t99 224.5v43h-260q-238 0 -363 115t-125 320q0 85 21 154t58 115.5t82.5 80.5t99 52t103 26.5t99.5 8.5q85 0 176.5 -21.5t137.5 -40t78 -35.5v-822q0 -124 -64.5 -217.5t-165.5 -140
t-221 -46.5zM186 429q0 -156 100 -246.5t285 -90.5h256v620q-142 66 -278 66q-163 0 -263 -90t-100 -259z" />
    <glyph glyph-name="uni0649" unicode="&#x649;" horiz-adv-x="1708" 
d="M641 -186q-270 0 -414.5 132.5t-144.5 361.5q0 66 24 177t61 195l100 -29q-34 -78 -55 -178t-21 -165q0 -192 114.5 -297t335.5 -105h364v925q4 1 25.5 9t26 9.5l24 8t25.5 8t23.5 6.5t26 6.5t24.5 4.5t27.5 4t26.5 2t30 1q152 0 225 -83.5t73 -231.5v-575h-108v575
q0 116 -47 169.5t-146 53.5q-64 0 -148 -31v-953h-472z" />
    <glyph glyph-name="uni064A" unicode="&#x64a;" horiz-adv-x="1708" 
d="M641 -186q-270 0 -414.5 132.5t-144.5 361.5q0 66 24 177t61 195l100 -29q-34 -78 -55 -178t-21 -165q0 -192 114.5 -297t335.5 -105h364v925q4 1 25.5 9t26 9.5l24 8t25.5 8t23.5 6.5t26 6.5t24.5 4.5t27.5 4t26.5 2t30 1q152 0 225 -83.5t73 -231.5v-575h-108v575
q0 116 -47 169.5t-146 53.5q-64 0 -148 -31v-953h-472zM555 -469v133h135v-133h-135zM808 -469v133h135v-133h-135z" />
    <glyph glyph-name="uni064B" unicode="&#x64b;" 
d="M0 1096v69l304 43v-68zM0 1215v69l304 43v-68z" />
    <glyph glyph-name="uni064C" unicode="&#x64c;" 
d="M20 1099l-3 156h60l2 -96q35 -1 80 9q-10 23 -14 48q-5 39 18 75t62 43q44 8 74 -13t38 -60q6 -39 -18 -72t-66 -52q-93 -42 -180 -38h-53zM211 1216q1 -7 9 -27l13 6q46 22 41 54q-7 31 -38 23q-33 -11 -25 -56z" />
    <glyph glyph-name="uni064D" unicode="&#x64d;" 
d="M0 -91v69l304 43v-68zM0 -212v69l304 43v-68z" />
    <glyph glyph-name="uni064E" unicode="&#x64e;" 
d="M0 1096v69l304 43v-68z" />
    <glyph glyph-name="uni064F" unicode="&#x64f;" 
d="M17 1153q41 -4 91 8q-10 23 -14 48q-5 39 18 75t62 43q44 8 74 -13t38 -60q6 -39 -18 -72t-66 -52q-93 -42 -180 -38zM160 1209q1 -7 9 -27l13 6q46 22 41 54q-7 31 -38 23q-33 -11 -25 -56z" />
    <glyph glyph-name="uni0650" unicode="&#x650;" 
d="M0 -91v69l304 43v-68z" />
    <glyph glyph-name="uni0651" unicode="&#x651;" 
d="M124 1179l-12 70l57 9l12 -68q4 -20 21.5 -25.5t32 5.5t11.5 30l-12 67l57 8l11 -65q7 -42 -17 -71t-58 -32.5t-65 12.5q-22 -25 -56 -31.5t-64.5 12.5t-38.5 61l-13 70l58 8l12 -67q6 -30 35.5 -26t29.5 30q-1 1 -1 3z" />
    <glyph glyph-name="uni0652" unicode="&#x652;" 
d="M117 1088q-48 0 -82.5 34t-34.5 82t34.5 82.5t82.5 34.5t82 -34.5t34 -82.5t-34 -82t-82 -34zM60 1204q0 -23 16.5 -38.5t40.5 -15.5q23 0 40 16t17 38t-17 38t-40 16q-24 0 -40.5 -15.5t-16.5 -38.5z" />
    <glyph glyph-name="uni0653" unicode="&#x653;" 
d="M42 1192l-42 58l109 81q47 -41 96 -41q56 0 108 43v-85q-45 -39 -114 -39q-57 0 -88 31z" />
    <glyph glyph-name="uni0654" unicode="&#x654;" 
d="M7 1199q-7 48 -7 71q0 84 40 134.5t117 50.5h86v-69h-85q-40 0 -61 -29t-21 -80v-8h195v-70h-264z" />
    <glyph glyph-name="uni0655" unicode="&#x655;" 
d="M7 -252q-7 48 -7 71q0 84 40 134.5t117 50.5h86v-69h-85q-40 0 -61 -29t-21 -80v-8h195v-70h-264z" />
    <glyph glyph-name="uni0656" unicode="&#x656;" 
d="M-11 75v208h80v-208h-80z" />
    <glyph glyph-name="uni0658" unicode="&#x658;" 
d="M158 1165q75 0 75 111v85h84v-85q0 -84 -41 -136t-118 -52t-117.5 52t-40.5 136v85h84v-85q0 -111 74 -111z" />
    <glyph glyph-name="uni0660" unicode="&#x660;" horiz-adv-x="579" 
d="M291 576l-157 154l157 156l154 -156z" />
    <glyph glyph-name="uni0661" unicode="&#x661;" horiz-adv-x="391" 
d="M141 0v1462h108v-1462h-108z" />
    <glyph glyph-name="uni0662" unicode="&#x662;" horiz-adv-x="842" 
d="M392 1369q-143 0 -143 -161v-1208h-108v1190q0 130 60.5 200.5t182.5 70.5l387 1l1 -93h-380z" />
    <glyph glyph-name="uni0663" unicode="&#x663;" horiz-adv-x="1160" 
d="M141 0v1462h108v-616h50q158 0 227 79t69 262v275h101v-275q0 -236 -114 -341h111q158 0 227 79t69 262v275h101v-275q0 -69 -9 -126.5t-35 -116t-69 -98.5t-115.5 -65.5t-168.5 -25.5h-444v-755h-108z" />
    <glyph glyph-name="uni0664" unicode="&#x664;" horiz-adv-x="1005" 
d="M548 0q-111 0 -196 31.5t-131 76t-75 104t-37.5 105t-8.5 89.5q0 40 8 82t28.5 93t64.5 97t106 76q-49 24 -87 61t-59 74t-34.5 80t-18 75t-4.5 62q0 160 113.5 258t298.5 98q165 0 348 -81l-43 -88q-175 77 -305 77q-145 0 -224.5 -73t-79.5 -191q0 -143 80.5 -224
t234.5 -81h321v-92h-300q-170 0 -255 -78.5t-85 -224.5q0 -148 83.5 -231t256.5 -83h300v-92h-300z" />
    <glyph glyph-name="uni0665" unicode="&#x665;" horiz-adv-x="1113" 
d="M557 0q-168 0 -266.5 68.5t-144.5 220.5t-46 410q0 170 29 305.5t75.5 219t108 139t122 77.5t122.5 22q51 0 101 -16t102.5 -50t97 -94.5t80 -141.5t55.5 -199.5t20 -261.5q0 -257 -47 -409.5t-145.5 -221t-263.5 -68.5zM208 699q0 -232 33.5 -362t108.5 -187t207 -57
q130 0 204.5 57.5t109 188.5t34.5 360q0 303 -96.5 487t-251.5 184q-156 0 -252.5 -184t-96.5 -487z" />
    <glyph glyph-name="uni0666" unicode="&#x666;" horiz-adv-x="913" 
d="M63 1369l1 93h707v-1462h-108v1369h-600z" />
    <glyph glyph-name="uni0667" unicode="&#x667;" horiz-adv-x="1223" 
d="M551 0l-531 1462h106l485 -1333l486 1333h106l-532 -1462h-120z" />
    <glyph glyph-name="uni0668" unicode="&#x668;" horiz-adv-x="1242" 
d="M551 1462h120l532 -1462h-106l-486 1333l-485 -1333h-106z" />
    <glyph glyph-name="uni0669" unicode="&#x669;" horiz-adv-x="1047" 
d="M564 592q-238 0 -363 115t-125 320t125 320t363 115h341v-1462h-108v592h-233zM184 1027q0 -166 98 -254.5t280 -88.5h235v686h-235q-182 0 -280 -88.5t-98 -254.5z" />
    <glyph glyph-name="uni066A" unicode="&#x66a;" horiz-adv-x="1345" 
d="M199 0l811 1462h102l-811 -1462h-102zM131 1145l155 154l153 -154l-153 -152zM970 353l155 154l152 -154l-152 -152z" />
    <glyph glyph-name="uni066B" unicode="&#x66b;" horiz-adv-x="303" 
d="M73 -180q51 189 73 335h84l8 -14q-47 -172 -116 -321h-49z" />
    <glyph glyph-name="uni066C" unicode="&#x66c;" horiz-adv-x="303" 
d="M73 -180q51 189 73 335h84l8 -14q-47 -172 -116 -321h-49z" />
    <glyph glyph-name="uni066D" unicode="&#x66d;" horiz-adv-x="1128" 
d="M746 668l-188 378l-177 -378l-134 75l245 339l-390 37l20 139l400 -106l-40 404h154l-38 -404l404 106l22 -139l-395 -37l250 -339z" />
    <glyph glyph-name="uni066E" unicode="&#x66e;" horiz-adv-x="1786" 
d="M554 0q-107 0 -187 31t-127.5 86.5t-70.5 126.5t-23 157v281h108v-273q0 -308 307 -308h811q161 0 161 181v588h107v-596q0 -136 -68 -205t-190 -69h-828z" />
    <glyph glyph-name="uni066F" unicode="&#x66f;" horiz-adv-x="1441" 
d="M676 -443q-279 0 -430.5 122t-159.5 344q-9 86 22 227l102 -22q-26 -114 -21 -180q4 -190 127 -294.5t360 -104.5h511v351h-260q-238 0 -363 116t-125 321q0 102 31.5 181t79.5 125.5t112.5 76.5t124 41t120.5 11q84 0 175 -21.5t135.5 -39.5t77.5 -35v-1219h-619z
M546 431q0 -158 100.5 -248.5t285.5 -90.5h255v622q-143 66 -278 66q-162 0 -262.5 -93.5t-100.5 -255.5z" />
    <glyph glyph-name="uni0670" unicode="&#x670;" 
d="M-11 1293v208h80v-208h-80z" />
    <glyph glyph-name="uni0671" unicode="&#x671;" horiz-adv-x="399" 
d="M146 0v1296h108v-1296h-108zM24 1432v57h50v170h72v-36q50 43 114 43q46 0 78.5 -27.5t32.5 -83.5q0 -45 -26.5 -74.5t-56 -39t-58.5 -9.5h-206zM146 1489h75q34 0 57.5 20t23.5 49q0 22 -15.5 36.5t-45.5 14.5q-48 0 -95 -49v-71z" />
    <glyph glyph-name="uni0679" unicode="&#x679;" horiz-adv-x="1786" 
d="M554 0q-107 0 -187 31t-127.5 86.5t-70.5 126.5t-23 157v281h108v-273q0 -308 307 -308h811q161 0 161 181v588h107v-596q0 -136 -68 -205t-190 -69h-828zM729 1072v57h50v284h72v-150q50 43 114 43q46 0 78.5 -27.5t32.5 -83.5q0 -45 -26.5 -74.5t-56 -39t-58.5 -9.5
h-206zM851 1129h75q34 0 57.5 20t23.5 49q0 22 -15.5 36.5t-45.5 14.5q-48 0 -95 -49v-71z" />
    <glyph glyph-name="uni067E" unicode="&#x67e;" horiz-adv-x="1785" 
d="M554 0q-107 0 -187 31t-127.5 86.5t-70.5 126.5t-23 157v281h108v-273q0 -308 307 -308h811q161 0 161 181v588h107v-596q0 -136 -68 -205t-190 -69h-828zM702 -288v131h135v-131h-135zM826 -493v130h136v-130h-136zM952 -288v131h135v-131h-135z" />
    <glyph glyph-name="uni0686" unicode="&#x686;" horiz-adv-x="1108" 
d="M551 -440q-469 8 -469 323q0 136 59 209h735q31 121 31 260q0 231 -96 339t-302 108q-137 0 -289 -62l-35 82q177 71 323 71q505 0 505 -540q0 -120 -21 -217t-38 -133h-746q-21 -59 -21 -123q-1 -112 94.5 -170.5t281.5 -57.5zM657 -293v130h134v-130h-134zM780 -497
v129h135v-129h-135zM905 -293v130h134v-130h-134z" />
    <glyph glyph-name="uni0688" unicode="&#x688;" horiz-adv-x="884" 
d="M79 0v92h590q29 116 29 260q0 229 -96.5 337.5t-300.5 108.5q-66 0 -129 -15l-23 88q75 19 157 19q132 0 229.5 -38.5t156 -111t86.5 -169.5t28 -221q0 -178 -49 -350h-678zM193 1072v57h50v284h72v-150q50 43 114 43q46 0 78.5 -27.5t32.5 -83.5q0 -45 -26.5 -74.5
t-56 -39t-58.5 -9.5h-206zM315 1129h75q34 0 57.5 20t23.5 49q0 22 -15.5 36.5t-45.5 14.5q-48 0 -95 -49v-71z" />
    <glyph glyph-name="uni0691" unicode="&#x691;" horiz-adv-x="453" 
d="M-96 -451v92h29q65 0 113 19.5t77 52t46 83.5t23 105t6 126v860h109v-864q0 -474 -371 -474h-32zM86 1072v57h50v284h72v-150q50 43 114 43q46 0 78.5 -27.5t32.5 -83.5q0 -45 -26.5 -74.5t-56 -39t-58.5 -9.5h-206zM208 1129h75q34 0 57.5 20t23.5 49q0 22 -15.5 36.5
t-45.5 14.5q-48 0 -95 -49v-71z" />
    <glyph glyph-name="uni0698" unicode="&#x698;" horiz-adv-x="473" 
d="M-96 -451v92h29q65 0 113 19.5t77 52t46 83.5t23 105t6 126v860h109v-864q0 -474 -371 -474h-32zM64 1037v131h135v-131h-135zM188 1243v130h135v-130h-135zM314 1037v131h135v-131h-135z" />
    <glyph glyph-name="uni06A1" unicode="&#x6a1;" horiz-adv-x="1775" 
d="M564 0q-108 0 -189.5 32.5t-130.5 90.5t-73.5 133t-24.5 165v261h108v-261q0 -159 79 -244t231 -85h367q-157 115 -157 345q0 83 21.5 151.5t59.5 114.5t85 80.5t102 53t106.5 27.5t102.5 9q88 0 176 -22t132 -42t70 -37v-772h-1065zM881 431q0 -158 100 -248.5
t285 -90.5h256v624q-135 65 -272 65q-165 0 -267 -95t-102 -255z" />
    <glyph glyph-name="uni06A4" unicode="&#x6a4;" horiz-adv-x="1762" 
d="M564 0q-108 0 -189.5 32.5t-130.5 90.5t-73.5 133t-24.5 165v261h108v-261q0 -159 79 -244t231 -85h367q-157 115 -157 345q0 83 21.5 151.5t59.5 114.5t85 80.5t102 53t106.5 27.5t102.5 9q88 0 176 -22t132 -42t70 -37v-772h-1065zM881 431q0 -158 100 -248.5
t285 -90.5h256v624q-135 65 -272 65q-165 0 -267 -95t-102 -255zM1053 1037v131h135v-131h-135zM1177 1243v130h135v-130h-135zM1303 1037v131h135v-131h-135z" />
    <glyph glyph-name="uni06A9" unicode="&#x6a9;" horiz-adv-x="1451" 
d="M641 0q-270 0 -414.5 132.5t-144.5 361.5q0 74 25 187l107 -22q-23 -98 -23 -165q0 -192 114.5 -297t335.5 -105h622v10q0 162 -47.5 292.5t-128.5 213t-185.5 127t-222.5 44.5h-98v111l391 572l89 -56l-365 -533q149 0 275.5 -58.5t213 -160.5t135 -244.5t48.5 -307.5
q0 -27 -6 -102h-721z" />
    <glyph glyph-name="uni06AF" unicode="&#x6af;" horiz-adv-x="1451" 
d="M641 0q-270 0 -414.5 132.5t-144.5 361.5q0 74 25 187l107 -22q-23 -98 -23 -165q0 -192 114.5 -297t335.5 -105h622v10q0 162 -47.5 292.5t-128.5 213t-185.5 127t-222.5 44.5h-98v111l391 572l89 -56l-365 -533q149 0 275.5 -58.5t213 -160.5t135 -244.5t48.5 -307.5
q0 -27 -6 -102h-721zM415 1026l366 534l69 -49l-365 -534z" />
    <glyph glyph-name="uni06BA" unicode="&#x6ba;" horiz-adv-x="1281" 
d="M644 -401q-125 0 -225 31.5t-176.5 96.5t-118.5 174.5t-42 256.5q0 266 123 504l100 -39q-115 -221 -115 -463q0 -469 450 -469q191 0 289 92.5t98 260.5v826h108v-826q0 -115 -38 -202.5t-106 -139.5t-155 -77.5t-192 -25.5z" />
    <glyph glyph-name="uni06BE" unicode="&#x6be;" horiz-adv-x="1693" 
d="M54 0v92h340q-135 102 -135 324q0 75 22.5 137t59.5 105t87.5 75t102 49.5t108.5 26.5q66 100 182 172t265 72q129 0 231 -44t165.5 -121.5t96 -178.5t32.5 -220v-489h-1557zM366 416q0 -168 96.5 -246t288.5 -78h256v573q-135 65 -272 65q-164 0 -266.5 -87.5
t-102.5 -226.5zM752 816q84 -2 168.5 -24t126 -41t67.5 -36v-623h389v405q0 98 -24.5 181t-73.5 148t-130.5 101.5t-187.5 36.5q-105 0 -193 -43t-142 -105z" />
    <glyph glyph-name="uni06C1" unicode="&#x6c1;" horiz-adv-x="1101" 
d="M567 0q-100 0 -183.5 28.5t-138 74t-92.5 104.5t-54.5 118.5t-16.5 117.5q0 75 29 151t84 143.5t148 110t208 42.5q93 0 172 -28.5t132.5 -74t91 -104.5t55 -119.5t17.5 -118.5v-290q-86 -72 -206.5 -113.5t-245.5 -41.5zM191 443q0 -146 106 -248.5t267 -102.5
q179 0 347 118v235q0 144 -104 248.5t-256 104.5t-256 -105t-104 -250z" />
    <glyph glyph-name="uni06C2" unicode="&#x6c2;" horiz-adv-x="1157" 
d="M567 0q-100 0 -183.5 28.5t-138 74t-92.5 104.5t-54.5 118.5t-16.5 117.5q0 75 29 151t84 143.5t148 110t208 42.5q93 0 172 -28.5t132.5 -74t91 -104.5t55 -119.5t17.5 -118.5v-290q-86 -72 -206.5 -113.5t-245.5 -41.5zM191 443q0 -146 106 -248.5t267 -102.5
q179 0 347 118v235q0 144 -104 248.5t-256 104.5t-256 -105t-104 -250zM400 1108q0 84 40 134.5t117 50.5h86v-69h-85q-40 0 -61 -29t-21 -80v-8h195v-70h-264q-7 48 -7 71z" />
    <glyph glyph-name="uni06C3" unicode="&#x6c3;" horiz-adv-x="1101" 
d="M567 0q-100 0 -183.5 28.5t-138 74t-92.5 104.5t-54.5 118.5t-16.5 117.5q0 75 29 151t84 143.5t148 110t208 42.5q93 0 172 -28.5t132.5 -74t91 -104.5t55 -119.5t17.5 -118.5v-290q-86 -72 -206.5 -113.5t-245.5 -41.5zM191 443q0 -146 106 -248.5t267 -102.5
q179 0 347 118v235q0 144 -104 248.5t-256 104.5t-256 -105t-104 -250zM348 1036v133h135v-133h-135zM601 1036v133h135v-133h-135z" />
    <glyph glyph-name="uni06CC" unicode="&#x6cc;" horiz-adv-x="1708" 
d="M641 -186q-270 0 -414.5 132.5t-144.5 361.5q0 66 24 177t61 195l100 -29q-34 -78 -55 -178t-21 -165q0 -192 114.5 -297t335.5 -105h364v925q4 1 25.5 9t26 9.5l24 8t25.5 8t23.5 6.5t26 6.5t24.5 4.5t27.5 4t26.5 2t30 1q152 0 225 -83.5t73 -231.5v-575h-108v575
q0 116 -47 169.5t-146 53.5q-64 0 -148 -31v-953h-472z" />
    <glyph glyph-name="uni06D2" unicode="&#x6d2;" horiz-adv-x="1212" 
d="M216 -442q-70 133 -70 256q0 155 74.5 217t216.5 62h629v-92h-629q-103 0 -143 -41t-40 -147q0 -77 36 -163h695l-17 -92h-752z" />
    <glyph glyph-name="uni06D3" unicode="&#x6d3;" horiz-adv-x="1212" 
d="M216 -442q-70 133 -70 256q0 155 74.5 217t216.5 62h629v-92h-629q-103 0 -143 -41t-40 -147q0 -77 36 -163h695l-17 -92h-752zM472 326q0 84 40 134.5t117 50.5h86v-69h-85q-40 0 -61 -29t-21 -80v-8h195v-70h-264q-7 48 -7 71z" />
    <glyph glyph-name="uni06D4" unicode="&#x6d4;" horiz-adv-x="501" 
d="M191 -23v172h146v-172h-146z" />
    <glyph glyph-name="uni06F0" unicode="&#x6f0;" horiz-adv-x="579" 
d="M291 576l-157 154l157 156l154 -156z" />
    <glyph glyph-name="uni06F1" unicode="&#x6f1;" horiz-adv-x="391" 
d="M141 0v1462h108v-1462h-108z" />
    <glyph glyph-name="uni06F2" unicode="&#x6f2;" horiz-adv-x="830" 
d="M392 1369q-143 0 -143 -161v-1208h-108v1190q0 130 60.5 200.5t182.5 70.5l387 1l1 -93h-380z" />
    <glyph glyph-name="uni06F3" unicode="&#x6f3;" horiz-adv-x="1121" 
d="M141 0v1462h108v-616h50q158 0 227 79t69 262v275h101v-275q0 -236 -114 -341h111q158 0 227 79t69 262v275h101v-275q0 -69 -9 -126.5t-35 -116t-69 -98.5t-115.5 -65.5t-168.5 -25.5h-444v-755h-108z" />
    <glyph glyph-name="uni06F4" unicode="&#x6f4;" horiz-adv-x="1122" 
d="M508 1072q0 403 543 403v-93q-106 0 -185.5 -18t-126 -46t-75.5 -70t-38.5 -83.5t-9.5 -92.5v-225h436l-1 -92h-802v-755h-108v1462h108v-615h259v225z" />
    <glyph glyph-name="uni06F5" unicode="&#x6f5;" horiz-adv-x="1124" 
d="M724 0q-108 0 -162 68q-53 -68 -160 -68q-85 0 -144 42t-93.5 128t-49.5 203.5t-15 281.5q0 195 22.5 339t60.5 233t98 142t126.5 73t154.5 20t155 -20t127 -73t98 -142.5t60 -233t22 -338.5q0 -333 -67.5 -494t-232.5 -161zM208 659q0 -300 45 -433.5t147 -133.5
q54 0 81 43.5t27 142.5v66h108v-66q0 -99 27.5 -142.5t81.5 -43.5q102 0 147 133.5t45 433.5q0 269 -38 425t-113.5 221t-203.5 65q-127 0 -202.5 -65t-113.5 -221t-38 -425z" />
    <glyph glyph-name="uni06F6" unicode="&#x6f6;" horiz-adv-x="1047" 
d="M141 406q0 40 8.5 82t29 93t64 97t105.5 76q-49 24 -87 61t-59 74t-34.5 80t-18 75t-4.5 62q0 155 116 255.5t296 100.5q165 0 348 -81l-43 -86q-164 75 -305 75q-135 0 -219 -74.5t-84 -189.5q0 -141 83.5 -223t230.5 -82h321v-92h-300q-161 0 -250 -80t-89 -223v-406
h-109v406z" />
    <glyph glyph-name="uni06F7" unicode="&#x6f7;" horiz-adv-x="1223" 
d="M551 0l-531 1462h106l485 -1333l486 1333h106l-532 -1462h-120z" />
    <glyph glyph-name="uni06F8" unicode="&#x6f8;" horiz-adv-x="1242" 
d="M551 1462h120l532 -1462h-106l-486 1333l-485 -1333h-106z" />
    <glyph glyph-name="uni06F9" unicode="&#x6f9;" horiz-adv-x="1047" 
d="M564 592q-238 0 -363 115t-125 320t125 320t363 115h341v-1462h-108v592h-233zM184 1027q0 -166 98 -254.5t280 -88.5h235v686h-235q-182 0 -280 -88.5t-98 -254.5z" />
    <glyph glyph-name="Wgrave" unicode="&#x1e80;" horiz-adv-x="1783" 
d="M420 0l-400 1462h115l335 -1291l354 1291h121l368 -1293l338 1293h112l-403 -1462h-89l-385 1344l-375 -1344h-91zM677 2030l13 20h126l107 -399h-73z" />
    <glyph glyph-name="wgrave" unicode="&#x1e81;" horiz-adv-x="1461" 
d="M320 0l-303 1088h107l250 -965h6l310 965h98l301 -962h7l244 962h104l-294 -1088h-113l-296 937h-7l-306 -937h-108zM529 1667l13 20h126l107 -399h-73z" />
    <glyph glyph-name="Wacute" unicode="&#x1e82;" horiz-adv-x="1783" 
d="M420 0l-400 1462h115l335 -1291l354 1291h121l368 -1293l338 1293h112l-403 -1462h-89l-385 1344l-375 -1344h-91zM849 1651l107 399h126l13 -20l-174 -379h-72z" />
    <glyph glyph-name="wacute" unicode="&#x1e83;" horiz-adv-x="1461" 
d="M320 0l-303 1088h107l250 -965h6l310 965h98l301 -962h7l244 962h104l-294 -1088h-113l-296 937h-7l-306 -937h-108zM701 1288l107 399h126l13 -20l-174 -379h-72z" />
    <glyph glyph-name="Wdieresis" unicode="&#x1e84;" horiz-adv-x="1783" 
d="M420 0l-400 1462h115l335 -1291l354 1291h121l368 -1293l338 1293h112l-403 -1462h-89l-385 1344l-375 -1344h-91zM635 1652v131h137v-131h-137zM1003 1652v131h136v-131h-136z" />
    <glyph glyph-name="wdieresis" unicode="&#x1e85;" horiz-adv-x="1461" 
d="M320 0l-303 1088h107l250 -965h6l310 965h98l301 -962h7l244 962h104l-294 -1088h-113l-296 937h-7l-306 -937h-108zM486 1289v131h137v-131h-137zM854 1289v131h136v-131h-136z" />
    <glyph glyph-name="uni1E9E" unicode="&#x1e9e;" horiz-adv-x="1397" 
d="M141 1462h1043v-92l-617 -528q97 25 239 25q227 0 359 -113t132 -315q0 -211 -141.5 -335t-387.5 -124q-104 0 -202 21.5t-160 60.5l54 86q149 -74 311 -74q194 0 306 97t112 264q0 162 -107 251t-294 89q-154 0 -287 -32l-60 104l599 523h-791v-1370h-108v1462z" />
    <glyph glyph-name="Ygrave" unicode="&#x1ef2;" horiz-adv-x="1121" 
d="M506 0v558l-486 904h117l422 -792l425 792h117l-490 -902v-560h-105zM352 1984l13 20h126l107 -399h-73z" />
    <glyph glyph-name="ygrave" unicode="&#x1ef3;" horiz-adv-x="987" 
d="M142 -490q-49 0 -109 13v85q45 -11 106 -11q147 0 211 179l93 224l-426 1088h109l365 -964l369 964h110l-524 -1333q-49 -126 -123.5 -185.5t-180.5 -59.5zM284 1632l13 20h126l107 -399h-73z" />
    <glyph glyph-name="endash" unicode="&#x2013;" horiz-adv-x="1024" 
d="M82 504v95h860v-95h-860z" />
    <glyph glyph-name="emdash" unicode="&#x2014;" horiz-adv-x="2048" 
d="M82 504v95h1884v-95h-1884z" />
    <glyph glyph-name="uni2015" unicode="&#x2015;" horiz-adv-x="2048" 
d="M82 504v95h1884v-95h-1884z" />
    <glyph glyph-name="underscoredbl" unicode="&#x2017;" horiz-adv-x="842" 
d="M-4 -140v95h852v-95h-852zM-4 -417v95h852v-95h-852z" />
    <glyph glyph-name="quoteleft" unicode="&#x2018;" horiz-adv-x="302" 
d="M28 982q30 110 79.5 247t95.5 233h72q-31 -109 -63 -256t-45 -245h-127z" />
    <glyph glyph-name="quoteright" unicode="&#x2019;" horiz-adv-x="302" 
d="M28 961q72 254 108 501h127l12 -20q-71 -254 -174 -481h-73z" />
    <glyph glyph-name="quotesinglbase" unicode="&#x201a;" horiz-adv-x="457" 
d="M67 -263q72 254 108 501h127l12 -20q-71 -254 -174 -481h-73z" />
    <glyph glyph-name="quotereversed" unicode="&#x201b;" horiz-adv-x="303" 
d="M203 961q-41 86 -92.5 226t-82.5 255l13 20h126q15 -101 46.5 -247.5t62.5 -253.5h-73z" />
    <glyph glyph-name="quotedblleft" unicode="&#x201c;" horiz-adv-x="625" 
d="M349 982q72 259 176 480h73q-29 -99 -61.5 -249.5t-47.5 -251.5h-126zM28 982q30 110 79.5 247t95.5 233h72q-31 -109 -63 -256t-45 -245h-127z" />
    <glyph glyph-name="quotedblright" unicode="&#x201d;" horiz-adv-x="625" 
d="M349 961q28 93 62 247t48 254h126l13 -20q-71 -256 -175 -481h-74zM28 961q72 254 108 501h127l12 -20q-71 -254 -174 -481h-73z" />
    <glyph glyph-name="quotedblbase" unicode="&#x201e;" horiz-adv-x="763" 
d="M373 -263q28 93 62 247t48 254h126l13 -20q-71 -256 -175 -481h-74zM52 -263q72 254 108 501h127l12 -20q-71 -254 -174 -481h-73z" />
    <glyph glyph-name="dagger" unicode="&#x2020;" horiz-adv-x="1010" 
d="M429 0l32 1070l-338 -24v122l338 -29l-32 417h132l-33 -417l359 29v-122l-359 24l33 -1070h-132z" />
    <glyph glyph-name="daggerdbl" unicode="&#x2021;" horiz-adv-x="1014" 
d="M432 0l33 392l-342 -25v121l342 -26l-24 324l24 297l-342 -26v121l342 -26l-33 404h133l-33 -404l359 26v-121l-359 26l24 -297l-24 -324l359 26v-121l-359 25l33 -392h-133z" />
    <glyph glyph-name="bullet" unicode="&#x2022;" horiz-adv-x="770" 
d="M385 555q-79 0 -122.5 50.5t-43.5 142.5q0 94 43 143t123 49t123.5 -49.5t43.5 -142.5q0 -91 -44 -142t-123 -51z" />
    <glyph glyph-name="ellipsis" unicode="&#x2026;" horiz-adv-x="1492" 
d="M191 -23v172h146v-172h-146zM687 -23v172h146v-172h-146zM1183 -23v172h146v-172h-146z" />
    </font>
</defs>
</svg>
