<svg width="138" height="70" viewBox="0 0 138 70" fill="none" xmlns="http://www.w3.org/2000/svg">
<path d="M11.182 60.77L28.412 53.16H42.812V46.08H38.712V41.61H41.582C41.832 33.48 44.772 26.12 49.422 20.69C51.852 17.85 54.762 15.54 57.992 13.93C61.222 12.31 64.792 11.39 68.532 11.34H68.632V10.44C68.132 10.33 67.752 9.88 67.752 9.34C67.752 8.8 68.132 8.35 68.632 8.24V7.48C68.302 7.38 68.062 7.07 68.062 6.71C68.062 6.35 68.302 6.04 68.632 5.94V5.19C67.312 5.07 66.272 3.96 66.272 2.6C66.272 1.16 67.432 0 68.872 0C70.312 0 71.472 1.16 71.472 2.6C71.472 3.96 70.432 5.07 69.112 5.19V5.94C69.442 6.04 69.682 6.35 69.682 6.71C69.682 7.07 69.442 7.38 69.112 7.48V8.24C69.612 8.35 69.992 8.8 69.992 9.34C69.992 9.88 69.612 10.33 69.112 10.44V11.34H69.152H69.222C72.962 11.39 76.532 12.31 79.762 13.93C84.612 16.35 88.722 20.34 91.612 25.32C94.342 30.01 95.992 35.6 96.172 41.61H99.042V46.08H94.942V53.16H109.342L126.572 60.77L129.782 62.19V64.65L126.572 63.23L108.872 55.41H28.852L11.152 63.23L7.94202 64.65V62.19L11.152 60.77H11.182ZM58.502 14.93C53.862 17.25 49.912 21.07 47.122 25.88C44.492 30.4 42.892 35.79 42.712 41.6H49.232C49.412 33.5 51.492 26.18 54.822 20.76C56.562 17.92 58.642 15.6 60.972 13.97C61.072 13.9 61.182 13.83 61.282 13.76C60.332 14.09 59.402 14.48 58.502 14.94V14.93ZM61.612 14.89C58.342 17.18 55.512 20.99 53.512 25.81C51.632 30.34 50.482 35.76 50.352 41.6H56.872C56.982 33.54 58.222 26.26 60.212 20.86C61.252 18.03 62.492 15.72 63.912 14.06C64.162 13.77 64.422 13.5 64.682 13.25C63.622 13.65 62.602 14.2 61.622 14.89H61.612ZM66.742 13.08C65.572 13.76 64.402 15.02 63.352 16.78C61.762 19.42 60.412 23.15 59.472 27.6C58.592 31.75 58.062 36.52 57.992 41.61H64.512C64.552 33.52 64.972 26.23 65.632 20.86C65.982 18.05 66.392 15.78 66.862 14.17C67.022 13.63 67.182 13.17 67.362 12.78C67.152 12.87 66.942 12.97 66.742 13.09V13.08ZM69.882 0.89C69.632 0.64 69.282 0.48 68.892 0.48C68.502 0.48 68.162 0.64 67.902 0.89C67.652 1.14 67.492 1.49 67.492 1.88C67.492 2.27 67.652 2.61 67.902 2.87C68.152 3.12 68.502 3.28 68.892 3.28C69.282 3.28 69.622 3.12 69.882 2.87C70.132 2.62 70.292 2.27 70.292 1.88C70.292 1.49 70.132 1.15 69.882 0.89ZM70.392 4.1C70.772 3.72 71.012 3.19 71.012 2.6C71.012 2.22 70.912 1.87 70.742 1.57C70.762 1.67 70.772 1.77 70.772 1.88C70.772 2.92 69.932 3.76 68.892 3.76C67.852 3.76 67.012 2.92 67.012 1.88C67.012 1.77 67.022 1.67 67.042 1.57C66.872 1.88 66.772 2.23 66.772 2.6C66.772 3.19 67.012 3.71 67.392 4.1C67.772 4.48 68.302 4.72 68.892 4.72C69.482 4.72 70.002 4.48 70.392 4.1ZM69.222 6.71C69.222 6.53 69.072 6.38 68.892 6.38C68.712 6.38 68.562 6.53 68.562 6.71C68.562 6.89 68.712 7.04 68.892 7.04C69.072 7.04 69.222 6.89 69.222 6.71ZM69.342 9.79C69.462 9.67 69.532 9.51 69.532 9.34C69.532 9.16 69.462 9 69.342 8.89C69.222 8.77 69.062 8.7 68.892 8.7C68.712 8.7 68.552 8.77 68.442 8.89C68.322 9.01 68.252 9.17 68.252 9.34C68.252 9.52 68.322 9.68 68.442 9.79C68.562 9.91 68.722 9.98 68.892 9.98C69.072 9.98 69.232 9.91 69.342 9.79ZM69.182 12.81C69.082 12.64 68.982 12.53 68.922 12.49L68.892 12.46C68.892 12.46 68.802 12.52 68.722 12.63C68.552 12.84 68.342 13.26 68.142 13.83C67.792 14.83 67.442 16.32 67.142 18.17C66.682 20.95 66.302 24.58 66.042 28.76C65.792 32.63 65.652 36.99 65.632 41.6H72.152C72.112 33.55 71.692 26.29 71.042 20.99C70.702 18.22 70.292 15.98 69.842 14.47C69.622 13.72 69.392 13.15 69.182 12.81ZM71.042 13.08C70.832 12.96 70.632 12.86 70.422 12.77C70.502 12.95 70.582 13.14 70.662 13.36C71.062 14.45 71.412 15.97 71.722 17.86C72.192 20.7 72.582 24.36 72.852 28.6C73.102 32.52 73.252 36.93 73.272 41.6H79.792C79.692 33.66 78.452 26.48 76.522 21.24C75.512 18.5 74.322 16.29 73.022 14.79C72.372 14.04 71.712 13.46 71.042 13.07V13.08ZM73.112 13.25C73.932 14.03 74.692 15.02 75.402 16.2C77.082 18.99 78.452 22.83 79.422 27.37C80.322 31.6 80.852 36.45 80.922 41.61H87.442C87.272 33.7 85.222 26.57 82.022 21.35C80.352 18.62 78.362 16.42 76.182 14.89C75.202 14.2 74.172 13.65 73.122 13.25H73.112ZM87.502 21.42C85.162 18.69 82.372 16.48 79.282 14.93C78.382 14.48 77.452 14.09 76.502 13.75C76.612 13.82 76.712 13.89 76.822 13.96C80.322 16.41 83.252 20.4 85.322 25.37C87.262 30.05 88.442 35.61 88.572 41.59H95.092C94.842 33.72 92.002 26.62 87.522 21.41L87.502 21.42ZM97.952 42.72H39.832V44.95H97.952V42.72Z" fill="#44D99A"/>
<path d="M128.862 67.57C129.442 67.83 129.822 68.4 129.822 69.04V70H126.612V69.04C126.612 67.88 127.802 67.1 128.862 67.57Z" fill="#44D99A"/>
<path d="M122.622 64.81C123.202 65.07 123.582 65.64 123.582 66.28V70H120.372V66.28C120.372 65.12 121.562 64.34 122.622 64.81Z" fill="#44D99A"/>
<path d="M116.372 62.05C116.952 62.31 117.332 62.88 117.332 63.52V70H114.122V63.52C114.122 62.36 115.312 61.58 116.372 62.05Z" fill="#44D99A"/>
<path d="M103.232 58.85C105.002 58.85 106.442 60.29 106.442 62.06V70H100.022V62.06C100.022 60.29 101.462 58.85 103.232 58.85Z" fill="#44D99A"/>
<path d="M89.502 58.85C91.272 58.85 92.712 60.29 92.712 62.06V70H86.292V62.06C86.292 60.29 87.732 58.85 89.502 58.85Z" fill="#44D99A"/>
<path d="M75.762 58.85C77.532 58.85 78.972 60.29 78.972 62.06V70H72.552V62.06C72.552 60.29 73.992 58.85 75.762 58.85Z" fill="#44D99A"/>
<path d="M62.022 58.85C63.792 58.85 65.232 60.29 65.232 62.06V70H58.812V62.06C58.812 60.29 60.252 58.85 62.022 58.85Z" fill="#44D99A"/>
<path d="M48.2819 58.85C50.0519 58.85 51.4919 60.29 51.4919 62.06V70H45.0719V62.06C45.0719 60.29 46.5119 58.85 48.2819 58.85Z" fill="#44D99A"/>
<path d="M34.5519 58.85C36.3219 58.85 37.7619 60.29 37.7619 62.06V70H31.3419V62.06C31.3419 60.29 32.7819 58.85 34.5519 58.85Z" fill="#44D99A"/>
<path d="M21.412 62.05C22.472 61.58 23.662 62.36 23.662 63.52V70H20.452V63.52C20.452 62.88 20.832 62.31 21.412 62.05Z" fill="#44D99A"/>
<path d="M15.172 64.81C16.232 64.34 17.422 65.12 17.422 66.28V70H14.212V66.28C14.212 65.64 14.592 65.07 15.172 64.81Z" fill="#44D99A"/>
<path d="M8.92203 67.57C9.98203 67.1 11.172 67.88 11.172 69.04V70H7.96204V69.04C7.96204 68.4 8.34203 67.83 8.92203 67.57Z" fill="#44D99A"/>
<path d="M2.68197 37.3499C6.64197 30.3099 14.652 24.29 25.842 19.95C35.392 16.25 46.922 13.95 59.572 13.2C59.042 13.42 58.512 13.66 57.992 13.92C56.332 14.75 54.762 15.76 53.292 16.93C43.512 17.96 34.592 19.99 26.992 22.94C16.652 26.95 9.01198 32.6199 5.47198 38.9199C2.35198 44.4599 2.47197 50.31 5.82197 55.83C6.94197 57.67 8.43197 59.4599 10.262 61.1699L7.96198 62.1899V63.4399C5.97198 61.5599 4.34198 59.57 3.08198 57.5C1.09198 54.2099 0.0519742 50.79 0.00197424 47.33C-0.0480258 43.94 0.851972 40.5899 2.67197 37.3499H2.68197ZM111.942 19.95C123.132 24.29 131.142 30.3099 135.102 37.3499C136.922 40.5799 137.822 43.94 137.772 47.33C137.722 50.79 136.692 54.2099 134.692 57.5C133.432 59.57 131.802 61.5599 129.812 63.4399V62.1899L127.512 61.1699C129.342 59.4599 130.832 57.67 131.952 55.83C135.302 50.31 135.422 44.4599 132.302 38.9199C128.762 32.6299 121.112 26.95 110.782 22.94C103.182 19.99 94.262 17.96 84.492 16.93C83.022 15.76 81.452 14.75 79.792 13.92C79.272 13.66 78.752 13.42 78.212 13.2C90.872 13.95 102.392 16.25 111.942 19.95Z" fill="#44D99A"/>
<path d="M17.392 39.44C20.502 33.92 26.752 29.22 35.482 25.83C39.332 24.34 43.592 23.14 48.172 22.25C47.282 23.44 46.462 24.71 45.732 26.05C42.492 26.81 39.452 27.73 36.652 28.82C28.742 31.89 22.902 36.22 20.202 41.01C17.862 45.17 17.952 49.56 20.472 53.71C20.932 54.47 21.482 55.22 22.102 55.95L19.052 57.3C18.562 56.67 18.122 56.04 17.732 55.39C16.152 52.79 15.342 50.09 15.302 47.35C15.262 44.67 15.972 42.01 17.412 39.45L17.392 39.44ZM102.302 25.83C111.032 29.21 117.282 33.92 120.392 39.44C121.832 42 122.542 44.65 122.502 47.34C122.462 50.08 121.642 52.79 120.072 55.38C119.682 56.03 119.232 56.67 118.752 57.29L115.702 55.94C116.322 55.21 116.862 54.47 117.332 53.7C119.852 49.55 119.942 45.16 117.602 41C114.902 36.21 109.062 31.88 101.152 28.81C98.342 27.72 95.302 26.8 92.062 26.04C91.932 25.79 91.792 25.54 91.642 25.3C91.022 24.23 90.342 23.21 89.612 22.24C94.192 23.13 98.452 24.33 102.302 25.82V25.83Z" fill="#44D99A"/>
<path d="M32.102 41.53C34.092 38 37.842 34.94 43.012 32.59C42.622 33.91 42.302 35.26 42.072 36.65C38.722 38.5 36.242 40.72 34.902 43.1C33.312 45.92 33.372 48.78 35.082 51.6C35.402 52.13 35.782 52.65 36.212 53.16H32.272C30.052 49.42 29.992 45.29 32.102 41.53ZM105.682 41.53C107.802 45.29 107.742 49.42 105.512 53.16H101.572C102.002 52.65 102.382 52.13 102.702 51.6C104.412 48.78 104.472 45.92 102.882 43.1C101.542 40.72 99.062 38.5 95.712 36.65C95.472 35.26 95.162 33.9 94.762 32.59C99.942 34.93 103.692 38 105.672 41.53H105.682Z" fill="#44D99A"/>
</svg>
