<svg width="912" height="885" viewBox="0 0 912 885" fill="none" xmlns="http://www.w3.org/2000/svg">
<mask id="path-1-inside-1_33_243" fill="white">
<path d="M-764.659 767.735L-536.242 671.709H-345.343V582.37H-399.696V525.965H-361.649C-358.335 423.377 -319.359 330.505 -257.715 261.986C-225.5 226.15 -186.923 197.001 -144.103 176.685C-101.283 156.243 -53.9558 144.634 -4.37488 144.004H-3.04913V132.647C-9.67761 131.259 -14.7153 125.581 -14.7153 118.767C-14.7153 111.953 -9.67761 106.274 -3.04913 104.886V95.2962C-7.42389 94.0343 -10.6057 90.1226 -10.6057 85.58C-10.6057 81.0373 -7.42389 77.1256 -3.04913 75.8637V66.3999C-20.5483 64.8856 -34.3354 50.8791 -34.3354 33.718C-34.3354 15.5474 -18.9576 0.909912 0.132385 0.909912C19.2224 0.909912 34.6005 15.5474 34.6005 33.718C34.6005 50.8791 20.8133 64.8856 3.31415 66.3999V75.8637C7.6889 77.1256 10.8705 81.0373 10.8705 85.58C10.8705 90.1226 7.6889 94.0343 3.31415 95.2962V104.886C9.94257 106.274 14.9803 111.953 14.9803 118.767C14.9803 125.581 9.94257 131.259 3.31415 132.647V144.004H3.8443H4.7724C54.3533 144.634 101.68 156.243 144.5 176.685C208.796 207.222 263.282 257.57 301.595 320.41C337.786 379.591 359.66 450.128 362.046 525.965H400.094V582.37H345.74V671.709H536.64L765.057 767.735L807.612 785.654V816.695L765.057 798.777L530.409 700.1H-530.409L-765.057 798.777L-807.612 816.695V785.654L-765.057 767.735H-764.659ZM-137.342 189.304C-198.854 218.579 -251.219 266.781 -288.206 327.476C-323.071 384.512 -344.282 452.526 -346.668 525.839H-260.234C-257.847 423.629 -230.273 331.262 -186.127 262.87C-163.06 227.033 -135.486 197.758 -104.597 177.19C-103.271 176.307 -101.813 175.424 -100.488 174.54C-113.082 178.704 -125.411 183.626 -137.342 189.43V189.304ZM-96.1128 188.799C-139.463 217.696 -176.98 265.772 -203.494 326.593C-228.417 383.755 -243.662 452.147 -245.386 525.839H-158.951C-157.492 424.134 -141.054 332.271 -114.672 264.132C-100.885 228.421 -84.4467 199.273 -65.6218 178.326C-62.3076 174.666 -58.8609 171.259 -55.4141 168.105C-69.4665 173.152 -82.9885 180.092 -95.9803 188.799H-96.1128ZM-28.1047 165.96C-43.6153 174.54 -59.1259 190.44 -73.0457 212.648C-94.1241 245.961 -112.021 293.028 -124.483 349.18C-136.149 401.547 -143.175 461.737 -144.103 525.965H-57.6678C-57.1375 423.882 -51.5695 331.893 -42.8199 264.132C-38.18 228.674 -32.7447 200.03 -26.5139 179.714C-24.3928 172.9 -22.2717 167.095 -19.8855 162.174C-22.6694 163.31 -25.4533 164.572 -28.1047 166.086V165.96ZM13.522 12.1404C10.2078 8.98574 5.56781 6.96679 0.397583 6.96679C-4.77258 6.96679 -9.28003 8.98574 -12.7268 12.1404C-16.0411 15.295 -18.162 19.7115 -18.162 24.6327C-18.162 29.5539 -16.0411 33.8442 -12.7268 37.125C-9.4126 40.2796 -4.77258 42.2985 0.397583 42.2985C5.56781 42.2985 10.0752 40.2796 13.522 37.125C16.8362 33.9703 18.9572 29.5539 18.9572 24.6327C18.9572 19.7115 16.8362 15.4212 13.522 12.1404ZM20.283 52.6457C25.3206 47.8507 28.5022 41.1629 28.5022 33.718C28.5022 28.923 27.1766 24.5065 24.923 20.7209C25.1881 21.9828 25.3207 23.2446 25.3207 24.6327C25.3207 37.7559 14.1848 48.3554 0.397583 48.3554C-13.3896 48.3554 -24.5255 37.7559 -24.5255 24.6327C-24.5255 23.2446 -24.3929 21.9828 -24.1278 20.7209C-26.3815 24.6327 -27.707 29.0491 -27.707 33.718C-27.707 41.1629 -24.5254 47.7245 -19.4878 52.6457C-14.4501 57.4407 -7.42401 60.4692 0.397583 60.4692C8.21918 60.4692 15.1128 57.4407 20.283 52.6457ZM4.7724 85.58C4.7724 83.3086 2.78381 81.4159 0.397583 81.4159C-1.98865 81.4159 -3.97723 83.3086 -3.97723 85.58C-3.97723 87.8513 -1.98865 89.7441 0.397583 89.7441C2.78381 89.7441 4.7724 87.8513 4.7724 85.58ZM6.36316 124.445C7.95398 122.931 8.88202 120.912 8.88202 118.767C8.88202 116.495 7.95398 114.476 6.36316 113.088C4.77234 111.574 2.65125 110.691 0.397583 110.691C-1.98865 110.691 -4.10974 111.574 -5.56799 113.088C-7.15881 114.602 -8.08685 116.621 -8.08685 118.767C-8.08685 121.038 -7.15881 123.057 -5.56799 124.445C-3.97717 125.959 -1.85608 126.842 0.397583 126.842C2.78381 126.842 4.90491 125.959 6.36316 124.445ZM4.242 162.553C2.91632 160.408 1.5907 159.02 0.795288 158.515L0.397583 158.136C0.397583 158.136 -0.795532 158.893 -1.85608 160.281C-4.10974 162.931 -6.89374 168.231 -9.5451 175.424C-14.185 188.042 -18.825 206.844 -22.802 230.188C-28.9002 265.267 -33.9379 311.072 -37.3847 363.818C-40.6989 412.651 -42.5547 467.668 -42.8199 525.839H43.6151C43.0848 424.26 37.5169 332.65 28.8999 265.772C24.3925 230.819 18.9572 202.553 12.9916 183.499C10.0751 174.036 7.02594 166.843 4.242 162.553ZM28.8999 165.96C26.1159 164.445 23.4646 163.184 20.6807 162.048C21.7412 164.319 22.8018 166.717 23.8624 169.493C29.1652 183.247 33.8051 202.427 37.9147 226.276C44.1454 262.113 49.3157 308.296 52.8951 361.799C56.2093 411.263 58.1978 466.911 58.463 525.839H144.898C143.572 425.648 127.134 335.047 101.548 268.927C88.1584 234.352 72.3828 206.465 55.1487 187.537C46.5317 178.073 37.782 170.755 28.8999 165.834V165.96ZM56.3418 168.105C67.2125 177.947 77.2877 190.44 86.7001 205.329C108.972 240.535 127.134 288.99 139.993 346.278C151.924 399.654 158.95 460.854 159.878 525.965H246.314C244.06 426.153 216.883 336.183 174.461 270.315C152.322 235.866 125.941 208.105 97.0405 188.799C84.0486 180.092 70.394 173.152 56.4743 168.105H56.3418ZM247.109 271.198C216.088 236.749 179.101 208.863 138.137 189.304C126.206 183.626 113.877 178.704 101.283 174.414C102.741 175.297 104.067 176.181 105.525 177.064C151.924 207.979 190.767 258.327 218.209 321.041C243.927 380.095 259.57 450.254 261.294 525.713H347.729C344.415 426.405 306.765 336.814 247.374 271.072L247.109 271.198ZM385.644 539.972H-384.848V568.111H385.644V539.972Z"/>
</mask>
<path d="M-764.659 767.735L-536.242 671.709H-345.343V582.37H-399.696V525.965H-361.649C-358.335 423.377 -319.359 330.505 -257.715 261.986C-225.5 226.15 -186.923 197.001 -144.103 176.685C-101.283 156.243 -53.9558 144.634 -4.37488 144.004H-3.04913V132.647C-9.67761 131.259 -14.7153 125.581 -14.7153 118.767C-14.7153 111.953 -9.67761 106.274 -3.04913 104.886V95.2962C-7.42389 94.0343 -10.6057 90.1226 -10.6057 85.58C-10.6057 81.0373 -7.42389 77.1256 -3.04913 75.8637V66.3999C-20.5483 64.8856 -34.3354 50.8791 -34.3354 33.718C-34.3354 15.5474 -18.9576 0.909912 0.132385 0.909912C19.2224 0.909912 34.6005 15.5474 34.6005 33.718C34.6005 50.8791 20.8133 64.8856 3.31415 66.3999V75.8637C7.6889 77.1256 10.8705 81.0373 10.8705 85.58C10.8705 90.1226 7.6889 94.0343 3.31415 95.2962V104.886C9.94257 106.274 14.9803 111.953 14.9803 118.767C14.9803 125.581 9.94257 131.259 3.31415 132.647V144.004H3.8443H4.7724C54.3533 144.634 101.68 156.243 144.5 176.685C208.796 207.222 263.282 257.57 301.595 320.41C337.786 379.591 359.66 450.128 362.046 525.965H400.094V582.37H345.74V671.709H536.64L765.057 767.735L807.612 785.654V816.695L765.057 798.777L530.409 700.1H-530.409L-765.057 798.777L-807.612 816.695V785.654L-765.057 767.735H-764.659ZM-137.342 189.304C-198.854 218.579 -251.219 266.781 -288.206 327.476C-323.071 384.512 -344.282 452.526 -346.668 525.839H-260.234C-257.847 423.629 -230.273 331.262 -186.127 262.87C-163.06 227.033 -135.486 197.758 -104.597 177.19C-103.271 176.307 -101.813 175.424 -100.488 174.54C-113.082 178.704 -125.411 183.626 -137.342 189.43V189.304ZM-96.1128 188.799C-139.463 217.696 -176.98 265.772 -203.494 326.593C-228.417 383.755 -243.662 452.147 -245.386 525.839H-158.951C-157.492 424.134 -141.054 332.271 -114.672 264.132C-100.885 228.421 -84.4467 199.273 -65.6218 178.326C-62.3076 174.666 -58.8609 171.259 -55.4141 168.105C-69.4665 173.152 -82.9885 180.092 -95.9803 188.799H-96.1128ZM-28.1047 165.96C-43.6153 174.54 -59.1259 190.44 -73.0457 212.648C-94.1241 245.961 -112.021 293.028 -124.483 349.18C-136.149 401.547 -143.175 461.737 -144.103 525.965H-57.6678C-57.1375 423.882 -51.5695 331.893 -42.8199 264.132C-38.18 228.674 -32.7447 200.03 -26.5139 179.714C-24.3928 172.9 -22.2717 167.095 -19.8855 162.174C-22.6694 163.31 -25.4533 164.572 -28.1047 166.086V165.96ZM13.522 12.1404C10.2078 8.98574 5.56781 6.96679 0.397583 6.96679C-4.77258 6.96679 -9.28003 8.98574 -12.7268 12.1404C-16.0411 15.295 -18.162 19.7115 -18.162 24.6327C-18.162 29.5539 -16.0411 33.8442 -12.7268 37.125C-9.4126 40.2796 -4.77258 42.2985 0.397583 42.2985C5.56781 42.2985 10.0752 40.2796 13.522 37.125C16.8362 33.9703 18.9572 29.5539 18.9572 24.6327C18.9572 19.7115 16.8362 15.4212 13.522 12.1404ZM20.283 52.6457C25.3206 47.8507 28.5022 41.1629 28.5022 33.718C28.5022 28.923 27.1766 24.5065 24.923 20.7209C25.1881 21.9828 25.3207 23.2446 25.3207 24.6327C25.3207 37.7559 14.1848 48.3554 0.397583 48.3554C-13.3896 48.3554 -24.5255 37.7559 -24.5255 24.6327C-24.5255 23.2446 -24.3929 21.9828 -24.1278 20.7209C-26.3815 24.6327 -27.707 29.0491 -27.707 33.718C-27.707 41.1629 -24.5254 47.7245 -19.4878 52.6457C-14.4501 57.4407 -7.42401 60.4692 0.397583 60.4692C8.21918 60.4692 15.1128 57.4407 20.283 52.6457ZM4.7724 85.58C4.7724 83.3086 2.78381 81.4159 0.397583 81.4159C-1.98865 81.4159 -3.97723 83.3086 -3.97723 85.58C-3.97723 87.8513 -1.98865 89.7441 0.397583 89.7441C2.78381 89.7441 4.7724 87.8513 4.7724 85.58ZM6.36316 124.445C7.95398 122.931 8.88202 120.912 8.88202 118.767C8.88202 116.495 7.95398 114.476 6.36316 113.088C4.77234 111.574 2.65125 110.691 0.397583 110.691C-1.98865 110.691 -4.10974 111.574 -5.56799 113.088C-7.15881 114.602 -8.08685 116.621 -8.08685 118.767C-8.08685 121.038 -7.15881 123.057 -5.56799 124.445C-3.97717 125.959 -1.85608 126.842 0.397583 126.842C2.78381 126.842 4.90491 125.959 6.36316 124.445ZM4.242 162.553C2.91632 160.408 1.5907 159.02 0.795288 158.515L0.397583 158.136C0.397583 158.136 -0.795532 158.893 -1.85608 160.281C-4.10974 162.931 -6.89374 168.231 -9.5451 175.424C-14.185 188.042 -18.825 206.844 -22.802 230.188C-28.9002 265.267 -33.9379 311.072 -37.3847 363.818C-40.6989 412.651 -42.5547 467.668 -42.8199 525.839H43.6151C43.0848 424.26 37.5169 332.65 28.8999 265.772C24.3925 230.819 18.9572 202.553 12.9916 183.499C10.0751 174.036 7.02594 166.843 4.242 162.553ZM28.8999 165.96C26.1159 164.445 23.4646 163.184 20.6807 162.048C21.7412 164.319 22.8018 166.717 23.8624 169.493C29.1652 183.247 33.8051 202.427 37.9147 226.276C44.1454 262.113 49.3157 308.296 52.8951 361.799C56.2093 411.263 58.1978 466.911 58.463 525.839H144.898C143.572 425.648 127.134 335.047 101.548 268.927C88.1584 234.352 72.3828 206.465 55.1487 187.537C46.5317 178.073 37.782 170.755 28.8999 165.834V165.96ZM56.3418 168.105C67.2125 177.947 77.2877 190.44 86.7001 205.329C108.972 240.535 127.134 288.99 139.993 346.278C151.924 399.654 158.95 460.854 159.878 525.965H246.314C244.06 426.153 216.883 336.183 174.461 270.315C152.322 235.866 125.941 208.105 97.0405 188.799C84.0486 180.092 70.394 173.152 56.4743 168.105H56.3418ZM247.109 271.198C216.088 236.749 179.101 208.863 138.137 189.304C126.206 183.626 113.877 178.704 101.283 174.414C102.741 175.297 104.067 176.181 105.525 177.064C151.924 207.979 190.767 258.327 218.209 321.041C243.927 380.095 259.57 450.254 261.294 525.713H347.729C344.415 426.405 306.765 336.814 247.374 271.072L247.109 271.198ZM385.644 539.972H-384.848V568.111H385.644V539.972Z" stroke="#D2AC68" stroke-opacity="0.5" stroke-width="2" mask="url(#path-1-inside-1_33_243)"/>
<path d="M794.942 855.8C802.313 858.894 807.112 865.662 807.112 873.23V884.414H766.39V873.23C766.39 859.515 781.45 850.199 794.942 855.8Z" stroke="#D2AC68" stroke-opacity="0.5"/>
<path d="M711.49 818.932C718.855 822.184 723.668 829.306 723.668 837.292V884.414H682.947V837.292C682.947 822.812 698.035 813.057 711.49 818.932Z" stroke="#D2AC68" stroke-opacity="0.5"/>
<path d="M628.049 784.802C635.415 788.017 640.225 795.054 640.225 802.94V884.414H599.504V802.94C599.504 788.643 614.585 778.993 628.049 784.802Z" stroke="#D2AC68" stroke-opacity="0.5"/>
<path d="M455.958 743.291C478.697 743.291 497.18 761.432 497.18 783.707V884.414H414.736V783.707C414.736 761.432 433.219 743.291 455.958 743.291Z" stroke="#D2AC68" stroke-opacity="0.5"/>
<path d="M274.171 743.291C296.909 743.291 315.392 761.432 315.392 783.707V884.414H232.949V783.707C232.949 761.432 251.432 743.291 274.171 743.291Z" stroke="#D2AC68" stroke-opacity="0.5"/>
<path d="M92.3836 743.291C115.122 743.291 133.605 761.432 133.605 783.707V884.414H51.162V783.707C51.162 761.432 69.6451 743.291 92.3836 743.291Z" stroke="#D2AC68" stroke-opacity="0.5"/>
<path d="M-911.39 599.218C-912.049 556.635 -900.213 514.543 -876.259 473.81H-876.127L-875.982 473.564C-823.642 384.882 -717.728 308.984 -569.65 254.247C-444.055 207.87 -292.561 178.928 -126.339 169.289C-132.414 171.752 -138.477 174.405 -144.441 177.247C-166.406 187.714 -187.181 200.447 -206.634 215.192C-336.079 228.195 -454.154 253.81 -554.773 291.033C-691.701 341.645 -792.963 413.236 -839.909 492.864C-881.309 562.927 -879.713 636.937 -835.267 706.737L-835.267 706.738C-820.532 729.809 -800.976 752.249 -776.992 773.69L-806.711 786.251L-807.016 786.38V786.712V801.358C-832.951 777.887 -854.219 753.069 -870.695 727.271C-896.995 685.829 -910.729 642.768 -911.39 599.218L-911.89 599.226L-911.39 599.218ZM144.574 177.247C138.614 174.407 132.652 171.755 126.518 169.291C292.85 178.933 444.198 207.874 569.782 254.247C717.86 308.984 823.774 384.882 876.114 473.564C900.165 514.247 912.05 556.549 911.389 599.218C910.729 642.769 897.127 685.829 870.695 727.27C854.219 753.068 832.952 777.887 807.016 801.358V786.712V786.38L806.711 786.251L776.991 773.69C800.975 752.249 820.532 729.809 835.266 706.738L834.845 706.469L835.267 706.737C879.713 636.937 881.309 562.927 839.909 492.864C792.963 413.363 691.569 341.645 554.773 291.033C454.155 253.81 336.079 228.195 206.767 215.192C187.313 200.447 166.538 187.714 144.574 177.247Z" stroke="#D2AC68" stroke-opacity="0.5"/>
<path d="M-680.619 499.761L-680.883 499.635C-639.719 430.163 -557.25 370.945 -442.047 328.187C-391.496 309.487 -335.596 294.4 -275.51 283.173C-286.943 297.884 -297.494 313.552 -306.915 330.061C-349.726 339.668 -389.901 351.294 -426.913 365.065C-531.628 403.911 -609.029 458.73 -644.839 519.454L-644.84 519.454C-675.9 572.233 -674.702 627.957 -641.258 680.6C-635.269 690.057 -628.134 699.388 -620.103 708.473L-659.475 725.13C-665.853 717.272 -671.584 709.414 -676.669 701.314L-676.67 701.311C-697.533 668.497 -708.219 634.437 -708.747 599.886L-709.247 599.893L-708.747 599.885C-709.274 566.091 -699.909 532.539 -680.896 500.231L-680.619 499.761ZM441.456 327.94V328.066L441.782 328.187C557.245 370.915 639.826 430.429 680.896 500.105C699.909 532.412 709.274 565.839 708.746 599.759C708.219 634.31 697.401 668.496 676.67 701.185L676.669 701.187C671.585 709.285 665.727 717.264 659.474 725.003L620.103 708.346C628.13 699.265 635.14 690.054 641.258 680.474L641.258 680.473C674.702 627.831 675.9 572.107 644.84 519.328L644.409 519.581L644.839 519.327C609.029 458.603 531.628 403.785 426.913 364.939L426.739 365.408L426.913 364.939C389.77 351.168 349.597 339.542 306.789 329.936C305.095 326.833 303.274 323.731 301.324 320.748C293.342 307.583 284.611 295.016 275.251 283.047C335.206 294.25 390.993 309.297 441.456 327.94Z" stroke="#D2AC68" stroke-opacity="0.5"/>
<path d="M488.672 525.985L488.526 525.739C462.484 481.692 413.24 443.305 345.156 413.959C350.28 430.058 354.275 446.746 357.386 463.79C401.727 487.055 434.609 514.984 452.406 544.972C462.984 562.77 468.086 580.718 467.686 598.681C467.286 616.644 461.385 634.588 450.012 652.382C450.011 652.382 450.011 652.382 450.011 652.382L449.59 652.113C445.458 658.605 440.572 664.977 435.054 671.23L488.672 525.985ZM488.672 525.985H488.805C516.614 572.959 515.824 624.5 486.559 671.23H435.721L488.672 525.985ZM-485.778 525.74C-459.603 481.69 -410.355 443.426 -342.397 413.957C-347.403 430.166 -351.521 446.739 -354.507 463.791C-398.847 487.056 -431.728 514.985 -449.525 544.972C-460.103 562.771 -465.205 580.718 -464.805 598.681C-464.405 616.644 -458.504 634.588 -447.13 652.382C-443.056 658.784 -438.253 665.067 -432.84 671.23H-483.678C-512.862 624.419 -513.603 572.779 -485.778 525.74Z" stroke="#D2AC68" stroke-opacity="0.5"/>
</svg>
