<svg xmlns="http://www.w3.org/2000/svg" width="161" height="128" viewBox="0 0 161 128" fill="none">
<path d="M83 32V124H135C136.25 124 137 125 137 126C137 127.25 136.25 128 135 128H81H27C25.75 128 25 127.25 25 126C25 125 25.75 124 27 124H79V32C71.25 31 65 24.25 65 16H27C25.75 16 25 15.25 25 14C25 13 25.75 12 27 12H65.5C67.25 5.25 73.5 0 81 0C88.5 0 94.75 5.25 96.5 12H135C136 12 137 13 137 14C137 15.25 136 16 135 16H97C97 24.25 91 31 83 32ZM93 16C93 11.75 90.75 8 87 5.75C83.25 3.5 78.75 3.5 75 5.75C71.25 8 69 11.75 69 16C69 20.5 71.25 24.25 75 26.5C78.75 28.75 83.25 28.75 87 26.5C90.75 24.25 93 20.5 93 16ZM30.75 28.25L33 24.5L35.5 28.25L64.75 75.75V85.75L46.5 104H19.25L0.75 85.75L1 75.75L30.75 28.25ZM60.25 76L33 32L5.5 76H60.25ZM60.75 80H5V84L21 100H44.75L60.75 84V80ZM126.75 28.25L129 24.5L131.5 28.25L160.75 75.75V85.75L142.5 104H115.25L96.75 85.75L97 75.75L126.75 28.25ZM156.25 76L129 32L101.5 76H156.25ZM156.75 80H101V84L117 100H140.75L156.75 84V80Z" fill="#CC821F"/>
</svg>