<svg xmlns="http://www.w3.org/2000/svg" width="108" height="72" viewBox="0 0 108 72" fill="none">
<path d="M12 3C6.9375 3 3 7.125 3 12V60C3 65.0625 6.9375 69 12 69H60C64.875 69 69 65.0625 69 60V46.125V26.0625V12C69 7.125 64.875 3 60 3H12ZM72 51.1875V60C72 66.75 66.5625 72 60 72H12C5.25 72 0 66.75 0 60V12C0 5.4375 5.25 0 12 0H60C66.5625 0 72 5.4375 72 12V21V26.0625V46.125V51.1875ZM97.3125 65.25L78 54.5625V51.1875L98.8125 62.625C99.375 62.8125 100.125 63 100.688 63C103.125 63 105 61.125 105 58.875V13.3125C105 10.875 103.125 9 100.688 9C100.125 9 99.375 9.1875 98.8125 9.5625L78 21V17.625L97.3125 6.9375C98.4375 6.375 99.5625 6 100.688 6C104.625 6 108 9.375 108 13.3125V58.875C108 62.8125 104.625 66 100.688 66C99.5625 66 98.4375 65.8125 97.3125 65.25Z" fill="#CC821F"/>
</svg>