<svg xmlns="http://www.w3.org/2000/svg"  viewBox="0 0 48 42" fill="none">
<path d="M17.9062 0H30C31.9688 0 33.6562 1.3125 34.3125 3.09375L35.25 6H42C45.2812 6 48 8.71875 48 12V36C48 39.375 45.2812 42 42 42H6C2.625 42 0 39.375 0 36V12C0 8.71875 2.625 6 6 6H12.6562L13.5938 3.09375C14.25 1.3125 15.9375 0 17.9062 0ZM16.4062 4.03125L15.0938 8.0625C14.9062 8.625 14.3438 9 13.6875 9H6C4.3125 9 3 10.4062 3 12V36C3 37.6875 4.3125 39 6 39H42C43.5938 39 45 37.6875 45 36V12C45 10.4062 43.5938 9 42 9H34.2188C33.5625 9 33 8.625 32.8125 7.96875L31.5 4.03125C31.2188 3.46875 30.6562 3 30 3H17.9062C17.25 3 16.6875 3.46875 16.4062 4.03125ZM24 34.5C20.1562 34.5 16.7812 32.5312 14.9062 29.25C12.9375 26.0625 12.9375 22.0312 14.9062 18.75C16.7812 15.5625 20.1562 13.5 24 13.5C27.75 13.5 31.125 15.5625 33 18.75C34.9688 22.0312 34.9688 26.0625 33 29.25C31.125 32.5312 27.75 34.5 24 34.5ZM16.5 24C16.5 26.7188 17.9062 29.1562 20.25 30.5625C22.5 31.875 25.4062 31.875 27.75 30.5625C30 29.1562 31.5 26.7188 31.5 24C31.5 21.375 30 18.9375 27.75 17.5312C25.4062 16.2188 22.5 16.2188 20.25 17.5312C17.9062 18.9375 16.5 21.375 16.5 24Z" fill="currentColor"/>
</svg>