<svg xmlns="http://www.w3.org/2000/svg" width="48" height="42" viewBox="0 0 48 42" fill="none">
<path d="M8.06267 32.8125L6.37517 37.4062L14.7189 34.9688L15.5627 34.6875L16.4064 34.9688C18.7502 35.625 21.2814 36 24.0002 36C36.1877 36 45.0002 28.125 45.0002 19.5C45.0002 10.9688 36.1877 3 24.0002 3C11.7189 3 3.00017 10.9688 3.00017 19.5C3.00017 23.25 4.59392 26.8125 7.40642 29.7188L8.81267 31.0312L8.06267 32.8125ZM1.50017 42L2.81267 38.5312L5.25017 31.7812C1.96892 28.5 0.000167847 24.1875 0.000167847 19.5C0.000167847 8.8125 10.6877 0 24.0002 0C37.2189 0 48.0002 8.71875 48.0002 19.5C48.0002 30.2812 37.2189 39 24.0002 39C21.0002 39 18.1877 38.625 15.5627 37.7812L5.06267 40.9688L1.50017 42ZM12.0002 21.75C10.6877 21.75 9.75017 20.8125 9.75017 19.5C9.75017 18.2812 10.6877 17.25 12.0002 17.25C13.2189 17.25 14.2502 18.2812 14.2502 19.5C14.2502 20.8125 13.2189 21.75 12.0002 21.75ZM24.0002 21.75C22.6877 21.75 21.7502 20.8125 21.7502 19.5C21.7502 18.2812 22.6877 17.25 24.0002 17.25C25.2189 17.25 26.2502 18.2812 26.2502 19.5C26.2502 20.8125 25.2189 21.75 24.0002 21.75ZM38.2502 19.5C38.2502 20.8125 37.2189 21.75 36.0002 21.75C34.6877 21.75 33.7502 20.8125 33.7502 19.5C33.7502 18.2812 34.6877 17.25 36.0002 17.25C37.2189 17.25 38.2502 18.2812 38.2502 19.5Z" fill="white"/>
</svg>