<svg xmlns="http://www.w3.org/2000/svg"  viewBox="0 0 42 48" fill="none">
<path d="M39 39V31.125C37.3125 31.9688 35.3438 32.625 33.1875 33.1875C29.7188 34.0312 25.5 34.5 21 34.5C16.4062 34.5 12.1875 34.0312 8.71875 33.1875C6.5625 32.625 4.59375 31.9688 3 31.125V39C3 39.2812 3.09375 39.75 3.75 40.4062C4.40625 41.1562 5.625 41.9062 7.3125 42.6562C10.5938 44.0625 15.4688 45 21 45C26.4375 45 31.3125 44.0625 34.5938 42.6562C36.2812 41.9062 37.5 41.1562 38.1562 40.4062C38.9062 39.75 39 39.2812 39 39ZM39 19.125C37.3125 19.9688 35.3438 20.625 33.1875 21.1875C29.7188 22.0312 25.5 22.5 21 22.5C16.4062 22.5 12.1875 22.0312 8.71875 21.1875C6.5625 20.625 4.59375 19.9688 3 19.125V27.6562C4.3125 28.5938 6.46875 29.5312 9.375 30.2812C12.6562 31.0312 16.6875 31.5 21 31.5C25.3125 31.5 29.25 31.0312 32.5312 30.2812C35.4375 29.5312 37.5938 28.5938 39 27.6562V19.125ZM39 15.6562V9C39 8.8125 38.9062 8.34375 38.1562 7.6875C37.5 6.9375 36.2812 6.1875 34.5938 5.4375C31.3125 4.03125 26.4375 3 21 3C15.4688 3 10.5938 4.03125 7.3125 5.4375C5.625 6.1875 4.40625 6.9375 3.75 7.6875C3.09375 8.34375 3 8.8125 3 9V15.6562C4.3125 16.5938 6.46875 17.5312 9.375 18.2812C12.6562 19.0312 16.6875 19.5 21 19.5C25.3125 19.5 29.25 19.0312 32.5312 18.2812C35.4375 17.5312 37.5938 16.5938 39 15.6562ZM42 39C42 43.9688 32.5312 48 21 48C9.375 48 0 43.9688 0 39V9C0 4.03125 9.375 0 21 0C32.5312 0 42 4.03125 42 9V39Z" fill="currentColor"/>
</svg>