<svg xmlns="http://www.w3.org/2000/svg" width="22" height="22" viewBox="0 0 22 22" fill="none">
<path d="M2.05327 6.87024H9.83452V2.37024H4.02202L2.05327 6.87024ZM9.83452 8.37024H1.58452V20.3702H19.5845V8.37024H11.3345H9.83452ZM17.1001 2.37024H11.3345V6.87024H19.0689L17.1001 2.37024ZM3.08452 0.870239H18.0845L21.0845 7.62024V20.3702V21.8702H19.5845H1.58452H0.0845213V20.3702V7.62024L3.08452 0.870239ZM7.02202 11.7452C6.3189 12.4015 6.36577 13.4796 7.0689 14.089L10.5845 17.1359L14.0533 14.089C14.7564 13.4796 14.8033 12.4015 14.147 11.7452C13.4908 11.089 12.4595 11.089 11.8033 11.7452L11.1001 12.4484L10.5845 13.0109L10.022 12.4484L9.3189 11.7452C8.66265 11.089 7.6314 11.089 7.02202 11.7452ZM10.3501 10.6671L10.5845 10.8546L10.772 10.6671C11.9908 9.44836 13.9595 9.44836 15.1783 10.6671C16.4439 11.9327 16.397 14.0421 15.0376 15.2609L11.0533 18.7296L10.5845 19.1515L10.0689 18.6827L6.08452 15.214C4.72515 14.0421 4.67827 11.9327 5.9439 10.6671C7.16265 9.44836 9.1314 9.44836 10.3501 10.6671Z" fill="white"/>
</svg>