<svg xmlns="http://www.w3.org/2000/svg" width="269" height="225" viewBox="0 0 269 225" fill="none">
<g clip-path="url(#clip0_47_106)">
<path d="M17.4027 132.044C16.2672 132.546 15.5321 133.671 15.5321 134.915V136.799H21.8011V134.915C21.8011 132.648 19.4704 131.129 17.4027 132.044Z" fill="#44D99A"/>
<path d="M29.6 126.655C28.4646 127.157 27.7295 128.282 27.7295 129.526V136.799H33.9985V129.526C33.9985 127.259 31.6678 125.74 29.6 126.655Z" fill="#44D99A"/>
<path d="M46.1899 124.131C46.1899 121.864 43.8592 120.345 41.7915 121.26C40.656 121.762 39.9269 122.887 39.9269 124.131V136.793H46.1959V124.131H46.1899Z" fill="#44D99A"/>
<path d="M73.7103 121.29C73.7103 117.826 70.9015 115.015 67.4413 115.015C63.981 115.015 61.1722 117.826 61.1722 121.29V136.799H73.7103V121.29Z" fill="#44D99A"/>
<path d="M100.531 121.29C100.531 117.826 97.7225 115.015 94.2623 115.015C90.8021 115.015 87.9933 117.826 87.9933 121.29V136.799H100.531V121.29Z" fill="#44D99A"/>
<path d="M127.358 121.29C127.358 117.826 124.55 115.015 121.089 115.015C117.629 115.015 114.82 117.826 114.82 121.29V136.799H127.358V121.29Z" fill="#44D99A"/>
<path d="M154.18 121.29C154.18 117.826 151.371 115.015 147.911 115.015C144.45 115.015 141.642 117.826 141.642 121.29V136.799H154.18V121.29Z" fill="#44D99A"/>
<path d="M174.738 115.015C171.277 115.015 168.469 117.826 168.469 121.29V136.799H181.007V121.29C181.007 117.826 178.198 115.015 174.738 115.015Z" fill="#44D99A"/>
<path d="M207.828 121.29C207.828 117.826 205.019 115.015 201.559 115.015C198.099 115.015 195.29 117.826 195.29 121.29V136.799H207.828V121.29Z" fill="#44D99A"/>
<path d="M229.079 124.131C229.079 122.887 228.344 121.762 227.209 121.26C225.135 120.345 222.81 121.864 222.81 124.131V136.799H229.079V124.131Z" fill="#44D99A"/>
<path d="M235.007 129.52V136.793H241.276V129.52C241.276 128.276 240.541 127.151 239.406 126.649C237.332 125.734 235.007 127.253 235.007 129.52Z" fill="#44D99A"/>
<path d="M251.597 132.044C249.524 131.129 247.199 132.648 247.199 134.915V136.799H253.468V134.915C253.468 133.671 252.733 132.546 251.603 132.044H251.597Z" fill="#44D99A"/>
<path d="M263.783 72.9961C256.044 59.2331 240.404 47.4797 218.561 38.9982C199.909 31.7608 177.409 27.2748 152.698 25.8034C152.769 25.8333 152.835 25.8632 152.907 25.8931C147.379 23.5604 141.415 22.2385 135.199 22.1488H135.193H135.187H134.984V20.3962C135.97 20.1809 136.705 19.3017 136.705 18.2549C136.705 17.2022 135.964 16.3289 134.984 16.1136V14.6242C135.624 14.4209 136.096 13.8287 136.096 13.1229C136.096 12.4112 135.63 11.819 134.984 11.6216V10.1502C137.572 9.91095 139.592 7.73973 139.592 5.09C139.592 2.28475 137.315 0.00585938 134.512 0.00585938C131.709 0.00585938 129.432 2.28475 129.432 5.09C129.432 7.73973 131.458 9.91095 134.04 10.1502V11.6216C133.4 11.825 132.928 12.4171 132.928 13.1229C132.928 13.8347 133.395 14.4269 134.04 14.6242V16.1136C133.054 16.3289 132.319 17.2082 132.319 18.2549C132.319 19.3076 133.06 20.1809 134.04 20.3962V22.1488H134.022C134.022 22.1488 133.98 22.1488 133.962 22.1488C133.885 22.1488 133.843 22.1488 133.831 22.1488H133.813C127.586 22.2385 121.609 23.5664 116.07 25.9051C116.153 25.8692 116.231 25.8333 116.315 25.7974C91.6031 27.2628 69.1027 31.7548 50.451 38.9922C28.6081 47.4738 12.9684 59.2271 5.22925 72.9901C1.66745 79.3124 -0.0895523 85.874 9.04636e-05 92.4893C0.0957094 99.2542 2.11566 105.941 6.00616 112.359C8.46237 116.403 11.6477 120.285 15.5322 123.963V121.529L20.0323 119.543C16.4585 116.199 13.5481 112.706 11.3668 109.111C4.82885 98.3271 4.5898 86.9027 10.6795 76.0705C17.6 63.7669 32.5225 52.6835 52.7041 44.8479C67.5429 39.0879 84.9516 35.1223 104.045 33.1066C104.147 33.0288 104.249 32.9571 104.35 32.8733C100.412 35.9776 96.8561 39.6681 93.7844 43.8371C93.868 43.7235 93.9517 43.6038 94.0354 43.4902C85.089 45.2308 76.7761 47.5695 69.2641 50.4824C52.22 57.0977 40.0047 66.297 33.9388 77.0754C31.13 82.0698 29.7436 87.2616 29.8153 92.5073C29.893 97.8665 31.4826 103.154 34.5604 108.226C35.3313 109.494 36.1919 110.744 37.1481 111.971L40.7039 110.397L21.8012 118.759L15.5322 121.529V126.332L21.8012 123.562L56.3734 108.274H212.627L247.193 123.556L253.462 126.332V123.963C257.347 120.285 260.532 116.409 262.988 112.359C266.879 105.941 268.904 99.2542 268.994 92.4893C269.084 85.874 267.333 79.3064 263.777 72.9901L263.783 72.9961ZM155.775 27.209C155.979 27.3107 156.182 27.4303 156.385 27.532C156.182 27.4243 155.979 27.3107 155.775 27.209C155.722 27.1851 155.668 27.1611 155.62 27.1312C155.674 27.1552 155.728 27.1791 155.775 27.209ZM154.795 29.1768C163.849 33.7047 171.57 41.1754 177.027 50.5721C182.16 59.4125 185.286 69.9397 185.638 81.2982H172.909C172.562 65.4776 168.493 51.1702 161.997 40.5653C158.602 35.0206 154.538 30.4868 149.978 27.2927C149.775 27.1492 149.572 27.0116 149.363 26.874C151.221 27.526 153.032 28.2916 154.795 29.1709V29.1768ZM148.717 29.0931C155.112 33.5612 160.634 41.0199 164.536 50.4405C168.212 59.2989 170.459 69.8858 170.71 81.2982H157.981C157.771 65.5494 155.345 51.3198 151.466 40.7627C149.435 35.2419 147.014 30.714 144.241 27.4781C143.751 26.9039 143.249 26.3776 142.735 25.8871C144.797 26.6707 146.793 27.7473 148.717 29.0931ZM138.701 25.5522C140.99 26.88 143.261 29.3443 145.323 32.7776C148.425 37.9275 151.06 45.2308 152.901 53.9276C154.622 62.0383 155.656 71.3572 155.787 81.3042H143.058C142.986 65.5015 142.168 51.236 140.871 40.7507C140.189 35.2658 139.383 30.8157 138.462 27.6695C138.152 26.6228 137.835 25.7196 137.494 24.954C137.901 25.1215 138.307 25.3189 138.713 25.5522H138.701ZM132.57 1.74045C133.066 1.244 133.747 0.938948 134.5 0.938948C135.253 0.938948 135.934 1.244 136.43 1.74045C136.926 2.2369 137.231 2.91279 137.231 3.67242C137.231 4.42607 136.926 5.10794 136.43 5.60439C135.934 6.10084 135.259 6.40589 134.5 6.40589C133.747 6.40589 133.066 6.10084 132.57 5.60439C132.074 5.10794 131.769 4.43205 131.769 3.67242C131.769 2.91877 132.074 2.2369 132.57 1.74045ZM131.572 8.01487C130.825 7.26122 130.359 6.23243 130.359 5.08402C130.359 4.34831 130.55 3.66644 130.885 3.0683C130.855 3.26569 130.831 3.46905 130.831 3.67242C130.831 5.70009 132.474 7.34496 134.5 7.34496C136.526 7.34496 138.169 5.70009 138.169 3.67242C138.169 3.46905 138.146 3.26569 138.116 3.0683C138.45 3.66644 138.642 4.35429 138.642 5.08402C138.642 6.23243 138.181 7.26122 137.428 8.01487C136.675 8.76254 135.648 9.22908 134.5 9.22908C133.353 9.22908 132.325 8.76852 131.572 8.01487ZM133.861 13.117C133.861 12.7641 134.148 12.4769 134.5 12.4769C134.853 12.4769 135.14 12.7641 135.14 13.117C135.14 13.4699 134.853 13.757 134.5 13.757C134.148 13.757 133.861 13.4699 133.861 13.117ZM133.616 19.1402C133.389 18.9129 133.251 18.6018 133.251 18.2549C133.251 17.908 133.389 17.597 133.616 17.3697C133.843 17.1424 134.153 17.0048 134.5 17.0048C134.847 17.0048 135.157 17.1424 135.385 17.3697C135.612 17.597 135.749 17.908 135.749 18.2549C135.749 18.6018 135.612 18.9129 135.385 19.1402C135.157 19.3675 134.847 19.505 134.5 19.505C134.153 19.505 133.843 19.3675 133.616 19.1402ZM133.932 25.0378C134.13 24.7088 134.315 24.4935 134.428 24.4037C134.458 24.3798 134.476 24.3679 134.494 24.3559C134.548 24.3858 134.667 24.4815 134.823 24.6849C135.146 25.0976 135.558 25.911 135.946 27.0295C136.634 28.9914 137.303 31.8924 137.901 35.5171C138.797 40.9601 139.538 48.048 140.058 56.2185C140.536 63.7908 140.823 72.2963 140.859 81.3042H128.129C128.201 65.5733 129.02 51.3796 130.305 41.0199C130.974 35.6068 131.775 31.2344 132.642 28.2856C133.072 26.8142 133.526 25.7017 133.926 25.0378H133.932ZM130.299 25.5522C130.705 25.3189 131.106 25.1215 131.512 24.954C131.357 25.3069 131.201 25.6837 131.052 26.1024C130.281 28.2378 129.594 31.2045 128.972 34.901C128.046 40.4457 127.293 47.6113 126.761 55.8835C126.271 63.5516 125.978 72.1647 125.942 81.2982H113.219C113.422 65.7707 115.836 51.7564 119.601 41.5163C121.568 36.163 123.904 31.8445 126.432 28.9077C127.693 27.4363 128.996 26.3118 130.305 25.5522H130.299ZM126.265 25.8871C124.663 27.4123 123.175 29.3503 121.795 31.6471C118.514 37.1081 115.836 44.6027 113.954 53.473C112.203 61.7452 111.157 71.2137 111.02 81.3042H98.2904C98.631 65.8484 102.629 51.9119 108.88 41.7197C112.149 36.3844 116.022 32.0778 120.283 29.0991C122.207 27.7533 124.203 26.6826 126.265 25.8931V25.8871ZM113.225 27.209C113.338 27.1552 113.452 27.1013 113.56 27.0475C113.446 27.1013 113.332 27.1552 113.225 27.209C113.165 27.2389 113.111 27.2688 113.052 27.2987C113.111 27.2688 113.165 27.2329 113.225 27.203V27.209ZM98.1589 41.8573C102.731 36.5219 108.175 32.1974 114.211 29.1768C115.974 28.2976 117.791 27.532 119.643 26.88C119.44 27.0176 119.231 27.1552 119.028 27.2987C112.191 32.0898 106.472 39.8954 102.438 49.6031C98.643 58.7546 96.3541 69.6167 96.0971 81.3042H83.3679C83.846 65.9262 89.4098 52.0555 98.1529 41.8573H98.1589ZM83.577 103.884H55.4531L43.1063 109.345C41.8991 107.921 40.8354 106.468 39.933 104.978C35.0205 96.8736 34.8353 88.2904 39.413 80.1558C44.684 70.789 56.0926 62.3314 71.541 56.3321C77.0212 54.2028 82.9615 52.3964 89.2843 50.919C89.362 50.7695 89.4516 50.6259 89.5293 50.4764C87.1926 54.6753 85.2922 59.2151 83.8938 64.0241C83.9237 63.9165 83.9535 63.8028 83.9834 63.6951C73.8777 68.2709 66.5569 74.2582 62.6723 81.1607C58.5428 88.5117 58.6563 96.5686 63.001 103.884H70.6984C69.8557 102.897 69.1147 101.88 68.4872 100.845C65.1525 95.3424 65.0329 89.7558 68.1346 84.241C70.7462 79.5935 75.5988 75.2571 82.1368 71.6384C82.1786 71.3871 82.2324 71.1419 82.2742 70.8907C81.6646 74.2701 81.2882 77.7453 81.1806 81.2982H75.5689V90.0429H83.577V103.884ZM77.7622 87.8478V83.4934H191.244V87.8478H77.7622ZM225.9 109.345L213.553 103.884H185.429V90.0429H193.437V81.2982H187.826C187.706 77.3984 187.27 73.5943 186.547 69.9098C186.66 70.484 186.768 71.0522 186.863 71.6324C193.401 75.2511 198.254 79.5816 200.872 84.2351C203.973 89.7499 203.854 95.3364 200.519 100.839C199.892 101.874 199.15 102.891 198.308 103.878H206.005C210.344 96.5686 210.463 88.5057 206.328 81.1547C202.449 74.2522 195.128 68.2649 185.023 63.6892C185.053 63.7849 185.077 63.8866 185.106 63.9882C183.588 58.7665 181.467 53.8558 178.849 49.3579C179.148 49.8723 179.447 50.3867 179.734 50.913C186.051 52.3904 191.991 54.1968 197.471 56.3261C212.92 62.3254 224.328 70.783 229.599 80.1498C234.171 88.2844 233.992 96.8677 229.079 104.972C228.177 106.462 227.113 107.921 225.906 109.339L225.9 109.345ZM257.633 109.111C255.458 112.706 252.542 116.199 248.968 119.543L247.199 118.759L231.852 111.977C232.802 110.756 233.669 109.506 234.44 108.232C237.518 103.16 239.113 97.8665 239.185 92.5132C239.257 87.2676 237.87 82.0758 235.061 77.0814C228.996 66.297 216.78 57.1037 199.736 50.4884C192.224 47.5754 183.905 45.2308 174.965 43.4962C175.108 43.6876 175.246 43.885 175.383 44.0764C174.469 42.8203 173.513 41.6001 172.515 40.4337C170.184 37.7182 167.632 35.2479 164.889 33.0647C164.907 33.0827 164.931 33.0946 164.949 33.1066C184.043 35.1283 201.451 39.0939 216.296 44.8479C236.478 52.6835 251.4 63.7729 258.321 76.0705C264.41 86.8968 264.177 98.3211 257.633 109.111Z" fill="#44D99A"/>
<path d="M18.9146 215.19H15.5381V215.376C16.2253 215.472 16.3927 215.555 16.3927 216.345V222.051C16.3927 222.823 16.2493 222.918 15.5381 223.02V223.205H18.8788V223.02C18.072 222.918 17.8389 222.805 17.8389 222.051V219.922H18.9206C20.8569 219.922 22.0581 219.102 22.0581 217.583C22.0581 216.064 20.8688 215.19 18.9206 215.19H18.9146ZM18.4784 219.599H17.8329V215.46H18.574C19.7872 215.46 20.5103 216.333 20.5103 217.523C20.5103 218.713 19.8828 219.599 18.4784 219.599Z" fill="#44D99A"/>
<path d="M27.6757 222.003V219.097C27.6099 217.984 26.9227 217.356 25.4346 217.356C24.0541 217.356 23.0083 218.11 23.0083 218.839C23.0083 219.204 23.3071 219.557 23.7254 219.557C24.1437 219.557 24.4246 219.198 24.4246 218.845C24.4246 218.51 24.1796 218.098 23.6537 218.134C24.9625 217.248 26.2892 217.661 26.343 219.12V220.006C25.5601 220.03 24.837 220.155 24.2633 220.359C23.4206 220.67 22.9604 221.196 22.9604 221.86C22.9604 222.739 23.6298 223.343 24.6039 223.343C25.3449 223.343 25.9904 223.014 26.4207 222.422C26.4505 223.014 26.9107 223.415 27.5442 223.224L28.5781 222.913V222.841L28.2494 222.793C27.8071 222.715 27.6757 222.506 27.6757 222.009V222.003ZM26.337 222.207C26.3071 222.249 26.2772 222.285 26.2533 222.32C25.9665 222.733 25.6258 222.853 25.2732 222.853C24.7234 222.853 24.323 222.332 24.323 221.746C24.323 221.16 24.6696 220.574 25.2553 220.406C25.5541 220.305 25.9007 220.251 26.337 220.227V222.207Z" fill="#44D99A"/>
<path d="M32.7554 217.326C32.1698 217.326 31.5901 217.894 31.2554 218.672V217.481L31.2136 217.338L29.1219 218.109V218.241L29.4566 218.337C29.8211 218.45 29.9406 218.648 29.9406 219.186V222.051C29.9406 222.47 29.8331 222.643 29.4685 222.811L29.0801 222.978V223.199H32.3849V222.978L31.9606 222.811C31.4287 222.601 31.2733 222.422 31.2733 222.051V219.138C31.2733 218.42 32.9646 218.247 33.622 218.642L33.6578 218.594C33.6937 217.733 33.4188 217.32 32.7674 217.32L32.7554 217.326Z" fill="#44D99A"/>
<path d="M36.4129 222.153V214.604L34.2614 215.37V215.496L34.5961 215.514C34.9905 215.532 35.0742 215.819 35.0742 216.357V222.153C35.0742 222.572 35.0144 222.823 34.6021 222.913L34.2136 222.996V223.206H37.2675V222.996L36.885 222.913C36.4726 222.823 36.4009 222.584 36.4009 222.153H36.4129Z" fill="#44D99A"/>
<path d="M40.136 215.514C40.136 214.987 39.7775 214.628 39.2575 214.628C38.7376 214.628 38.373 215.005 38.373 215.514C38.373 216.022 38.7555 216.399 39.2575 216.399C39.7894 216.399 40.136 216.04 40.136 215.514Z" fill="#44D99A"/>
<path d="M40.1062 222.159V217.35L37.9548 218.104V218.229L38.2895 218.331C38.654 218.451 38.7676 218.636 38.7676 219.174V222.165C38.7676 222.584 38.7078 222.841 38.2954 222.925L37.907 222.996V223.218H40.9668V222.996L40.5843 222.925C40.166 222.841 40.1002 222.596 40.1002 222.165L40.1062 222.159Z" fill="#44D99A"/>
<path d="M46.4888 222.003V219.097H46.4828C46.417 217.984 45.7298 217.356 44.2417 217.356C42.8612 217.356 41.8154 218.11 41.8154 218.839C41.8154 219.204 42.1142 219.557 42.5325 219.557C42.9509 219.557 43.2317 219.198 43.2317 218.845C43.2317 218.51 42.9867 218.098 42.4608 218.134C43.7696 217.248 45.0963 217.661 45.1501 219.12V220.006C44.3672 220.03 43.6441 220.155 43.0704 220.359C42.2277 220.67 41.7676 221.196 41.7676 221.86C41.7676 222.739 42.4369 223.343 43.411 223.343C44.1521 223.343 44.7975 223.014 45.2278 222.422C45.2577 223.014 45.7178 223.415 46.3513 223.224L47.3852 222.913V222.841L47.0565 222.793C46.6143 222.715 46.4828 222.506 46.4828 222.009L46.4888 222.003ZM45.1501 222.207C45.1202 222.249 45.0903 222.285 45.0724 222.32C44.7796 222.733 44.4449 222.853 44.0923 222.853C43.5425 222.853 43.1421 222.332 43.1421 221.746C43.1421 221.16 43.4887 220.574 44.0684 220.406C44.3672 220.305 44.7138 220.251 45.1501 220.227V222.207Z" fill="#44D99A"/>
<path d="M57.6164 222.213V219.563C57.6164 218.163 56.9292 217.338 55.7758 217.338C55.1483 217.338 54.2997 217.685 53.8096 218.451C53.5347 217.739 52.955 217.338 52.1542 217.338C51.4789 217.338 50.5406 217.745 50.0805 218.636V217.308L47.929 218.068V218.187L48.2637 218.295C48.6402 218.427 48.7478 218.606 48.7478 219.138V222.213C48.7478 222.632 48.6761 222.889 48.2757 222.972L47.8872 223.05V223.206H50.8932V223.05L50.5048 222.972C50.1462 222.901 50.0805 222.667 50.0805 222.213V219.414C50.0805 218.642 50.6841 218.08 51.3952 218.08C52.1064 218.08 52.6622 218.642 52.6622 219.437V222.219C52.6622 222.667 52.6024 222.901 52.2379 222.978L51.8494 223.056V223.212H54.8614V223.056L54.467 222.978C54.0546 222.895 53.9949 222.643 53.9949 222.219V219.569C53.9949 219.258 53.959 218.971 53.8933 218.714C54.1263 218.331 54.5507 218.086 55.0168 218.086C55.7459 218.086 56.2837 218.648 56.2837 219.443V222.225C56.2837 222.673 56.224 222.907 55.8594 222.984L55.471 223.062V223.218H58.483V223.062L58.0886 222.984C57.6762 222.901 57.6164 222.649 57.6164 222.225V222.213Z" fill="#44D99A"/>
<path d="M61.8535 217.368C60.1622 217.368 59.0507 218.63 59.0507 220.418C59.0507 222.296 60.1443 223.367 61.8535 223.367C62.8396 223.367 63.6045 223.068 64.2499 222.47V222.308C63.6762 222.715 63.1802 222.882 62.6065 222.882C61.5427 222.882 60.6284 222.099 60.461 220.418L60.4491 220.281H64.3037C64.3217 220.167 64.3336 220.035 64.3336 219.886C64.3336 218.373 63.4193 217.38 61.8535 217.38V217.368ZM60.473 219.976C60.5626 218.42 61.1244 217.601 61.8654 217.601C62.6065 217.601 63.0368 218.331 63.0129 219.958L60.479 219.976H60.473Z" fill="#44D99A"/>
<path d="M71.248 222.213V219.563C71.248 218.163 70.5608 217.338 69.4074 217.338C68.7321 217.338 67.7938 217.745 67.3336 218.636V217.308L65.1822 217.972V218.092L65.5169 218.199C65.8934 218.331 66.001 218.51 66.001 219.043V222.207C66.001 222.626 65.9292 222.883 65.5288 222.966L65.1404 223.044V223.2H68.1464V223.044L67.7579 222.966C67.3994 222.895 67.3336 222.661 67.3336 222.207V219.408C67.3336 218.636 67.9372 218.074 68.6484 218.074C69.3596 218.074 69.9154 218.636 69.9154 219.431V222.213C69.9154 222.661 69.8556 222.895 69.491 222.972L69.1026 223.05V223.206H72.1146V223.05L71.7202 222.972C71.3078 222.889 71.248 222.637 71.248 222.213Z" fill="#44D99A"/>
<path d="M75.3358 222.918C74.774 222.918 74.4872 222.619 74.4872 221.525V218.002H76.0888V217.709H74.4872V215.669H74.3198C74.1943 216.901 73.1127 217.727 72.2581 217.727V218.002H73.1485V221.226C73.1485 222.739 73.4891 223.325 74.5051 223.325C75.1027 223.325 75.7123 223.134 76.1485 222.853L76.1306 222.703C75.8856 222.829 75.6944 222.918 75.3358 222.918Z" fill="#44D99A"/>
<path d="M81.551 222.003V219.097C81.4853 217.984 80.798 217.356 79.31 217.356C77.9295 217.356 76.8836 218.11 76.8836 218.839C76.8836 219.204 77.1824 219.557 77.6008 219.557C78.0191 219.557 78.3 219.198 78.3 218.845C78.3 218.51 78.055 218.098 77.529 218.134C78.8378 217.248 80.1645 217.661 80.2183 219.12V220.006C79.4354 220.03 78.7123 220.155 78.1326 220.359C77.29 220.67 76.8298 221.196 76.8298 221.86C76.8298 222.739 77.4992 223.343 78.4733 223.343C79.2143 223.343 79.8598 223.014 80.29 222.422C80.3199 223.014 80.7801 223.415 81.4136 223.224L82.4475 222.913V222.841L82.1188 222.793C81.6765 222.715 81.545 222.506 81.545 222.009L81.551 222.003ZM80.2124 222.207C80.1825 222.249 80.1586 222.285 80.1287 222.32C79.8418 222.733 79.5012 222.853 79.1486 222.853C78.5988 222.853 78.1984 222.332 78.1984 221.746C78.1984 221.16 78.545 220.574 79.1307 220.406C79.4295 220.305 79.7761 220.251 80.2124 220.227V222.207Z" fill="#44D99A"/>
<path d="M86.6368 217.326C86.0511 217.326 85.4714 217.894 85.1368 218.672V217.481L85.0889 217.338L82.9973 218.109V218.241L83.3319 218.337C83.6965 218.45 83.816 218.648 83.816 219.186V222.051C83.816 222.47 83.7144 222.643 83.3439 222.811L82.9554 222.978V223.199H86.2603V222.978L85.836 222.811C85.3041 222.601 85.1427 222.422 85.1427 222.051V219.138C85.1427 218.42 86.834 218.247 87.4914 218.642L87.5272 218.594C87.5571 217.733 87.2882 217.32 86.6368 217.32V217.326Z" fill="#44D99A"/>
<path d="M90.318 215.514C90.318 214.987 89.9595 214.628 89.4395 214.628C88.9196 214.628 88.5551 215.005 88.5551 215.514C88.5551 216.022 88.9375 216.399 89.4395 216.399C89.9714 216.399 90.318 216.04 90.318 215.514Z" fill="#44D99A"/>
<path d="M90.2942 222.159V217.35L88.1428 218.104V218.229L88.4774 218.331C88.842 218.451 88.9555 218.636 88.9555 219.174V222.165C88.9555 222.584 88.8958 222.841 88.4834 222.925L88.095 222.996V223.218H91.1488V222.996L90.7663 222.925C90.348 222.841 90.2823 222.596 90.2823 222.165L90.2942 222.159Z" fill="#44D99A"/>
<path d="M96.6708 222.003V219.097C96.605 217.984 95.9178 217.356 94.4297 217.356C93.0492 217.356 92.0034 218.11 92.0034 218.839C92.0034 219.204 92.3022 219.557 92.7205 219.557C93.1389 219.557 93.4197 219.198 93.4197 218.845C93.4197 218.51 93.1747 218.098 92.6488 218.134C93.9576 217.248 95.2843 217.661 95.3381 219.12V220.006C94.5552 220.03 93.8321 220.155 93.2584 220.359C92.4157 220.67 91.9556 221.196 91.9556 221.86C91.9556 222.739 92.6249 223.343 93.599 223.343C94.3401 223.343 94.9855 223.014 95.4158 222.422C95.4457 223.014 95.9058 223.415 96.5393 223.224L97.5732 222.913V222.841L97.2445 222.793C96.8023 222.715 96.6708 222.506 96.6708 222.009V222.003ZM95.3321 222.207C95.3022 222.249 95.2724 222.285 95.2484 222.32C94.9616 222.733 94.621 222.853 94.2684 222.853C93.7185 222.853 93.3181 222.332 93.3181 221.746C93.3181 221.16 93.6648 220.574 94.2504 220.406C94.5492 220.305 94.8959 220.251 95.3321 220.227V222.207Z" fill="#44D99A"/>
<path d="M104.183 222.213V219.563C104.183 218.163 103.496 217.338 102.342 217.338C101.667 217.338 100.729 217.745 100.268 218.636V217.308L98.117 217.972V218.092L98.4517 218.199C98.8282 218.331 98.9358 218.51 98.9358 219.043V222.207C98.9358 222.626 98.864 222.883 98.4636 222.966L98.0752 223.044V223.2H101.081V223.044L100.693 222.966C100.334 222.895 100.268 222.661 100.268 222.207V219.408C100.268 218.636 100.878 218.074 101.583 218.074C102.288 218.074 102.85 218.636 102.85 219.431V222.213C102.85 222.661 102.79 222.895 102.426 222.972L102.037 223.05V223.206H105.049V223.05L104.655 222.972C104.243 222.889 104.183 222.637 104.183 222.213Z" fill="#44D99A"/>
<path d="M108.288 219.724L107.852 219.575C107.117 219.312 106.699 219.102 106.699 218.432C106.699 217.996 106.95 217.487 107.733 217.487C108.844 217.487 109.298 218.223 109.532 219.066H109.639L109.591 217.649C109.203 217.445 108.569 217.272 107.834 217.272C106.394 217.272 105.575 217.942 105.575 219.025C105.575 219.928 106.215 220.466 107.189 220.819L107.619 220.968C108.336 221.232 108.599 221.501 108.599 221.949C108.599 222.464 108.235 223.044 107.368 223.044C106.502 223.044 105.868 222.35 105.569 221.291H105.39L105.492 222.805C105.94 223.122 106.699 223.325 107.494 223.325C108.898 223.325 109.884 222.643 109.884 221.489C109.884 220.592 109.382 220.095 108.282 219.718L108.288 219.724Z" fill="#44D99A"/>
<path d="M116.01 214.592C114.916 214.592 114.151 215.328 114.151 216.728V217.715H113.308V218.008H114.139V222.458C114.139 222.888 113.894 222.96 113.302 223.044V223.211H116.601V223.062C115.878 222.93 115.538 222.864 115.538 222.368V218.014H117.002V217.721H115.538V216.028C115.538 215.25 115.86 214.861 116.386 214.861C116.452 214.861 116.643 214.873 116.87 215.029C116.565 214.993 116.243 215.256 116.243 215.609C116.243 215.962 116.506 216.225 116.864 216.225C117.193 216.225 117.468 215.956 117.468 215.615C117.468 215.047 116.954 214.604 116.01 214.604V214.592Z" fill="#44D99A"/>
<path d="M120.713 217.344C118.968 217.344 117.725 218.57 117.725 220.358C117.725 222.147 118.968 223.373 120.713 223.373C122.458 223.373 123.695 222.147 123.695 220.358C123.695 218.57 122.458 217.344 120.713 217.344ZM120.713 223.116C119.781 223.116 119.141 222.105 119.141 220.358C119.141 218.612 119.781 217.601 120.713 217.601C121.645 217.601 122.291 218.612 122.291 220.358C122.291 222.105 121.651 223.116 120.713 223.116Z" fill="#44D99A"/>
<path d="M128.123 217.326C127.538 217.326 126.958 217.894 126.623 218.672V217.481L126.576 217.338L124.484 218.109V218.241L124.819 218.337C125.183 218.45 125.303 218.648 125.303 219.186V222.051C125.303 222.47 125.201 222.643 124.831 222.811L124.442 222.978V223.199H127.747V222.978L127.323 222.811C126.791 222.601 126.635 222.422 126.635 222.051V219.138C126.635 218.42 128.327 218.247 128.984 218.642L129.02 218.594C129.056 217.733 128.781 217.32 128.129 217.32L128.123 217.326Z" fill="#44D99A"/>
<path d="M138.887 221.83L135.976 215.053H135.928L133.281 221.615C132.857 222.614 132.624 222.937 131.775 223.044V223.212H134.709V223.044C133.365 222.901 133.155 222.673 133.586 221.627L133.962 220.676H136.902L137.369 221.83C137.691 222.596 137.339 222.895 136.221 223.044V223.212H140.219V223.044C139.406 222.913 139.257 222.673 138.893 221.83H138.887ZM134.07 220.371L135.379 217.099L135.504 217.356L136.765 220.377H134.07V220.371Z" fill="#44D99A"/>
<path d="M142.634 222.153V214.604L140.482 215.37V215.496L140.817 215.514C141.211 215.532 141.295 215.819 141.295 216.357V222.153C141.295 222.572 141.235 222.823 140.823 222.913L140.434 222.996V223.206H143.488V222.996L143.106 222.913C142.693 222.823 142.622 222.584 142.622 222.153H142.634Z" fill="#44D99A"/>
<path d="M147.809 218.821H144.45V219.437H147.809V218.821Z" fill="#44D99A"/>
<path d="M154.472 223.092C156.098 222.596 157.162 221.082 157.162 219.21C157.162 216.656 155.727 215.125 153.313 215.125C151.132 215.125 149.464 216.907 149.464 219.21C149.464 221.513 150.749 223.026 152.775 223.224C152.883 223.242 152.972 223.379 153.672 224.037C154.765 225.066 155.763 225.317 157.221 224.552L157.18 224.264C155.769 224.342 155.13 223.678 154.478 223.092H154.472ZM153.313 223.026C151.765 223.026 150.988 221.22 150.988 219.216C150.988 217.212 151.974 215.382 153.319 215.382C154.664 215.382 155.62 217.189 155.62 219.216C155.62 221.244 154.903 223.026 153.313 223.026Z" fill="#44D99A"/>
<path d="M163.915 222.063V217.362L161.757 217.888V218.056L162.104 218.163C162.463 218.289 162.576 218.468 162.576 218.995V221.812C162.391 222.308 161.865 222.619 161.399 222.619C160.598 222.619 160.138 222.147 160.138 221.076V217.362L157.98 217.888V218.05L158.327 218.157C158.698 218.277 158.799 218.468 158.799 218.995V221.118C158.799 222.59 159.498 223.337 160.67 223.337C161.411 223.337 162.277 222.775 162.72 221.896V223.164V223.307L164.823 222.996V222.733L164.495 222.691C164.046 222.625 163.921 222.488 163.921 222.063H163.915Z" fill="#44D99A"/>
<path d="M171.128 222.135V214.61L168.977 215.37V215.496L169.317 215.514C169.718 215.531 169.789 215.813 169.789 216.297V217.751C169.419 217.535 169.054 217.374 168.69 217.374C166.759 217.374 165.6 218.654 165.6 220.646C165.6 222.225 166.556 223.361 167.913 223.361C168.528 223.361 169.263 223.038 169.813 222.284L169.825 222.613C169.843 223.146 170.363 223.439 170.871 223.271L172.03 222.889V222.811L171.69 222.763C171.248 222.691 171.122 222.56 171.122 222.135H171.128ZM169.789 222.087C169.526 222.416 169.102 222.727 168.588 222.727C167.632 222.727 167.046 221.842 167.046 220.227C167.046 218.887 167.65 217.547 168.534 217.547C169.222 217.547 169.76 218.115 169.783 218.857V222.087H169.789Z" fill="#44D99A"/>
<path d="M175.515 219.724L175.078 219.575C174.343 219.312 173.925 219.102 173.925 218.432C173.925 217.996 174.176 217.487 174.959 217.487C176.07 217.487 176.525 218.223 176.758 219.066H176.865L176.817 217.649C176.429 217.445 175.795 217.272 175.06 217.272C173.62 217.272 172.801 217.942 172.801 219.025C172.801 219.928 173.441 220.466 174.415 220.819L174.845 220.968C175.562 221.232 175.825 221.501 175.825 221.949C175.825 222.464 175.467 223.044 174.594 223.044C173.722 223.044 173.094 222.35 172.795 221.291H172.616L172.718 222.805C173.166 223.122 173.925 223.325 174.72 223.325C176.124 223.325 177.11 222.643 177.11 221.489C177.11 220.592 176.608 220.095 175.509 219.718L175.515 219.724Z" fill="#44D99A"/>
<path d="M185.381 222.003V219.097C185.315 217.984 184.628 217.356 183.14 217.356C181.76 217.356 180.714 218.11 180.714 218.839C180.714 219.204 181.013 219.557 181.431 219.557C181.849 219.557 182.13 219.198 182.13 218.845C182.13 218.51 181.885 218.098 181.359 218.134C182.668 217.248 183.995 217.661 184.049 219.12V220.006C183.266 220.03 182.543 220.155 181.963 220.359C181.12 220.67 180.66 221.196 180.66 221.86C180.66 222.739 181.329 223.343 182.303 223.343C183.045 223.343 183.69 223.014 184.12 222.422C184.156 223.014 184.61 223.415 185.244 223.224L186.278 222.913V222.841L185.949 222.793C185.507 222.715 185.375 222.506 185.375 222.009L185.381 222.003ZM184.043 222.207C184.013 222.249 183.983 222.285 183.965 222.32C183.678 222.733 183.337 222.853 182.985 222.853C182.435 222.853 182.041 222.332 182.041 221.746C182.041 221.16 182.387 220.574 182.967 220.406C183.266 220.305 183.612 220.251 184.049 220.227V222.207H184.043Z" fill="#44D99A"/>
<path d="M192.887 222.213V219.563C192.887 218.163 192.2 217.338 191.047 217.338C190.371 217.338 189.433 217.745 188.973 218.636V217.308L186.821 217.972V218.092L187.156 218.199C187.527 218.331 187.64 218.51 187.64 219.043V222.207C187.64 222.626 187.569 222.883 187.168 222.966L186.78 223.044V223.2H189.786V223.044L189.397 222.966C189.039 222.895 188.973 222.661 188.973 222.207V219.408C188.973 218.636 189.582 218.074 190.288 218.074C190.993 218.074 191.555 218.636 191.555 219.431V222.213C191.555 222.661 191.495 222.895 191.124 222.972L190.736 223.05V223.206H193.748V223.05L193.353 222.972C192.941 222.889 192.881 222.637 192.881 222.213H192.887Z" fill="#44D99A"/>
<path d="M199.706 222.135V214.61L197.555 215.37V215.496L197.895 215.514C198.296 215.531 198.368 215.813 198.368 216.297V217.751C197.997 217.535 197.632 217.374 197.268 217.374C195.344 217.374 194.178 218.654 194.178 220.646C194.178 222.225 195.134 223.361 196.491 223.361C197.107 223.361 197.842 223.038 198.391 222.284L198.403 222.613C198.427 223.146 198.947 223.439 199.449 223.271L200.609 222.889V222.811L200.268 222.763C199.826 222.691 199.7 222.56 199.7 222.135H199.706ZM198.368 222.087C198.105 222.416 197.686 222.727 197.166 222.727C196.21 222.727 195.624 221.842 195.624 220.227C195.624 218.887 196.228 217.547 197.118 217.547C197.806 217.547 198.344 218.115 198.368 218.857V222.087Z" fill="#44D99A"/>
<path d="M207.404 215.19H204.027V215.376C204.714 215.472 204.888 215.555 204.888 216.345V222.051C204.888 222.823 204.738 222.918 204.027 223.02V223.205H207.368V223.02C206.561 222.918 206.322 222.805 206.322 222.051V219.922H207.404C209.34 219.922 210.541 219.102 210.541 217.583C210.541 216.064 209.358 215.19 207.404 215.19ZM206.967 219.599H206.322V215.46H207.063C208.276 215.46 208.999 216.333 208.999 217.523C208.999 218.713 208.366 219.599 206.967 219.599Z" fill="#44D99A"/>
<path d="M216.171 222.003V219.097H216.165C216.099 217.984 215.412 217.356 213.923 217.356C212.543 217.356 211.497 218.11 211.497 218.839C211.497 219.204 211.796 219.557 212.214 219.557C212.633 219.557 212.913 219.198 212.913 218.845C212.913 218.51 212.668 218.098 212.143 218.134C213.451 217.248 214.778 217.661 214.832 219.12V220.006C214.049 220.03 213.326 220.155 212.746 220.359C211.904 220.67 211.443 221.196 211.443 221.86C211.443 222.739 212.113 223.343 213.087 223.343C213.828 223.343 214.473 223.014 214.904 222.422C214.933 223.014 215.394 223.415 216.027 223.224L217.061 222.913V222.841L216.732 222.793C216.29 222.715 216.159 222.506 216.159 222.009L216.171 222.003ZM214.826 222.207C214.796 222.249 214.772 222.285 214.748 222.32C214.461 222.733 214.121 222.853 213.768 222.853C213.218 222.853 212.824 222.332 212.824 221.746C212.824 221.16 213.17 220.574 213.75 220.406C214.049 220.305 214.396 220.251 214.832 220.227V222.207H214.826Z" fill="#44D99A"/>
<path d="M219.756 222.153V214.604L217.605 215.37V215.496L217.939 215.514C218.334 215.532 218.418 215.819 218.418 216.357V222.153C218.418 222.572 218.358 222.823 217.945 222.913L217.557 222.996V223.206H220.611V222.996L220.228 222.913C219.816 222.823 219.744 222.584 219.744 222.153H219.756Z" fill="#44D99A"/>
<path d="M224.292 217.368C222.601 217.368 221.489 218.63 221.489 220.418C221.489 222.296 222.583 223.367 224.292 223.367C225.278 223.367 226.043 223.068 226.689 222.47V222.308C226.115 222.715 225.619 222.882 225.045 222.882C223.981 222.882 223.067 222.099 222.9 220.418L222.888 220.281H226.742C226.76 220.167 226.772 220.035 226.772 219.886C226.772 218.373 225.858 217.38 224.292 217.38V217.368ZM222.912 219.976C223.001 218.42 223.563 217.601 224.304 217.601C225.045 217.601 225.475 218.331 225.446 219.958L222.912 219.976Z" fill="#44D99A"/>
<path d="M230.549 219.724L230.113 219.575C229.378 219.312 228.96 219.102 228.96 218.432C228.96 217.996 229.211 217.487 229.993 217.487C231.105 217.487 231.559 218.223 231.792 219.066H231.9L231.852 217.649C231.464 217.445 230.83 217.272 230.095 217.272C228.655 217.272 227.836 217.942 227.836 219.025C227.836 219.928 228.475 220.466 229.45 220.819L229.88 220.968C230.597 221.232 230.86 221.501 230.86 221.949C230.86 222.464 230.501 223.044 229.629 223.044C228.756 223.044 228.129 222.35 227.83 221.291H227.651L227.752 222.805C228.201 223.122 228.96 223.325 229.754 223.325C231.159 223.325 232.145 222.643 232.145 221.489C232.145 220.592 231.643 220.095 230.543 219.718L230.549 219.724Z" fill="#44D99A"/>
<path d="M236.549 222.703C236.304 222.829 236.113 222.918 235.754 222.918C235.193 222.918 234.906 222.619 234.906 221.525V218.002H236.507V217.709H234.906V215.669H234.739C234.613 216.901 233.525 217.727 232.677 217.727V218.002H233.567V221.226C233.567 222.739 233.908 223.325 234.924 223.325C235.521 223.325 236.131 223.134 236.567 222.853L236.549 222.703Z" fill="#44D99A"/>
<path d="M239.286 222.159V217.35L237.135 218.104V218.229L237.47 218.331C237.834 218.451 237.948 218.636 237.948 219.174V222.165C237.948 222.584 237.888 222.841 237.476 222.925L237.087 222.996V223.218H240.141V222.996L239.759 222.925C239.34 222.841 239.274 222.596 239.274 222.165L239.286 222.159Z" fill="#44D99A"/>
<path d="M239.316 215.514C239.316 214.987 238.958 214.628 238.438 214.628C237.918 214.628 237.553 215.005 237.553 215.514C237.553 216.022 237.93 216.399 238.438 216.399C238.97 216.399 239.316 216.04 239.316 215.514Z" fill="#44D99A"/>
<path d="M246.894 222.213V219.563C246.894 218.163 246.207 217.338 245.053 217.338C244.378 217.338 243.44 217.745 242.98 218.636V217.308L240.828 217.972V218.092L241.163 218.199C241.539 218.331 241.647 218.51 241.647 219.043V222.207C241.647 222.626 241.575 222.883 241.175 222.966L240.786 223.044V223.2H243.792V223.044L243.404 222.966C243.045 222.895 242.98 222.661 242.98 222.207V219.408C242.98 218.636 243.583 218.074 244.294 218.074C245.006 218.074 245.561 218.636 245.561 219.431V222.213C245.561 222.661 245.502 222.895 245.137 222.972L244.749 223.05V223.206H247.761V223.05L247.366 222.972C246.954 222.889 246.894 222.637 246.894 222.213Z" fill="#44D99A"/>
<path d="M250.982 217.368C249.291 217.368 248.179 218.63 248.179 220.418C248.179 222.296 249.273 223.367 250.982 223.367C251.968 223.367 252.733 223.068 253.378 222.47V222.308C252.805 222.715 252.309 222.882 251.735 222.882C250.671 222.882 249.757 222.099 249.589 220.418L249.577 220.281H253.432C253.45 220.167 253.462 220.035 253.462 219.886C253.462 218.373 252.548 217.38 250.982 217.38V217.368ZM249.601 219.976C249.691 218.42 250.253 217.601 250.994 217.601C251.735 217.601 252.165 218.331 252.141 219.958L249.607 219.976H249.601Z" fill="#44D99A"/>
<path d="M22.6617 153.541L24.7593 151.184L22.0282 148.738L19.9305 151.094L22.6617 153.541Z" fill="#44D99A"/>
<path d="M22.4705 172.256C28.2554 172.256 31.1539 167.77 31.1539 162.351C31.1539 159.48 30.3411 156.346 28.7096 153.475H28.2614L26.4626 156.771C27.6697 158.529 30.2574 162.208 30.2574 164.212C30.2574 165.874 26.3131 167.448 23.2892 167.448C18.6696 167.448 16.6676 165.659 16.6676 162.83C16.6676 161.837 17.1517 159.51 18.2154 157.961H17.6955C16.5062 159.726 15.5381 163.075 15.5381 165.438C15.5381 169.415 17.8927 172.251 22.4705 172.251V172.256Z" fill="#44D99A"/>
<path d="M33.5383 168.967C32.618 168.967 31.7215 168.895 30.8789 168.752V169.236C32.367 170.277 36.5384 172.257 38.2236 172.257C41.6002 172.257 44.3911 168.895 45.168 164.595H55.71V164.577C57.8494 164.499 59.5048 163.201 60.1144 161.371C60.8076 163.386 62.7021 164.595 64.7579 164.595V164.583C68.8098 164.571 70.3158 161.759 70.3158 158.446C70.3158 156.233 69.7122 153.762 68.6783 151.717H68.1763L66.4432 155.575C67.3097 156.37 69.3715 158.147 69.3715 158.9C69.3715 159.445 67.238 159.827 64.7519 159.869C62.5348 159.869 61.2917 159.193 60.9809 158.093C61.0885 157.004 61.1363 156.251 61.1662 155.282H60.6821C60.3654 158.787 58.8475 159.827 55.71 159.869H55.5247H55.5187H45.2636C44.8572 156.005 43.405 152.351 40.6619 152.351C37.6619 152.351 35.618 156.281 35.618 159.762C35.618 163.243 37.5424 164.601 39.646 164.601H44.3134C42.6161 167.448 37.7814 168.973 33.5503 168.973L33.5383 168.967ZM39.8492 159.869C38.2834 159.869 36.5085 160.013 36.5085 159.11C36.5085 158.356 37.4826 156.897 39.3173 156.897C41.152 156.897 42.7835 158.057 43.8353 159.869H39.8492Z" fill="#44D99A"/>
<path d="M52.1303 166.167L50.2179 168.303L52.698 170.534L54.4371 168.59L56.8096 170.719L58.722 168.584L56.2419 166.353L54.5028 168.297L52.1303 166.167Z" fill="#44D99A"/>
<path d="M67.5309 148.87L69.6345 146.513L66.9034 144.061L64.8058 146.417L67.5309 148.87Z" fill="#44D99A"/>
<path d="M76.1904 141.106H75.9214L73.764 144.3V144.533C74.0868 145.275 74.2302 147.644 74.2481 150.096L74.3138 158.314C74.3497 162.764 75.7422 164.589 79.4175 164.589H79.4295H83.3379V164.577C85.6746 164.523 86.8579 163.04 87.6706 160.838C88.1009 162.417 90.4974 164.589 93.5034 164.589C94.7644 164.589 95.7385 163.739 96.3958 162.489C97.2325 163.751 98.6967 164.589 101.44 164.589H101.446C105.211 164.589 106.675 161.843 106.675 158.625V148.726L108.587 146.25C107.464 145.556 106.352 143.164 106.251 141.232H105.868L104.924 142.709C104.434 143.57 104.326 144.228 104.416 144.826V158.93C104.416 159.576 103.621 159.857 101.434 159.869V159.875C100.585 159.869 97.6329 159.887 97.3222 157.22C97.107 154.737 95.9775 152.572 93.8022 152.572C91.8719 152.572 90.1328 154.295 88.071 157.579C87.0013 159.277 85.7941 159.875 83.2064 159.875H79.4115C76.6087 159.875 76.1784 158.326 76.1784 156.454V148.397C76.1844 145.819 76.1844 143.774 76.1844 141.118L76.1904 141.106ZM89.0033 158.093C90.2882 156.962 91.7404 156.406 92.9595 156.406C94.8062 156.406 96.3002 157.782 96.5692 160.007C96.617 160.994 91.0292 159.863 89.0033 158.093Z" fill="#44D99A"/>
<path d="M118.789 163.596C120.127 164.594 121.878 164.594 122.243 164.594H126.115V164.577C130.03 164.481 131.5 161.711 131.5 158.452C131.5 156.239 130.896 153.768 129.862 151.723H129.36L127.627 155.581C128.5 156.376 130.556 158.153 130.556 158.906C130.556 159.445 128.482 159.821 126.038 159.869H122.225C119.775 159.869 118.95 159.032 117.868 156.801C117.629 156.31 117.378 155.76 117.097 155.144H116.751L115.018 158.673C116.261 160.24 117.94 161.735 117.94 163.524C117.94 166.377 113.942 168.913 108.916 168.913C108.42 168.913 107.912 168.889 107.398 168.835V169.212C108.217 169.81 111.103 171.886 113.111 171.886C115.609 171.886 118.406 168.028 118.783 163.596H118.789Z" fill="#44D99A"/>
<path d="M127.36 166.371L125.445 168.508L127.927 170.737L129.842 168.6L127.36 166.371Z" fill="#44D99A"/>
<path d="M143.273 145.861L145.012 143.923L147.385 146.052L149.297 143.917L146.817 141.686L145.078 143.63L142.705 141.5L140.793 143.636L143.273 145.861Z" fill="#44D99A"/>
<path d="M139.329 157.453C139.329 160.551 141.337 161.807 143.524 161.807C146.207 161.807 147.325 160.282 147.869 158.595C147.952 161.747 148.753 164.588 153.05 164.594H157.006H213.738C216.673 164.594 219.123 164.206 220.898 163.285C221.788 164.092 223.151 164.594 225.266 164.594H231.661H235.802V164.576C239.717 164.481 241.187 161.711 241.187 158.452C241.187 156.238 240.583 153.768 239.549 151.723H239.047L237.314 155.581C238.181 156.376 240.243 158.153 240.243 158.906C240.243 159.445 238.169 159.821 235.725 159.869H225.26C224.848 159.869 224.34 159.887 223.79 159.881C223.957 159.289 224.047 158.631 224.047 157.907C224.047 155.018 222.559 151.806 219.451 151.806C217.252 151.806 214.157 153.433 212.053 155.724L211.993 155.652C212.716 154.049 212.68 152.913 212.68 151.154V148.774L214.623 146.256C213.499 145.562 212.388 143.169 212.286 141.237H211.904L210.959 142.715C210.445 143.618 210.35 144.3 210.463 144.922V157.542C210.057 158.105 208.993 159.277 208.646 159.875H208.097H204.14H153.056C151.359 159.875 149.757 159.433 149.757 157.417V147.039H149.405L147.887 149.264V150.239C141.6 152.542 139.323 154.241 139.323 157.465L139.329 157.453ZM218.591 155.503C220.712 155.503 223.097 157.201 223.097 158.864C223.097 159.624 220.049 159.857 216.822 159.911C213.649 159.965 210.296 159.839 209.483 159.869C214.497 155.234 217.688 155.503 218.591 155.503ZM147.893 156.609C147.863 157.937 140.243 157.788 140.243 156.382C140.243 155.904 143.201 154.313 147.893 152.925V156.603V156.609Z" fill="#44D99A"/>
<path d="M237.053 166.39L235.135 168.525L237.615 170.757L239.533 168.621L237.053 166.39Z" fill="#44D99A"/>
<path d="M245.92 141.375H245.567L243.625 144.318V158.332C243.625 160.42 243.589 162.507 243.123 164.595H243.392C244.39 162.687 245.92 160.24 245.92 155.706V141.369V141.375Z" fill="#44D99A"/>
<path d="M250.892 154.546L249.47 158.326C250.45 159.146 252.619 161.329 252.619 162.621C252.619 165.396 248.908 168.68 244.306 168.68C243.655 168.68 243.04 168.65 242.454 168.596V169.063C243.769 170.343 246.141 171.539 247.378 171.539C250.928 171.539 253.462 167.663 253.462 162.304C253.462 159.941 252.924 157.441 251.328 154.546H250.892Z" fill="#44D99A"/>
<path d="M19.6437 187.138L22.3748 189.591L24.4724 187.234L21.7473 184.788L19.6437 187.138Z" fill="#44D99A"/>
<path d="M37.2197 201.673L35.4746 203.617L33.1081 201.481L31.1957 203.617L33.6698 205.848L35.4149 203.904L37.7814 206.039L39.6938 203.904L37.2197 201.673Z" fill="#44D99A"/>
<path d="M89.595 180.505L92.3261 182.951L94.4297 180.594L91.6986 178.148L89.595 180.505Z" fill="#44D99A"/>
<path d="M96.6289 192.372C96.6289 188.018 95.4636 184.237 92.2305 184.237C89.7862 184.237 87.9455 187.659 87.9455 190.177C87.9455 192.049 88.5432 194.687 91.7165 194.687C93.5392 194.687 95.0691 193.287 95.6966 191.002C97.2803 194.154 94.6867 195.375 91.5133 195.375H87.7364C85.1009 195.339 85.2981 194.16 85.2981 192.181V183.071V176.886H84.8857L82.9494 179.901V193.724C82.9494 195.44 81.3956 195.369 80.541 195.369C76.8597 195.369 76.6864 194.729 76.6804 193.018V191.81H76.2382C76.2382 193.915 76.3039 195.889 75.2999 195.889C74.2959 195.889 70.3397 194.914 70.4054 194.256C70.501 193.347 70.5608 193.066 70.5967 191.995H70.262C70.011 194.723 68.7799 195.512 66.8376 195.512C65.0269 195.512 63.5986 195.261 63.7241 194.824C63.9751 193.915 64.1663 193.036 64.1962 191.965H63.8496C63.5687 195.159 60.9631 195.369 58.5905 195.369V195.345L58.5427 195.375C58.1483 195.375 57.6702 195.387 57.1503 195.387C57.3176 194.794 57.4072 194.136 57.4072 193.413C57.4072 190.524 55.9192 187.312 52.8115 187.312C50.6123 187.312 47.5166 188.939 45.413 191.229L45.3533 191.158C46.0764 189.555 46.0405 188.418 46.0405 186.66V184.279L47.9828 181.761C46.8593 181.067 45.7477 178.675 45.6461 176.743H45.2636L44.3194 178.22C43.8054 179.123 43.7098 179.805 43.8234 180.427V193.048C43.417 193.61 42.3532 194.782 42.0066 195.381H41.2656V195.542H41.2476V195.393C37.65 195.219 37.889 192.737 37.889 187.443H37.6022L35.9169 189.226V190.129C35.9169 191.546 34.9368 192.216 32.881 192.264C31.2256 192.228 30.2395 191.786 29.4865 190.512C29.349 190.207 29.1996 189.902 29.0383 189.597C29.0263 189.567 29.0144 189.543 29.0084 189.519H28.9965C28.9068 189.345 28.8112 189.172 28.7096 188.998H28.2614L26.4625 192.294C27.6697 194.053 30.2574 197.731 30.2574 199.735C30.2574 201.398 26.3131 202.971 23.2892 202.971C18.6696 202.971 16.6676 201.182 16.6676 198.353C16.6676 197.36 17.1517 195.034 18.2154 193.484H17.6955C16.5062 195.249 15.5381 198.598 15.5381 200.961C15.5381 204.939 17.8927 207.774 22.4705 207.774C28.2554 207.774 31.1539 203.288 31.1539 197.869C31.1539 197.432 31.1359 196.99 31.1001 196.541C33.634 197.342 36.3352 195.985 36.646 191.552V193.861C36.646 197.073 37.2794 200.106 41.2536 200.106V200.082H41.2715V200.106H47.0923C50.0266 200.106 52.4769 199.717 54.2518 198.796C55.1363 199.597 56.4809 200.094 58.5726 200.106H58.5905C58.6025 200.106 58.6084 200.106 58.6204 200.106C60.5985 200.094 62.0268 199.346 62.8635 198.275C63.7838 199.597 65.1046 200.106 66.0428 200.106C67.3098 200.106 68.8875 199.669 69.6285 197.761C70.6684 199.484 72.3596 200.106 73.6326 200.106C74.9055 200.106 75.6406 199.316 76.1485 198.108C76.788 199.167 77.9952 200.1 80.5231 200.106C80.5231 200.106 80.5231 200.106 80.5291 200.106C80.5291 200.106 80.5351 200.106 80.541 200.106C82.555 200.094 83.7204 198.718 84.1507 197.402C84.7005 198.79 85.6268 200.088 87.7005 200.106H87.7184C87.7244 200.106 87.7304 200.106 87.7364 200.106H90.5093C95.0213 200.106 96.7066 196.822 96.6349 192.378L96.6289 192.372ZM91.5791 190.895C90.4376 190.895 88.7702 190.637 88.7702 189.632C88.7702 188.628 89.9834 187.916 91.4356 187.916C92.4516 187.916 93.8381 188.197 95.0871 189.776C94.101 190.583 92.8759 190.895 91.5791 190.895ZM50.1701 195.41C46.9967 195.464 43.6441 195.339 42.8313 195.369C47.8453 190.733 51.0366 191.002 51.939 191.002C54.0606 191.002 56.4451 192.701 56.4451 194.364C56.4451 195.123 53.3972 195.357 50.1701 195.41Z" fill="#44D99A"/>
<path d="M97.0951 204.472C96.1747 204.472 95.2783 204.4 94.4357 204.257V204.741C95.9237 205.782 100.095 207.762 101.78 207.762C105.767 207.762 108.94 203.073 108.94 197.689C108.94 193.096 107.5 187.85 104.219 187.85C101.219 187.85 99.1748 191.78 99.1748 195.261C99.1748 198.742 101.099 200.357 103.203 200.357C105.061 200.357 107.057 198.975 107.966 196.074C108.324 196.708 108.492 197.408 108.492 197.863C108.492 202.151 102.33 204.472 97.101 204.472H97.0951ZM103.406 196.32C101.84 196.32 100.065 195.757 100.065 194.759C100.065 194.005 101.039 192.396 102.874 192.396C104.541 192.396 106.155 193.437 107.219 195.094C106.167 195.943 104.697 196.326 103.406 196.326V196.32Z" fill="#44D99A"/>
<path d="M143.96 189.058H143.727L142.096 192.844C142.885 193.592 144.199 194.705 144.199 195.201C144.199 195.446 143.739 195.56 143.088 195.56C141.414 195.56 138.462 194.842 138.564 193.843C138.653 192.97 138.719 192.665 138.755 191.516H138.396C138.187 193.807 136.884 195.141 135.151 195.141C133 195.141 131.297 194.346 130.753 192.168L130.496 191.134H130.042L128.207 194.531C128.924 196.062 130.293 199.047 130.293 200.811C130.293 201.984 126.719 203.252 124.119 203.252C120.038 203.252 117.54 201.792 117.54 198.634C117.54 197.199 118.053 195.416 119.165 193.269H118.699C117.175 196.008 116.273 198.945 116.273 201.475C116.273 205.208 119.046 208.055 123.862 208.055C129.044 208.055 131.422 204.215 130.992 199.352C131.757 199.992 132.57 200.291 133.454 200.291C135.283 200.291 136.962 199.047 137.38 197.043C138.474 199.107 140.327 199.878 141.54 199.878C143.667 199.878 145.221 197.713 145.221 194.704C145.221 192.707 144.851 191.026 143.966 189.076L143.96 189.058Z" fill="#44D99A"/>
<path d="M172.431 179.434L170.518 181.569L172.993 183.8L174.738 181.857L177.104 183.992L179.023 181.851L176.542 179.625L174.797 181.563L172.431 179.434Z" fill="#44D99A"/>
<path d="M157.992 195.656C159.17 199.639 160.867 200.064 163.58 200.094H167.722V200.07C170.501 200.034 171.971 199.215 173.525 198.288C175.437 199.37 177.935 200.094 180.714 200.094H180.72C184.485 200.094 185.949 197.348 185.949 194.131V184.231L187.861 181.755C186.738 181.061 185.626 178.669 185.525 176.737H185.142L184.198 178.214C183.708 179.076 183.6 179.733 183.69 180.332V194.436C183.69 195.082 182.895 195.363 180.708 195.375V195.381C179.148 195.375 177.995 195.297 177.003 195.117C177.648 193.999 178.216 192.468 178.216 190.996C178.216 188.233 177.2 185.942 175.222 185.942C173.244 185.942 170.578 189.848 170.578 193.132C170.578 193.814 170.728 194.525 170.937 195.076C169.879 195.273 168.738 195.339 167.53 195.375H163.592V195.363C160.341 195.225 159.965 193.443 159.313 191.427C158.632 189.148 158.267 187.108 157.006 182.987H156.642L155.034 186.738C156.086 190.314 156.636 191.577 157.407 194.304C157.574 194.92 155.71 195.811 152.447 195.811C149.733 195.811 148.209 194.753 148.209 193.006C148.209 192.671 148.263 192.306 148.383 191.923H148.066C147.534 193.15 147.313 194.465 147.313 195.399C147.313 198.395 148.986 200.315 152.548 200.315C155.572 200.315 157.407 198.347 157.998 195.656H157.992ZM171.325 191.84C171.325 190.871 173.226 189.734 174.791 189.734C176.357 189.734 177.558 190.859 177.558 192.306C177.558 192.827 176.602 193.473 174.791 194.328C173.297 193.999 171.325 192.683 171.325 191.834V191.84Z" fill="#44D99A"/>
<path d="M191.298 193.837C191.298 195.925 191.262 198.012 190.796 200.1H191.065C192.063 198.192 193.593 195.745 193.593 191.211V176.874H193.24L191.298 179.817V193.831V193.837Z" fill="#44D99A"/>
<path d="M225.573 201.174L223.658 203.311L226.14 205.54L228.055 203.403L225.573 201.174Z" fill="#44D99A"/>
<path d="M215.477 199.394C216.194 199.866 217.097 200.052 218.155 200.087H218.173V200.099H218.179C218.232 200.099 218.274 200.099 218.328 200.099C218.388 200.099 218.435 200.105 218.495 200.105V200.093C225.924 199.962 227.477 195.584 234.96 195.518L236.466 192.096L236.119 191.283C235.336 191.187 234.362 191.092 231.912 190.338C228.679 189.399 226.796 188.017 223.94 187.73C223.204 187.646 222.481 187.73 221.836 188.011C218.973 189.136 218.322 193.352 218.214 195.356C216.045 195.261 215.549 194.088 215.549 192.192V177.574H215.388L213.242 180.857V192.061C213.242 192.497 213.248 192.904 213.266 193.299L213.284 199.848C213.284 201.511 210.714 202.97 207.69 202.97C203.071 202.97 201.069 201.182 201.069 198.353C201.069 197.36 201.553 195.033 202.617 193.484H202.097C200.907 195.249 199.939 198.598 199.939 200.961C199.939 204.938 202.294 207.774 206.872 207.774C212.101 207.774 214.969 204.113 215.471 199.406L215.477 199.394ZM223.085 191.618C223.21 191.624 223.342 191.636 223.467 191.654C225.374 191.839 227.507 192.856 230.023 193.556C226.467 194.585 222.75 195.32 218.597 195.368C218.836 193.819 220.396 191.57 223.079 191.618H223.085Z" fill="#44D99A"/>
<path d="M235.049 179.955C236.651 179.608 238.689 179.261 239.92 179.111L240.524 177.126L240.44 176.97C238.121 177.347 236.137 176.946 236.035 176.109C236.274 175.822 237.123 175.469 237.918 175.469C238.545 175.469 239.215 175.672 239.681 175.989L239.776 175.923C239.842 175.05 239.794 173.507 238.318 173.507C235.832 173.507 234.768 177.185 236.555 178.435C235.766 178.824 235.318 179.392 235.043 179.805V179.955H235.049Z" fill="#44D99A"/>
<path d="M251.125 177.807H250.743L249.805 179.285C249.267 180.23 249.189 180.929 249.326 181.569V190.2C249.326 192.545 248.777 194.274 247.838 195.554C247.426 193.43 246.637 191.337 245.591 189.393C243.643 185.78 240.422 182.837 237.535 181.456L237.183 181.635L236.149 185.529C237.111 186.061 238.563 187.192 239.424 188.388C239.896 188.418 240.44 187.946 240.607 187.664C244.271 189.901 246.302 193.765 247.121 196.379C244.761 198.67 240.816 199.101 236.872 199.298L236.842 199.531C239.412 200.506 241.581 201.918 243.368 201.918C250.366 201.918 251.573 195.069 251.573 189.453V185.284L253.468 182.825C252.344 182.132 251.233 179.739 251.131 177.807H251.125Z" fill="#44D99A"/>
</g>
<defs>
<clipPath id="clip0_47_106">
<rect width="269" height="225" fill="white"/>
</clipPath>
</defs>
</svg>