<svg xmlns="http://www.w3.org/2000/svg" width="16" height="22" viewBox="0 0 16 22" fill="none">
<path d="M14.0441 21.1882C12.6974 21.7294 10.8697 22 8.56112 22C5.9853 22 3.91182 21.3884 2.34068 20.1653C0.780227 18.9422 0 17.4106 0 15.5705C0 14.8561 0.0961924 14.1471 0.288577 13.4435C0.480962 12.7292 0.726787 12.1392 1.02605 11.6738V11.6413H3.7996C2.78424 10.5264 2.27655 9.05437 2.27655 7.22509C2.27655 5.21181 2.98196 3.50701 4.39279 2.1107C5.80361 0.703567 7.53507 0 9.58717 0C11.682 0 13.7074 0.503321 15.6633 1.50996L14.4289 4.0428C12.7081 3.15523 11.1423 2.74391 9.73146 2.80886C8.49165 2.8305 7.43888 3.27429 6.57315 4.14022C5.7181 4.99533 5.29058 6.00197 5.29058 7.16015C5.29058 7.50652 5.32799 7.86913 5.40281 8.24797C5.47762 8.61599 5.61122 9.01107 5.80361 9.43321C6.00668 9.84453 6.25785 10.2125 6.55711 10.5373C6.86707 10.8512 7.27856 11.1164 7.79158 11.3328C8.30461 11.5385 8.88176 11.6413 9.52305 11.6413H16V14.4502H3.28657C3.15832 14.8182 3.09419 15.1808 3.09419 15.538C3.09419 16.6854 3.60187 17.5675 4.61723 18.1845C5.64329 18.8123 6.97395 19.1478 8.60922 19.1911C9.4322 19.2344 10.2712 19.1857 11.1263 19.045C11.992 18.9043 12.6867 18.7419 13.2104 18.5579L14.0441 21.1882Z" fill="#44D99A"/>
</svg>