<svg xmlns="http://www.w3.org/2000/svg" width="42" height="48" viewBox="0 0 42 48" fill="none">
<path d="M10.5 0C11.25 0 12 0.75 12 1.5V6H30V1.5C30 0.75 30.6562 0 31.5 0C32.25 0 33 0.75 33 1.5V6H36C39.2812 6 42 8.71875 42 12V15V18V42C42 45.375 39.2812 48 36 48H6C2.625 48 0 45.375 0 42V18V15V12C0 8.71875 2.625 6 6 6H9V1.5C9 0.75 9.65625 0 10.5 0ZM39 18H3V42C3 43.6875 4.3125 45 6 45H36C37.5938 45 39 43.6875 39 42V18ZM36 9H6C4.3125 9 3 10.4062 3 12V15H39V12C39 10.4062 37.5938 9 36 9Z" fill="white"/>
</svg>