<svg xmlns="http://www.w3.org/2000/svg" width="28" height="32" viewBox="0 0 28 32" fill="none">
<path d="M-2.62268e-07 26L-3.0598e-07 25L-1.35505e-06 1L-1.39876e-06 -8.74228e-08L0.999999 -1.31134e-07L27 -1.26763e-06L28 -1.31134e-06L28 0.999999L28 24L28 25L28 28L28 31L28 32L27 32L5 32L4 32L4 31L4 28L6 28L6 30L26 30L26 28L26 26L1 26L-2.62268e-07 26ZM26 24L26 2L2 2L2 24L26 24ZM4 8L4 7L4 5L4 4L6 4L6 5L6 7L6 8L4 8ZM8 8L8 7L8 5L8 4L10 4L10 5L10 7L10 8L8 8ZM12 8L12 7L12 5L12 4L14 4L14 5L14 7L14 8L12 8ZM16 22L16 21L16 5L16 4L18 4L18 5L18 21L18 22L16 22ZM20 22L20 21L20 5L20 4L22 4L22 5L22 21L22 22L20 22ZM6 20L12 20L12 12L6 12L6 20ZM4 22L4 20L4 12L4 10L6 10L12 10L14 10L14 12L14 20L14 22L12 22L6 22L4 22Z" fill="#EFF3F7"/>
</svg>