<svg xmlns="http://www.w3.org/2000/svg" width="257" height="213" viewBox="0 0 257 213" fill="none">
<path d="M223.876 132.263C200.253 93.6476 152.523 60.6647 85.8516 36.8652C59.5784 27.4942 30.7914 19.761 0 13.7533V31.7514C28.2775 37.4466 54.7274 44.6483 78.9419 53.2879C140.538 75.2682 186.093 106.382 207.21 140.903C221.532 164.321 224.392 188.733 215.805 212.558H235.82C238.348 204.112 239.679 195.566 239.808 186.976C240.087 168.403 234.733 149.992 223.876 132.269V132.263Z" fill="url(#paint0_linear_14_8)"/>
<path d="M136.217 143.722C117.71 113.465 80.4231 87.6587 28.4066 69.098C19.3159 65.8535 9.83122 62.8653 0 60.1333V78.5565C7.3921 80.7196 14.56 83.0389 21.4901 85.5145C68.6351 102.344 103.462 126.074 119.544 152.356C131.59 172.042 132.834 192.665 123.322 212.551H143.874C147.02 204.156 148.678 195.622 148.807 187.02C149.024 172.304 144.785 157.732 136.217 143.722Z" fill="url(#paint1_linear_14_8)"/>
<path d="M48.5514 155.175C38.9308 139.459 22.3869 125.424 0 113.834V134.489C14.4988 143.291 25.4239 153.268 31.8784 163.815C41.3496 179.287 40.9827 194.96 30.8117 210.413C30.3361 211.126 29.847 211.845 29.3306 212.558H51.2351C60.747 193.803 59.8706 173.686 48.5582 155.181L48.5514 155.175Z" fill="url(#paint2_linear_14_8)"/>
<path d="M48.5514 155.175C38.9308 139.459 22.3869 125.424 0 113.834V134.489C14.4988 143.291 25.4239 153.268 31.8784 163.815C41.3496 179.287 40.9827 194.96 30.8117 210.413C30.3361 211.126 29.847 211.845 29.3306 212.558H51.2351C60.747 193.803 59.8706 173.686 48.5582 155.181L48.5514 155.175Z" fill="black" fill-opacity="0.2"/>
<g style="mix-blend-mode:soft-light" opacity="0.41">
<path d="M239.367 126.706C214.113 85.4206 163.075 50.1559 91.7966 24.706C63.7025 14.691 32.9247 6.4203 0 0V19.2421C30.2342 25.3311 58.5117 33.033 84.3977 42.2665C150.254 65.7721 198.955 99.0364 221.539 135.945C236.853 160.983 239.91 187.083 230.725 212.558H252.126C254.83 203.524 256.25 194.391 256.393 185.207C256.692 165.352 250.965 145.666 239.36 126.712L239.367 126.706Z" fill="url(#paint3_linear_14_8)"/>
<path d="M145.634 138.958C125.842 106.607 85.9807 79.019 30.3701 59.1705C20.6476 55.7072 10.5106 52.5064 0 49.5869V69.2854C7.90167 71.5985 15.5723 74.0803 22.978 76.7185C73.3843 94.7103 110.617 120.085 127.813 148.186C140.688 169.235 142.019 191.284 131.848 212.545H153.821C157.191 203.568 158.957 194.441 159.093 185.251C159.324 169.516 154.799 153.937 145.634 138.952V138.958Z" fill="url(#paint4_linear_14_8)"/>
<path d="M51.9078 151.212C41.6213 134.408 23.936 119.404 0 107.007V129.087C15.5044 138.496 27.1836 149.161 34.0798 160.439C44.2099 176.98 43.8159 193.741 32.9383 210.257C32.4288 211.02 31.9056 211.789 31.3485 212.551H54.7681C64.9391 192.497 64.0015 170.991 51.9078 151.212Z" fill="url(#paint5_linear_14_8)"/>
</g>
<defs>
<linearGradient id="paint0_linear_14_8" x1="246.915" y1="202.343" x2="39.7396" y2="-22.8182" gradientUnits="userSpaceOnUse">
<stop stop-color="#00A19B"/>
<stop offset="1" stop-color="#44D99A"/>
</linearGradient>
<linearGradient id="paint1_linear_14_8" x1="157.17" y1="200.317" x2="15.2594" y2="46.0866" gradientUnits="userSpaceOnUse">
<stop stop-color="#00A19B"/>
<stop offset="1" stop-color="#44D99A"/>
</linearGradient>
<linearGradient id="paint2_linear_14_8" x1="61.8681" y1="202.762" x2="-10.8038" y2="123.781" gradientUnits="userSpaceOnUse">
<stop stop-color="#00A19B"/>
<stop offset="1" stop-color="#90D5AC"/>
</linearGradient>
<linearGradient id="paint3_linear_14_8" x1="263.996" y1="201.636" x2="42.4914" y2="-39.0973" gradientUnits="userSpaceOnUse">
<stop stop-color="#00FFFF"/>
<stop offset="1" stop-color="#00A19B"/>
</linearGradient>
<linearGradient id="paint4_linear_14_8" x1="168.041" y1="199.473" x2="16.318" y2="34.5786" gradientUnits="userSpaceOnUse">
<stop stop-color="#00FFFF"/>
<stop offset="1" stop-color="#00A19B"/>
</linearGradient>
<linearGradient id="paint5_linear_14_8" x1="66.1484" y1="202.086" x2="-11.5572" y2="117.635" gradientUnits="userSpaceOnUse">
<stop stop-color="#00FFFF"/>
<stop offset="1" stop-color="#00A19B"/>
</linearGradient>
</defs>
</svg>