<svg width="24" height="24" viewBox="0 0 14 14" fill="none" xmlns="http://www.w3.org/2000/svg">
<path d="M12.6483 13.9844H11.8358C5.55283 13.9844 0.461426 8.89295 0.461426 2.60993V1.79747L4.92459 0.985016L6.54951 5.04731L5.1412 6.45557C5.82366 7.63634 6.80944 8.62213 7.97938 9.29376L9.38769 7.8855L13.45 9.51042L12.6375 13.9735L12.6483 13.9844ZM7.58942 10.0087C6.28948 9.26126 5.19541 8.17798 4.44795 6.86722L4.13376 6.32558L4.57794 5.88143L5.607 4.85232L4.42626 1.9058L1.27388 2.47994V2.60993C1.27388 8.43797 5.99698 13.1719 11.8358 13.1719H11.9659L12.54 10.0196L9.59352 8.83878L8.56439 9.8679L8.12021 10.312L7.57857 9.99789L7.58942 10.0087ZM13.1466 3.54155L13.4283 3.8232L13.1466 4.10486L10.9151 6.33641L10.6334 6.6289L10.0593 6.05476L10.341 5.77311L11.8792 4.23485H7.7844V3.42239H11.8792L10.341 1.88414L10.0593 1.60248L10.6334 1.02835L10.9151 1.32083L13.1466 3.55239V3.54155Z" fill="#FF0000"/>
</svg>
