<svg xmlns="http://www.w3.org/2000/svg" width="100%" height="100%"  viewBox="0 0 48 52" fill="none">
<path d="M46.5 26C46.5 18.0312 42.1875 10.625 35.25 6.59375C28.2188 2.5625 19.6875 2.5625 12.75 6.59375C5.71875 10.625 1.5 18.0312 1.5 26C1.5 34.0625 5.71875 41.4688 12.75 45.5C19.6875 49.5312 28.2188 49.5312 35.25 45.5C42.1875 41.4688 46.5 34.0625 46.5 26ZM0 26C0 17.4688 4.5 9.59375 12 5.28125C19.4062 0.96875 28.5 0.96875 36 5.28125C43.4062 9.59375 48 17.4688 48 26C48 34.625 43.4062 42.5 36 46.8125C28.5 51.125 19.4062 51.125 12 46.8125C4.5 42.5 0 34.625 0 26ZM18 14H19.5H21.75L33 26L21.75 38H19.5H18V36.5V15.5V14ZM21.0938 36.5L30.9375 26L21.0938 15.5H19.5V36.5H21.0938Z" fill="#44D99A"/>
</svg>