<svg xmlns="http://www.w3.org/2000/svg" width="84" height="96" viewBox="0 0 84 96" fill="none">
<path d="M59.25 77.0625C72.1875 70.6875 81 57.375 81 42C81 20.625 63.375 3 42 3C20.4375 3 3 20.625 3 42C3 57.375 11.625 70.6875 24.5625 77.0625C24.75 78 24.75 78.9375 24.9375 79.875L25.125 80.625C10.3125 74.0625 0 59.25 0 42C0 18.9375 18.75 0 42 0C65.0625 0 84 18.9375 84 42C84 59.25 73.5 74.0625 58.6875 80.625L58.875 79.875C59.0625 78.9375 59.25 78 59.25 77.0625ZM58.875 59.0625C63.1875 54.75 66 48.75 66 42C66 28.875 55.125 18 42 18C28.6875 18 18 28.875 18 42C18 48.75 20.625 54.75 24.9375 59.0625C24.375 60 24 61.125 23.8125 62.0625C18.375 57.1875 15 50.0625 15 42C15 27.1875 27 15 42 15C56.8125 15 69 27.1875 69 42C69 50.0625 65.4375 57.1875 60 62.0625C59.8125 61.125 59.4375 60 58.875 59.0625ZM42 51C45.1875 51 48 49.3125 49.6875 46.5C51.375 43.875 51.375 40.3125 49.6875 37.5C48 34.875 45.1875 33 42 33C38.625 33 35.8125 34.875 34.125 37.5C32.4375 40.3125 32.4375 43.875 34.125 46.5C35.8125 49.3125 38.625 51 42 51ZM42 30C46.125 30 50.0625 32.4375 52.3125 36C54.375 39.75 54.375 44.4375 52.3125 48C50.0625 51.75 46.125 54 42 54C37.6875 54 33.75 51.75 31.5 48C29.4375 44.4375 29.4375 39.75 31.5 36C33.75 32.4375 37.6875 30 42 30ZM32.4375 65.625C32.4375 73.125 34.875 85.3125 36.375 90.75C36.5625 91.6875 37.125 92.0625 38.0625 92.4375C39 92.8125 40.3125 93 42 93C43.5 93 44.8125 93 45.9375 92.4375C46.6875 92.0625 47.25 91.6875 47.4375 90.75C48.1875 88.125 49.125 83.25 50.0625 78.375C50.8125 73.5 51.375 68.625 51.375 65.625C51.375 64.5 51.1875 63.5625 50.625 62.8125C50.25 62.25 49.5 61.6875 48.5625 61.3125C46.6875 60.375 44.25 60.1875 42 60.1875C39.5625 60.1875 37.125 60.375 35.25 61.3125C34.3125 61.6875 33.75 62.25 33.1875 62.8125C32.8125 63.5625 32.4375 64.5 32.4375 65.625ZM42 57C44.4375 57 47.4375 57.375 49.875 58.5C51.1875 59.0625 52.3125 60 53.0625 61.125C54 62.4375 54.375 63.9375 54.375 65.625C54.375 68.8125 53.8125 73.875 52.875 78.9375C52.125 83.8125 51.1875 88.6875 50.4375 91.5C49.875 93.375 48.5625 94.6875 47.0625 95.25C45.5625 96 43.6875 96 42 96C40.125 96 38.25 96 36.75 95.25C35.25 94.6875 33.9375 93.375 33.375 91.5C31.875 86.0625 29.4375 73.5 29.4375 65.625C29.4375 63.9375 29.8125 62.4375 30.75 61.125C31.5 60 32.625 59.0625 33.9375 58.5C36.375 57.375 39.375 57 41.8125 57H42Z" fill="#44D99A"/>
</svg>