<svg xmlns="http://www.w3.org/2000/svg" width="25" height="24" viewBox="0 0 25 24" fill="none">
<path d="M5.04391 1.5H5.79391H23.7939H24.5439V2.25V21.75V22.5H23.7939H6.54391H5.79391H3.54391H1.29391H0.54391V21.75V5.25V4.5H1.29391H3.54391V6H2.04391V21H3.54391H5.04391V2.25V1.5ZM6.54391 21H23.0439V3H6.54391V21ZM18.5439 4.5H19.2939H20.7939H21.5439V6H20.7939H19.2939H18.5439V4.5ZM18.5439 7.5H19.2939H20.7939H21.5439V9H20.7939H19.2939H18.5439V7.5ZM18.5439 10.5H19.2939H20.7939H21.5439V12H20.7939H19.2939H18.5439V10.5ZM8.04391 13.5H8.79391H20.7939H21.5439V15H20.7939H8.79391H8.04391V13.5ZM8.04391 16.5H8.79391H20.7939H21.5439V18H20.7939H8.79391H8.04391V16.5ZM9.54391 6V10.5H15.5439V6H9.54391ZM8.04391 4.5H9.54391H15.5439H17.0439V6V10.5V12H15.5439H9.54391H8.04391V10.5V6V4.5Z" fill="#44D99A"/>
</svg>