<svg xmlns="http://www.w3.org/2000/svg" width="36" height="48" viewBox="0 0 36 48" fill="none">
<path d="M0 4.5C0 2.0625 1.96875 0 4.5 0H31.5C33.9375 0 36 2.0625 36 4.5V45.9375C36 47.1562 35.0625 48 33.8438 48C33.4688 48 33.0938 47.9062 32.7188 47.7188L18 37.875L3.1875 47.7188C2.8125 47.9062 2.4375 48 2.0625 48C0.84375 48 0 47.1562 0 45.9375V4.5ZM4.5 3C3.65625 3 3 3.75 3 4.5V44.25L17.1562 34.7812C17.625 34.5 18.2812 34.5 18.75 34.7812L33 44.25V4.5C33 3.75 32.25 3 31.5 3H4.5Z" fill="white"/>
</svg>