<svg xmlns="http://www.w3.org/2000/svg" width="21" height="21" viewBox="0 0 21 21" fill="none">
<path d="M15.1332 8.29199C15.1332 6.06543 13.9223 4.03418 12.0082 2.90137C10.0551 1.76855 7.67226 1.76855 5.7582 2.90137C3.80507 4.03418 2.6332 6.06543 2.6332 8.29199C2.6332 10.5576 3.80507 12.5889 5.7582 13.7217C7.67226 14.8545 10.0551 14.8545 12.0082 13.7217C13.9223 12.5889 15.1332 10.5576 15.1332 8.29199ZM13.9223 14.6982C12.516 15.792 10.7582 16.417 8.8832 16.417C4.39101 16.417 0.758197 12.7842 0.758197 8.29199C0.758197 3.83887 4.39101 0.166992 8.8832 0.166992C13.3363 0.166992 17.0082 3.83887 17.0082 8.29199C17.0082 10.2061 16.3441 11.9639 15.2504 13.3701L20.0941 18.2139L20.7582 18.8779L19.4301 20.167L18.766 19.5029L13.9223 14.6592V14.6982Z" fill="#00A19B"/>
</svg>