<svg xmlns="http://www.w3.org/2000/svg" fill="none" viewBox="0 0 1116 199">
  <path stroke="#0FF" stroke-miterlimit="10" stroke-opacity=".9" d="M29.68 71.28v59.4M41.55 59.4v83.17M56.4 41.58v118.8M68.27 32.67v133.66M80.14 5.94v187.12M94.98 20.8v157.4m11.87-136.62v118.8m11.87-103.95v89.1M133.56 5.94v187.12M145.44 29.7v139.6M157.3 47.52v106.93M172.15 50.5v100.98m11.87-89.11v77.23m11.88-86.14v95.05m14.83-89.11v83.17M222.6 59.4v83.17m11.88-106.93v127.72m14.84-118.81v112.87m11.88-139.6v163.36M273.06 2.97v193.06M287.9 20.8v157.4M299.78 5.94v187.12m14.84-145.54v106.93m11.87-89.11v71.29m11.87-83.17v95.05M353.2 29.7v139.6M365.07 0v199M376.95 0v199m14.84-178.2v157.4m11.87-136.62v118.8m11.87-92.07v65.35m14.84-62.38v59.4m11.88-71.28v83.17m11.87-100.99v118.8m14.84-127.71v133.66M480.83 5.94v187.12M492.7 20.8v157.4m14.84-136.62v118.8m11.87-103.95v89.1M531.29 5.94v187.12M546.13 29.7v139.6M558 47.52v106.93M569.87 50.5v100.98m14.84-89.11v77.23m11.88-86.14v95.05m11.87-89.11v83.17M623.3 59.4v83.17m11.87-106.93v127.72m11.87-118.81v112.87m14.84-139.6v163.36M673.75 2.97v193.06M685.63 20.8v157.4M700.47 5.94v187.12m11.87-145.54v106.93m11.87-89.11v71.29m14.84-83.17v95.05M750.93 29.7v139.6M762.8 0v199M777.64 0v199m11.87-178.2v157.4m11.87-136.62v118.8m14.84-92.07v65.35m11.88-62.38v59.4m14.84-71.28v83.17M854.8 41.58v118.8m11.88-127.71v133.66M881.52 5.94v187.12M893.4 20.8v157.4m11.87-136.62v118.8M920.1 56.43v89.1M931.98 5.94v187.12M943.85 29.7v139.6M958.7 47.52v106.93M970.56 50.5v100.98m11.88-89.11v77.23m14.84-86.14v95.05m11.87-89.11v83.17m11.87-83.17v83.17m14.84-106.93v127.72m11.87-148.51v169.3m11.88-166.33v163.36m14.84-145.54v127.72m11.87-89.11v53.47"/>
</svg>
