<svg width="39" height="29" viewBox="0 0 39 29" fill="none" xmlns="http://www.w3.org/2000/svg">
<path d="M9.21 6.87586L15.7955 16.9046L15.9361 17.1194V19.3504L15.6549 19.6164L11.8702 23.1981L11.589 23.4642H5.13342L4.85226 23.1981L1.06754 19.6164L0.786377 19.3504V17.1092L0.937782 16.8943L7.5988 6.86562L8.39899 5.64791L9.19917 6.86562L9.21 6.87586ZM2.68956 18.0917V18.6136L5.92279 21.6733H10.8105L14.0437 18.6136V18.0917H2.70039H2.68956ZM13.1569 16.3008L8.39899 9.03508L3.57621 16.3008H13.1569ZM23.5055 3.76502C23.5055 5.43305 22.2944 6.83503 20.6724 7.23413V27.0458H32.9782V28.8367H6.48511V27.0458H18.7907V7.23413C17.1579 6.83503 15.9576 5.43305 15.9576 3.76502H6.4958V1.97418H16.4659C17.1148 0.909916 18.3366 0.18335 19.7423 0.18335C21.1481 0.18335 22.37 0.909916 23.0188 1.97418H32.0481V3.76502H23.5271H23.5055ZM19.7208 5.55585C20.7697 5.55585 21.6132 4.75765 21.6132 3.76502C21.6132 2.77238 20.7697 1.97418 19.7208 1.97418C18.6719 1.97418 17.8285 2.77238 17.8285 3.76502C17.8285 4.75765 18.6719 5.55585 19.7208 5.55585ZM31.9183 6.87586L38.5038 16.9046L38.6444 17.1194V19.3504L38.3633 19.6164L34.5785 23.1981L34.2974 23.4642H27.8418L27.5606 23.1981L23.7759 19.6164L23.4947 19.3504V17.1092L23.6461 16.8943L30.3071 6.86562L31.1073 5.64791L31.9075 6.86562L31.9183 6.87586ZM25.3979 18.0917V18.6136L28.6311 21.6733H33.5188L36.7521 18.6136V18.0917H25.4087H25.3979ZM35.8653 16.3008L31.1073 9.03508L26.2845 16.3008H35.8653Z" fill="white"/>
</svg>
