<svg xmlns="http://www.w3.org/2000/svg" width="26" height="26" viewBox="0 0 26 26" fill="none">
<path d="M25.162 13.8127H20.3378V9.19165L23.1816 6.3479C21.3027 3.45337 18.205 1.42212 14.6503 0.965088V3.85962L14.498 3.96118L13.0253 5.48462V5.94165L14.498 7.46509L14.6503 7.56665V9.75024H10.5878V10.8167L11.9589 12.1877H18.7128V16.8596L18.5605 16.9612L15.4628 20.1096V22.7502H11.4003V19.2971L9.77533 17.6721V14.4221L7.54095 12.1877H5.10345L1.59955 8.68384C1.09174 10.0549 0.83783 11.4768 0.83783 13.0002C0.83783 19.7542 6.27142 25.1877 13.0253 25.1877C19.4745 25.1877 24.7558 20.2112 25.162 13.8127ZM23.6386 7.05884L21.1503 9.54712V13.0002H25.2128C25.2128 10.8674 24.6035 8.7854 23.6386 7.05884ZM13.0253 0.812744C8.09955 0.812744 3.8847 3.70728 1.95502 7.87134L5.45892 11.426H7.89642L10.4355 13.9651L10.5878 14.0666V17.3167L12.0605 18.8401L12.2128 18.9417V21.9377H14.6503V19.7542L17.9003 16.5042V13.0002H11.6035L9.77533 11.1721V8.93774H13.8378V7.92212L12.2128 6.29712V5.12915L13.8378 3.50415V0.863525C13.5331 0.863525 13.2792 0.812744 13.0253 0.812744ZM13.0253 26.0002C8.35345 26.0002 4.08783 23.5627 1.75189 19.5002C-0.584045 15.4885 -0.584045 10.5627 1.75189 6.50024C4.08783 2.48853 8.35345 0.000244141 13.0253 0.000244141C17.6464 0.000244141 21.912 2.48853 24.248 6.50024C26.5839 10.5627 26.5839 15.4885 24.248 19.5002C21.912 23.5627 17.6464 26.0002 13.0253 26.0002Z" fill="#44D99A"/>
</svg>