<svg xmlns="http://www.w3.org/2000/svg"  viewBox="0 0 48 42" fill="none">
<path d="M3 1.5V34.5C3 37.0312 4.96875 39 7.5 39H46.5C47.25 39 48 39.75 48 40.5C48 41.3438 47.25 42 46.5 42H7.5C3.28125 42 0 38.7188 0 34.5V1.5C0 0.75 0.65625 0 1.5 0C2.25 0 3 0.75 3 1.5ZM44.5312 11.625L31.0312 25.125C30.4688 25.6875 29.4375 25.6875 28.875 25.125L21 17.1562L11.5312 26.625C10.9688 27.1875 9.9375 27.1875 9.375 26.625C8.8125 26.0625 8.8125 25.0312 9.375 24.4688L19.875 13.9688C20.4375 13.4062 21.4688 13.4062 22.0312 13.9688L30 21.9375L42.375 9.46875C42.9375 8.90625 43.9688 8.90625 44.5312 9.46875C45.0938 10.0312 45.0938 11.0625 44.5312 11.625Z" fill="currentColor"/>
</svg>