<svg xmlns="http://www.w3.org/2000/svg" width="40" height="40" viewBox="0 0 40 40" fill="none">
<path d="M30 16.2505C30 11.4067 27.3438 6.87549 23.125 4.37549C18.8281 1.95361 13.5938 1.95361 9.375 4.37549C5.07812 6.87549 2.5 11.4067 2.5 16.2505C2.5 21.1724 5.07812 25.7036 9.375 28.2036C13.5938 30.6255 18.8281 30.6255 23.125 28.2036C27.3438 25.7036 30 21.1724 30 16.2505ZM26.7969 28.5942C23.9844 31.0942 20.2344 32.5005 16.25 32.5005C7.26562 32.5005 0 25.2349 0 16.2505C0 7.34424 7.26562 0.000488281 16.25 0.000488281C25.1562 0.000488281 32.5 7.34424 32.5 16.2505C32.5 20.313 31.0156 23.9849 28.5938 26.8755L39.8438 38.1255L38.0469 39.9224L26.7969 28.5942Z" fill="#CC821F"/>
</svg>