<svg xmlns="http://www.w3.org/2000/svg" width="26" height="25" viewBox="0 0 26 25" fill="none">
<path d="M14.1586 1.34375L17.2055 7.57812L23.9086 8.5625C24.4711 8.65625 24.9399 9.03125 25.1274 9.59375C25.3149 10.1094 25.1743 10.7188 24.7524 11.0938L19.8774 15.9219L21.0493 22.7656C21.143 23.3281 20.9086 23.8906 20.4399 24.2188C19.9711 24.5938 19.3618 24.5938 18.8461 24.3594L12.8461 21.125L6.79926 24.3594C6.33051 24.5938 5.72113 24.5938 5.25238 24.2188C4.78363 23.8906 4.54926 23.3281 4.64301 22.7656L5.76801 15.9219L0.893005 11.0938C0.518005 10.7188 0.37738 10.1094 0.518005 9.59375C0.705505 9.03125 1.17426 8.65625 1.73676 8.5625L8.48676 7.57812L11.4868 1.34375C11.7211 0.828125 12.2368 0.5 12.8461 0.5C13.4086 0.5 13.9243 0.828125 14.1586 1.34375Z" fill="#CC821F"/>
</svg>