<svg xmlns="http://www.w3.org/2000/svg" width="137" height="96" viewBox="0 0 137 96" fill="none">
<path d="M133.75 15.25C136.75 25.75 136.75 48.25 136.75 48.25C136.75 48.25 136.75 70.5 133.75 81.25C132.25 87.25 127.5 91.75 121.75 93.25C111 96 68.5 96 68.5 96C68.5 96 25.75 96 15 93.25C9.25 91.75 4.5 87.25 3 81.25C0 70.5 0 48.25 0 48.25C0 48.25 0 25.75 3 15.25C4.5 9.25 9.25 4.5 15 3C25.75 0 68.5 0 68.5 0C68.5 0 111 0 121.75 3C127.5 4.5 132.25 9.25 133.75 15.25ZM54.5 68.5L90 48.25L54.5 28V68.5Z" fill="#44D99A"/>
</svg>